%TF.GenerationSoftware,KiCad,Pcbnew,9.0.1*%
%TF.CreationDate,2025-04-21T04:08:05+03:00*%
%TF.ProjectId,k1921vg015_devboard,6b313932-3176-4673-9031-355f64657662,rev?*%
%TF.SameCoordinates,Original*%
%TF.FileFunction,Copper,L2,Inr*%
%TF.FilePolarity,Positive*%
%FSLAX46Y46*%
G04 Gerber Fmt 4.6, Leading zero omitted, Abs format (unit mm)*
G04 Created by KiCad (PCBNEW 9.0.1) date 2025-04-21 04:08:05*
%MOMM*%
%LPD*%
G01*
G04 APERTURE LIST*
%TA.AperFunction,ComponentPad*%
%ADD10R,1.700000X1.700000*%
%TD*%
%TA.AperFunction,ComponentPad*%
%ADD11C,1.700000*%
%TD*%
%TA.AperFunction,ViaPad*%
%ADD12C,2.400000*%
%TD*%
%TA.AperFunction,ViaPad*%
%ADD13C,0.600000*%
%TD*%
G04 APERTURE END LIST*
D10*
%TO.N,/RST*%
%TO.C,J3*%
X5420000Y16080000D03*
D11*
%TO.N,+3V3*%
X2880000Y16080000D03*
%TO.N,/TRST*%
X5420000Y18620000D03*
%TO.N,GND*%
X2880000Y18620000D03*
%TO.N,/TCK*%
X5420000Y21160000D03*
%TO.N,GND*%
X2880000Y21160000D03*
%TO.N,/TDI*%
X5420000Y23700000D03*
%TO.N,GND*%
X2880000Y23700000D03*
%TO.N,/TDO*%
X5420000Y26240000D03*
%TO.N,GND*%
X2880000Y26240000D03*
%TO.N,/TMS*%
X5420000Y28780000D03*
%TO.N,GND*%
X2880000Y28780000D03*
%TD*%
D10*
%TO.N,/WAKEUP0*%
%TO.C,J2*%
X12020000Y29725000D03*
D11*
%TO.N,/WAKEUP1*%
X12020000Y32265000D03*
%TO.N,/WAKEUP2*%
X14560000Y29725000D03*
%TO.N,unconnected-(J2-Pin_4-Pad4)*%
X14560000Y32265000D03*
%TO.N,unconnected-(J2-Pin_5-Pad5)*%
X17100000Y29725000D03*
%TO.N,unconnected-(J2-Pin_6-Pad6)*%
X17100000Y32265000D03*
%TO.N,unconnected-(J2-Pin_7-Pad7)*%
X19640000Y29725000D03*
%TO.N,unconnected-(J2-Pin_8-Pad8)*%
X19640000Y32265000D03*
%TO.N,/PA14*%
X22180000Y29725000D03*
%TO.N,/PA15*%
X22180000Y32265000D03*
%TO.N,/PA12*%
X24720000Y29725000D03*
%TO.N,/PA13*%
X24720000Y32265000D03*
%TO.N,/PA10*%
X27260000Y29725000D03*
%TO.N,/PA11*%
X27260000Y32265000D03*
%TO.N,/PA8*%
X29800000Y29725000D03*
%TO.N,/PA9*%
X29800000Y32265000D03*
%TO.N,/PA6*%
X32340000Y29725000D03*
%TO.N,/PA7*%
X32340000Y32265000D03*
%TO.N,/PA4*%
X34880000Y29725000D03*
%TO.N,/PA5*%
X34880000Y32265000D03*
%TO.N,/PA2*%
X37420000Y29725000D03*
%TO.N,/PA3*%
X37420000Y32265000D03*
%TO.N,/PA0*%
X39960000Y29725000D03*
%TO.N,/PA1*%
X39960000Y32265000D03*
%TO.N,unconnected-(J2-Pin_25-Pad25)*%
X42500000Y29725000D03*
%TO.N,unconnected-(J2-Pin_26-Pad26)*%
X42500000Y32265000D03*
%TO.N,unconnected-(J2-Pin_27-Pad27)*%
X45040000Y29725000D03*
%TO.N,unconnected-(J2-Pin_28-Pad28)*%
X45040000Y32265000D03*
%TO.N,unconnected-(J2-Pin_29-Pad29)*%
X47580000Y29725000D03*
%TO.N,unconnected-(J2-Pin_30-Pad30)*%
X47580000Y32265000D03*
%TO.N,unconnected-(J2-Pin_31-Pad31)*%
X50120000Y29725000D03*
%TO.N,/PB15*%
X50120000Y32265000D03*
%TO.N,/PB14*%
X52660000Y29725000D03*
%TO.N,/PB13*%
X52660000Y32265000D03*
%TO.N,/PB12*%
X55200000Y29725000D03*
%TO.N,/PB11*%
X55200000Y32265000D03*
%TO.N,/PB10*%
X57740000Y29725000D03*
%TO.N,/PB9*%
X57740000Y32265000D03*
%TO.N,/PB8*%
X60280000Y29725000D03*
%TO.N,unconnected-(J2-Pin_40-Pad40)*%
X60280000Y32265000D03*
%TO.N,/PB7*%
X62820000Y29725000D03*
%TO.N,/PB6*%
X62820000Y32265000D03*
%TO.N,/PB5*%
X65360000Y29725000D03*
%TO.N,/PB4*%
X65360000Y32265000D03*
%TO.N,/PB3*%
X67900000Y29725000D03*
%TO.N,/PB2*%
X67900000Y32265000D03*
%TO.N,/PB1*%
X70440000Y29725000D03*
%TO.N,/PB0*%
X70440000Y32265000D03*
%TO.N,unconnected-(J2-Pin_49-Pad49)*%
X72980000Y29725000D03*
%TO.N,unconnected-(J2-Pin_50-Pad50)*%
X72980000Y32265000D03*
%TD*%
D10*
%TO.N,Net-(J4-Pin_1)*%
%TO.C,J4*%
X72700000Y-12025000D03*
D11*
%TO.N,/SERVEN*%
X72700000Y-14565000D03*
%TD*%
D10*
%TO.N,/AT_IN0*%
%TO.C,J1*%
X12020000Y-32275000D03*
D11*
%TO.N,/AT_IN1*%
X12020000Y-29735000D03*
%TO.N,/AT_IN2*%
X14560000Y-32275000D03*
%TO.N,/AT_OUT*%
X14560000Y-29735000D03*
%TO.N,/CMP_INN0*%
X17100000Y-32275000D03*
%TO.N,/CMP_INP0*%
X17100000Y-29735000D03*
%TO.N,/CMP_INN1*%
X19640000Y-32275000D03*
%TO.N,/CMP_INP1*%
X19640000Y-29735000D03*
%TO.N,unconnected-(J1-Pin_9-Pad9)*%
X22180000Y-32275000D03*
%TO.N,unconnected-(J1-Pin_10-Pad10)*%
X22180000Y-29735000D03*
%TO.N,unconnected-(J1-Pin_11-Pad11)*%
X24720000Y-32275000D03*
%TO.N,unconnected-(J1-Pin_12-Pad12)*%
X24720000Y-29735000D03*
%TO.N,unconnected-(J1-Pin_13-Pad13)*%
X27260000Y-32275000D03*
%TO.N,unconnected-(J1-Pin_14-Pad14)*%
X27260000Y-29735000D03*
%TO.N,unconnected-(J1-Pin_15-Pad15)*%
X29800000Y-32275000D03*
%TO.N,unconnected-(J1-Pin_16-Pad16)*%
X29800000Y-29735000D03*
%TO.N,unconnected-(J1-Pin_17-Pad17)*%
X32340000Y-32275000D03*
%TO.N,unconnected-(J1-Pin_18-Pad18)*%
X32340000Y-29735000D03*
%TO.N,unconnected-(J1-Pin_19-Pad19)*%
X34880000Y-32275000D03*
%TO.N,unconnected-(J1-Pin_20-Pad20)*%
X34880000Y-29735000D03*
%TO.N,/ADC_CH0*%
X37420000Y-32275000D03*
%TO.N,/ADC_CH1*%
X37420000Y-29735000D03*
%TO.N,/ADC_CH2*%
X39960000Y-32275000D03*
%TO.N,/ADC_CH3*%
X39960000Y-29735000D03*
%TO.N,unconnected-(J1-Pin_25-Pad25)*%
X42500000Y-32275000D03*
%TO.N,/ADC_CH4*%
X42500000Y-29735000D03*
%TO.N,/ADC_CH6*%
X45040000Y-32275000D03*
%TO.N,/ADC_CH5*%
X45040000Y-29735000D03*
%TO.N,/ADC_CH7*%
X47580000Y-32275000D03*
%TO.N,unconnected-(J1-Pin_30-Pad30)*%
X47580000Y-29735000D03*
%TO.N,unconnected-(J1-Pin_31-Pad31)*%
X50120000Y-32275000D03*
%TO.N,unconnected-(J1-Pin_32-Pad32)*%
X50120000Y-29735000D03*
%TO.N,unconnected-(J1-Pin_33-Pad33)*%
X52660000Y-32275000D03*
%TO.N,/PC0*%
X52660000Y-29735000D03*
%TO.N,/PC1*%
X55200000Y-32275000D03*
%TO.N,/PC2*%
X55200000Y-29735000D03*
%TO.N,/PC3*%
X57740000Y-32275000D03*
%TO.N,/PC4*%
X57740000Y-29735000D03*
%TO.N,/PC5*%
X60280000Y-32275000D03*
%TO.N,/PC6*%
X60280000Y-29735000D03*
%TO.N,/PC7*%
X62820000Y-32275000D03*
%TO.N,/PC8*%
X62820000Y-29735000D03*
%TO.N,/PC9*%
X65360000Y-32275000D03*
%TO.N,/PC10*%
X65360000Y-29735000D03*
%TO.N,/PC11*%
X67900000Y-32275000D03*
%TO.N,/PC12*%
X67900000Y-29735000D03*
%TO.N,/PC13*%
X70440000Y-32275000D03*
%TO.N,/PC14*%
X70440000Y-29735000D03*
%TO.N,/PC15*%
X72980000Y-32275000D03*
%TO.N,unconnected-(J1-Pin_50-Pad50)*%
X72980000Y-29735000D03*
%TD*%
D12*
%TO.N,GND*%
X76500000Y32000000D03*
X76500000Y-32000000D03*
X3000000Y-32000000D03*
X3000000Y32000000D03*
D13*
X6500000Y-9600000D03*
X4000000Y-9575000D03*
X1575000Y-9500000D03*
%TO.N,+3V3*%
X45575000Y-5200000D03*
X34625000Y-9150000D03*
X38175000Y-4300000D03*
%TO.N,GND*%
X34900000Y-6200000D03*
X66400000Y14675000D03*
X53800000Y2650000D03*
%TO.N,+3V3*%
X53800000Y1175000D03*
%TO.N,GND*%
X44250000Y3700000D03*
%TO.N,+3V3*%
X47250000Y3675000D03*
%TO.N,AREF*%
X46475000Y-2650000D03*
%TO.N,GND(A)*%
X39425000Y-750000D03*
%TO.N,GND*%
X43603679Y-5346321D03*
%TO.N,+3V3(A)*%
X44250000Y-2250000D03*
%TO.N,/RST*%
X35650000Y25000D03*
%TO.N,+3V3*%
X37125000Y1750000D03*
%TO.N,/TRST*%
X42050000Y14625000D03*
%TO.N,GND*%
X36275000Y2100000D03*
%TO.N,/RTC_P*%
X32800000Y3575000D03*
%TO.N,/RTC_N*%
X33500000Y4250000D03*
%TO.N,GND*%
X28475000Y8025000D03*
%TO.N,+3V3*%
X43684404Y12190596D03*
%TO.N,GND*%
X45025000Y12200000D03*
%TO.N,/TCK*%
X42050000Y17200000D03*
%TO.N,/TDI*%
X42050000Y19750000D03*
%TO.N,/TDO*%
X42025000Y22225000D03*
%TO.N,/TMS*%
X42050000Y24300000D03*
%TO.N,+3V3*%
X10600000Y25850000D03*
X10550000Y23350000D03*
X10625000Y20750000D03*
%TO.N,GND*%
X10475000Y18175000D03*
X10675000Y15675000D03*
%TO.N,+3V3*%
X10650000Y13075000D03*
X19850000Y8950000D03*
%TO.N,GND*%
X14200000Y8925000D03*
%TO.N,+3V3*%
X53400000Y-16625000D03*
%TO.N,GND*%
X77500000Y-14650000D03*
%TO.N,+3V3*%
X77575000Y-12000000D03*
%TO.N,Net-(D2-V_BAT)*%
X36825000Y-7125000D03*
%TO.N,GND*%
X51025000Y-12600000D03*
%TO.N,Net-(D2-VAON_CAP)*%
X36000000Y-8325000D03*
%TO.N,Net-(D2-VCORE_CAP)*%
X38000000Y-8725000D03*
%TO.N,Net-(D2-SDADC_CAP)*%
X41425000Y-12125000D03*
%TO.N,GND*%
X41450000Y-14225000D03*
X38000000Y-12000000D03*
X36050000Y-10475000D03*
%TO.N,/OSC_P*%
X36550000Y-2525000D03*
%TO.N,/OSC_N*%
X37760300Y-3089700D03*
%TO.N,GND*%
X30116377Y-15733623D03*
X23725000Y-8925000D03*
X16275000Y-900000D03*
%TO.N,5V*%
X13850000Y-1875000D03*
%TO.N,GND*%
X6550000Y2725000D03*
%TO.N,5V*%
X6525000Y1525000D03*
X6550000Y-1550000D03*
%TO.N,GND*%
X6550000Y-2775000D03*
X10875000Y-1800000D03*
X10900000Y1150000D03*
%TO.N,+3V3*%
X20125000Y425000D03*
X13850000Y500000D03*
%TO.N,GND*%
X13850000Y2800000D03*
%TO.N,GND(A)*%
X47250000Y1800000D03*
X43250000Y6675000D03*
%TO.N,Net-(D2-VBAT_CAP)*%
X39575000Y-4625000D03*
%TD*%
%TA.AperFunction,Conductor*%
%TO.N,5V*%
G36*
X12443039Y6980315D02*
G01*
X12488794Y6927511D01*
X12500000Y6876000D01*
X12500000Y-1000000D01*
X14876000Y-1000000D01*
X14943039Y-1019685D01*
X14988794Y-1072489D01*
X15000000Y-1124000D01*
X15000000Y-5376000D01*
X14980315Y-5443039D01*
X14927511Y-5488794D01*
X14876000Y-5500000D01*
X5124000Y-5500000D01*
X5056961Y-5480315D01*
X5011206Y-5427511D01*
X5000000Y-5376000D01*
X5000000Y-2696153D01*
X5749500Y-2696153D01*
X5749500Y-2853846D01*
X5780261Y-3008489D01*
X5780264Y-3008501D01*
X5840602Y-3154172D01*
X5840609Y-3154185D01*
X5928210Y-3285288D01*
X5928213Y-3285292D01*
X6039707Y-3396786D01*
X6039711Y-3396789D01*
X6170814Y-3484390D01*
X6170827Y-3484397D01*
X6316498Y-3544735D01*
X6316503Y-3544737D01*
X6471153Y-3575499D01*
X6471156Y-3575500D01*
X6471158Y-3575500D01*
X6628844Y-3575500D01*
X6628845Y-3575499D01*
X6783497Y-3544737D01*
X6929179Y-3484394D01*
X7060289Y-3396789D01*
X7171789Y-3285289D01*
X7259394Y-3154179D01*
X7319737Y-3008497D01*
X7350500Y-2853842D01*
X7350500Y-2696158D01*
X7350500Y-2696155D01*
X7350499Y-2696153D01*
X7325353Y-2569737D01*
X7319737Y-2541503D01*
X7319735Y-2541498D01*
X7259397Y-2395827D01*
X7259390Y-2395814D01*
X7171789Y-2264711D01*
X7171786Y-2264707D01*
X7060292Y-2153213D01*
X7060288Y-2153210D01*
X6929185Y-2065609D01*
X6929172Y-2065602D01*
X6783501Y-2005264D01*
X6783489Y-2005261D01*
X6628845Y-1974500D01*
X6628842Y-1974500D01*
X6471158Y-1974500D01*
X6471155Y-1974500D01*
X6316510Y-2005261D01*
X6316498Y-2005264D01*
X6170827Y-2065602D01*
X6170814Y-2065609D01*
X6039711Y-2153210D01*
X6039707Y-2153213D01*
X5928213Y-2264707D01*
X5928210Y-2264711D01*
X5840609Y-2395814D01*
X5840602Y-2395827D01*
X5780264Y-2541498D01*
X5780261Y-2541510D01*
X5749500Y-2696153D01*
X5000000Y-2696153D01*
X5000000Y-1721153D01*
X10074500Y-1721153D01*
X10074500Y-1878846D01*
X10105261Y-2033489D01*
X10105264Y-2033501D01*
X10165602Y-2179172D01*
X10165609Y-2179185D01*
X10253210Y-2310288D01*
X10253213Y-2310292D01*
X10364707Y-2421786D01*
X10364711Y-2421789D01*
X10495814Y-2509390D01*
X10495827Y-2509397D01*
X10573356Y-2541510D01*
X10641503Y-2569737D01*
X10796153Y-2600499D01*
X10796156Y-2600500D01*
X10796158Y-2600500D01*
X10953844Y-2600500D01*
X10953845Y-2600499D01*
X11108497Y-2569737D01*
X11254179Y-2509394D01*
X11385289Y-2421789D01*
X11496789Y-2310289D01*
X11584394Y-2179179D01*
X11644737Y-2033497D01*
X11675500Y-1878842D01*
X11675500Y-1721158D01*
X11675500Y-1721155D01*
X11675499Y-1721153D01*
X11644738Y-1566510D01*
X11644737Y-1566503D01*
X11644735Y-1566498D01*
X11584397Y-1420827D01*
X11584390Y-1420814D01*
X11496789Y-1289711D01*
X11496786Y-1289707D01*
X11385292Y-1178213D01*
X11385288Y-1178210D01*
X11254185Y-1090609D01*
X11254172Y-1090602D01*
X11108501Y-1030264D01*
X11108489Y-1030261D01*
X10953845Y-999500D01*
X10953842Y-999500D01*
X10796158Y-999500D01*
X10796155Y-999500D01*
X10641510Y-1030261D01*
X10641498Y-1030264D01*
X10495827Y-1090602D01*
X10495814Y-1090609D01*
X10364711Y-1178210D01*
X10364707Y-1178213D01*
X10253213Y-1289707D01*
X10253210Y-1289711D01*
X10165609Y-1420814D01*
X10165602Y-1420827D01*
X10105264Y-1566498D01*
X10105261Y-1566510D01*
X10074500Y-1721153D01*
X5000000Y-1721153D01*
X5000000Y1228846D01*
X10099500Y1228846D01*
X10099500Y1071153D01*
X10130261Y916510D01*
X10130264Y916498D01*
X10190602Y770827D01*
X10190609Y770814D01*
X10278210Y639711D01*
X10278213Y639707D01*
X10389707Y528213D01*
X10389711Y528210D01*
X10520814Y440609D01*
X10520827Y440602D01*
X10666498Y380264D01*
X10666510Y380261D01*
X10821153Y349500D01*
X10821158Y349500D01*
X10978846Y349500D01*
X11133489Y380261D01*
X11133501Y380264D01*
X11279172Y440602D01*
X11279185Y440609D01*
X11410288Y528210D01*
X11410292Y528213D01*
X11521786Y639707D01*
X11521789Y639711D01*
X11609390Y770814D01*
X11609397Y770827D01*
X11669735Y916498D01*
X11669737Y916503D01*
X11700499Y1071153D01*
X11700500Y1071155D01*
X11700500Y1228844D01*
X11700499Y1228846D01*
X11686246Y1300500D01*
X11669737Y1383497D01*
X11609394Y1529179D01*
X11521789Y1660289D01*
X11410289Y1771789D01*
X11279179Y1859394D01*
X11133497Y1919737D01*
X11056520Y1935048D01*
X10978845Y1950500D01*
X10978842Y1950500D01*
X10821158Y1950500D01*
X10821155Y1950500D01*
X10727858Y1931941D01*
X10666503Y1919737D01*
X10666498Y1919735D01*
X10520827Y1859397D01*
X10520814Y1859390D01*
X10389711Y1771789D01*
X10389707Y1771786D01*
X10278213Y1660292D01*
X10278210Y1660288D01*
X10190609Y1529185D01*
X10190602Y1529172D01*
X10130264Y1383501D01*
X10130261Y1383489D01*
X10099500Y1228846D01*
X5000000Y1228846D01*
X5000000Y2803846D01*
X5749500Y2803846D01*
X5749500Y2646153D01*
X5780261Y2491510D01*
X5780264Y2491498D01*
X5840602Y2345827D01*
X5840609Y2345814D01*
X5928210Y2214711D01*
X5928213Y2214707D01*
X6039707Y2103213D01*
X6039711Y2103210D01*
X6170814Y2015609D01*
X6170827Y2015602D01*
X6316498Y1955264D01*
X6316510Y1955261D01*
X6471153Y1924500D01*
X6471158Y1924500D01*
X6628846Y1924500D01*
X6783489Y1955261D01*
X6783501Y1955264D01*
X6929172Y2015602D01*
X6929185Y2015609D01*
X7060288Y2103210D01*
X7060292Y2103213D01*
X7171786Y2214707D01*
X7171789Y2214711D01*
X7259390Y2345814D01*
X7259397Y2345827D01*
X7319735Y2491498D01*
X7319737Y2491503D01*
X7350499Y2646153D01*
X7350500Y2646155D01*
X7350500Y2803844D01*
X7350499Y2803846D01*
X7335581Y2878842D01*
X7319737Y2958497D01*
X7259394Y3104179D01*
X7171789Y3235289D01*
X7060289Y3346789D01*
X6929179Y3434394D01*
X6783497Y3494737D01*
X6706520Y3510048D01*
X6628845Y3525500D01*
X6628842Y3525500D01*
X6471158Y3525500D01*
X6471155Y3525500D01*
X6390188Y3509394D01*
X6316503Y3494737D01*
X6316498Y3494735D01*
X6170827Y3434397D01*
X6170814Y3434390D01*
X6039711Y3346789D01*
X6039707Y3346786D01*
X5928213Y3235292D01*
X5928210Y3235288D01*
X5840609Y3104185D01*
X5840602Y3104172D01*
X5780264Y2958501D01*
X5780261Y2958489D01*
X5749500Y2803846D01*
X5000000Y2803846D01*
X5000000Y6876000D01*
X5019685Y6943039D01*
X5072489Y6988794D01*
X5124000Y7000000D01*
X12376000Y7000000D01*
X12443039Y6980315D01*
G37*
%TD.AperFunction*%
%TD*%
%TA.AperFunction,Conductor*%
%TO.N,+3V3*%
G36*
X4221447Y17965998D02*
G01*
X4260484Y17920946D01*
X4264949Y17912182D01*
X4389889Y17740215D01*
X4503431Y17626673D01*
X4536915Y17565350D01*
X4531931Y17495658D01*
X4490059Y17439725D01*
X4459082Y17422810D01*
X4327671Y17373797D01*
X4327664Y17373793D01*
X4212455Y17287547D01*
X4212452Y17287544D01*
X4126206Y17172335D01*
X4126202Y17172328D01*
X4075908Y17037482D01*
X4069501Y16977883D01*
X4069501Y16977876D01*
X4069500Y16977864D01*
X4069500Y16967309D01*
X4049815Y16900270D01*
X4033181Y16879628D01*
X3362962Y16209409D01*
X3345925Y16272993D01*
X3280099Y16387007D01*
X3187007Y16480099D01*
X3072993Y16545925D01*
X3009408Y16562962D01*
X3641717Y17195270D01*
X3587555Y17234622D01*
X3578507Y17239232D01*
X3527709Y17287205D01*
X3510912Y17355025D01*
X3533447Y17421161D01*
X3578504Y17460204D01*
X3587817Y17464949D01*
X3759786Y17589890D01*
X3910109Y17740213D01*
X4035050Y17912182D01*
X4039516Y17920946D01*
X4087491Y17971742D01*
X4155312Y17988536D01*
X4221447Y17965998D01*
G37*
%TD.AperFunction*%
%TA.AperFunction,Conductor*%
G36*
X77690859Y33980315D02*
G01*
X77736614Y33927511D01*
X77747817Y33876828D01*
X77750762Y33435963D01*
X77731526Y33368794D01*
X77679029Y33322687D01*
X77609938Y33312282D01*
X77551279Y33336759D01*
X77545845Y33340927D01*
X77446774Y33416948D01*
X77253726Y33528405D01*
X77047781Y33613710D01*
X76832463Y33671404D01*
X76611457Y33700500D01*
X76388543Y33700500D01*
X76167537Y33671404D01*
X75952219Y33613710D01*
X75746274Y33528405D01*
X75553226Y33416948D01*
X75553217Y33416941D01*
X75376377Y33281248D01*
X75376370Y33281242D01*
X75218757Y33123629D01*
X75218751Y33123622D01*
X75096313Y32964056D01*
X75083052Y32946774D01*
X74988734Y32783412D01*
X74971595Y32753726D01*
X74971593Y32753722D01*
X74886293Y32547790D01*
X74886291Y32547783D01*
X74886290Y32547781D01*
X74828596Y32332463D01*
X74828595Y32332457D01*
X74828594Y32332452D01*
X74799501Y32111466D01*
X74799500Y32111450D01*
X74799500Y31888549D01*
X74799501Y31888533D01*
X74828594Y31667547D01*
X74828595Y31667540D01*
X74828596Y31667537D01*
X74846827Y31599499D01*
X74886290Y31452219D01*
X74886293Y31452209D01*
X74971593Y31246277D01*
X74971595Y31246273D01*
X75083052Y31053226D01*
X75083058Y31053217D01*
X75218751Y30876377D01*
X75218757Y30876370D01*
X75376370Y30718757D01*
X75376377Y30718751D01*
X75553217Y30583058D01*
X75553226Y30583052D01*
X75746273Y30471595D01*
X75746277Y30471593D01*
X75952209Y30386293D01*
X75952219Y30386290D01*
X76167537Y30328596D01*
X76167540Y30328595D01*
X76167547Y30328594D01*
X76388533Y30299501D01*
X76388537Y30299500D01*
X76388543Y30299500D01*
X76388550Y30299500D01*
X76611450Y30299500D01*
X76611457Y30299500D01*
X76611463Y30299500D01*
X76611466Y30299501D01*
X76832452Y30328594D01*
X76832457Y30328595D01*
X76832463Y30328596D01*
X77047781Y30386290D01*
X77047783Y30386291D01*
X77047790Y30386293D01*
X77253722Y30471593D01*
X77253726Y30471595D01*
X77446774Y30583052D01*
X77446777Y30583054D01*
X77446783Y30583058D01*
X77570359Y30677881D01*
X77635528Y30703075D01*
X77703973Y30689036D01*
X77753963Y30640222D01*
X77769842Y30580333D01*
X78066590Y-13833071D01*
X78047354Y-13900240D01*
X77994857Y-13946347D01*
X77925766Y-13956752D01*
X77884141Y-13943258D01*
X77879175Y-13940604D01*
X77733501Y-13880264D01*
X77733489Y-13880261D01*
X77578845Y-13849500D01*
X77578842Y-13849500D01*
X77421158Y-13849500D01*
X77421155Y-13849500D01*
X77266510Y-13880261D01*
X77266498Y-13880264D01*
X77120827Y-13940602D01*
X77120814Y-13940609D01*
X76989711Y-14028210D01*
X76989707Y-14028213D01*
X76878213Y-14139707D01*
X76878210Y-14139711D01*
X76790609Y-14270814D01*
X76790602Y-14270827D01*
X76730264Y-14416498D01*
X76730261Y-14416510D01*
X76699500Y-14571153D01*
X76699500Y-14728846D01*
X76730261Y-14883489D01*
X76730264Y-14883501D01*
X76790602Y-15029172D01*
X76790609Y-15029185D01*
X76878210Y-15160288D01*
X76878213Y-15160292D01*
X76989707Y-15271786D01*
X76989711Y-15271789D01*
X77120814Y-15359390D01*
X77120827Y-15359397D01*
X77231849Y-15405383D01*
X77266503Y-15419737D01*
X77421153Y-15450499D01*
X77421156Y-15450500D01*
X77421158Y-15450500D01*
X77578844Y-15450500D01*
X77578845Y-15450499D01*
X77733497Y-15419737D01*
X77879179Y-15359394D01*
X77879184Y-15359390D01*
X77879187Y-15359389D01*
X77884559Y-15355800D01*
X77951236Y-15334921D01*
X78018616Y-15353405D01*
X78065307Y-15405383D01*
X78077448Y-15458073D01*
X78181612Y-31048040D01*
X78162376Y-31115209D01*
X78109879Y-31161316D01*
X78040788Y-31171721D01*
X77977040Y-31143121D01*
X77950228Y-31110869D01*
X77916948Y-31053226D01*
X77824074Y-30932189D01*
X77781248Y-30876377D01*
X77781242Y-30876370D01*
X77623629Y-30718757D01*
X77623622Y-30718751D01*
X77446782Y-30583058D01*
X77446780Y-30583057D01*
X77446774Y-30583052D01*
X77253726Y-30471595D01*
X77253722Y-30471593D01*
X77047790Y-30386293D01*
X77047783Y-30386291D01*
X77047781Y-30386290D01*
X76832463Y-30328596D01*
X76832457Y-30328595D01*
X76832452Y-30328594D01*
X76611466Y-30299501D01*
X76611463Y-30299500D01*
X76611457Y-30299500D01*
X76388543Y-30299500D01*
X76388537Y-30299500D01*
X76388533Y-30299501D01*
X76167547Y-30328594D01*
X76167540Y-30328595D01*
X76167537Y-30328596D01*
X76026215Y-30366463D01*
X75952219Y-30386290D01*
X75952209Y-30386293D01*
X75746277Y-30471593D01*
X75746273Y-30471595D01*
X75553226Y-30583052D01*
X75553217Y-30583058D01*
X75376377Y-30718751D01*
X75376370Y-30718757D01*
X75218757Y-30876370D01*
X75218751Y-30876377D01*
X75083058Y-31053217D01*
X75083052Y-31053226D01*
X74971595Y-31246273D01*
X74971593Y-31246277D01*
X74886293Y-31452209D01*
X74886290Y-31452219D01*
X74846827Y-31599500D01*
X74828597Y-31667534D01*
X74828594Y-31667547D01*
X74799501Y-31888533D01*
X74799500Y-31888549D01*
X74799500Y-32111450D01*
X74799501Y-32111466D01*
X74828594Y-32332452D01*
X74828595Y-32332457D01*
X74828596Y-32332463D01*
X74886290Y-32547780D01*
X74886293Y-32547790D01*
X74964522Y-32736650D01*
X74971595Y-32753726D01*
X75083052Y-32946774D01*
X75083057Y-32946780D01*
X75083058Y-32946782D01*
X75218751Y-33123622D01*
X75218757Y-33123629D01*
X75376370Y-33281242D01*
X75376376Y-33281247D01*
X75553226Y-33416948D01*
X75746274Y-33528405D01*
X75746277Y-33528406D01*
X75746282Y-33528409D01*
X75841169Y-33567712D01*
X75895573Y-33611553D01*
X75917638Y-33677847D01*
X75900359Y-33745546D01*
X75849222Y-33793157D01*
X75794040Y-33806273D01*
X73401559Y-33812512D01*
X73334469Y-33793002D01*
X73288576Y-33740317D01*
X73278453Y-33671185D01*
X73307312Y-33607554D01*
X73362915Y-33570582D01*
X73498412Y-33526557D01*
X73687816Y-33430051D01*
X73774138Y-33367335D01*
X73859786Y-33305109D01*
X73859788Y-33305106D01*
X73859792Y-33305104D01*
X74010104Y-33154792D01*
X74010106Y-33154788D01*
X74010109Y-33154786D01*
X74135048Y-32982820D01*
X74135047Y-32982820D01*
X74135051Y-32982816D01*
X74231557Y-32793412D01*
X74297246Y-32591243D01*
X74330500Y-32381287D01*
X74330500Y-32168713D01*
X74297246Y-31958757D01*
X74231557Y-31756588D01*
X74135051Y-31567184D01*
X74135049Y-31567181D01*
X74135048Y-31567179D01*
X74010109Y-31395213D01*
X73859786Y-31244890D01*
X73687820Y-31119951D01*
X73687115Y-31119591D01*
X73679054Y-31115485D01*
X73628259Y-31067512D01*
X73611463Y-30999692D01*
X73633999Y-30933556D01*
X73679054Y-30894515D01*
X73687816Y-30890051D01*
X73793501Y-30813267D01*
X73859786Y-30765109D01*
X73859788Y-30765106D01*
X73859792Y-30765104D01*
X74010104Y-30614792D01*
X74010106Y-30614788D01*
X74010109Y-30614786D01*
X74135048Y-30442820D01*
X74135047Y-30442820D01*
X74135051Y-30442816D01*
X74231557Y-30253412D01*
X74297246Y-30051243D01*
X74330500Y-29841287D01*
X74330500Y-29628713D01*
X74297246Y-29418757D01*
X74231557Y-29216588D01*
X74135051Y-29027184D01*
X74135049Y-29027181D01*
X74135048Y-29027179D01*
X74010109Y-28855213D01*
X73859786Y-28704890D01*
X73687820Y-28579951D01*
X73498414Y-28483444D01*
X73498413Y-28483443D01*
X73498412Y-28483443D01*
X73296243Y-28417754D01*
X73296241Y-28417753D01*
X73296240Y-28417753D01*
X73134957Y-28392208D01*
X73086287Y-28384500D01*
X72873713Y-28384500D01*
X72825042Y-28392208D01*
X72663760Y-28417753D01*
X72461585Y-28483444D01*
X72272179Y-28579951D01*
X72100213Y-28704890D01*
X71949890Y-28855213D01*
X71824949Y-29027182D01*
X71820484Y-29035946D01*
X71772509Y-29086742D01*
X71704688Y-29103536D01*
X71638553Y-29080998D01*
X71599516Y-29035946D01*
X71595050Y-29027182D01*
X71470109Y-28855213D01*
X71319786Y-28704890D01*
X71147820Y-28579951D01*
X70958414Y-28483444D01*
X70958413Y-28483443D01*
X70958412Y-28483443D01*
X70756243Y-28417754D01*
X70756241Y-28417753D01*
X70756240Y-28417753D01*
X70594957Y-28392208D01*
X70546287Y-28384500D01*
X70333713Y-28384500D01*
X70285042Y-28392208D01*
X70123760Y-28417753D01*
X69921585Y-28483444D01*
X69732179Y-28579951D01*
X69560213Y-28704890D01*
X69409890Y-28855213D01*
X69284949Y-29027182D01*
X69280484Y-29035946D01*
X69232509Y-29086742D01*
X69164688Y-29103536D01*
X69098553Y-29080998D01*
X69059516Y-29035946D01*
X69055050Y-29027182D01*
X68930109Y-28855213D01*
X68779786Y-28704890D01*
X68607820Y-28579951D01*
X68418414Y-28483444D01*
X68418413Y-28483443D01*
X68418412Y-28483443D01*
X68216243Y-28417754D01*
X68216241Y-28417753D01*
X68216240Y-28417753D01*
X68054957Y-28392208D01*
X68006287Y-28384500D01*
X67793713Y-28384500D01*
X67745042Y-28392208D01*
X67583760Y-28417753D01*
X67381585Y-28483444D01*
X67192179Y-28579951D01*
X67020213Y-28704890D01*
X66869890Y-28855213D01*
X66744949Y-29027182D01*
X66740484Y-29035946D01*
X66692509Y-29086742D01*
X66624688Y-29103536D01*
X66558553Y-29080998D01*
X66519516Y-29035946D01*
X66515050Y-29027182D01*
X66390109Y-28855213D01*
X66239786Y-28704890D01*
X66067820Y-28579951D01*
X65878414Y-28483444D01*
X65878413Y-28483443D01*
X65878412Y-28483443D01*
X65676243Y-28417754D01*
X65676241Y-28417753D01*
X65676240Y-28417753D01*
X65514957Y-28392208D01*
X65466287Y-28384500D01*
X65253713Y-28384500D01*
X65205042Y-28392208D01*
X65043760Y-28417753D01*
X64841585Y-28483444D01*
X64652179Y-28579951D01*
X64480213Y-28704890D01*
X64329890Y-28855213D01*
X64204949Y-29027182D01*
X64200484Y-29035946D01*
X64152509Y-29086742D01*
X64084688Y-29103536D01*
X64018553Y-29080998D01*
X63979516Y-29035946D01*
X63975050Y-29027182D01*
X63850109Y-28855213D01*
X63699786Y-28704890D01*
X63527820Y-28579951D01*
X63338414Y-28483444D01*
X63338413Y-28483443D01*
X63338412Y-28483443D01*
X63136243Y-28417754D01*
X63136241Y-28417753D01*
X63136240Y-28417753D01*
X62974957Y-28392208D01*
X62926287Y-28384500D01*
X62713713Y-28384500D01*
X62665042Y-28392208D01*
X62503760Y-28417753D01*
X62301585Y-28483444D01*
X62112179Y-28579951D01*
X61940213Y-28704890D01*
X61789890Y-28855213D01*
X61664949Y-29027182D01*
X61660484Y-29035946D01*
X61612509Y-29086742D01*
X61544688Y-29103536D01*
X61478553Y-29080998D01*
X61439516Y-29035946D01*
X61435050Y-29027182D01*
X61310109Y-28855213D01*
X61159786Y-28704890D01*
X60987820Y-28579951D01*
X60798414Y-28483444D01*
X60798413Y-28483443D01*
X60798412Y-28483443D01*
X60596243Y-28417754D01*
X60596241Y-28417753D01*
X60596240Y-28417753D01*
X60434957Y-28392208D01*
X60386287Y-28384500D01*
X60173713Y-28384500D01*
X60125042Y-28392208D01*
X59963760Y-28417753D01*
X59761585Y-28483444D01*
X59572179Y-28579951D01*
X59400213Y-28704890D01*
X59249890Y-28855213D01*
X59124949Y-29027182D01*
X59120484Y-29035946D01*
X59072509Y-29086742D01*
X59004688Y-29103536D01*
X58938553Y-29080998D01*
X58899516Y-29035946D01*
X58895050Y-29027182D01*
X58770109Y-28855213D01*
X58619786Y-28704890D01*
X58447820Y-28579951D01*
X58258414Y-28483444D01*
X58258413Y-28483443D01*
X58258412Y-28483443D01*
X58056243Y-28417754D01*
X58056241Y-28417753D01*
X58056240Y-28417753D01*
X57894957Y-28392208D01*
X57846287Y-28384500D01*
X57633713Y-28384500D01*
X57585042Y-28392208D01*
X57423760Y-28417753D01*
X57221585Y-28483444D01*
X57032179Y-28579951D01*
X56860213Y-28704890D01*
X56709890Y-28855213D01*
X56584949Y-29027182D01*
X56580484Y-29035946D01*
X56532509Y-29086742D01*
X56464688Y-29103536D01*
X56398553Y-29080998D01*
X56359516Y-29035946D01*
X56355050Y-29027182D01*
X56230109Y-28855213D01*
X56079786Y-28704890D01*
X55907820Y-28579951D01*
X55718414Y-28483444D01*
X55718413Y-28483443D01*
X55718412Y-28483443D01*
X55516243Y-28417754D01*
X55516241Y-28417753D01*
X55516240Y-28417753D01*
X55354957Y-28392208D01*
X55306287Y-28384500D01*
X55093713Y-28384500D01*
X55045042Y-28392208D01*
X54883760Y-28417753D01*
X54681585Y-28483444D01*
X54492179Y-28579951D01*
X54320213Y-28704890D01*
X54169890Y-28855213D01*
X54044949Y-29027182D01*
X54040484Y-29035946D01*
X53992509Y-29086742D01*
X53924688Y-29103536D01*
X53858553Y-29080998D01*
X53819516Y-29035946D01*
X53815050Y-29027182D01*
X53690109Y-28855213D01*
X53539786Y-28704890D01*
X53367820Y-28579951D01*
X53178414Y-28483444D01*
X53178413Y-28483443D01*
X53178412Y-28483443D01*
X52976243Y-28417754D01*
X52976241Y-28417753D01*
X52976240Y-28417753D01*
X52814957Y-28392208D01*
X52766287Y-28384500D01*
X52553713Y-28384500D01*
X52505042Y-28392208D01*
X52343760Y-28417753D01*
X52141585Y-28483444D01*
X51952179Y-28579951D01*
X51780213Y-28704890D01*
X51629890Y-28855213D01*
X51504949Y-29027182D01*
X51500484Y-29035946D01*
X51452509Y-29086742D01*
X51384688Y-29103536D01*
X51318553Y-29080998D01*
X51279516Y-29035946D01*
X51275050Y-29027182D01*
X51150109Y-28855213D01*
X50999786Y-28704890D01*
X50827820Y-28579951D01*
X50638414Y-28483444D01*
X50638413Y-28483443D01*
X50638412Y-28483443D01*
X50436243Y-28417754D01*
X50436241Y-28417753D01*
X50436240Y-28417753D01*
X50274957Y-28392208D01*
X50226287Y-28384500D01*
X50013713Y-28384500D01*
X49965042Y-28392208D01*
X49803760Y-28417753D01*
X49601585Y-28483444D01*
X49412179Y-28579951D01*
X49240213Y-28704890D01*
X49089890Y-28855213D01*
X48964949Y-29027182D01*
X48960484Y-29035946D01*
X48912509Y-29086742D01*
X48844688Y-29103536D01*
X48778553Y-29080998D01*
X48739516Y-29035946D01*
X48735050Y-29027182D01*
X48610109Y-28855213D01*
X48459786Y-28704890D01*
X48287820Y-28579951D01*
X48098414Y-28483444D01*
X48098413Y-28483443D01*
X48098412Y-28483443D01*
X47896243Y-28417754D01*
X47896241Y-28417753D01*
X47896240Y-28417753D01*
X47734957Y-28392208D01*
X47686287Y-28384500D01*
X47473713Y-28384500D01*
X47425042Y-28392208D01*
X47263760Y-28417753D01*
X47061585Y-28483444D01*
X46872179Y-28579951D01*
X46700213Y-28704890D01*
X46549890Y-28855213D01*
X46424949Y-29027182D01*
X46420484Y-29035946D01*
X46372509Y-29086742D01*
X46304688Y-29103536D01*
X46238553Y-29080998D01*
X46199516Y-29035946D01*
X46195050Y-29027182D01*
X46070109Y-28855213D01*
X45919786Y-28704890D01*
X45747820Y-28579951D01*
X45558414Y-28483444D01*
X45558413Y-28483443D01*
X45558412Y-28483443D01*
X45356243Y-28417754D01*
X45356241Y-28417753D01*
X45356240Y-28417753D01*
X45194957Y-28392208D01*
X45146287Y-28384500D01*
X44933713Y-28384500D01*
X44885042Y-28392208D01*
X44723760Y-28417753D01*
X44521585Y-28483444D01*
X44332179Y-28579951D01*
X44160213Y-28704890D01*
X44009890Y-28855213D01*
X43884949Y-29027182D01*
X43880484Y-29035946D01*
X43832509Y-29086742D01*
X43764688Y-29103536D01*
X43698553Y-29080998D01*
X43659516Y-29035946D01*
X43655050Y-29027182D01*
X43530109Y-28855213D01*
X43379786Y-28704890D01*
X43207820Y-28579951D01*
X43018414Y-28483444D01*
X43018413Y-28483443D01*
X43018412Y-28483443D01*
X42816243Y-28417754D01*
X42816241Y-28417753D01*
X42816240Y-28417753D01*
X42654957Y-28392208D01*
X42606287Y-28384500D01*
X42393713Y-28384500D01*
X42345042Y-28392208D01*
X42183760Y-28417753D01*
X41981585Y-28483444D01*
X41792179Y-28579951D01*
X41620213Y-28704890D01*
X41469890Y-28855213D01*
X41344949Y-29027182D01*
X41340484Y-29035946D01*
X41292509Y-29086742D01*
X41224688Y-29103536D01*
X41158553Y-29080998D01*
X41119516Y-29035946D01*
X41115050Y-29027182D01*
X40990109Y-28855213D01*
X40839786Y-28704890D01*
X40667820Y-28579951D01*
X40478414Y-28483444D01*
X40478413Y-28483443D01*
X40478412Y-28483443D01*
X40276243Y-28417754D01*
X40276241Y-28417753D01*
X40276240Y-28417753D01*
X40114957Y-28392208D01*
X40066287Y-28384500D01*
X39853713Y-28384500D01*
X39805042Y-28392208D01*
X39643760Y-28417753D01*
X39441585Y-28483444D01*
X39252179Y-28579951D01*
X39080213Y-28704890D01*
X38929890Y-28855213D01*
X38804949Y-29027182D01*
X38800484Y-29035946D01*
X38752509Y-29086742D01*
X38684688Y-29103536D01*
X38618553Y-29080998D01*
X38579516Y-29035946D01*
X38575050Y-29027182D01*
X38450109Y-28855213D01*
X38299786Y-28704890D01*
X38127820Y-28579951D01*
X37938414Y-28483444D01*
X37938413Y-28483443D01*
X37938412Y-28483443D01*
X37736243Y-28417754D01*
X37736241Y-28417753D01*
X37736240Y-28417753D01*
X37574957Y-28392208D01*
X37526287Y-28384500D01*
X37313713Y-28384500D01*
X37265042Y-28392208D01*
X37103760Y-28417753D01*
X36901585Y-28483444D01*
X36712179Y-28579951D01*
X36540213Y-28704890D01*
X36389890Y-28855213D01*
X36264949Y-29027182D01*
X36260484Y-29035946D01*
X36212509Y-29086742D01*
X36144688Y-29103536D01*
X36078553Y-29080998D01*
X36039516Y-29035946D01*
X36035050Y-29027182D01*
X35910109Y-28855213D01*
X35759786Y-28704890D01*
X35587820Y-28579951D01*
X35398414Y-28483444D01*
X35398413Y-28483443D01*
X35398412Y-28483443D01*
X35196243Y-28417754D01*
X35196241Y-28417753D01*
X35196240Y-28417753D01*
X35034957Y-28392208D01*
X34986287Y-28384500D01*
X34773713Y-28384500D01*
X34725042Y-28392208D01*
X34563760Y-28417753D01*
X34361585Y-28483444D01*
X34172179Y-28579951D01*
X34000213Y-28704890D01*
X33849890Y-28855213D01*
X33724949Y-29027182D01*
X33720484Y-29035946D01*
X33672509Y-29086742D01*
X33604688Y-29103536D01*
X33538553Y-29080998D01*
X33499516Y-29035946D01*
X33495050Y-29027182D01*
X33370109Y-28855213D01*
X33219786Y-28704890D01*
X33047820Y-28579951D01*
X32858414Y-28483444D01*
X32858413Y-28483443D01*
X32858412Y-28483443D01*
X32656243Y-28417754D01*
X32656241Y-28417753D01*
X32656240Y-28417753D01*
X32494957Y-28392208D01*
X32446287Y-28384500D01*
X32233713Y-28384500D01*
X32185042Y-28392208D01*
X32023760Y-28417753D01*
X31821585Y-28483444D01*
X31632179Y-28579951D01*
X31460213Y-28704890D01*
X31309890Y-28855213D01*
X31184949Y-29027182D01*
X31180484Y-29035946D01*
X31132509Y-29086742D01*
X31064688Y-29103536D01*
X30998553Y-29080998D01*
X30959516Y-29035946D01*
X30955050Y-29027182D01*
X30830109Y-28855213D01*
X30679786Y-28704890D01*
X30507820Y-28579951D01*
X30318414Y-28483444D01*
X30318413Y-28483443D01*
X30318412Y-28483443D01*
X30116243Y-28417754D01*
X30116241Y-28417753D01*
X30116240Y-28417753D01*
X29954957Y-28392208D01*
X29906287Y-28384500D01*
X29693713Y-28384500D01*
X29645042Y-28392208D01*
X29483760Y-28417753D01*
X29281585Y-28483444D01*
X29092179Y-28579951D01*
X28920213Y-28704890D01*
X28769890Y-28855213D01*
X28644949Y-29027182D01*
X28640484Y-29035946D01*
X28592509Y-29086742D01*
X28524688Y-29103536D01*
X28458553Y-29080998D01*
X28419516Y-29035946D01*
X28415050Y-29027182D01*
X28290109Y-28855213D01*
X28139786Y-28704890D01*
X27967820Y-28579951D01*
X27778414Y-28483444D01*
X27778413Y-28483443D01*
X27778412Y-28483443D01*
X27576243Y-28417754D01*
X27576241Y-28417753D01*
X27576240Y-28417753D01*
X27414957Y-28392208D01*
X27366287Y-28384500D01*
X27153713Y-28384500D01*
X27105042Y-28392208D01*
X26943760Y-28417753D01*
X26741585Y-28483444D01*
X26552179Y-28579951D01*
X26380213Y-28704890D01*
X26229890Y-28855213D01*
X26104949Y-29027182D01*
X26100484Y-29035946D01*
X26052509Y-29086742D01*
X25984688Y-29103536D01*
X25918553Y-29080998D01*
X25879516Y-29035946D01*
X25875050Y-29027182D01*
X25750109Y-28855213D01*
X25599786Y-28704890D01*
X25427820Y-28579951D01*
X25238414Y-28483444D01*
X25238413Y-28483443D01*
X25238412Y-28483443D01*
X25036243Y-28417754D01*
X25036241Y-28417753D01*
X25036240Y-28417753D01*
X24874957Y-28392208D01*
X24826287Y-28384500D01*
X24613713Y-28384500D01*
X24565042Y-28392208D01*
X24403760Y-28417753D01*
X24201585Y-28483444D01*
X24012179Y-28579951D01*
X23840213Y-28704890D01*
X23689890Y-28855213D01*
X23564949Y-29027182D01*
X23560484Y-29035946D01*
X23512509Y-29086742D01*
X23444688Y-29103536D01*
X23378553Y-29080998D01*
X23339516Y-29035946D01*
X23335050Y-29027182D01*
X23210109Y-28855213D01*
X23059786Y-28704890D01*
X22887820Y-28579951D01*
X22698414Y-28483444D01*
X22698413Y-28483443D01*
X22698412Y-28483443D01*
X22496243Y-28417754D01*
X22496241Y-28417753D01*
X22496240Y-28417753D01*
X22334957Y-28392208D01*
X22286287Y-28384500D01*
X22073713Y-28384500D01*
X22025042Y-28392208D01*
X21863760Y-28417753D01*
X21661585Y-28483444D01*
X21472179Y-28579951D01*
X21300213Y-28704890D01*
X21149890Y-28855213D01*
X21024949Y-29027182D01*
X21020484Y-29035946D01*
X20972509Y-29086742D01*
X20904688Y-29103536D01*
X20838553Y-29080998D01*
X20799516Y-29035946D01*
X20795050Y-29027182D01*
X20670109Y-28855213D01*
X20519786Y-28704890D01*
X20347820Y-28579951D01*
X20158414Y-28483444D01*
X20158413Y-28483443D01*
X20158412Y-28483443D01*
X19956243Y-28417754D01*
X19956241Y-28417753D01*
X19956240Y-28417753D01*
X19794957Y-28392208D01*
X19746287Y-28384500D01*
X19533713Y-28384500D01*
X19485042Y-28392208D01*
X19323760Y-28417753D01*
X19121585Y-28483444D01*
X18932179Y-28579951D01*
X18760213Y-28704890D01*
X18609890Y-28855213D01*
X18484949Y-29027182D01*
X18480484Y-29035946D01*
X18432509Y-29086742D01*
X18364688Y-29103536D01*
X18298553Y-29080998D01*
X18259516Y-29035946D01*
X18255050Y-29027182D01*
X18130109Y-28855213D01*
X17979786Y-28704890D01*
X17807820Y-28579951D01*
X17618414Y-28483444D01*
X17618413Y-28483443D01*
X17618412Y-28483443D01*
X17416243Y-28417754D01*
X17416241Y-28417753D01*
X17416240Y-28417753D01*
X17254957Y-28392208D01*
X17206287Y-28384500D01*
X16993713Y-28384500D01*
X16945042Y-28392208D01*
X16783760Y-28417753D01*
X16581585Y-28483444D01*
X16392179Y-28579951D01*
X16220213Y-28704890D01*
X16069890Y-28855213D01*
X15944949Y-29027182D01*
X15940484Y-29035946D01*
X15892509Y-29086742D01*
X15824688Y-29103536D01*
X15758553Y-29080998D01*
X15719516Y-29035946D01*
X15715050Y-29027182D01*
X15590109Y-28855213D01*
X15439786Y-28704890D01*
X15267820Y-28579951D01*
X15078414Y-28483444D01*
X15078413Y-28483443D01*
X15078412Y-28483443D01*
X14876243Y-28417754D01*
X14876241Y-28417753D01*
X14876240Y-28417753D01*
X14714957Y-28392208D01*
X14666287Y-28384500D01*
X14453713Y-28384500D01*
X14405042Y-28392208D01*
X14243760Y-28417753D01*
X14041585Y-28483444D01*
X13852179Y-28579951D01*
X13680213Y-28704890D01*
X13529890Y-28855213D01*
X13404949Y-29027182D01*
X13400484Y-29035946D01*
X13352509Y-29086742D01*
X13284688Y-29103536D01*
X13218553Y-29080998D01*
X13179516Y-29035946D01*
X13175050Y-29027182D01*
X13050109Y-28855213D01*
X12899786Y-28704890D01*
X12727820Y-28579951D01*
X12538414Y-28483444D01*
X12538413Y-28483443D01*
X12538412Y-28483443D01*
X12336243Y-28417754D01*
X12336241Y-28417753D01*
X12336240Y-28417753D01*
X12174957Y-28392208D01*
X12126287Y-28384500D01*
X11913713Y-28384500D01*
X11865042Y-28392208D01*
X11703760Y-28417753D01*
X11501585Y-28483444D01*
X11312179Y-28579951D01*
X11140213Y-28704890D01*
X10989890Y-28855213D01*
X10864951Y-29027179D01*
X10768444Y-29216585D01*
X10702753Y-29418760D01*
X10669500Y-29628713D01*
X10669500Y-29841286D01*
X10702753Y-30051239D01*
X10768444Y-30253414D01*
X10864951Y-30442820D01*
X10989890Y-30614786D01*
X11103430Y-30728326D01*
X11136915Y-30789649D01*
X11131931Y-30859341D01*
X11090059Y-30915274D01*
X11059083Y-30932189D01*
X10927669Y-30981203D01*
X10927664Y-30981206D01*
X10812455Y-31067452D01*
X10812452Y-31067455D01*
X10726206Y-31182664D01*
X10726202Y-31182671D01*
X10675908Y-31317517D01*
X10669501Y-31377116D01*
X10669500Y-31377135D01*
X10669500Y-33172870D01*
X10669501Y-33172876D01*
X10675908Y-33232483D01*
X10726202Y-33367328D01*
X10726206Y-33367335D01*
X10812452Y-33482544D01*
X10812455Y-33482547D01*
X10927664Y-33568793D01*
X10927671Y-33568797D01*
X11062517Y-33619091D01*
X11062516Y-33619091D01*
X11068181Y-33619700D01*
X11122127Y-33625500D01*
X12917872Y-33625499D01*
X12977483Y-33619091D01*
X13112331Y-33568796D01*
X13227546Y-33482546D01*
X13313796Y-33367331D01*
X13362810Y-33235916D01*
X13404681Y-33179984D01*
X13470145Y-33155566D01*
X13538418Y-33170417D01*
X13566673Y-33191569D01*
X13680213Y-33305109D01*
X13852179Y-33430048D01*
X13852181Y-33430049D01*
X13852184Y-33430051D01*
X14041588Y-33526557D01*
X14243757Y-33592246D01*
X14453713Y-33625500D01*
X14453714Y-33625500D01*
X14666286Y-33625500D01*
X14666287Y-33625500D01*
X14876243Y-33592246D01*
X15078412Y-33526557D01*
X15267816Y-33430051D01*
X15354138Y-33367335D01*
X15439786Y-33305109D01*
X15439788Y-33305106D01*
X15439792Y-33305104D01*
X15590104Y-33154792D01*
X15590106Y-33154788D01*
X15590109Y-33154786D01*
X15715048Y-32982820D01*
X15715047Y-32982820D01*
X15715051Y-32982816D01*
X15719514Y-32974054D01*
X15767488Y-32923259D01*
X15835308Y-32906463D01*
X15901444Y-32928999D01*
X15940486Y-32974056D01*
X15944951Y-32982820D01*
X16069890Y-33154786D01*
X16220213Y-33305109D01*
X16392179Y-33430048D01*
X16392181Y-33430049D01*
X16392184Y-33430051D01*
X16581588Y-33526557D01*
X16783757Y-33592246D01*
X16993713Y-33625500D01*
X16993714Y-33625500D01*
X17206286Y-33625500D01*
X17206287Y-33625500D01*
X17416243Y-33592246D01*
X17618412Y-33526557D01*
X17807816Y-33430051D01*
X17894138Y-33367335D01*
X17979786Y-33305109D01*
X17979788Y-33305106D01*
X17979792Y-33305104D01*
X18130104Y-33154792D01*
X18130106Y-33154788D01*
X18130109Y-33154786D01*
X18255048Y-32982820D01*
X18255047Y-32982820D01*
X18255051Y-32982816D01*
X18259514Y-32974054D01*
X18307488Y-32923259D01*
X18375308Y-32906463D01*
X18441444Y-32928999D01*
X18480486Y-32974056D01*
X18484951Y-32982820D01*
X18609890Y-33154786D01*
X18760213Y-33305109D01*
X18932179Y-33430048D01*
X18932181Y-33430049D01*
X18932184Y-33430051D01*
X19121588Y-33526557D01*
X19323757Y-33592246D01*
X19533713Y-33625500D01*
X19533714Y-33625500D01*
X19746286Y-33625500D01*
X19746287Y-33625500D01*
X19956243Y-33592246D01*
X20158412Y-33526557D01*
X20347816Y-33430051D01*
X20434138Y-33367335D01*
X20519786Y-33305109D01*
X20519788Y-33305106D01*
X20519792Y-33305104D01*
X20670104Y-33154792D01*
X20670106Y-33154788D01*
X20670109Y-33154786D01*
X20795048Y-32982820D01*
X20795047Y-32982820D01*
X20795051Y-32982816D01*
X20799514Y-32974054D01*
X20847488Y-32923259D01*
X20915308Y-32906463D01*
X20981444Y-32928999D01*
X21020486Y-32974056D01*
X21024951Y-32982820D01*
X21149890Y-33154786D01*
X21300213Y-33305109D01*
X21472179Y-33430048D01*
X21472181Y-33430049D01*
X21472184Y-33430051D01*
X21661588Y-33526557D01*
X21863757Y-33592246D01*
X22073713Y-33625500D01*
X22073714Y-33625500D01*
X22286286Y-33625500D01*
X22286287Y-33625500D01*
X22496243Y-33592246D01*
X22698412Y-33526557D01*
X22887816Y-33430051D01*
X22974138Y-33367335D01*
X23059786Y-33305109D01*
X23059788Y-33305106D01*
X23059792Y-33305104D01*
X23210104Y-33154792D01*
X23210106Y-33154788D01*
X23210109Y-33154786D01*
X23335048Y-32982820D01*
X23335047Y-32982820D01*
X23335051Y-32982816D01*
X23339514Y-32974054D01*
X23387488Y-32923259D01*
X23455308Y-32906463D01*
X23521444Y-32928999D01*
X23560486Y-32974056D01*
X23564951Y-32982820D01*
X23689890Y-33154786D01*
X23840213Y-33305109D01*
X24012179Y-33430048D01*
X24012181Y-33430049D01*
X24012184Y-33430051D01*
X24201588Y-33526557D01*
X24403757Y-33592246D01*
X24613713Y-33625500D01*
X24613714Y-33625500D01*
X24826286Y-33625500D01*
X24826287Y-33625500D01*
X25036243Y-33592246D01*
X25238412Y-33526557D01*
X25427816Y-33430051D01*
X25514138Y-33367335D01*
X25599786Y-33305109D01*
X25599788Y-33305106D01*
X25599792Y-33305104D01*
X25750104Y-33154792D01*
X25750106Y-33154788D01*
X25750109Y-33154786D01*
X25875048Y-32982820D01*
X25875047Y-32982820D01*
X25875051Y-32982816D01*
X25879514Y-32974054D01*
X25927488Y-32923259D01*
X25995308Y-32906463D01*
X26061444Y-32928999D01*
X26100486Y-32974056D01*
X26104951Y-32982820D01*
X26229890Y-33154786D01*
X26380213Y-33305109D01*
X26552179Y-33430048D01*
X26552181Y-33430049D01*
X26552184Y-33430051D01*
X26741588Y-33526557D01*
X26943757Y-33592246D01*
X27153713Y-33625500D01*
X27153714Y-33625500D01*
X27366286Y-33625500D01*
X27366287Y-33625500D01*
X27576243Y-33592246D01*
X27778412Y-33526557D01*
X27967816Y-33430051D01*
X28054138Y-33367335D01*
X28139786Y-33305109D01*
X28139788Y-33305106D01*
X28139792Y-33305104D01*
X28290104Y-33154792D01*
X28290106Y-33154788D01*
X28290109Y-33154786D01*
X28415048Y-32982820D01*
X28415047Y-32982820D01*
X28415051Y-32982816D01*
X28419514Y-32974054D01*
X28467488Y-32923259D01*
X28535308Y-32906463D01*
X28601444Y-32928999D01*
X28640486Y-32974056D01*
X28644951Y-32982820D01*
X28769890Y-33154786D01*
X28920213Y-33305109D01*
X29092179Y-33430048D01*
X29092181Y-33430049D01*
X29092184Y-33430051D01*
X29281588Y-33526557D01*
X29483757Y-33592246D01*
X29693713Y-33625500D01*
X29693714Y-33625500D01*
X29906286Y-33625500D01*
X29906287Y-33625500D01*
X30116243Y-33592246D01*
X30318412Y-33526557D01*
X30507816Y-33430051D01*
X30594138Y-33367335D01*
X30679786Y-33305109D01*
X30679788Y-33305106D01*
X30679792Y-33305104D01*
X30830104Y-33154792D01*
X30830106Y-33154788D01*
X30830109Y-33154786D01*
X30955048Y-32982820D01*
X30955047Y-32982820D01*
X30955051Y-32982816D01*
X30959514Y-32974054D01*
X31007488Y-32923259D01*
X31075308Y-32906463D01*
X31141444Y-32928999D01*
X31180486Y-32974056D01*
X31184951Y-32982820D01*
X31309890Y-33154786D01*
X31460213Y-33305109D01*
X31632179Y-33430048D01*
X31632181Y-33430049D01*
X31632184Y-33430051D01*
X31821588Y-33526557D01*
X32023757Y-33592246D01*
X32233713Y-33625500D01*
X32233714Y-33625500D01*
X32446286Y-33625500D01*
X32446287Y-33625500D01*
X32656243Y-33592246D01*
X32858412Y-33526557D01*
X33047816Y-33430051D01*
X33134138Y-33367335D01*
X33219786Y-33305109D01*
X33219788Y-33305106D01*
X33219792Y-33305104D01*
X33370104Y-33154792D01*
X33370106Y-33154788D01*
X33370109Y-33154786D01*
X33495048Y-32982820D01*
X33495047Y-32982820D01*
X33495051Y-32982816D01*
X33499514Y-32974054D01*
X33547488Y-32923259D01*
X33615308Y-32906463D01*
X33681444Y-32928999D01*
X33720486Y-32974056D01*
X33724951Y-32982820D01*
X33849890Y-33154786D01*
X34000213Y-33305109D01*
X34172179Y-33430048D01*
X34172181Y-33430049D01*
X34172184Y-33430051D01*
X34361588Y-33526557D01*
X34563757Y-33592246D01*
X34773713Y-33625500D01*
X34773714Y-33625500D01*
X34986286Y-33625500D01*
X34986287Y-33625500D01*
X35196243Y-33592246D01*
X35398412Y-33526557D01*
X35587816Y-33430051D01*
X35674138Y-33367335D01*
X35759786Y-33305109D01*
X35759788Y-33305106D01*
X35759792Y-33305104D01*
X35910104Y-33154792D01*
X35910106Y-33154788D01*
X35910109Y-33154786D01*
X36035048Y-32982820D01*
X36035047Y-32982820D01*
X36035051Y-32982816D01*
X36039514Y-32974054D01*
X36087488Y-32923259D01*
X36155308Y-32906463D01*
X36221444Y-32928999D01*
X36260486Y-32974056D01*
X36264951Y-32982820D01*
X36389890Y-33154786D01*
X36540213Y-33305109D01*
X36712179Y-33430048D01*
X36712181Y-33430049D01*
X36712184Y-33430051D01*
X36901588Y-33526557D01*
X37103757Y-33592246D01*
X37313713Y-33625500D01*
X37313714Y-33625500D01*
X37526286Y-33625500D01*
X37526287Y-33625500D01*
X37736243Y-33592246D01*
X37938412Y-33526557D01*
X38127816Y-33430051D01*
X38214138Y-33367335D01*
X38299786Y-33305109D01*
X38299788Y-33305106D01*
X38299792Y-33305104D01*
X38450104Y-33154792D01*
X38450106Y-33154788D01*
X38450109Y-33154786D01*
X38575048Y-32982820D01*
X38575047Y-32982820D01*
X38575051Y-32982816D01*
X38579514Y-32974054D01*
X38627488Y-32923259D01*
X38695308Y-32906463D01*
X38761444Y-32928999D01*
X38800486Y-32974056D01*
X38804951Y-32982820D01*
X38929890Y-33154786D01*
X39080213Y-33305109D01*
X39252179Y-33430048D01*
X39252181Y-33430049D01*
X39252184Y-33430051D01*
X39441588Y-33526557D01*
X39643757Y-33592246D01*
X39853713Y-33625500D01*
X39853714Y-33625500D01*
X40066286Y-33625500D01*
X40066287Y-33625500D01*
X40276243Y-33592246D01*
X40478412Y-33526557D01*
X40667816Y-33430051D01*
X40754138Y-33367335D01*
X40839786Y-33305109D01*
X40839788Y-33305106D01*
X40839792Y-33305104D01*
X40990104Y-33154792D01*
X40990106Y-33154788D01*
X40990109Y-33154786D01*
X41115048Y-32982820D01*
X41115047Y-32982820D01*
X41115051Y-32982816D01*
X41119514Y-32974054D01*
X41167488Y-32923259D01*
X41235308Y-32906463D01*
X41301444Y-32928999D01*
X41340486Y-32974056D01*
X41344951Y-32982820D01*
X41469890Y-33154786D01*
X41620213Y-33305109D01*
X41792179Y-33430048D01*
X41792181Y-33430049D01*
X41792184Y-33430051D01*
X41981588Y-33526557D01*
X42183757Y-33592246D01*
X42393713Y-33625500D01*
X42393714Y-33625500D01*
X42606286Y-33625500D01*
X42606287Y-33625500D01*
X42816243Y-33592246D01*
X43018412Y-33526557D01*
X43207816Y-33430051D01*
X43294138Y-33367335D01*
X43379786Y-33305109D01*
X43379788Y-33305106D01*
X43379792Y-33305104D01*
X43530104Y-33154792D01*
X43530106Y-33154788D01*
X43530109Y-33154786D01*
X43655048Y-32982820D01*
X43655047Y-32982820D01*
X43655051Y-32982816D01*
X43659514Y-32974054D01*
X43707488Y-32923259D01*
X43775308Y-32906463D01*
X43841444Y-32928999D01*
X43880486Y-32974056D01*
X43884951Y-32982820D01*
X44009890Y-33154786D01*
X44160213Y-33305109D01*
X44332179Y-33430048D01*
X44332181Y-33430049D01*
X44332184Y-33430051D01*
X44521588Y-33526557D01*
X44723757Y-33592246D01*
X44933713Y-33625500D01*
X44933714Y-33625500D01*
X45146286Y-33625500D01*
X45146287Y-33625500D01*
X45356243Y-33592246D01*
X45558412Y-33526557D01*
X45747816Y-33430051D01*
X45834138Y-33367335D01*
X45919786Y-33305109D01*
X45919788Y-33305106D01*
X45919792Y-33305104D01*
X46070104Y-33154792D01*
X46070106Y-33154788D01*
X46070109Y-33154786D01*
X46195048Y-32982820D01*
X46195047Y-32982820D01*
X46195051Y-32982816D01*
X46199514Y-32974054D01*
X46247488Y-32923259D01*
X46315308Y-32906463D01*
X46381444Y-32928999D01*
X46420486Y-32974056D01*
X46424951Y-32982820D01*
X46549890Y-33154786D01*
X46700213Y-33305109D01*
X46872179Y-33430048D01*
X46872181Y-33430049D01*
X46872184Y-33430051D01*
X47061588Y-33526557D01*
X47263757Y-33592246D01*
X47473713Y-33625500D01*
X47473714Y-33625500D01*
X47686286Y-33625500D01*
X47686287Y-33625500D01*
X47896243Y-33592246D01*
X48098412Y-33526557D01*
X48287816Y-33430051D01*
X48374138Y-33367335D01*
X48459786Y-33305109D01*
X48459788Y-33305106D01*
X48459792Y-33305104D01*
X48610104Y-33154792D01*
X48610106Y-33154788D01*
X48610109Y-33154786D01*
X48735048Y-32982820D01*
X48735047Y-32982820D01*
X48735051Y-32982816D01*
X48739514Y-32974054D01*
X48787488Y-32923259D01*
X48855308Y-32906463D01*
X48921444Y-32928999D01*
X48960486Y-32974056D01*
X48964951Y-32982820D01*
X49089890Y-33154786D01*
X49240213Y-33305109D01*
X49412179Y-33430048D01*
X49412181Y-33430049D01*
X49412184Y-33430051D01*
X49601588Y-33526557D01*
X49803757Y-33592246D01*
X50013713Y-33625500D01*
X50226287Y-33625500D01*
X50436243Y-33592246D01*
X50638412Y-33526557D01*
X50827816Y-33430051D01*
X50914138Y-33367335D01*
X50999786Y-33305109D01*
X50999788Y-33305106D01*
X50999792Y-33305104D01*
X51150104Y-33154792D01*
X51150106Y-33154788D01*
X51150109Y-33154786D01*
X51275048Y-32982820D01*
X51275047Y-32982820D01*
X51275051Y-32982816D01*
X51279514Y-32974054D01*
X51327488Y-32923259D01*
X51395308Y-32906463D01*
X51461444Y-32928999D01*
X51500486Y-32974056D01*
X51504951Y-32982820D01*
X51629890Y-33154786D01*
X51780213Y-33305109D01*
X51952179Y-33430048D01*
X51952181Y-33430049D01*
X51952184Y-33430051D01*
X52141588Y-33526557D01*
X52343757Y-33592246D01*
X52343760Y-33592246D01*
X52343761Y-33592247D01*
X52389531Y-33599496D01*
X52522353Y-33620533D01*
X52585486Y-33650461D01*
X52622418Y-33709772D01*
X52621420Y-33779635D01*
X52582811Y-33837868D01*
X52518847Y-33865982D01*
X52503277Y-33867005D01*
X50238972Y-33872910D01*
X50012748Y-33873500D01*
X1624323Y-33999675D01*
X1557233Y-33980165D01*
X1511340Y-33927480D01*
X1500000Y-33875675D01*
X1500000Y-33203644D01*
X1519685Y-33136605D01*
X1572489Y-33090850D01*
X1641647Y-33080906D01*
X1705203Y-33109931D01*
X1717234Y-33121892D01*
X1718757Y-33123629D01*
X1876370Y-33281242D01*
X1876376Y-33281247D01*
X2053226Y-33416948D01*
X2246274Y-33528405D01*
X2343787Y-33568796D01*
X2447011Y-33611553D01*
X2452219Y-33613710D01*
X2667537Y-33671404D01*
X2888543Y-33700500D01*
X2888550Y-33700500D01*
X3111450Y-33700500D01*
X3111457Y-33700500D01*
X3332463Y-33671404D01*
X3547781Y-33613710D01*
X3753726Y-33528405D01*
X3946774Y-33416948D01*
X4123624Y-33281247D01*
X4281247Y-33123624D01*
X4416948Y-32946774D01*
X4528405Y-32753726D01*
X4613710Y-32547781D01*
X4671404Y-32332463D01*
X4700500Y-32111457D01*
X4700500Y-31888543D01*
X4671404Y-31667537D01*
X4613710Y-31452219D01*
X4528405Y-31246274D01*
X4416948Y-31053226D01*
X4324074Y-30932189D01*
X4281248Y-30876377D01*
X4281242Y-30876370D01*
X4123629Y-30718757D01*
X4123622Y-30718751D01*
X3946782Y-30583058D01*
X3946780Y-30583057D01*
X3946774Y-30583052D01*
X3753726Y-30471595D01*
X3753722Y-30471593D01*
X3547790Y-30386293D01*
X3547783Y-30386291D01*
X3547781Y-30386290D01*
X3332463Y-30328596D01*
X3332457Y-30328595D01*
X3332452Y-30328594D01*
X3111466Y-30299501D01*
X3111463Y-30299500D01*
X3111457Y-30299500D01*
X2888543Y-30299500D01*
X2888537Y-30299500D01*
X2888533Y-30299501D01*
X2667547Y-30328594D01*
X2667540Y-30328595D01*
X2667537Y-30328596D01*
X2526215Y-30366463D01*
X2452219Y-30386290D01*
X2452209Y-30386293D01*
X2246277Y-30471593D01*
X2246273Y-30471595D01*
X2053226Y-30583052D01*
X2053217Y-30583058D01*
X1876377Y-30718751D01*
X1876370Y-30718757D01*
X1718751Y-30876376D01*
X1717225Y-30878117D01*
X1716639Y-30878488D01*
X1715882Y-30879246D01*
X1715712Y-30879076D01*
X1658222Y-30915539D01*
X1588354Y-30915121D01*
X1529803Y-30876996D01*
X1501159Y-30813267D01*
X1500000Y-30796355D01*
X1500000Y-15654776D01*
X29315877Y-15654776D01*
X29315877Y-15812469D01*
X29346638Y-15967112D01*
X29346641Y-15967124D01*
X29406979Y-16112795D01*
X29406986Y-16112808D01*
X29494587Y-16243911D01*
X29494590Y-16243915D01*
X29606084Y-16355409D01*
X29606088Y-16355412D01*
X29737191Y-16443013D01*
X29737204Y-16443020D01*
X29882875Y-16503358D01*
X29882880Y-16503360D01*
X30037530Y-16534122D01*
X30037533Y-16534123D01*
X30037535Y-16534123D01*
X30195221Y-16534123D01*
X30195222Y-16534122D01*
X30349874Y-16503360D01*
X30495556Y-16443017D01*
X30626666Y-16355412D01*
X30738166Y-16243912D01*
X30825771Y-16112802D01*
X30886114Y-15967120D01*
X30916877Y-15812465D01*
X30916877Y-15654781D01*
X30916877Y-15654778D01*
X30916876Y-15654776D01*
X30886115Y-15500133D01*
X30886114Y-15500126D01*
X30868695Y-15458073D01*
X30825774Y-15354450D01*
X30825767Y-15354437D01*
X30738166Y-15223334D01*
X30738163Y-15223330D01*
X30626669Y-15111836D01*
X30626665Y-15111833D01*
X30495562Y-15024232D01*
X30495549Y-15024225D01*
X30349878Y-14963887D01*
X30349866Y-14963884D01*
X30195222Y-14933123D01*
X30195219Y-14933123D01*
X30037535Y-14933123D01*
X30037532Y-14933123D01*
X29882887Y-14963884D01*
X29882875Y-14963887D01*
X29737204Y-15024225D01*
X29737191Y-15024232D01*
X29606088Y-15111833D01*
X29606084Y-15111836D01*
X29494590Y-15223330D01*
X29494587Y-15223334D01*
X29406986Y-15354437D01*
X29406979Y-15354450D01*
X29346641Y-15500121D01*
X29346638Y-15500133D01*
X29315877Y-15654776D01*
X1500000Y-15654776D01*
X1500000Y-14146153D01*
X40649500Y-14146153D01*
X40649500Y-14303846D01*
X40680261Y-14458489D01*
X40680264Y-14458501D01*
X40740602Y-14604172D01*
X40740609Y-14604185D01*
X40828210Y-14735288D01*
X40828213Y-14735292D01*
X40939707Y-14846786D01*
X40939711Y-14846789D01*
X41070814Y-14934390D01*
X41070827Y-14934397D01*
X41216498Y-14994735D01*
X41216503Y-14994737D01*
X41364748Y-15024225D01*
X41371153Y-15025499D01*
X41371156Y-15025500D01*
X41371158Y-15025500D01*
X41528844Y-15025500D01*
X41528845Y-15025499D01*
X41683497Y-14994737D01*
X41829179Y-14934394D01*
X41960289Y-14846789D01*
X42071789Y-14735289D01*
X42159394Y-14604179D01*
X42219737Y-14458497D01*
X42250500Y-14303842D01*
X42250500Y-14146158D01*
X42250500Y-14146155D01*
X42250499Y-14146153D01*
X42230694Y-14046588D01*
X42219737Y-13991503D01*
X42201033Y-13946347D01*
X42159397Y-13845827D01*
X42159390Y-13845814D01*
X42071789Y-13714711D01*
X42071786Y-13714707D01*
X41960292Y-13603213D01*
X41960288Y-13603210D01*
X41829185Y-13515609D01*
X41829172Y-13515602D01*
X41683501Y-13455264D01*
X41683489Y-13455261D01*
X41528845Y-13424500D01*
X41528842Y-13424500D01*
X41371158Y-13424500D01*
X41371155Y-13424500D01*
X41216510Y-13455261D01*
X41216498Y-13455264D01*
X41070827Y-13515602D01*
X41070814Y-13515609D01*
X40939711Y-13603210D01*
X40939707Y-13603213D01*
X40828213Y-13714707D01*
X40828210Y-13714711D01*
X40740609Y-13845814D01*
X40740602Y-13845827D01*
X40680264Y-13991498D01*
X40680261Y-13991510D01*
X40649500Y-14146153D01*
X1500000Y-14146153D01*
X1500000Y-11921153D01*
X37199500Y-11921153D01*
X37199500Y-12078846D01*
X37230261Y-12233489D01*
X37230264Y-12233501D01*
X37290602Y-12379172D01*
X37290609Y-12379185D01*
X37378210Y-12510288D01*
X37378213Y-12510292D01*
X37489707Y-12621786D01*
X37489711Y-12621789D01*
X37620814Y-12709390D01*
X37620827Y-12709397D01*
X37711101Y-12746789D01*
X37766503Y-12769737D01*
X37921153Y-12800499D01*
X37921156Y-12800500D01*
X37921158Y-12800500D01*
X38078844Y-12800500D01*
X38078845Y-12800499D01*
X38233497Y-12769737D01*
X38379179Y-12709394D01*
X38510289Y-12621789D01*
X38621789Y-12510289D01*
X38709394Y-12379179D01*
X38769737Y-12233497D01*
X38800500Y-12078842D01*
X38800500Y-12046153D01*
X40624500Y-12046153D01*
X40624500Y-12203846D01*
X40655261Y-12358489D01*
X40655264Y-12358501D01*
X40715602Y-12504172D01*
X40715609Y-12504185D01*
X40803210Y-12635288D01*
X40803213Y-12635292D01*
X40914707Y-12746786D01*
X40914711Y-12746789D01*
X41045814Y-12834390D01*
X41045827Y-12834397D01*
X41191498Y-12894735D01*
X41191503Y-12894737D01*
X41333002Y-12922883D01*
X41346153Y-12925499D01*
X41346156Y-12925500D01*
X41346158Y-12925500D01*
X41503844Y-12925500D01*
X41503845Y-12925499D01*
X41658497Y-12894737D01*
X41804179Y-12834394D01*
X41935289Y-12746789D01*
X42046789Y-12635289D01*
X42123052Y-12521153D01*
X50224500Y-12521153D01*
X50224500Y-12678846D01*
X50255261Y-12833489D01*
X50255264Y-12833501D01*
X50315602Y-12979172D01*
X50315609Y-12979185D01*
X50403210Y-13110288D01*
X50403213Y-13110292D01*
X50514707Y-13221786D01*
X50514711Y-13221789D01*
X50645814Y-13309390D01*
X50645827Y-13309397D01*
X50786851Y-13367810D01*
X50791503Y-13369737D01*
X50946153Y-13400499D01*
X50946156Y-13400500D01*
X50946158Y-13400500D01*
X51103844Y-13400500D01*
X51103845Y-13400499D01*
X51258497Y-13369737D01*
X51404179Y-13309394D01*
X51535289Y-13221789D01*
X51646789Y-13110289D01*
X51734394Y-12979179D01*
X51794737Y-12833497D01*
X51825500Y-12678842D01*
X51825500Y-12521158D01*
X51825500Y-12521155D01*
X51825499Y-12521153D01*
X51814849Y-12467614D01*
X51794737Y-12366503D01*
X51794735Y-12366498D01*
X51734397Y-12220827D01*
X51734390Y-12220814D01*
X51646789Y-12089711D01*
X51646786Y-12089707D01*
X51535292Y-11978213D01*
X51535288Y-11978210D01*
X51404185Y-11890609D01*
X51404172Y-11890602D01*
X51258501Y-11830264D01*
X51258489Y-11830261D01*
X51103845Y-11799500D01*
X51103842Y-11799500D01*
X50946158Y-11799500D01*
X50946155Y-11799500D01*
X50791510Y-11830261D01*
X50791498Y-11830264D01*
X50645827Y-11890602D01*
X50645814Y-11890609D01*
X50514711Y-11978210D01*
X50514707Y-11978213D01*
X50403213Y-12089707D01*
X50403210Y-12089711D01*
X50315609Y-12220814D01*
X50315602Y-12220827D01*
X50255264Y-12366498D01*
X50255261Y-12366510D01*
X50224500Y-12521153D01*
X42123052Y-12521153D01*
X42134394Y-12504179D01*
X42194737Y-12358497D01*
X42225500Y-12203842D01*
X42225500Y-12046158D01*
X42225500Y-12046155D01*
X42225499Y-12046153D01*
X42211984Y-11978210D01*
X42194737Y-11891503D01*
X42194367Y-11890609D01*
X42134397Y-11745827D01*
X42134390Y-11745814D01*
X42046789Y-11614711D01*
X42046786Y-11614707D01*
X41935292Y-11503213D01*
X41935288Y-11503210D01*
X41804185Y-11415609D01*
X41804172Y-11415602D01*
X41658501Y-11355264D01*
X41658489Y-11355261D01*
X41503845Y-11324500D01*
X41503842Y-11324500D01*
X41346158Y-11324500D01*
X41346155Y-11324500D01*
X41191510Y-11355261D01*
X41191498Y-11355264D01*
X41045827Y-11415602D01*
X41045814Y-11415609D01*
X40914711Y-11503210D01*
X40914707Y-11503213D01*
X40803213Y-11614707D01*
X40803210Y-11614711D01*
X40715609Y-11745814D01*
X40715602Y-11745827D01*
X40655264Y-11891498D01*
X40655261Y-11891510D01*
X40624500Y-12046153D01*
X38800500Y-12046153D01*
X38800500Y-11921158D01*
X38800500Y-11921155D01*
X38800499Y-11921153D01*
X38782419Y-11830261D01*
X38769737Y-11766503D01*
X38761170Y-11745821D01*
X38709397Y-11620827D01*
X38709390Y-11620814D01*
X38621789Y-11489711D01*
X38621786Y-11489707D01*
X38510292Y-11378213D01*
X38510288Y-11378210D01*
X38379185Y-11290609D01*
X38379172Y-11290602D01*
X38253067Y-11238368D01*
X38253064Y-11238368D01*
X38233497Y-11230263D01*
X38233492Y-11230262D01*
X38233489Y-11230261D01*
X38078845Y-11199500D01*
X38078842Y-11199500D01*
X37921158Y-11199500D01*
X37921155Y-11199500D01*
X37766510Y-11230261D01*
X37766498Y-11230264D01*
X37620827Y-11290602D01*
X37620814Y-11290609D01*
X37489711Y-11378210D01*
X37489707Y-11378213D01*
X37378213Y-11489707D01*
X37378210Y-11489711D01*
X37290609Y-11620814D01*
X37290602Y-11620827D01*
X37230264Y-11766498D01*
X37230261Y-11766510D01*
X37199500Y-11921153D01*
X1500000Y-11921153D01*
X1500000Y-11624000D01*
X1519685Y-11556961D01*
X1572489Y-11511206D01*
X1624000Y-11500000D01*
X15500000Y-11500000D01*
X15500000Y-10396153D01*
X35249500Y-10396153D01*
X35249500Y-10553846D01*
X35280261Y-10708489D01*
X35280264Y-10708501D01*
X35340602Y-10854172D01*
X35340609Y-10854185D01*
X35428210Y-10985288D01*
X35428213Y-10985292D01*
X35539707Y-11096786D01*
X35539711Y-11096789D01*
X35670814Y-11184390D01*
X35670827Y-11184397D01*
X35816498Y-11244735D01*
X35816503Y-11244737D01*
X35971153Y-11275499D01*
X35971156Y-11275500D01*
X35971158Y-11275500D01*
X36128844Y-11275500D01*
X36128845Y-11275499D01*
X36283497Y-11244737D01*
X36429179Y-11184394D01*
X36514873Y-11127135D01*
X71349500Y-11127135D01*
X71349500Y-12922870D01*
X71349501Y-12922876D01*
X71355908Y-12982483D01*
X71406202Y-13117328D01*
X71406206Y-13117335D01*
X71492452Y-13232544D01*
X71492455Y-13232547D01*
X71607664Y-13318793D01*
X71607671Y-13318797D01*
X71739082Y-13367810D01*
X71795016Y-13409681D01*
X71819433Y-13475145D01*
X71804582Y-13543418D01*
X71783431Y-13571673D01*
X71669889Y-13685215D01*
X71544951Y-13857179D01*
X71448444Y-14046585D01*
X71382753Y-14248760D01*
X71349500Y-14458713D01*
X71349500Y-14671286D01*
X71377296Y-14846786D01*
X71382754Y-14881243D01*
X71430823Y-15029185D01*
X71448444Y-15083414D01*
X71544951Y-15272820D01*
X71669890Y-15444786D01*
X71820213Y-15595109D01*
X71992179Y-15720048D01*
X71992181Y-15720049D01*
X71992184Y-15720051D01*
X72181588Y-15816557D01*
X72383757Y-15882246D01*
X72593713Y-15915500D01*
X72593714Y-15915500D01*
X72806286Y-15915500D01*
X72806287Y-15915500D01*
X73016243Y-15882246D01*
X73218412Y-15816557D01*
X73407816Y-15720051D01*
X73497653Y-15654781D01*
X73579786Y-15595109D01*
X73579788Y-15595106D01*
X73579792Y-15595104D01*
X73730104Y-15444792D01*
X73730106Y-15444788D01*
X73730109Y-15444786D01*
X73855048Y-15272820D01*
X73855047Y-15272820D01*
X73855051Y-15272816D01*
X73951557Y-15083412D01*
X74017246Y-14881243D01*
X74050500Y-14671287D01*
X74050500Y-14458713D01*
X74017246Y-14248757D01*
X73951557Y-14046588D01*
X73855051Y-13857184D01*
X73855049Y-13857181D01*
X73855048Y-13857179D01*
X73730109Y-13685213D01*
X73616569Y-13571673D01*
X73583084Y-13510350D01*
X73588068Y-13440658D01*
X73629940Y-13384725D01*
X73660915Y-13367810D01*
X73792331Y-13318796D01*
X73907546Y-13232546D01*
X73993796Y-13117331D01*
X74044091Y-12982483D01*
X74050500Y-12922873D01*
X74050499Y-11127128D01*
X74044091Y-11067517D01*
X73993796Y-10932669D01*
X73993795Y-10932668D01*
X73993793Y-10932664D01*
X73907547Y-10817455D01*
X73907544Y-10817452D01*
X73792335Y-10731206D01*
X73792328Y-10731202D01*
X73657482Y-10680908D01*
X73657483Y-10680908D01*
X73597883Y-10674501D01*
X73597881Y-10674500D01*
X73597873Y-10674500D01*
X73597864Y-10674500D01*
X71802129Y-10674500D01*
X71802123Y-10674501D01*
X71742516Y-10680908D01*
X71607671Y-10731202D01*
X71607664Y-10731206D01*
X71492455Y-10817452D01*
X71492452Y-10817455D01*
X71406206Y-10932664D01*
X71406202Y-10932671D01*
X71355908Y-11067517D01*
X71349501Y-11127116D01*
X71349501Y-11127123D01*
X71349500Y-11127135D01*
X36514873Y-11127135D01*
X36560289Y-11096789D01*
X36671789Y-10985289D01*
X36759394Y-10854179D01*
X36819737Y-10708497D01*
X36850500Y-10553842D01*
X36850500Y-10396158D01*
X36850500Y-10396155D01*
X36850499Y-10396153D01*
X36846391Y-10375500D01*
X36819737Y-10241503D01*
X36801216Y-10196789D01*
X36759397Y-10095827D01*
X36759390Y-10095814D01*
X36671789Y-9964711D01*
X36671786Y-9964707D01*
X36560292Y-9853213D01*
X36560288Y-9853210D01*
X36429185Y-9765609D01*
X36429172Y-9765602D01*
X36283501Y-9705264D01*
X36283489Y-9705261D01*
X36128845Y-9674500D01*
X36128842Y-9674500D01*
X35971158Y-9674500D01*
X35971155Y-9674500D01*
X35816510Y-9705261D01*
X35816498Y-9705264D01*
X35670827Y-9765602D01*
X35670814Y-9765609D01*
X35539711Y-9853210D01*
X35539707Y-9853213D01*
X35428213Y-9964707D01*
X35428210Y-9964711D01*
X35340609Y-10095814D01*
X35340602Y-10095827D01*
X35280264Y-10241498D01*
X35280261Y-10241510D01*
X35249500Y-10396153D01*
X15500000Y-10396153D01*
X15500000Y-8846153D01*
X22924500Y-8846153D01*
X22924500Y-9003846D01*
X22955261Y-9158489D01*
X22955264Y-9158501D01*
X23015602Y-9304172D01*
X23015609Y-9304185D01*
X23103210Y-9435288D01*
X23103213Y-9435292D01*
X23214707Y-9546786D01*
X23214711Y-9546789D01*
X23345814Y-9634390D01*
X23345827Y-9634397D01*
X23491498Y-9694735D01*
X23491503Y-9694737D01*
X23646153Y-9725499D01*
X23646156Y-9725500D01*
X23646158Y-9725500D01*
X23803844Y-9725500D01*
X23803845Y-9725499D01*
X23958497Y-9694737D01*
X24104179Y-9634394D01*
X24235289Y-9546789D01*
X24346789Y-9435289D01*
X24434394Y-9304179D01*
X24494737Y-9158497D01*
X24525500Y-9003842D01*
X24525500Y-8846158D01*
X24525500Y-8846155D01*
X24525499Y-8846153D01*
X24517365Y-8805263D01*
X24494737Y-8691503D01*
X24475955Y-8646158D01*
X24434397Y-8545827D01*
X24434390Y-8545814D01*
X24346789Y-8414711D01*
X24346786Y-8414707D01*
X24235292Y-8303213D01*
X24235288Y-8303210D01*
X24149897Y-8246153D01*
X35199500Y-8246153D01*
X35199500Y-8403846D01*
X35230261Y-8558489D01*
X35230264Y-8558501D01*
X35290602Y-8704172D01*
X35290609Y-8704185D01*
X35378210Y-8835288D01*
X35378213Y-8835292D01*
X35489707Y-8946786D01*
X35489711Y-8946789D01*
X35620814Y-9034390D01*
X35620827Y-9034397D01*
X35694013Y-9064711D01*
X35766503Y-9094737D01*
X35921153Y-9125499D01*
X35921156Y-9125500D01*
X35921158Y-9125500D01*
X36078844Y-9125500D01*
X36078845Y-9125499D01*
X36233497Y-9094737D01*
X36379179Y-9034394D01*
X36510289Y-8946789D01*
X36621789Y-8835289D01*
X36709394Y-8704179D01*
X36733429Y-8646153D01*
X37199500Y-8646153D01*
X37199500Y-8803846D01*
X37230261Y-8958489D01*
X37230264Y-8958501D01*
X37290602Y-9104172D01*
X37290609Y-9104185D01*
X37378210Y-9235288D01*
X37378213Y-9235292D01*
X37489707Y-9346786D01*
X37489711Y-9346789D01*
X37620814Y-9434390D01*
X37620827Y-9434397D01*
X37766498Y-9494735D01*
X37766503Y-9494737D01*
X37921153Y-9525499D01*
X37921156Y-9525500D01*
X37921158Y-9525500D01*
X38078844Y-9525500D01*
X38078845Y-9525499D01*
X38233497Y-9494737D01*
X38379179Y-9434394D01*
X38510289Y-9346789D01*
X38621789Y-9235289D01*
X38709394Y-9104179D01*
X38769737Y-8958497D01*
X38800500Y-8803842D01*
X38800500Y-8646158D01*
X38800500Y-8646155D01*
X38800499Y-8646153D01*
X38780543Y-8545827D01*
X38769737Y-8491503D01*
X38737929Y-8414711D01*
X38709397Y-8345827D01*
X38709390Y-8345814D01*
X38621789Y-8214711D01*
X38621786Y-8214707D01*
X38510292Y-8103213D01*
X38510288Y-8103210D01*
X38379185Y-8015609D01*
X38379172Y-8015602D01*
X38233501Y-7955264D01*
X38233489Y-7955261D01*
X38078845Y-7924500D01*
X38078842Y-7924500D01*
X37921158Y-7924500D01*
X37921155Y-7924500D01*
X37766510Y-7955261D01*
X37766498Y-7955264D01*
X37620827Y-8015602D01*
X37620814Y-8015609D01*
X37489711Y-8103210D01*
X37489707Y-8103213D01*
X37378213Y-8214707D01*
X37378210Y-8214711D01*
X37290609Y-8345814D01*
X37290602Y-8345827D01*
X37230264Y-8491498D01*
X37230261Y-8491510D01*
X37199500Y-8646153D01*
X36733429Y-8646153D01*
X36755603Y-8592621D01*
X36755605Y-8592614D01*
X36769737Y-8558497D01*
X36800500Y-8403842D01*
X36800500Y-8246158D01*
X36800500Y-8246155D01*
X36800499Y-8246153D01*
X36782419Y-8155261D01*
X36769737Y-8091503D01*
X36769732Y-8091492D01*
X36767969Y-8085676D01*
X36770720Y-8084841D01*
X36764497Y-8027641D01*
X36795691Y-7965122D01*
X36855734Y-7929392D01*
X36886555Y-7925500D01*
X36903844Y-7925500D01*
X36903845Y-7925499D01*
X37058497Y-7894737D01*
X37204179Y-7834394D01*
X37335289Y-7746789D01*
X37446789Y-7635289D01*
X37534394Y-7504179D01*
X37594737Y-7358497D01*
X37625500Y-7203842D01*
X37625500Y-7046158D01*
X37625500Y-7046155D01*
X37625499Y-7046153D01*
X37598296Y-6909397D01*
X37594737Y-6891503D01*
X37565861Y-6821789D01*
X37534397Y-6745827D01*
X37534390Y-6745814D01*
X37446789Y-6614711D01*
X37446786Y-6614707D01*
X37335292Y-6503213D01*
X37335288Y-6503210D01*
X37204185Y-6415609D01*
X37204172Y-6415602D01*
X37058501Y-6355264D01*
X37058489Y-6355261D01*
X36903845Y-6324500D01*
X36903842Y-6324500D01*
X36746158Y-6324500D01*
X36746155Y-6324500D01*
X36591510Y-6355261D01*
X36591498Y-6355264D01*
X36445827Y-6415602D01*
X36445814Y-6415609D01*
X36314711Y-6503210D01*
X36314707Y-6503213D01*
X36203213Y-6614707D01*
X36203210Y-6614711D01*
X36115609Y-6745814D01*
X36115602Y-6745827D01*
X36055264Y-6891498D01*
X36055261Y-6891510D01*
X36024500Y-7046153D01*
X36024500Y-7203846D01*
X36055261Y-7358489D01*
X36057031Y-7364324D01*
X36054279Y-7365158D01*
X36060503Y-7422359D01*
X36029309Y-7484878D01*
X35969266Y-7520608D01*
X35938445Y-7524500D01*
X35921155Y-7524500D01*
X35766510Y-7555261D01*
X35766498Y-7555264D01*
X35620827Y-7615602D01*
X35620814Y-7615609D01*
X35489711Y-7703210D01*
X35489707Y-7703213D01*
X35378213Y-7814707D01*
X35378210Y-7814711D01*
X35290609Y-7945814D01*
X35290602Y-7945827D01*
X35230264Y-8091498D01*
X35230261Y-8091510D01*
X35199500Y-8246153D01*
X24149897Y-8246153D01*
X24104185Y-8215609D01*
X24104172Y-8215602D01*
X23958501Y-8155264D01*
X23958489Y-8155261D01*
X23803845Y-8124500D01*
X23803842Y-8124500D01*
X23646158Y-8124500D01*
X23646155Y-8124500D01*
X23491510Y-8155261D01*
X23491498Y-8155264D01*
X23345827Y-8215602D01*
X23345814Y-8215609D01*
X23214711Y-8303210D01*
X23214707Y-8303213D01*
X23103213Y-8414707D01*
X23103210Y-8414711D01*
X23015609Y-8545814D01*
X23015602Y-8545827D01*
X22955264Y-8691498D01*
X22955261Y-8691510D01*
X22924500Y-8846153D01*
X15500000Y-8846153D01*
X15500000Y-6121153D01*
X34099500Y-6121153D01*
X34099500Y-6278846D01*
X34130261Y-6433489D01*
X34130264Y-6433501D01*
X34190602Y-6579172D01*
X34190609Y-6579185D01*
X34278210Y-6710288D01*
X34278213Y-6710292D01*
X34389707Y-6821786D01*
X34389711Y-6821789D01*
X34520814Y-6909390D01*
X34520827Y-6909397D01*
X34666498Y-6969735D01*
X34666503Y-6969737D01*
X34821153Y-7000499D01*
X34821156Y-7000500D01*
X34821158Y-7000500D01*
X34978844Y-7000500D01*
X34978845Y-7000499D01*
X35133497Y-6969737D01*
X35279179Y-6909394D01*
X35410289Y-6821789D01*
X35521789Y-6710289D01*
X35609394Y-6579179D01*
X35669737Y-6433497D01*
X35700500Y-6278842D01*
X35700500Y-6121158D01*
X35700500Y-6121155D01*
X35700499Y-6121153D01*
X35687482Y-6055711D01*
X35669737Y-5966503D01*
X35669735Y-5966498D01*
X35609397Y-5820827D01*
X35609390Y-5820814D01*
X35521789Y-5689711D01*
X35521786Y-5689707D01*
X35410292Y-5578213D01*
X35410288Y-5578210D01*
X35279185Y-5490609D01*
X35279172Y-5490602D01*
X35133501Y-5430264D01*
X35133489Y-5430261D01*
X34978845Y-5399500D01*
X34978842Y-5399500D01*
X34821158Y-5399500D01*
X34821155Y-5399500D01*
X34666510Y-5430261D01*
X34666498Y-5430264D01*
X34520827Y-5490602D01*
X34520814Y-5490609D01*
X34389711Y-5578210D01*
X34389707Y-5578213D01*
X34278213Y-5689707D01*
X34278210Y-5689711D01*
X34190609Y-5820814D01*
X34190602Y-5820827D01*
X34130264Y-5966498D01*
X34130261Y-5966510D01*
X34099500Y-6121153D01*
X15500000Y-6121153D01*
X15500000Y-4546153D01*
X38774500Y-4546153D01*
X38774500Y-4703846D01*
X38805261Y-4858489D01*
X38805264Y-4858501D01*
X38865602Y-5004172D01*
X38865609Y-5004185D01*
X38953210Y-5135288D01*
X38953213Y-5135292D01*
X39064707Y-5246786D01*
X39064711Y-5246789D01*
X39195814Y-5334390D01*
X39195827Y-5334397D01*
X39341498Y-5394735D01*
X39341503Y-5394737D01*
X39494464Y-5425163D01*
X39496153Y-5425499D01*
X39496156Y-5425500D01*
X39496158Y-5425500D01*
X39653844Y-5425500D01*
X39653845Y-5425499D01*
X39808497Y-5394737D01*
X39954179Y-5334394D01*
X40054332Y-5267474D01*
X42803179Y-5267474D01*
X42803179Y-5425167D01*
X42833940Y-5579810D01*
X42833943Y-5579822D01*
X42894281Y-5725493D01*
X42894288Y-5725506D01*
X42981889Y-5856609D01*
X42981892Y-5856613D01*
X43093386Y-5968107D01*
X43093390Y-5968110D01*
X43224493Y-6055711D01*
X43224506Y-6055718D01*
X43370177Y-6116056D01*
X43370182Y-6116058D01*
X43524832Y-6146820D01*
X43524835Y-6146821D01*
X43524837Y-6146821D01*
X43682523Y-6146821D01*
X43682524Y-6146820D01*
X43837176Y-6116058D01*
X43982858Y-6055715D01*
X44113968Y-5968110D01*
X44225468Y-5856610D01*
X44313073Y-5725500D01*
X44373416Y-5579818D01*
X44404179Y-5425163D01*
X44404179Y-5267479D01*
X44404179Y-5267476D01*
X44404178Y-5267474D01*
X44377885Y-5135292D01*
X44373416Y-5112824D01*
X44328417Y-5004185D01*
X44313076Y-4967148D01*
X44313069Y-4967135D01*
X44225468Y-4836032D01*
X44225465Y-4836028D01*
X44113971Y-4724534D01*
X44113967Y-4724531D01*
X43982864Y-4636930D01*
X43982851Y-4636923D01*
X43837180Y-4576585D01*
X43837168Y-4576582D01*
X43682524Y-4545821D01*
X43682521Y-4545821D01*
X43524837Y-4545821D01*
X43524834Y-4545821D01*
X43370189Y-4576582D01*
X43370177Y-4576585D01*
X43224506Y-4636923D01*
X43224493Y-4636930D01*
X43093390Y-4724531D01*
X43093386Y-4724534D01*
X42981892Y-4836028D01*
X42981889Y-4836032D01*
X42894288Y-4967135D01*
X42894281Y-4967148D01*
X42833943Y-5112819D01*
X42833940Y-5112831D01*
X42803179Y-5267474D01*
X40054332Y-5267474D01*
X40085289Y-5246789D01*
X40085292Y-5246786D01*
X40158373Y-5173706D01*
X40196786Y-5135292D01*
X40196789Y-5135289D01*
X40284394Y-5004179D01*
X40344737Y-4858497D01*
X40375500Y-4703842D01*
X40375500Y-4546158D01*
X40375500Y-4546155D01*
X40375499Y-4546153D01*
X40344738Y-4391510D01*
X40344737Y-4391503D01*
X40344735Y-4391498D01*
X40284397Y-4245827D01*
X40284390Y-4245814D01*
X40196789Y-4114711D01*
X40196786Y-4114707D01*
X40085292Y-4003213D01*
X40085288Y-4003210D01*
X39954185Y-3915609D01*
X39954172Y-3915602D01*
X39808501Y-3855264D01*
X39808489Y-3855261D01*
X39653845Y-3824500D01*
X39653842Y-3824500D01*
X39496158Y-3824500D01*
X39496155Y-3824500D01*
X39341510Y-3855261D01*
X39341498Y-3855264D01*
X39195827Y-3915602D01*
X39195814Y-3915609D01*
X39064711Y-4003210D01*
X39064707Y-4003213D01*
X38953213Y-4114707D01*
X38953210Y-4114711D01*
X38865609Y-4245814D01*
X38865602Y-4245827D01*
X38805264Y-4391498D01*
X38805261Y-4391510D01*
X38774500Y-4546153D01*
X15500000Y-4546153D01*
X15500000Y-2446153D01*
X35749500Y-2446153D01*
X35749500Y-2603846D01*
X35780261Y-2758489D01*
X35780264Y-2758501D01*
X35840602Y-2904172D01*
X35840609Y-2904185D01*
X35928210Y-3035288D01*
X35928213Y-3035292D01*
X36039707Y-3146786D01*
X36039711Y-3146789D01*
X36170814Y-3234390D01*
X36170827Y-3234397D01*
X36293693Y-3285289D01*
X36316503Y-3294737D01*
X36459540Y-3323189D01*
X36471153Y-3325499D01*
X36471156Y-3325500D01*
X36471158Y-3325500D01*
X36628844Y-3325500D01*
X36628845Y-3325499D01*
X36783497Y-3294737D01*
X36835615Y-3273148D01*
X36905083Y-3265679D01*
X36967563Y-3296953D01*
X36997629Y-3340257D01*
X37050902Y-3468872D01*
X37050909Y-3468885D01*
X37138510Y-3599988D01*
X37138513Y-3599992D01*
X37250007Y-3711486D01*
X37250011Y-3711489D01*
X37381114Y-3799090D01*
X37381127Y-3799097D01*
X37516721Y-3855261D01*
X37526803Y-3859437D01*
X37681453Y-3890199D01*
X37681456Y-3890200D01*
X37681458Y-3890200D01*
X37839144Y-3890200D01*
X37839145Y-3890199D01*
X37993797Y-3859437D01*
X38139479Y-3799094D01*
X38270589Y-3711489D01*
X38382089Y-3599989D01*
X38469694Y-3468879D01*
X38530037Y-3323197D01*
X38560800Y-3168542D01*
X38560800Y-3010858D01*
X38560800Y-3010855D01*
X38560799Y-3010853D01*
X38539580Y-2904179D01*
X38530037Y-2856203D01*
X38490310Y-2760292D01*
X38469697Y-2710527D01*
X38469690Y-2710514D01*
X38382089Y-2579411D01*
X38382086Y-2579407D01*
X38270592Y-2467913D01*
X38270588Y-2467910D01*
X38139485Y-2380309D01*
X38139472Y-2380302D01*
X37993801Y-2319964D01*
X37993789Y-2319961D01*
X37839145Y-2289200D01*
X37839142Y-2289200D01*
X37681458Y-2289200D01*
X37681455Y-2289200D01*
X37526810Y-2319961D01*
X37526798Y-2319964D01*
X37474683Y-2341551D01*
X37465683Y-2342518D01*
X37457896Y-2347139D01*
X37431485Y-2346195D01*
X37405213Y-2349020D01*
X37397116Y-2344967D01*
X37388071Y-2344644D01*
X37366367Y-2329574D01*
X37342734Y-2317744D01*
X37336595Y-2308903D01*
X37330679Y-2304795D01*
X37312672Y-2274448D01*
X37287019Y-2212514D01*
X37269887Y-2171153D01*
X43449500Y-2171153D01*
X43449500Y-2328846D01*
X43480261Y-2483489D01*
X43480264Y-2483501D01*
X43540602Y-2629172D01*
X43540609Y-2629185D01*
X43628210Y-2760288D01*
X43628213Y-2760292D01*
X43739707Y-2871786D01*
X43739711Y-2871789D01*
X43870814Y-2959390D01*
X43870827Y-2959397D01*
X43995067Y-3010858D01*
X44016503Y-3019737D01*
X44171153Y-3050499D01*
X44171156Y-3050500D01*
X44171158Y-3050500D01*
X44328844Y-3050500D01*
X44328845Y-3050499D01*
X44483497Y-3019737D01*
X44629179Y-2959394D01*
X44760289Y-2871789D01*
X44871789Y-2760289D01*
X44959394Y-2629179D01*
X44971273Y-2600500D01*
X44983429Y-2571153D01*
X45674500Y-2571153D01*
X45674500Y-2728846D01*
X45705261Y-2883489D01*
X45705264Y-2883501D01*
X45765602Y-3029172D01*
X45765609Y-3029185D01*
X45853210Y-3160288D01*
X45853213Y-3160292D01*
X45964707Y-3271786D01*
X45964711Y-3271789D01*
X46095814Y-3359390D01*
X46095827Y-3359397D01*
X46186101Y-3396789D01*
X46241503Y-3419737D01*
X46396153Y-3450499D01*
X46396156Y-3450500D01*
X46396158Y-3450500D01*
X46553844Y-3450500D01*
X46553845Y-3450499D01*
X46708497Y-3419737D01*
X46854179Y-3359394D01*
X46985289Y-3271789D01*
X47096789Y-3160289D01*
X47184394Y-3029179D01*
X47244737Y-2883497D01*
X47275500Y-2728842D01*
X47275500Y-2571158D01*
X47275500Y-2571155D01*
X47275499Y-2571153D01*
X47254963Y-2467913D01*
X47244737Y-2416503D01*
X47215106Y-2344967D01*
X47184397Y-2270827D01*
X47184390Y-2270814D01*
X47096789Y-2139711D01*
X47096786Y-2139707D01*
X46985292Y-2028213D01*
X46985288Y-2028210D01*
X46854185Y-1940609D01*
X46854172Y-1940602D01*
X46708501Y-1880264D01*
X46708489Y-1880261D01*
X46553845Y-1849500D01*
X46553842Y-1849500D01*
X46396158Y-1849500D01*
X46396155Y-1849500D01*
X46241510Y-1880261D01*
X46241498Y-1880264D01*
X46095827Y-1940602D01*
X46095814Y-1940609D01*
X45964711Y-2028210D01*
X45964707Y-2028213D01*
X45853213Y-2139707D01*
X45853210Y-2139711D01*
X45765609Y-2270814D01*
X45765602Y-2270827D01*
X45705264Y-2416498D01*
X45705261Y-2416510D01*
X45674500Y-2571153D01*
X44983429Y-2571153D01*
X45005603Y-2517621D01*
X45005605Y-2517614D01*
X45019737Y-2483497D01*
X45050500Y-2328842D01*
X45050500Y-2171158D01*
X45050500Y-2171155D01*
X45050499Y-2171153D01*
X45038036Y-2108497D01*
X45019737Y-2016503D01*
X44988298Y-1940602D01*
X44959397Y-1870827D01*
X44959390Y-1870814D01*
X44871789Y-1739711D01*
X44871786Y-1739707D01*
X44760292Y-1628213D01*
X44760288Y-1628210D01*
X44629185Y-1540609D01*
X44629172Y-1540602D01*
X44483501Y-1480264D01*
X44483489Y-1480261D01*
X44328845Y-1449500D01*
X44328842Y-1449500D01*
X44171158Y-1449500D01*
X44171155Y-1449500D01*
X44016510Y-1480261D01*
X44016498Y-1480264D01*
X43870827Y-1540602D01*
X43870814Y-1540609D01*
X43739711Y-1628210D01*
X43739707Y-1628213D01*
X43628213Y-1739707D01*
X43628210Y-1739711D01*
X43540609Y-1870814D01*
X43540602Y-1870827D01*
X43480264Y-2016498D01*
X43480261Y-2016510D01*
X43449500Y-2171153D01*
X37269887Y-2171153D01*
X37259397Y-2145827D01*
X37259390Y-2145814D01*
X37171789Y-2014711D01*
X37171786Y-2014707D01*
X37060292Y-1903213D01*
X37060288Y-1903210D01*
X36929185Y-1815609D01*
X36929172Y-1815602D01*
X36783501Y-1755264D01*
X36783489Y-1755261D01*
X36628845Y-1724500D01*
X36628842Y-1724500D01*
X36471158Y-1724500D01*
X36471155Y-1724500D01*
X36316510Y-1755261D01*
X36316498Y-1755264D01*
X36170827Y-1815602D01*
X36170814Y-1815609D01*
X36039711Y-1903210D01*
X36039707Y-1903213D01*
X35928213Y-2014707D01*
X35928210Y-2014711D01*
X35840609Y-2145814D01*
X35840602Y-2145827D01*
X35780264Y-2291498D01*
X35780261Y-2291510D01*
X35749500Y-2446153D01*
X15500000Y-2446153D01*
X15500000Y-1556441D01*
X15519685Y-1489402D01*
X15572489Y-1443647D01*
X15641647Y-1433703D01*
X15705203Y-1462728D01*
X15711681Y-1468760D01*
X15764707Y-1521786D01*
X15764711Y-1521789D01*
X15895814Y-1609390D01*
X15895827Y-1609397D01*
X16041498Y-1669735D01*
X16041503Y-1669737D01*
X16196153Y-1700499D01*
X16196156Y-1700500D01*
X16196158Y-1700500D01*
X16353844Y-1700500D01*
X16353845Y-1700499D01*
X16508497Y-1669737D01*
X16654179Y-1609394D01*
X16785289Y-1521789D01*
X16896789Y-1410289D01*
X16984394Y-1279179D01*
X17044737Y-1133497D01*
X17075500Y-978842D01*
X17075500Y-821158D01*
X17075500Y-821155D01*
X17075499Y-821153D01*
X17048296Y-684397D01*
X17044737Y-666503D01*
X17015861Y-596789D01*
X16984397Y-520827D01*
X16984390Y-520814D01*
X16896789Y-389711D01*
X16896786Y-389707D01*
X16785292Y-278213D01*
X16785288Y-278210D01*
X16654185Y-190609D01*
X16654172Y-190602D01*
X16508501Y-130264D01*
X16508489Y-130261D01*
X16353845Y-99500D01*
X16353842Y-99500D01*
X16196158Y-99500D01*
X16196155Y-99500D01*
X16041510Y-130261D01*
X16041498Y-130264D01*
X15895827Y-190602D01*
X15895814Y-190609D01*
X15764711Y-278210D01*
X15764707Y-278213D01*
X15711681Y-331240D01*
X15650358Y-364725D01*
X15580666Y-359741D01*
X15524733Y-317869D01*
X15500316Y-252405D01*
X15500000Y-243559D01*
X15500000Y0D01*
X13124000Y0D01*
X13056961Y19685D01*
X13011206Y72489D01*
X13004384Y103846D01*
X34849500Y103846D01*
X34849500Y-53846D01*
X34880261Y-208489D01*
X34880264Y-208501D01*
X34940602Y-354172D01*
X34940609Y-354185D01*
X35028210Y-485288D01*
X35028213Y-485292D01*
X35139707Y-596786D01*
X35139711Y-596789D01*
X35270814Y-684390D01*
X35270827Y-684397D01*
X35416498Y-744735D01*
X35416503Y-744737D01*
X35571153Y-775499D01*
X35571156Y-775500D01*
X35571158Y-775500D01*
X35728844Y-775500D01*
X35728845Y-775499D01*
X35883497Y-744737D01*
X36029179Y-684394D01*
X36048996Y-671153D01*
X38624500Y-671153D01*
X38624500Y-828846D01*
X38655261Y-983489D01*
X38655264Y-983501D01*
X38715602Y-1129172D01*
X38715609Y-1129185D01*
X38803210Y-1260288D01*
X38803213Y-1260292D01*
X38914707Y-1371786D01*
X38914711Y-1371789D01*
X39045814Y-1459390D01*
X39045827Y-1459397D01*
X39118267Y-1489402D01*
X39191503Y-1519737D01*
X39346153Y-1550499D01*
X39346156Y-1550500D01*
X39346158Y-1550500D01*
X39503844Y-1550500D01*
X39503845Y-1550499D01*
X39658497Y-1519737D01*
X39804179Y-1459394D01*
X39935289Y-1371789D01*
X40046789Y-1260289D01*
X40134394Y-1129179D01*
X40194737Y-983497D01*
X40225500Y-828842D01*
X40225500Y-671158D01*
X40225500Y-671155D01*
X40225499Y-671153D01*
X40195596Y-520821D01*
X40194737Y-516503D01*
X40181808Y-485289D01*
X40134397Y-370827D01*
X40134390Y-370814D01*
X40046789Y-239711D01*
X40046786Y-239707D01*
X39935292Y-128213D01*
X39935288Y-128210D01*
X39804185Y-40609D01*
X39804172Y-40602D01*
X39693126Y5393D01*
X39658497Y19737D01*
X39581520Y35048D01*
X39503845Y50500D01*
X39503842Y50500D01*
X39346158Y50500D01*
X39346155Y50500D01*
X39252858Y31941D01*
X39191503Y19737D01*
X39191498Y19735D01*
X39045827Y-40602D01*
X39045814Y-40609D01*
X38914711Y-128210D01*
X38914707Y-128213D01*
X38803213Y-239707D01*
X38803210Y-239711D01*
X38715609Y-370814D01*
X38715602Y-370827D01*
X38655264Y-516498D01*
X38655261Y-516510D01*
X38624500Y-671153D01*
X36048996Y-671153D01*
X36160289Y-596789D01*
X36160292Y-596786D01*
X36179694Y-577385D01*
X36271786Y-485292D01*
X36271789Y-485289D01*
X36359394Y-354179D01*
X36419737Y-208497D01*
X36450500Y-53842D01*
X36450500Y103842D01*
X36419737Y258497D01*
X36359394Y404179D01*
X36271789Y535289D01*
X36160289Y646789D01*
X36029179Y734394D01*
X35883497Y794737D01*
X35806520Y810048D01*
X35728845Y825500D01*
X35728842Y825500D01*
X35571158Y825500D01*
X35571155Y825500D01*
X35477858Y806941D01*
X35416503Y794737D01*
X35416498Y794735D01*
X35270827Y734397D01*
X35270814Y734390D01*
X35139711Y646789D01*
X35139707Y646786D01*
X35028213Y535292D01*
X35028210Y535288D01*
X34940609Y404185D01*
X34940602Y404172D01*
X34880264Y258501D01*
X34880261Y258489D01*
X34849500Y103846D01*
X13004384Y103846D01*
X13000000Y124000D01*
X13000000Y2222479D01*
X13019685Y2289518D01*
X13072489Y2335273D01*
X13141647Y2345217D01*
X13205203Y2316192D01*
X13227101Y2291371D01*
X13228208Y2289714D01*
X13228213Y2289707D01*
X13339707Y2178213D01*
X13339711Y2178210D01*
X13470814Y2090609D01*
X13470827Y2090602D01*
X13616498Y2030264D01*
X13616510Y2030261D01*
X13771153Y1999500D01*
X13771158Y1999500D01*
X13928846Y1999500D01*
X14083489Y2030261D01*
X14083501Y2030264D01*
X14229172Y2090602D01*
X14229185Y2090609D01*
X14360288Y2178210D01*
X14360292Y2178213D01*
X14360925Y2178846D01*
X35474500Y2178846D01*
X35474500Y2021153D01*
X35505261Y1866510D01*
X35505264Y1866498D01*
X35565602Y1720827D01*
X35565609Y1720814D01*
X35653210Y1589711D01*
X35653213Y1589707D01*
X35764707Y1478213D01*
X35764711Y1478210D01*
X35895814Y1390609D01*
X35895827Y1390602D01*
X36041498Y1330264D01*
X36041510Y1330261D01*
X36196153Y1299500D01*
X36196158Y1299500D01*
X36353846Y1299500D01*
X36508489Y1330261D01*
X36508501Y1330264D01*
X36654172Y1390602D01*
X36654185Y1390609D01*
X36785288Y1478210D01*
X36785292Y1478213D01*
X36896786Y1589707D01*
X36896789Y1589711D01*
X36984390Y1720814D01*
X36984397Y1720827D01*
X37044735Y1866498D01*
X37044738Y1866508D01*
X37047192Y1878846D01*
X46449500Y1878846D01*
X46449500Y1721153D01*
X46480261Y1566510D01*
X46480264Y1566498D01*
X46540602Y1420827D01*
X46540609Y1420814D01*
X46628210Y1289711D01*
X46628213Y1289707D01*
X46739707Y1178213D01*
X46739711Y1178210D01*
X46870814Y1090609D01*
X46870827Y1090602D01*
X47016498Y1030264D01*
X47016510Y1030261D01*
X47171153Y999500D01*
X47171158Y999500D01*
X47328846Y999500D01*
X47483489Y1030261D01*
X47483501Y1030264D01*
X47629172Y1090602D01*
X47629185Y1090609D01*
X47760288Y1178210D01*
X47760292Y1178213D01*
X47871786Y1289707D01*
X47871789Y1289711D01*
X47959390Y1420814D01*
X47959397Y1420827D01*
X48019735Y1566498D01*
X48019737Y1566503D01*
X48050499Y1721153D01*
X48050500Y1721155D01*
X48050500Y1878844D01*
X48050499Y1878846D01*
X48038214Y1940606D01*
X48019737Y2033497D01*
X47959394Y2179179D01*
X47871789Y2310289D01*
X47760289Y2421789D01*
X47629179Y2509394D01*
X47483497Y2569737D01*
X47406520Y2585048D01*
X47328845Y2600500D01*
X47328842Y2600500D01*
X47171158Y2600500D01*
X47171155Y2600500D01*
X47077858Y2581941D01*
X47016503Y2569737D01*
X47016498Y2569735D01*
X46870827Y2509397D01*
X46870814Y2509390D01*
X46739711Y2421789D01*
X46739707Y2421786D01*
X46628213Y2310292D01*
X46628210Y2310288D01*
X46540609Y2179185D01*
X46540602Y2179172D01*
X46480264Y2033501D01*
X46480261Y2033489D01*
X46449500Y1878846D01*
X37047192Y1878846D01*
X37053216Y1909126D01*
X37075499Y2021153D01*
X37075500Y2021155D01*
X37075500Y2178844D01*
X37075499Y2178846D01*
X37066820Y2222479D01*
X37044737Y2333497D01*
X36984394Y2479179D01*
X36896789Y2610289D01*
X36896786Y2610292D01*
X36859826Y2647253D01*
X36785292Y2721786D01*
X36785289Y2721789D01*
X36774727Y2728846D01*
X52999500Y2728846D01*
X52999500Y2571153D01*
X53030261Y2416510D01*
X53030264Y2416498D01*
X53090602Y2270827D01*
X53090609Y2270814D01*
X53178210Y2139711D01*
X53178213Y2139707D01*
X53289707Y2028213D01*
X53289711Y2028210D01*
X53420814Y1940609D01*
X53420827Y1940602D01*
X53566498Y1880264D01*
X53566510Y1880261D01*
X53721153Y1849500D01*
X53721158Y1849500D01*
X53878846Y1849500D01*
X54033489Y1880261D01*
X54033501Y1880264D01*
X54179172Y1940602D01*
X54179185Y1940609D01*
X54310288Y2028210D01*
X54310292Y2028213D01*
X54421786Y2139707D01*
X54421789Y2139711D01*
X54509390Y2270814D01*
X54509397Y2270827D01*
X54569735Y2416498D01*
X54569737Y2416503D01*
X54600499Y2571153D01*
X54600500Y2571155D01*
X54600500Y2728844D01*
X54600499Y2728846D01*
X54585299Y2805261D01*
X54569737Y2883497D01*
X54509394Y3029179D01*
X54421789Y3160289D01*
X54310289Y3271789D01*
X54179179Y3359394D01*
X54033497Y3419737D01*
X53956520Y3435048D01*
X53878845Y3450500D01*
X53878842Y3450500D01*
X53721158Y3450500D01*
X53721155Y3450500D01*
X53640188Y3434394D01*
X53566503Y3419737D01*
X53566498Y3419735D01*
X53420827Y3359397D01*
X53420814Y3359390D01*
X53289711Y3271789D01*
X53289707Y3271786D01*
X53178213Y3160292D01*
X53178210Y3160288D01*
X53090609Y3029185D01*
X53090602Y3029172D01*
X53030264Y2883501D01*
X53030261Y2883489D01*
X52999500Y2728846D01*
X36774727Y2728846D01*
X36654179Y2809394D01*
X36508497Y2869737D01*
X36431520Y2885048D01*
X36353845Y2900500D01*
X36353842Y2900500D01*
X36196158Y2900500D01*
X36196155Y2900500D01*
X36102858Y2881941D01*
X36041503Y2869737D01*
X36041498Y2869735D01*
X35895827Y2809397D01*
X35895814Y2809390D01*
X35764711Y2721789D01*
X35764707Y2721786D01*
X35653213Y2610292D01*
X35653210Y2610288D01*
X35565609Y2479185D01*
X35565602Y2479172D01*
X35505264Y2333501D01*
X35505261Y2333489D01*
X35474500Y2178846D01*
X14360925Y2178846D01*
X14471786Y2289707D01*
X14471789Y2289711D01*
X14559390Y2420814D01*
X14559397Y2420827D01*
X14619735Y2566498D01*
X14619737Y2566503D01*
X14650499Y2721153D01*
X14650500Y2721155D01*
X14650500Y2878844D01*
X14650499Y2878846D01*
X14619737Y3033497D01*
X14559394Y3179179D01*
X14471789Y3310289D01*
X14360289Y3421789D01*
X14229179Y3509394D01*
X14229172Y3509397D01*
X14142318Y3545373D01*
X14116410Y3556103D01*
X14083497Y3569737D01*
X14006520Y3585048D01*
X13928845Y3600500D01*
X13928842Y3600500D01*
X13771158Y3600500D01*
X13771155Y3600500D01*
X13677858Y3581941D01*
X13616503Y3569737D01*
X13616498Y3569735D01*
X13470827Y3509397D01*
X13470814Y3509390D01*
X13339711Y3421789D01*
X13339707Y3421786D01*
X13228212Y3310291D01*
X13227106Y3308635D01*
X13226301Y3307962D01*
X13224347Y3305581D01*
X13223895Y3305951D01*
X13173496Y3263827D01*
X13104171Y3255116D01*
X13041142Y3285267D01*
X13004420Y3344708D01*
X13000000Y3377520D01*
X13000000Y3653846D01*
X31999500Y3653846D01*
X31999500Y3496153D01*
X32030261Y3341510D01*
X32030264Y3341498D01*
X32090602Y3195827D01*
X32090609Y3195814D01*
X32178210Y3064711D01*
X32178213Y3064707D01*
X32289707Y2953213D01*
X32289711Y2953210D01*
X32420814Y2865609D01*
X32420827Y2865602D01*
X32566498Y2805264D01*
X32566510Y2805261D01*
X32721153Y2774500D01*
X32721158Y2774500D01*
X32878846Y2774500D01*
X33033489Y2805261D01*
X33033501Y2805264D01*
X33179172Y2865602D01*
X33179185Y2865609D01*
X33310288Y2953210D01*
X33310292Y2953213D01*
X33421786Y3064707D01*
X33421789Y3064711D01*
X33509390Y3195814D01*
X33509397Y3195827D01*
X33569735Y3341499D01*
X33569737Y3341503D01*
X33575564Y3370800D01*
X33607946Y3432710D01*
X33668661Y3467286D01*
X33672990Y3468227D01*
X33733489Y3480261D01*
X33733501Y3480264D01*
X33879172Y3540602D01*
X33879185Y3540609D01*
X34010288Y3628210D01*
X34010292Y3628213D01*
X34121786Y3739707D01*
X34121789Y3739711D01*
X34147938Y3778846D01*
X43449500Y3778846D01*
X43449500Y3621153D01*
X43480261Y3466510D01*
X43480264Y3466498D01*
X43540602Y3320827D01*
X43540609Y3320814D01*
X43628210Y3189711D01*
X43628213Y3189707D01*
X43739707Y3078213D01*
X43739711Y3078210D01*
X43870814Y2990609D01*
X43870827Y2990602D01*
X44016498Y2930264D01*
X44016510Y2930261D01*
X44171153Y2899500D01*
X44171158Y2899500D01*
X44328846Y2899500D01*
X44483489Y2930261D01*
X44483501Y2930264D01*
X44629172Y2990602D01*
X44629185Y2990609D01*
X44760288Y3078210D01*
X44760292Y3078213D01*
X44871786Y3189707D01*
X44871789Y3189711D01*
X44959390Y3320814D01*
X44959397Y3320827D01*
X45019735Y3466498D01*
X45019737Y3466503D01*
X45050499Y3621153D01*
X45050500Y3621155D01*
X45050500Y3778844D01*
X45050499Y3778846D01*
X45044600Y3808501D01*
X45019737Y3933497D01*
X44959394Y4079179D01*
X44871789Y4210289D01*
X44760289Y4321789D01*
X44629179Y4409394D01*
X44483497Y4469737D01*
X44406520Y4485048D01*
X44328845Y4500500D01*
X44328842Y4500500D01*
X44171158Y4500500D01*
X44171155Y4500500D01*
X44077858Y4481941D01*
X44016503Y4469737D01*
X44016498Y4469735D01*
X43870827Y4409397D01*
X43870814Y4409390D01*
X43739711Y4321789D01*
X43739707Y4321786D01*
X43628213Y4210292D01*
X43628210Y4210288D01*
X43540609Y4079185D01*
X43540602Y4079172D01*
X43480264Y3933501D01*
X43480261Y3933489D01*
X43449500Y3778846D01*
X34147938Y3778846D01*
X34198038Y3853825D01*
X34198038Y3853826D01*
X34209393Y3870820D01*
X34209397Y3870827D01*
X34269735Y4016498D01*
X34269737Y4016503D01*
X34300499Y4171153D01*
X34300500Y4171155D01*
X34300500Y4328844D01*
X34300499Y4328846D01*
X34297338Y4344737D01*
X34269737Y4483497D01*
X34209394Y4629179D01*
X34121789Y4760289D01*
X34010289Y4871789D01*
X33879179Y4959394D01*
X33733497Y5019737D01*
X33656520Y5035048D01*
X33578845Y5050500D01*
X33578842Y5050500D01*
X33421158Y5050500D01*
X33421155Y5050500D01*
X33327858Y5031941D01*
X33266503Y5019737D01*
X33266498Y5019735D01*
X33120827Y4959397D01*
X33120814Y4959390D01*
X32989711Y4871789D01*
X32989707Y4871786D01*
X32878213Y4760292D01*
X32878210Y4760288D01*
X32790609Y4629185D01*
X32790602Y4629172D01*
X32730263Y4483498D01*
X32730261Y4483492D01*
X32724434Y4454196D01*
X32692048Y4392285D01*
X32631332Y4357712D01*
X32627050Y4356780D01*
X32566503Y4344737D01*
X32566501Y4344736D01*
X32420827Y4284397D01*
X32420814Y4284390D01*
X32289711Y4196789D01*
X32289707Y4196786D01*
X32178213Y4085292D01*
X32178210Y4085288D01*
X32090609Y3954185D01*
X32090602Y3954172D01*
X32030264Y3808501D01*
X32030261Y3808489D01*
X31999500Y3653846D01*
X13000000Y3653846D01*
X13000000Y6753846D01*
X42449500Y6753846D01*
X42449500Y6596153D01*
X42480261Y6441510D01*
X42480264Y6441498D01*
X42540602Y6295827D01*
X42540609Y6295814D01*
X42628210Y6164711D01*
X42628213Y6164707D01*
X42739707Y6053213D01*
X42739711Y6053210D01*
X42870814Y5965609D01*
X42870827Y5965602D01*
X43016498Y5905264D01*
X43016510Y5905261D01*
X43171153Y5874500D01*
X43171158Y5874500D01*
X43328846Y5874500D01*
X43483489Y5905261D01*
X43483501Y5905264D01*
X43629172Y5965602D01*
X43629185Y5965609D01*
X43760288Y6053210D01*
X43760292Y6053213D01*
X43871786Y6164707D01*
X43871789Y6164711D01*
X43959390Y6295814D01*
X43959397Y6295827D01*
X44019735Y6441498D01*
X44019737Y6441503D01*
X44050499Y6596153D01*
X44050500Y6596155D01*
X44050500Y6753844D01*
X44050499Y6753846D01*
X44019737Y6908497D01*
X43959394Y7054179D01*
X43871789Y7185289D01*
X43760289Y7296789D01*
X43629179Y7384394D01*
X43483497Y7444737D01*
X43406520Y7460048D01*
X43328845Y7475500D01*
X43328842Y7475500D01*
X43171158Y7475500D01*
X43171155Y7475500D01*
X43077858Y7456941D01*
X43016503Y7444737D01*
X43016498Y7444735D01*
X42870827Y7384397D01*
X42870814Y7384390D01*
X42739711Y7296789D01*
X42739707Y7296786D01*
X42628213Y7185292D01*
X42628210Y7185288D01*
X42540609Y7054185D01*
X42540602Y7054172D01*
X42480264Y6908501D01*
X42480261Y6908489D01*
X42449500Y6753846D01*
X13000000Y6753846D01*
X13000000Y7500000D01*
X1124000Y7500000D01*
X1056961Y7519685D01*
X1011206Y7572489D01*
X1000000Y7624000D01*
X1000000Y8103846D01*
X27674500Y8103846D01*
X27674500Y7946153D01*
X27705261Y7791510D01*
X27705264Y7791498D01*
X27765602Y7645827D01*
X27765609Y7645814D01*
X27853210Y7514711D01*
X27853213Y7514707D01*
X27964707Y7403213D01*
X27964711Y7403210D01*
X28095814Y7315609D01*
X28095827Y7315602D01*
X28241498Y7255264D01*
X28241510Y7255261D01*
X28396153Y7224500D01*
X28396158Y7224500D01*
X28553846Y7224500D01*
X28708489Y7255261D01*
X28708501Y7255264D01*
X28854172Y7315602D01*
X28854185Y7315609D01*
X28985288Y7403210D01*
X28985292Y7403213D01*
X29096786Y7514707D01*
X29096789Y7514711D01*
X29184390Y7645814D01*
X29184397Y7645827D01*
X29244735Y7791498D01*
X29244737Y7791503D01*
X29275499Y7946153D01*
X29275500Y7946155D01*
X29275500Y8103844D01*
X29275499Y8103846D01*
X29265272Y8155261D01*
X29244737Y8258497D01*
X29184394Y8404179D01*
X29096789Y8535289D01*
X28985289Y8646789D01*
X28854179Y8734394D01*
X28708497Y8794737D01*
X28631520Y8810048D01*
X28553845Y8825500D01*
X28553842Y8825500D01*
X28396158Y8825500D01*
X28396155Y8825500D01*
X28302858Y8806941D01*
X28241503Y8794737D01*
X28241498Y8794735D01*
X28095827Y8734397D01*
X28095814Y8734390D01*
X27964711Y8646789D01*
X27964707Y8646786D01*
X27853213Y8535292D01*
X27853210Y8535288D01*
X27765609Y8404185D01*
X27765602Y8404172D01*
X27705264Y8258501D01*
X27705261Y8258489D01*
X27674500Y8103846D01*
X1000000Y8103846D01*
X1000000Y9003846D01*
X13399500Y9003846D01*
X13399500Y8846153D01*
X13430261Y8691510D01*
X13430264Y8691498D01*
X13490602Y8545827D01*
X13490609Y8545814D01*
X13578210Y8414711D01*
X13578213Y8414707D01*
X13689707Y8303213D01*
X13689711Y8303210D01*
X13820814Y8215609D01*
X13820827Y8215602D01*
X13966498Y8155264D01*
X13966510Y8155261D01*
X14121153Y8124500D01*
X14121158Y8124500D01*
X14278846Y8124500D01*
X14433489Y8155261D01*
X14433501Y8155264D01*
X14579172Y8215602D01*
X14579186Y8215610D01*
X14710288Y8303210D01*
X14710292Y8303213D01*
X14821786Y8414707D01*
X14821789Y8414711D01*
X14909390Y8545814D01*
X14909397Y8545827D01*
X14969735Y8691498D01*
X14969737Y8691503D01*
X15000499Y8846153D01*
X15000500Y8846155D01*
X15000500Y9003844D01*
X15000499Y9003846D01*
X14969737Y9158497D01*
X14909394Y9304179D01*
X14821789Y9435289D01*
X14710289Y9546789D01*
X14579179Y9634394D01*
X14433497Y9694737D01*
X14356520Y9710048D01*
X14278845Y9725500D01*
X14278842Y9725500D01*
X14121158Y9725500D01*
X14121155Y9725500D01*
X14027858Y9706941D01*
X13966503Y9694737D01*
X13966498Y9694735D01*
X13820827Y9634397D01*
X13820814Y9634390D01*
X13689711Y9546789D01*
X13689707Y9546786D01*
X13578213Y9435292D01*
X13578210Y9435288D01*
X13490609Y9304185D01*
X13490602Y9304172D01*
X13430264Y9158501D01*
X13430261Y9158489D01*
X13399500Y9003846D01*
X1000000Y9003846D01*
X1000000Y12278846D01*
X44224500Y12278846D01*
X44224500Y12121153D01*
X44255261Y11966510D01*
X44255264Y11966498D01*
X44315602Y11820827D01*
X44315609Y11820814D01*
X44403210Y11689711D01*
X44403213Y11689707D01*
X44514707Y11578213D01*
X44514711Y11578210D01*
X44645814Y11490609D01*
X44645827Y11490602D01*
X44791498Y11430264D01*
X44791510Y11430261D01*
X44946153Y11399500D01*
X44946158Y11399500D01*
X45103846Y11399500D01*
X45258489Y11430261D01*
X45258501Y11430264D01*
X45404172Y11490602D01*
X45404185Y11490609D01*
X45535288Y11578210D01*
X45535292Y11578213D01*
X45646786Y11689707D01*
X45646789Y11689711D01*
X45734390Y11820814D01*
X45734397Y11820827D01*
X45794735Y11966498D01*
X45794737Y11966503D01*
X45825499Y12121153D01*
X45825500Y12121155D01*
X45825500Y12278844D01*
X45825499Y12278846D01*
X45794737Y12433497D01*
X45734394Y12579179D01*
X45646789Y12710289D01*
X45535289Y12821789D01*
X45404179Y12909394D01*
X45258497Y12969737D01*
X45181520Y12985048D01*
X45103845Y13000500D01*
X45103842Y13000500D01*
X44946158Y13000500D01*
X44946155Y13000500D01*
X44852858Y12981941D01*
X44791503Y12969737D01*
X44791498Y12969735D01*
X44645827Y12909397D01*
X44645814Y12909390D01*
X44514711Y12821789D01*
X44514707Y12821786D01*
X44403213Y12710292D01*
X44403210Y12710288D01*
X44315609Y12579185D01*
X44315602Y12579172D01*
X44255264Y12433501D01*
X44255261Y12433489D01*
X44224500Y12278846D01*
X1000000Y12278846D01*
X1000000Y14703846D01*
X41249500Y14703846D01*
X41249500Y14546153D01*
X41280261Y14391510D01*
X41280264Y14391498D01*
X41340602Y14245827D01*
X41340609Y14245814D01*
X41428210Y14114711D01*
X41428213Y14114707D01*
X41539707Y14003213D01*
X41539711Y14003210D01*
X41670814Y13915609D01*
X41670827Y13915602D01*
X41816498Y13855264D01*
X41816510Y13855261D01*
X41971153Y13824500D01*
X41971158Y13824500D01*
X42128846Y13824500D01*
X42283489Y13855261D01*
X42283501Y13855264D01*
X42429172Y13915602D01*
X42429185Y13915609D01*
X42560288Y14003210D01*
X42560292Y14003213D01*
X42671786Y14114707D01*
X42671789Y14114711D01*
X42759390Y14245814D01*
X42759397Y14245827D01*
X42819735Y14391498D01*
X42819737Y14391503D01*
X42850499Y14546153D01*
X42850500Y14546155D01*
X42850500Y14703844D01*
X42844155Y14735742D01*
X42844155Y14735743D01*
X42840554Y14753846D01*
X65599500Y14753846D01*
X65599500Y14596153D01*
X65630261Y14441510D01*
X65630264Y14441498D01*
X65690602Y14295827D01*
X65690609Y14295814D01*
X65778210Y14164711D01*
X65778213Y14164707D01*
X65889707Y14053213D01*
X65889711Y14053210D01*
X66020814Y13965609D01*
X66020827Y13965602D01*
X66166498Y13905264D01*
X66166510Y13905261D01*
X66321153Y13874500D01*
X66321158Y13874500D01*
X66478846Y13874500D01*
X66633489Y13905261D01*
X66633501Y13905264D01*
X66779172Y13965602D01*
X66779185Y13965609D01*
X66910288Y14053210D01*
X66910292Y14053213D01*
X67021786Y14164707D01*
X67021789Y14164711D01*
X67109390Y14295814D01*
X67109397Y14295827D01*
X67169735Y14441498D01*
X67169737Y14441503D01*
X67200499Y14596153D01*
X67200500Y14596155D01*
X67200500Y14753844D01*
X67200499Y14753846D01*
X67194063Y14786202D01*
X67169737Y14908497D01*
X67109394Y15054179D01*
X67021789Y15185289D01*
X66910289Y15296789D01*
X66779179Y15384394D01*
X66633497Y15444737D01*
X66556520Y15460048D01*
X66478845Y15475500D01*
X66478842Y15475500D01*
X66321158Y15475500D01*
X66321155Y15475500D01*
X66227858Y15456941D01*
X66166503Y15444737D01*
X66166498Y15444735D01*
X66020827Y15384397D01*
X66020814Y15384390D01*
X65889711Y15296789D01*
X65889707Y15296786D01*
X65778213Y15185292D01*
X65778210Y15185288D01*
X65690609Y15054185D01*
X65690602Y15054172D01*
X65630264Y14908501D01*
X65630261Y14908489D01*
X65599500Y14753846D01*
X42840554Y14753846D01*
X42825623Y14828904D01*
X42819737Y14858497D01*
X42759394Y15004179D01*
X42671789Y15135289D01*
X42560289Y15246789D01*
X42429179Y15334394D01*
X42283497Y15394737D01*
X42206520Y15410048D01*
X42128845Y15425500D01*
X42128842Y15425500D01*
X41971158Y15425500D01*
X41971155Y15425500D01*
X41877858Y15406941D01*
X41816503Y15394737D01*
X41816498Y15394735D01*
X41670827Y15334397D01*
X41670814Y15334390D01*
X41539711Y15246789D01*
X41539707Y15246786D01*
X41428213Y15135292D01*
X41428210Y15135288D01*
X41340609Y15004185D01*
X41340602Y15004172D01*
X41280264Y14858501D01*
X41280261Y14858489D01*
X41249500Y14703846D01*
X1000000Y14703846D01*
X1000000Y32111450D01*
X1299500Y32111450D01*
X1299500Y31888549D01*
X1299501Y31888533D01*
X1328594Y31667547D01*
X1328595Y31667540D01*
X1328596Y31667537D01*
X1346827Y31599499D01*
X1386290Y31452219D01*
X1386293Y31452209D01*
X1471593Y31246277D01*
X1471595Y31246273D01*
X1583052Y31053226D01*
X1583058Y31053217D01*
X1718751Y30876377D01*
X1718757Y30876370D01*
X1876370Y30718757D01*
X1876377Y30718751D01*
X2053217Y30583058D01*
X2053226Y30583052D01*
X2246273Y30471595D01*
X2246277Y30471593D01*
X2452209Y30386293D01*
X2452216Y30386291D01*
X2452217Y30386290D01*
X2452219Y30386290D01*
X2608138Y30344511D01*
X2667798Y30308147D01*
X2698327Y30245300D01*
X2690032Y30175924D01*
X2645547Y30122046D01*
X2595444Y30102264D01*
X2563757Y30097246D01*
X2361588Y30031557D01*
X2172184Y29935051D01*
X2172181Y29935049D01*
X2172179Y29935048D01*
X2000213Y29810109D01*
X1849890Y29659786D01*
X1724951Y29487820D01*
X1724949Y29487816D01*
X1628443Y29298412D01*
X1562754Y29096243D01*
X1562753Y29096239D01*
X1529500Y28886286D01*
X1529500Y28673713D01*
X1562753Y28463760D01*
X1628444Y28261585D01*
X1724951Y28072179D01*
X1849890Y27900213D01*
X2000213Y27749890D01*
X2172182Y27624949D01*
X2180946Y27620484D01*
X2231742Y27572509D01*
X2248536Y27504688D01*
X2225998Y27438553D01*
X2180946Y27399516D01*
X2172182Y27395050D01*
X2000213Y27270109D01*
X1849890Y27119786D01*
X1724951Y26947820D01*
X1628444Y26758414D01*
X1562753Y26556239D01*
X1529500Y26346286D01*
X1529500Y26133713D01*
X1562753Y25923760D01*
X1628444Y25721585D01*
X1724951Y25532179D01*
X1849890Y25360213D01*
X2000213Y25209890D01*
X2172182Y25084949D01*
X2180946Y25080484D01*
X2231742Y25032509D01*
X2248536Y24964688D01*
X2225998Y24898553D01*
X2180946Y24859516D01*
X2172182Y24855050D01*
X2000213Y24730109D01*
X1849890Y24579786D01*
X1724951Y24407820D01*
X1628444Y24218414D01*
X1562753Y24016239D01*
X1529500Y23806286D01*
X1529500Y23593713D01*
X1562753Y23383760D01*
X1628444Y23181585D01*
X1724951Y22992179D01*
X1849890Y22820213D01*
X2000213Y22669890D01*
X2172182Y22544949D01*
X2180946Y22540484D01*
X2231742Y22492509D01*
X2248536Y22424688D01*
X2225998Y22358553D01*
X2180946Y22319516D01*
X2172182Y22315050D01*
X2000213Y22190109D01*
X1849890Y22039786D01*
X1724951Y21867820D01*
X1724949Y21867816D01*
X1628443Y21678412D01*
X1575545Y21515609D01*
X1562753Y21476239D01*
X1529500Y21266286D01*
X1529500Y21053713D01*
X1562753Y20843760D01*
X1628444Y20641585D01*
X1724951Y20452179D01*
X1849890Y20280213D01*
X2000213Y20129890D01*
X2172182Y20004949D01*
X2180946Y20000484D01*
X2231742Y19952509D01*
X2248536Y19884688D01*
X2225998Y19818553D01*
X2180946Y19779516D01*
X2172182Y19775050D01*
X2000213Y19650109D01*
X1849890Y19499786D01*
X1724951Y19327820D01*
X1724949Y19327816D01*
X1628443Y19138412D01*
X1562754Y18936243D01*
X1562753Y18936239D01*
X1529500Y18726286D01*
X1529500Y18513713D01*
X1562753Y18303760D01*
X1628444Y18101585D01*
X1724951Y17912179D01*
X1849890Y17740213D01*
X2000213Y17589890D01*
X2172182Y17464949D01*
X2181499Y17460202D01*
X2232293Y17412227D01*
X2249087Y17344405D01*
X2226548Y17278271D01*
X2181495Y17239234D01*
X2172452Y17234626D01*
X2118282Y17195270D01*
X2118282Y17195269D01*
X2750590Y16562962D01*
X2687007Y16545925D01*
X2572993Y16480099D01*
X2479901Y16387007D01*
X2414075Y16272993D01*
X2397037Y16209408D01*
X1764728Y16841716D01*
X1725375Y16787550D01*
X1628904Y16598217D01*
X1563242Y16396130D01*
X1563242Y16396127D01*
X1530000Y16186246D01*
X1530000Y15973753D01*
X1563242Y15763872D01*
X1563242Y15763869D01*
X1628904Y15561782D01*
X1725380Y15372439D01*
X1764727Y15318282D01*
X1764728Y15318282D01*
X2397037Y15950591D01*
X2414075Y15887007D01*
X2479901Y15772993D01*
X2572993Y15679901D01*
X2687007Y15614075D01*
X2750591Y15597037D01*
X2118282Y14964728D01*
X2118282Y14964727D01*
X2172439Y14925380D01*
X2361782Y14828904D01*
X2563870Y14763242D01*
X2773754Y14730000D01*
X2986246Y14730000D01*
X3196127Y14763242D01*
X3196130Y14763242D01*
X3398217Y14828904D01*
X3587550Y14925375D01*
X3641716Y14964728D01*
X3009409Y15597037D01*
X3072993Y15614075D01*
X3187007Y15679901D01*
X3280099Y15772993D01*
X3345925Y15887007D01*
X3362962Y15950590D01*
X4033181Y15280370D01*
X4066666Y15219047D01*
X4069500Y15192698D01*
X4069500Y15182134D01*
X4069501Y15182123D01*
X4075908Y15122516D01*
X4126202Y14987671D01*
X4126206Y14987664D01*
X4212452Y14872455D01*
X4212455Y14872452D01*
X4327664Y14786206D01*
X4327671Y14786202D01*
X4462517Y14735908D01*
X4462516Y14735908D01*
X4522116Y14729501D01*
X4522119Y14729500D01*
X4522127Y14729500D01*
X4522134Y14729500D01*
X4522135Y14729500D01*
X6317870Y14729500D01*
X6317876Y14729501D01*
X6377483Y14735908D01*
X6512328Y14786202D01*
X6512329Y14786203D01*
X6512331Y14786204D01*
X6627546Y14872454D01*
X6629078Y14874500D01*
X6713793Y14987664D01*
X6713797Y14987671D01*
X6764091Y15122517D01*
X6765464Y15135289D01*
X6770500Y15182127D01*
X6770499Y15753846D01*
X9874500Y15753846D01*
X9874500Y15596153D01*
X9905261Y15441510D01*
X9905264Y15441498D01*
X9965602Y15295827D01*
X9965609Y15295814D01*
X10053210Y15164711D01*
X10053213Y15164707D01*
X10164707Y15053213D01*
X10164711Y15053210D01*
X10295814Y14965609D01*
X10295827Y14965602D01*
X10441498Y14905264D01*
X10441510Y14905261D01*
X10596153Y14874500D01*
X10596158Y14874500D01*
X10753846Y14874500D01*
X10908489Y14905261D01*
X10908501Y14905264D01*
X11054172Y14965602D01*
X11054185Y14965609D01*
X11185288Y15053210D01*
X11185292Y15053213D01*
X11296786Y15164707D01*
X11296789Y15164711D01*
X11384390Y15295814D01*
X11384397Y15295827D01*
X11444735Y15441498D01*
X11444737Y15441503D01*
X11475499Y15596153D01*
X11475500Y15596155D01*
X11475500Y15753844D01*
X11475499Y15753846D01*
X11473505Y15763872D01*
X11444737Y15908497D01*
X11384394Y16054179D01*
X11296789Y16185289D01*
X11185289Y16296789D01*
X11054179Y16384394D01*
X10908497Y16444737D01*
X10831520Y16460048D01*
X10753845Y16475500D01*
X10753842Y16475500D01*
X10596158Y16475500D01*
X10596155Y16475500D01*
X10502858Y16456941D01*
X10441503Y16444737D01*
X10441498Y16444735D01*
X10295827Y16384397D01*
X10295814Y16384390D01*
X10164711Y16296789D01*
X10164707Y16296786D01*
X10053213Y16185292D01*
X10053210Y16185288D01*
X9965609Y16054185D01*
X9965602Y16054172D01*
X9905264Y15908501D01*
X9905261Y15908489D01*
X9874500Y15753846D01*
X6770499Y15753846D01*
X6770499Y16080000D01*
X6770499Y16977870D01*
X6770499Y16977873D01*
X6764091Y17037483D01*
X6713796Y17172331D01*
X6634059Y17278846D01*
X41249500Y17278846D01*
X41249500Y17121153D01*
X41280261Y16966510D01*
X41280264Y16966498D01*
X41340602Y16820827D01*
X41340609Y16820814D01*
X41428210Y16689711D01*
X41428213Y16689707D01*
X41539707Y16578213D01*
X41539711Y16578210D01*
X41670814Y16490609D01*
X41670827Y16490602D01*
X41816498Y16430264D01*
X41816510Y16430261D01*
X41971153Y16399500D01*
X41971158Y16399500D01*
X42128846Y16399500D01*
X42283489Y16430261D01*
X42283501Y16430264D01*
X42429172Y16490602D01*
X42429185Y16490609D01*
X42560288Y16578210D01*
X42560292Y16578213D01*
X42671786Y16689707D01*
X42671789Y16689711D01*
X42759390Y16820814D01*
X42759397Y16820827D01*
X42819735Y16966498D01*
X42819737Y16966503D01*
X42850499Y17121153D01*
X42850500Y17121155D01*
X42850500Y17278844D01*
X42850499Y17278846D01*
X42848769Y17287544D01*
X42819737Y17433497D01*
X42759394Y17579179D01*
X42671789Y17710289D01*
X42560289Y17821789D01*
X42429179Y17909394D01*
X42422455Y17912179D01*
X42351660Y17941503D01*
X42283497Y17969737D01*
X42188989Y17988536D01*
X42128845Y18000500D01*
X42128842Y18000500D01*
X41971158Y18000500D01*
X41971155Y18000500D01*
X41877858Y17981941D01*
X41816503Y17969737D01*
X41816498Y17969735D01*
X41670827Y17909397D01*
X41670814Y17909390D01*
X41539711Y17821789D01*
X41539707Y17821786D01*
X41428213Y17710292D01*
X41428210Y17710288D01*
X41340609Y17579185D01*
X41340602Y17579172D01*
X41280264Y17433501D01*
X41280261Y17433489D01*
X41249500Y17278846D01*
X6634059Y17278846D01*
X6627546Y17287546D01*
X6512331Y17373796D01*
X6380916Y17422810D01*
X6324984Y17464681D01*
X6300566Y17530145D01*
X6315417Y17598418D01*
X6336569Y17626673D01*
X6450109Y17740213D01*
X6575048Y17912179D01*
X6589987Y17941498D01*
X6671557Y18101588D01*
X6721029Y18253846D01*
X9674500Y18253846D01*
X9674500Y18096153D01*
X9705261Y17941510D01*
X9705264Y17941498D01*
X9765602Y17795827D01*
X9765609Y17795814D01*
X9853210Y17664711D01*
X9853213Y17664707D01*
X9964707Y17553213D01*
X9964711Y17553210D01*
X10095814Y17465609D01*
X10095827Y17465602D01*
X10241498Y17405264D01*
X10241510Y17405261D01*
X10396153Y17374500D01*
X10396158Y17374500D01*
X10553846Y17374500D01*
X10708495Y17405262D01*
X10854172Y17465602D01*
X10854185Y17465609D01*
X10985288Y17553210D01*
X10985292Y17553213D01*
X11096786Y17664707D01*
X11096789Y17664711D01*
X11184390Y17795814D01*
X11184397Y17795827D01*
X11244735Y17941498D01*
X11244737Y17941503D01*
X11275499Y18096153D01*
X11275500Y18096155D01*
X11275500Y18253844D01*
X11275499Y18253846D01*
X11265571Y18303757D01*
X11244737Y18408497D01*
X11184394Y18554179D01*
X11096789Y18685289D01*
X10985289Y18796789D01*
X10854179Y18884394D01*
X10708497Y18944737D01*
X10631520Y18960048D01*
X10553845Y18975500D01*
X10553842Y18975500D01*
X10396158Y18975500D01*
X10396155Y18975500D01*
X10302858Y18956941D01*
X10241503Y18944737D01*
X10241498Y18944735D01*
X10095827Y18884397D01*
X10095814Y18884390D01*
X9964711Y18796789D01*
X9964707Y18796786D01*
X9853213Y18685292D01*
X9853210Y18685288D01*
X9765609Y18554185D01*
X9765602Y18554172D01*
X9705264Y18408501D01*
X9705261Y18408489D01*
X9674500Y18253846D01*
X6721029Y18253846D01*
X6737246Y18303757D01*
X6770500Y18513713D01*
X6770500Y18726287D01*
X6737246Y18936243D01*
X6671557Y19138412D01*
X6575051Y19327816D01*
X6543802Y19370827D01*
X6450109Y19499786D01*
X6450106Y19499788D01*
X6450104Y19499792D01*
X6299792Y19650104D01*
X6127816Y19775051D01*
X6112095Y19783060D01*
X6105639Y19787450D01*
X6088210Y19808645D01*
X6068259Y19827488D01*
X6067923Y19828846D01*
X41249500Y19828846D01*
X41249500Y19671153D01*
X41280261Y19516510D01*
X41280264Y19516498D01*
X41340602Y19370827D01*
X41340609Y19370814D01*
X41428210Y19239711D01*
X41428213Y19239707D01*
X41539707Y19128213D01*
X41539711Y19128210D01*
X41670814Y19040609D01*
X41670827Y19040602D01*
X41816498Y18980264D01*
X41816510Y18980261D01*
X41971153Y18949500D01*
X41971158Y18949500D01*
X42128846Y18949500D01*
X42283489Y18980261D01*
X42283501Y18980264D01*
X42429172Y19040602D01*
X42429185Y19040609D01*
X42560288Y19128210D01*
X42560292Y19128213D01*
X42671786Y19239707D01*
X42671789Y19239711D01*
X42759390Y19370814D01*
X42759397Y19370827D01*
X42819735Y19516498D01*
X42819737Y19516503D01*
X42850499Y19671153D01*
X42850500Y19671155D01*
X42850500Y19828844D01*
X42850499Y19828846D01*
X42849226Y19835245D01*
X42819737Y19983497D01*
X42759394Y20129179D01*
X42671789Y20260289D01*
X42560289Y20371789D01*
X42429179Y20459394D01*
X42283497Y20519737D01*
X42206520Y20535048D01*
X42128845Y20550500D01*
X42128842Y20550500D01*
X41971158Y20550500D01*
X41971155Y20550500D01*
X41877858Y20531941D01*
X41816503Y20519737D01*
X41816498Y20519735D01*
X41670827Y20459397D01*
X41670814Y20459390D01*
X41539711Y20371789D01*
X41539707Y20371786D01*
X41428213Y20260292D01*
X41428210Y20260288D01*
X41340609Y20129185D01*
X41340602Y20129172D01*
X41280264Y19983501D01*
X41280261Y19983489D01*
X41249500Y19828846D01*
X6067923Y19828846D01*
X6066337Y19835245D01*
X6061263Y19841417D01*
X6058060Y19868668D01*
X6051463Y19895308D01*
X6054040Y19902872D01*
X6053108Y19910809D01*
X6065147Y19935467D01*
X6073999Y19961444D01*
X6080639Y19967198D01*
X6083763Y19973595D01*
X6097971Y19982215D01*
X6119054Y20000484D01*
X6127816Y20004949D01*
X6127820Y20004951D01*
X6299786Y20129890D01*
X6450109Y20280213D01*
X6575048Y20452179D01*
X6575051Y20452184D01*
X6671557Y20641588D01*
X6737246Y20843757D01*
X6770500Y21053713D01*
X6770500Y21266287D01*
X6737246Y21476243D01*
X6671557Y21678412D01*
X6575051Y21867816D01*
X6559086Y21889789D01*
X6450109Y22039786D01*
X6450106Y22039788D01*
X6450104Y22039792D01*
X6299792Y22190104D01*
X6143238Y22303846D01*
X41224500Y22303846D01*
X41224500Y22146153D01*
X41255261Y21991510D01*
X41255264Y21991498D01*
X41315602Y21845827D01*
X41315609Y21845814D01*
X41403210Y21714711D01*
X41403213Y21714707D01*
X41514707Y21603213D01*
X41514711Y21603210D01*
X41645814Y21515609D01*
X41645827Y21515602D01*
X41791498Y21455264D01*
X41791510Y21455261D01*
X41946153Y21424500D01*
X41946158Y21424500D01*
X42103846Y21424500D01*
X42258489Y21455261D01*
X42258501Y21455264D01*
X42404172Y21515602D01*
X42404185Y21515609D01*
X42535288Y21603210D01*
X42535292Y21603213D01*
X42646786Y21714707D01*
X42646789Y21714711D01*
X42734390Y21845814D01*
X42734397Y21845827D01*
X42794735Y21991498D01*
X42794737Y21991503D01*
X42825499Y22146153D01*
X42825500Y22146155D01*
X42825500Y22303844D01*
X42825499Y22303846D01*
X42823271Y22315048D01*
X42794737Y22458497D01*
X42734394Y22604179D01*
X42646789Y22735289D01*
X42535289Y22846789D01*
X42404179Y22934394D01*
X42258497Y22994737D01*
X42181520Y23010048D01*
X42103845Y23025500D01*
X42103842Y23025500D01*
X41946158Y23025500D01*
X41946155Y23025500D01*
X41852858Y23006941D01*
X41791503Y22994737D01*
X41791498Y22994735D01*
X41645827Y22934397D01*
X41645814Y22934390D01*
X41514711Y22846789D01*
X41514707Y22846786D01*
X41403213Y22735292D01*
X41403210Y22735288D01*
X41315609Y22604185D01*
X41315602Y22604172D01*
X41255264Y22458501D01*
X41255261Y22458489D01*
X41224500Y22303846D01*
X6143238Y22303846D01*
X6127816Y22315051D01*
X6111175Y22323529D01*
X6103947Y22328621D01*
X6087490Y22349325D01*
X6068259Y22367488D01*
X6066088Y22376251D01*
X6060472Y22383318D01*
X6057821Y22409633D01*
X6051463Y22435308D01*
X6054374Y22443852D01*
X6053470Y22452835D01*
X6065467Y22476406D01*
X6073999Y22501444D01*
X6081534Y22507973D01*
X6085163Y22515103D01*
X6099284Y22523353D01*
X6119054Y22540484D01*
X6127816Y22544949D01*
X6127820Y22544951D01*
X6299786Y22669890D01*
X6450109Y22820213D01*
X6575048Y22992179D01*
X6575051Y22992184D01*
X6671557Y23181588D01*
X6737246Y23383757D01*
X6770500Y23593713D01*
X6770500Y23806287D01*
X6737246Y24016243D01*
X6671557Y24218412D01*
X6589812Y24378846D01*
X41249500Y24378846D01*
X41249500Y24221153D01*
X41280261Y24066510D01*
X41280264Y24066498D01*
X41340602Y23920827D01*
X41340609Y23920814D01*
X41428210Y23789711D01*
X41428213Y23789707D01*
X41539707Y23678213D01*
X41539711Y23678210D01*
X41670814Y23590609D01*
X41670827Y23590602D01*
X41816498Y23530264D01*
X41816510Y23530261D01*
X41971153Y23499500D01*
X41971158Y23499500D01*
X42128846Y23499500D01*
X42283489Y23530261D01*
X42283501Y23530264D01*
X42429172Y23590602D01*
X42429185Y23590609D01*
X42560288Y23678210D01*
X42560292Y23678213D01*
X42671786Y23789707D01*
X42671789Y23789711D01*
X42759390Y23920814D01*
X42759397Y23920827D01*
X42819735Y24066498D01*
X42819737Y24066503D01*
X42850499Y24221153D01*
X42850500Y24221155D01*
X42850500Y24378844D01*
X42850499Y24378846D01*
X42846479Y24399056D01*
X42819737Y24533497D01*
X42759394Y24679179D01*
X42671789Y24810289D01*
X42560289Y24921789D01*
X42429179Y25009394D01*
X42283497Y25069737D01*
X42206520Y25085048D01*
X42128845Y25100500D01*
X42128842Y25100500D01*
X41971158Y25100500D01*
X41971155Y25100500D01*
X41892988Y25084951D01*
X41816503Y25069737D01*
X41816498Y25069735D01*
X41670827Y25009397D01*
X41670814Y25009390D01*
X41539711Y24921789D01*
X41539707Y24921786D01*
X41428213Y24810292D01*
X41428210Y24810288D01*
X41340609Y24679185D01*
X41340602Y24679172D01*
X41280264Y24533501D01*
X41280261Y24533489D01*
X41249500Y24378846D01*
X6589812Y24378846D01*
X6575051Y24407816D01*
X6483736Y24533501D01*
X6450109Y24579786D01*
X6450106Y24579788D01*
X6450104Y24579792D01*
X6299792Y24730104D01*
X6299788Y24730106D01*
X6299786Y24730109D01*
X6127820Y24855048D01*
X6127816Y24855051D01*
X6119054Y24859514D01*
X6068259Y24907488D01*
X6051463Y24975308D01*
X6073999Y25041444D01*
X6119054Y25080484D01*
X6127816Y25084949D01*
X6127820Y25084951D01*
X6299786Y25209890D01*
X6450109Y25360213D01*
X6575048Y25532179D01*
X6579515Y25540946D01*
X6671557Y25721588D01*
X6737246Y25923757D01*
X6770500Y26133713D01*
X6770500Y26346287D01*
X6737246Y26556243D01*
X6671557Y26758412D01*
X6575051Y26947816D01*
X6559086Y26969789D01*
X6450109Y27119786D01*
X6450106Y27119788D01*
X6450104Y27119792D01*
X6299792Y27270104D01*
X6299788Y27270106D01*
X6299786Y27270109D01*
X6127820Y27395048D01*
X6127816Y27395051D01*
X6119054Y27399514D01*
X6068259Y27447488D01*
X6051463Y27515308D01*
X6073999Y27581444D01*
X6119054Y27620484D01*
X6127816Y27624949D01*
X6127820Y27624951D01*
X6299786Y27749890D01*
X6450109Y27900213D01*
X6575048Y28072179D01*
X6579515Y28080946D01*
X6671557Y28261588D01*
X6737246Y28463757D01*
X6770500Y28673713D01*
X6770500Y28886287D01*
X6737246Y29096243D01*
X6671557Y29298412D01*
X6575051Y29487816D01*
X6559086Y29509789D01*
X6450109Y29659786D01*
X6450106Y29659788D01*
X6450104Y29659792D01*
X6299792Y29810104D01*
X6299788Y29810106D01*
X6299786Y29810109D01*
X6127820Y29935048D01*
X6127816Y29935051D01*
X5938412Y30031557D01*
X5736243Y30097246D01*
X5526287Y30130500D01*
X5313713Y30130500D01*
X5103757Y30097246D01*
X4901588Y30031557D01*
X4712184Y29935051D01*
X4712181Y29935049D01*
X4712179Y29935048D01*
X4540213Y29810109D01*
X4389890Y29659786D01*
X4264951Y29487820D01*
X4260486Y29479056D01*
X4212512Y29428259D01*
X4144692Y29411463D01*
X4078556Y29433999D01*
X4039514Y29479056D01*
X4035051Y29487816D01*
X4019086Y29509789D01*
X3910109Y29659786D01*
X3910106Y29659788D01*
X3910104Y29659792D01*
X3759792Y29810104D01*
X3759788Y29810106D01*
X3759786Y29810109D01*
X3587820Y29935048D01*
X3587816Y29935051D01*
X3398412Y30031557D01*
X3249988Y30079782D01*
X3192314Y30119220D01*
X3165116Y30183578D01*
X3177031Y30252424D01*
X3224275Y30303900D01*
X3272122Y30320652D01*
X3332463Y30328596D01*
X3547781Y30386290D01*
X3547783Y30386291D01*
X3547790Y30386293D01*
X3753722Y30471593D01*
X3753726Y30471595D01*
X3946774Y30583052D01*
X3946782Y30583058D01*
X4123622Y30718751D01*
X4123629Y30718757D01*
X4281242Y30876370D01*
X4281248Y30876377D01*
X4416941Y31053217D01*
X4416948Y31053226D01*
X4528405Y31246274D01*
X4613710Y31452219D01*
X4671404Y31667537D01*
X4700500Y31888543D01*
X4700500Y32111457D01*
X4671404Y32332463D01*
X4661001Y32371286D01*
X10669500Y32371286D01*
X10669500Y32158713D01*
X10702753Y31948760D01*
X10768444Y31746585D01*
X10864951Y31557179D01*
X10989889Y31385215D01*
X11103431Y31271673D01*
X11136915Y31210350D01*
X11131931Y31140658D01*
X11090059Y31084725D01*
X11059082Y31067810D01*
X10927671Y31018797D01*
X10927664Y31018793D01*
X10812455Y30932547D01*
X10812452Y30932544D01*
X10726206Y30817335D01*
X10726202Y30817328D01*
X10675908Y30682482D01*
X10669501Y30622883D01*
X10669500Y30622864D01*
X10669500Y28827129D01*
X10669501Y28827123D01*
X10675908Y28767516D01*
X10726202Y28632671D01*
X10726206Y28632664D01*
X10812452Y28517455D01*
X10812455Y28517452D01*
X10927664Y28431206D01*
X10927671Y28431202D01*
X11062517Y28380908D01*
X11062516Y28380908D01*
X11122116Y28374501D01*
X11122119Y28374500D01*
X11122127Y28374500D01*
X11122134Y28374500D01*
X11122135Y28374500D01*
X12917870Y28374500D01*
X12917876Y28374501D01*
X12977483Y28380908D01*
X13112328Y28431202D01*
X13112335Y28431206D01*
X13227544Y28517452D01*
X13227547Y28517455D01*
X13313793Y28632664D01*
X13313797Y28632671D01*
X13362810Y28764082D01*
X13404681Y28820016D01*
X13470145Y28844433D01*
X13538418Y28829582D01*
X13566673Y28808431D01*
X13680215Y28694889D01*
X13852179Y28569951D01*
X14041585Y28473444D01*
X14243760Y28407753D01*
X14243759Y28407753D01*
X14413248Y28380909D01*
X14453713Y28374500D01*
X14453714Y28374500D01*
X14666286Y28374500D01*
X14666287Y28374500D01*
X14729644Y28384534D01*
X14876239Y28407753D01*
X14876241Y28407753D01*
X14876243Y28407754D01*
X15078412Y28473443D01*
X15267816Y28569949D01*
X15267820Y28569951D01*
X15439786Y28694890D01*
X15590109Y28845213D01*
X15715050Y29017182D01*
X15719516Y29025946D01*
X15767491Y29076742D01*
X15835312Y29093536D01*
X15901447Y29070998D01*
X15940484Y29025946D01*
X15944949Y29017182D01*
X16069890Y28845213D01*
X16220213Y28694890D01*
X16392179Y28569951D01*
X16581585Y28473444D01*
X16783760Y28407753D01*
X16783759Y28407753D01*
X16953248Y28380909D01*
X16993713Y28374500D01*
X16993714Y28374500D01*
X17206286Y28374500D01*
X17206287Y28374500D01*
X17269644Y28384534D01*
X17416239Y28407753D01*
X17416241Y28407753D01*
X17416243Y28407754D01*
X17618412Y28473443D01*
X17807816Y28569949D01*
X17807820Y28569951D01*
X17979786Y28694890D01*
X18130109Y28845213D01*
X18255050Y29017182D01*
X18259516Y29025946D01*
X18307491Y29076742D01*
X18375312Y29093536D01*
X18441447Y29070998D01*
X18480484Y29025946D01*
X18484949Y29017182D01*
X18609890Y28845213D01*
X18760213Y28694890D01*
X18932179Y28569951D01*
X19121585Y28473444D01*
X19323760Y28407753D01*
X19323759Y28407753D01*
X19493248Y28380909D01*
X19533713Y28374500D01*
X19533714Y28374500D01*
X19746286Y28374500D01*
X19746287Y28374500D01*
X19809644Y28384534D01*
X19956239Y28407753D01*
X19956241Y28407753D01*
X19956243Y28407754D01*
X20158412Y28473443D01*
X20347816Y28569949D01*
X20347820Y28569951D01*
X20519786Y28694890D01*
X20670109Y28845213D01*
X20795050Y29017182D01*
X20799516Y29025946D01*
X20847491Y29076742D01*
X20915312Y29093536D01*
X20981447Y29070998D01*
X21020484Y29025946D01*
X21024949Y29017182D01*
X21149890Y28845213D01*
X21300213Y28694890D01*
X21472179Y28569951D01*
X21661585Y28473444D01*
X21863760Y28407753D01*
X21863759Y28407753D01*
X22033248Y28380909D01*
X22073713Y28374500D01*
X22073714Y28374500D01*
X22286286Y28374500D01*
X22286287Y28374500D01*
X22349644Y28384534D01*
X22496239Y28407753D01*
X22496241Y28407753D01*
X22496243Y28407754D01*
X22698412Y28473443D01*
X22887816Y28569949D01*
X22887820Y28569951D01*
X23059786Y28694890D01*
X23210109Y28845213D01*
X23335050Y29017182D01*
X23339516Y29025946D01*
X23387491Y29076742D01*
X23455312Y29093536D01*
X23521447Y29070998D01*
X23560484Y29025946D01*
X23564949Y29017182D01*
X23689890Y28845213D01*
X23840213Y28694890D01*
X24012179Y28569951D01*
X24201585Y28473444D01*
X24403760Y28407753D01*
X24403759Y28407753D01*
X24573248Y28380909D01*
X24613713Y28374500D01*
X24613714Y28374500D01*
X24826286Y28374500D01*
X24826287Y28374500D01*
X24889644Y28384534D01*
X25036239Y28407753D01*
X25036241Y28407753D01*
X25036243Y28407754D01*
X25238412Y28473443D01*
X25427816Y28569949D01*
X25427820Y28569951D01*
X25599786Y28694890D01*
X25750109Y28845213D01*
X25875050Y29017182D01*
X25879516Y29025946D01*
X25927491Y29076742D01*
X25995312Y29093536D01*
X26061447Y29070998D01*
X26100484Y29025946D01*
X26104949Y29017182D01*
X26229890Y28845213D01*
X26380213Y28694890D01*
X26552179Y28569951D01*
X26741585Y28473444D01*
X26943760Y28407753D01*
X26943759Y28407753D01*
X27113248Y28380909D01*
X27153713Y28374500D01*
X27153714Y28374500D01*
X27366286Y28374500D01*
X27366287Y28374500D01*
X27429644Y28384534D01*
X27576239Y28407753D01*
X27576241Y28407753D01*
X27576243Y28407754D01*
X27778412Y28473443D01*
X27967816Y28569949D01*
X27967820Y28569951D01*
X28139786Y28694890D01*
X28290109Y28845213D01*
X28415050Y29017182D01*
X28419516Y29025946D01*
X28467491Y29076742D01*
X28535312Y29093536D01*
X28601447Y29070998D01*
X28640484Y29025946D01*
X28644949Y29017182D01*
X28769890Y28845213D01*
X28920213Y28694890D01*
X29092179Y28569951D01*
X29281585Y28473444D01*
X29483760Y28407753D01*
X29483759Y28407753D01*
X29653248Y28380909D01*
X29693713Y28374500D01*
X29693714Y28374500D01*
X29906286Y28374500D01*
X29906287Y28374500D01*
X29969644Y28384534D01*
X30116239Y28407753D01*
X30116241Y28407753D01*
X30116243Y28407754D01*
X30318412Y28473443D01*
X30507816Y28569949D01*
X30507820Y28569951D01*
X30679786Y28694890D01*
X30830109Y28845213D01*
X30955050Y29017182D01*
X30959516Y29025946D01*
X31007491Y29076742D01*
X31075312Y29093536D01*
X31141447Y29070998D01*
X31180484Y29025946D01*
X31184949Y29017182D01*
X31309890Y28845213D01*
X31460213Y28694890D01*
X31632179Y28569951D01*
X31821585Y28473444D01*
X32023760Y28407753D01*
X32023759Y28407753D01*
X32193248Y28380909D01*
X32233713Y28374500D01*
X32233714Y28374500D01*
X32446286Y28374500D01*
X32446287Y28374500D01*
X32509644Y28384534D01*
X32656239Y28407753D01*
X32656241Y28407753D01*
X32656243Y28407754D01*
X32858412Y28473443D01*
X33047816Y28569949D01*
X33047820Y28569951D01*
X33219786Y28694890D01*
X33370109Y28845213D01*
X33495050Y29017182D01*
X33499516Y29025946D01*
X33547491Y29076742D01*
X33615312Y29093536D01*
X33681447Y29070998D01*
X33720484Y29025946D01*
X33724949Y29017182D01*
X33849890Y28845213D01*
X34000213Y28694890D01*
X34172179Y28569951D01*
X34361585Y28473444D01*
X34563760Y28407753D01*
X34563759Y28407753D01*
X34733248Y28380909D01*
X34773713Y28374500D01*
X34773714Y28374500D01*
X34986286Y28374500D01*
X34986287Y28374500D01*
X35049644Y28384534D01*
X35196239Y28407753D01*
X35196241Y28407753D01*
X35196243Y28407754D01*
X35398412Y28473443D01*
X35587816Y28569949D01*
X35587820Y28569951D01*
X35759786Y28694890D01*
X35910109Y28845213D01*
X36035050Y29017182D01*
X36039516Y29025946D01*
X36087491Y29076742D01*
X36155312Y29093536D01*
X36221447Y29070998D01*
X36260484Y29025946D01*
X36264949Y29017182D01*
X36389890Y28845213D01*
X36540213Y28694890D01*
X36712179Y28569951D01*
X36901585Y28473444D01*
X37103760Y28407753D01*
X37103759Y28407753D01*
X37273248Y28380909D01*
X37313713Y28374500D01*
X37313714Y28374500D01*
X37526286Y28374500D01*
X37526287Y28374500D01*
X37589644Y28384534D01*
X37736239Y28407753D01*
X37736241Y28407753D01*
X37736243Y28407754D01*
X37938412Y28473443D01*
X38127816Y28569949D01*
X38127820Y28569951D01*
X38299786Y28694890D01*
X38450109Y28845213D01*
X38575050Y29017182D01*
X38579516Y29025946D01*
X38627491Y29076742D01*
X38695312Y29093536D01*
X38761447Y29070998D01*
X38800484Y29025946D01*
X38804949Y29017182D01*
X38929890Y28845213D01*
X39080213Y28694890D01*
X39252179Y28569951D01*
X39441585Y28473444D01*
X39643760Y28407753D01*
X39643759Y28407753D01*
X39813248Y28380909D01*
X39853713Y28374500D01*
X39853714Y28374500D01*
X40066286Y28374500D01*
X40066287Y28374500D01*
X40129644Y28384534D01*
X40276239Y28407753D01*
X40276241Y28407753D01*
X40276243Y28407754D01*
X40478412Y28473443D01*
X40667816Y28569949D01*
X40667820Y28569951D01*
X40839786Y28694890D01*
X40990109Y28845213D01*
X41115050Y29017182D01*
X41119516Y29025946D01*
X41167491Y29076742D01*
X41235312Y29093536D01*
X41301447Y29070998D01*
X41340484Y29025946D01*
X41344949Y29017182D01*
X41469890Y28845213D01*
X41620213Y28694890D01*
X41792179Y28569951D01*
X41981585Y28473444D01*
X42183760Y28407753D01*
X42183759Y28407753D01*
X42353248Y28380909D01*
X42393713Y28374500D01*
X42393714Y28374500D01*
X42606286Y28374500D01*
X42606287Y28374500D01*
X42669644Y28384534D01*
X42816239Y28407753D01*
X42816241Y28407753D01*
X42816243Y28407754D01*
X43018412Y28473443D01*
X43207816Y28569949D01*
X43207820Y28569951D01*
X43379786Y28694890D01*
X43530109Y28845213D01*
X43655050Y29017182D01*
X43659516Y29025946D01*
X43707491Y29076742D01*
X43775312Y29093536D01*
X43841447Y29070998D01*
X43880484Y29025946D01*
X43884949Y29017182D01*
X44009890Y28845213D01*
X44160213Y28694890D01*
X44332179Y28569951D01*
X44521585Y28473444D01*
X44723760Y28407753D01*
X44723759Y28407753D01*
X44893248Y28380909D01*
X44933713Y28374500D01*
X44933714Y28374500D01*
X45146286Y28374500D01*
X45146287Y28374500D01*
X45209644Y28384534D01*
X45356239Y28407753D01*
X45356241Y28407753D01*
X45356243Y28407754D01*
X45558412Y28473443D01*
X45747816Y28569949D01*
X45747820Y28569951D01*
X45919786Y28694890D01*
X46070109Y28845213D01*
X46195050Y29017182D01*
X46199516Y29025946D01*
X46247491Y29076742D01*
X46315312Y29093536D01*
X46381447Y29070998D01*
X46420484Y29025946D01*
X46424949Y29017182D01*
X46549890Y28845213D01*
X46700213Y28694890D01*
X46872179Y28569951D01*
X47061585Y28473444D01*
X47263760Y28407753D01*
X47263759Y28407753D01*
X47433248Y28380909D01*
X47473713Y28374500D01*
X47473714Y28374500D01*
X47686286Y28374500D01*
X47686287Y28374500D01*
X47749644Y28384534D01*
X47896239Y28407753D01*
X47896241Y28407753D01*
X47896243Y28407754D01*
X48098412Y28473443D01*
X48287816Y28569949D01*
X48287820Y28569951D01*
X48459786Y28694890D01*
X48610109Y28845213D01*
X48735050Y29017182D01*
X48739516Y29025946D01*
X48787491Y29076742D01*
X48855312Y29093536D01*
X48921447Y29070998D01*
X48960484Y29025946D01*
X48964949Y29017182D01*
X49089890Y28845213D01*
X49240213Y28694890D01*
X49412179Y28569951D01*
X49601585Y28473444D01*
X49803760Y28407753D01*
X49803759Y28407753D01*
X49973248Y28380909D01*
X50013713Y28374500D01*
X50013714Y28374500D01*
X50226286Y28374500D01*
X50226287Y28374500D01*
X50289644Y28384534D01*
X50436239Y28407753D01*
X50436241Y28407753D01*
X50436243Y28407754D01*
X50638412Y28473443D01*
X50827816Y28569949D01*
X50827820Y28569951D01*
X50999786Y28694890D01*
X51150109Y28845213D01*
X51275050Y29017182D01*
X51279516Y29025946D01*
X51327491Y29076742D01*
X51395312Y29093536D01*
X51461447Y29070998D01*
X51500484Y29025946D01*
X51504949Y29017182D01*
X51629890Y28845213D01*
X51780213Y28694890D01*
X51952179Y28569951D01*
X52141585Y28473444D01*
X52343760Y28407753D01*
X52343759Y28407753D01*
X52513248Y28380909D01*
X52553713Y28374500D01*
X52553714Y28374500D01*
X52766286Y28374500D01*
X52766287Y28374500D01*
X52829644Y28384534D01*
X52976239Y28407753D01*
X52976241Y28407753D01*
X52976243Y28407754D01*
X53178412Y28473443D01*
X53367816Y28569949D01*
X53367820Y28569951D01*
X53539786Y28694890D01*
X53690109Y28845213D01*
X53815050Y29017182D01*
X53819516Y29025946D01*
X53867491Y29076742D01*
X53935312Y29093536D01*
X54001447Y29070998D01*
X54040484Y29025946D01*
X54044949Y29017182D01*
X54169890Y28845213D01*
X54320213Y28694890D01*
X54492179Y28569951D01*
X54681585Y28473444D01*
X54883760Y28407753D01*
X54883759Y28407753D01*
X55053248Y28380909D01*
X55093713Y28374500D01*
X55093714Y28374500D01*
X55306286Y28374500D01*
X55306287Y28374500D01*
X55369644Y28384534D01*
X55516239Y28407753D01*
X55516241Y28407753D01*
X55516243Y28407754D01*
X55718412Y28473443D01*
X55907816Y28569949D01*
X55907820Y28569951D01*
X56079786Y28694890D01*
X56230109Y28845213D01*
X56355050Y29017182D01*
X56359516Y29025946D01*
X56407491Y29076742D01*
X56475312Y29093536D01*
X56541447Y29070998D01*
X56580484Y29025946D01*
X56584949Y29017182D01*
X56709890Y28845213D01*
X56860213Y28694890D01*
X57032179Y28569951D01*
X57221585Y28473444D01*
X57423760Y28407753D01*
X57423759Y28407753D01*
X57593248Y28380909D01*
X57633713Y28374500D01*
X57633714Y28374500D01*
X57846286Y28374500D01*
X57846287Y28374500D01*
X57909644Y28384534D01*
X58056239Y28407753D01*
X58056241Y28407753D01*
X58056243Y28407754D01*
X58258412Y28473443D01*
X58447816Y28569949D01*
X58447820Y28569951D01*
X58619786Y28694890D01*
X58770109Y28845213D01*
X58895050Y29017182D01*
X58899516Y29025946D01*
X58947491Y29076742D01*
X59015312Y29093536D01*
X59081447Y29070998D01*
X59120484Y29025946D01*
X59124949Y29017182D01*
X59249890Y28845213D01*
X59400213Y28694890D01*
X59572179Y28569951D01*
X59761585Y28473444D01*
X59963760Y28407753D01*
X59963759Y28407753D01*
X60133248Y28380909D01*
X60173713Y28374500D01*
X60173714Y28374500D01*
X60386286Y28374500D01*
X60386287Y28374500D01*
X60449644Y28384534D01*
X60596239Y28407753D01*
X60596241Y28407753D01*
X60596243Y28407754D01*
X60798412Y28473443D01*
X60987816Y28569949D01*
X60987820Y28569951D01*
X61159786Y28694890D01*
X61310109Y28845213D01*
X61435050Y29017182D01*
X61439516Y29025946D01*
X61487491Y29076742D01*
X61555312Y29093536D01*
X61621447Y29070998D01*
X61660484Y29025946D01*
X61664949Y29017182D01*
X61789890Y28845213D01*
X61940213Y28694890D01*
X62112179Y28569951D01*
X62301585Y28473444D01*
X62503760Y28407753D01*
X62503759Y28407753D01*
X62673248Y28380909D01*
X62713713Y28374500D01*
X62713714Y28374500D01*
X62926286Y28374500D01*
X62926287Y28374500D01*
X62989644Y28384534D01*
X63136239Y28407753D01*
X63136241Y28407753D01*
X63136243Y28407754D01*
X63338412Y28473443D01*
X63527816Y28569949D01*
X63527820Y28569951D01*
X63699786Y28694890D01*
X63850109Y28845213D01*
X63975050Y29017182D01*
X63979516Y29025946D01*
X64027491Y29076742D01*
X64095312Y29093536D01*
X64161447Y29070998D01*
X64200484Y29025946D01*
X64204949Y29017182D01*
X64329890Y28845213D01*
X64480213Y28694890D01*
X64652179Y28569951D01*
X64841585Y28473444D01*
X65043760Y28407753D01*
X65043759Y28407753D01*
X65213248Y28380909D01*
X65253713Y28374500D01*
X65253714Y28374500D01*
X65466286Y28374500D01*
X65466287Y28374500D01*
X65529644Y28384534D01*
X65676239Y28407753D01*
X65676241Y28407753D01*
X65676243Y28407754D01*
X65878412Y28473443D01*
X66067816Y28569949D01*
X66067820Y28569951D01*
X66239786Y28694890D01*
X66390109Y28845213D01*
X66515050Y29017182D01*
X66519516Y29025946D01*
X66567491Y29076742D01*
X66635312Y29093536D01*
X66701447Y29070998D01*
X66740484Y29025946D01*
X66744949Y29017182D01*
X66869890Y28845213D01*
X67020213Y28694890D01*
X67192179Y28569951D01*
X67381585Y28473444D01*
X67583760Y28407753D01*
X67583759Y28407753D01*
X67753248Y28380909D01*
X67793713Y28374500D01*
X67793714Y28374500D01*
X68006286Y28374500D01*
X68006287Y28374500D01*
X68069644Y28384534D01*
X68216239Y28407753D01*
X68216241Y28407753D01*
X68216243Y28407754D01*
X68418412Y28473443D01*
X68607816Y28569949D01*
X68607820Y28569951D01*
X68779786Y28694890D01*
X68930109Y28845213D01*
X69055050Y29017182D01*
X69059516Y29025946D01*
X69107491Y29076742D01*
X69175312Y29093536D01*
X69241447Y29070998D01*
X69280484Y29025946D01*
X69284949Y29017182D01*
X69409890Y28845213D01*
X69560213Y28694890D01*
X69732179Y28569951D01*
X69921585Y28473444D01*
X70123760Y28407753D01*
X70123759Y28407753D01*
X70293248Y28380909D01*
X70333713Y28374500D01*
X70333714Y28374500D01*
X70546286Y28374500D01*
X70546287Y28374500D01*
X70609644Y28384534D01*
X70756239Y28407753D01*
X70756241Y28407753D01*
X70756243Y28407754D01*
X70958412Y28473443D01*
X71147816Y28569949D01*
X71147820Y28569951D01*
X71319786Y28694890D01*
X71470109Y28845213D01*
X71595050Y29017182D01*
X71599516Y29025946D01*
X71647491Y29076742D01*
X71715312Y29093536D01*
X71781447Y29070998D01*
X71820484Y29025946D01*
X71824949Y29017182D01*
X71949890Y28845213D01*
X72100213Y28694890D01*
X72272179Y28569951D01*
X72461585Y28473444D01*
X72663760Y28407753D01*
X72663759Y28407753D01*
X72833248Y28380909D01*
X72873713Y28374500D01*
X72873714Y28374500D01*
X73086286Y28374500D01*
X73086287Y28374500D01*
X73149644Y28384534D01*
X73296239Y28407753D01*
X73296241Y28407753D01*
X73296243Y28407754D01*
X73498412Y28473443D01*
X73687816Y28569949D01*
X73687820Y28569951D01*
X73859786Y28694890D01*
X74010109Y28845213D01*
X74135048Y29017179D01*
X74139515Y29025946D01*
X74231557Y29206588D01*
X74297246Y29408757D01*
X74330500Y29618713D01*
X74330500Y29831287D01*
X74297246Y30041243D01*
X74231557Y30243412D01*
X74135051Y30432816D01*
X74106877Y30471595D01*
X74010109Y30604786D01*
X74010106Y30604788D01*
X74010104Y30604792D01*
X73859792Y30755104D01*
X73859788Y30755106D01*
X73859786Y30755109D01*
X73687820Y30880048D01*
X73687816Y30880051D01*
X73679054Y30884514D01*
X73628259Y30932488D01*
X73611463Y31000308D01*
X73633999Y31066444D01*
X73679054Y31105484D01*
X73687816Y31109949D01*
X73687820Y31109951D01*
X73859786Y31234890D01*
X74010109Y31385213D01*
X74135048Y31557179D01*
X74139515Y31565946D01*
X74231557Y31746588D01*
X74297246Y31948757D01*
X74330500Y32158713D01*
X74330500Y32371287D01*
X74297246Y32581243D01*
X74231557Y32783412D01*
X74135051Y32972816D01*
X74025485Y33123622D01*
X74010109Y33144786D01*
X74010106Y33144788D01*
X74010104Y33144792D01*
X73859792Y33295104D01*
X73859788Y33295106D01*
X73859786Y33295109D01*
X73709789Y33404086D01*
X73687816Y33420051D01*
X73498412Y33516557D01*
X73296243Y33582246D01*
X73086287Y33615500D01*
X72873713Y33615500D01*
X72663757Y33582246D01*
X72461588Y33516557D01*
X72272184Y33420051D01*
X72272181Y33420049D01*
X72272179Y33420048D01*
X72100213Y33295109D01*
X71949890Y33144786D01*
X71824951Y32972820D01*
X71820486Y32964056D01*
X71772512Y32913259D01*
X71704692Y32896463D01*
X71638556Y32918999D01*
X71599514Y32964056D01*
X71595051Y32972816D01*
X71485485Y33123622D01*
X71470109Y33144786D01*
X71470106Y33144788D01*
X71470104Y33144792D01*
X71319792Y33295104D01*
X71319788Y33295106D01*
X71319786Y33295109D01*
X71169789Y33404086D01*
X71147816Y33420051D01*
X70958412Y33516557D01*
X70756243Y33582246D01*
X70546287Y33615500D01*
X70333713Y33615500D01*
X70123757Y33582246D01*
X69921588Y33516557D01*
X69732184Y33420051D01*
X69732181Y33420049D01*
X69732179Y33420048D01*
X69560213Y33295109D01*
X69409890Y33144786D01*
X69284951Y32972820D01*
X69280486Y32964056D01*
X69232512Y32913259D01*
X69164692Y32896463D01*
X69098556Y32918999D01*
X69059514Y32964056D01*
X69055051Y32972816D01*
X68945485Y33123622D01*
X68930109Y33144786D01*
X68930106Y33144788D01*
X68930104Y33144792D01*
X68779792Y33295104D01*
X68779788Y33295106D01*
X68779786Y33295109D01*
X68629789Y33404086D01*
X68607816Y33420051D01*
X68418412Y33516557D01*
X68216243Y33582246D01*
X68006287Y33615500D01*
X67793713Y33615500D01*
X67583757Y33582246D01*
X67381588Y33516557D01*
X67192184Y33420051D01*
X67192181Y33420049D01*
X67192179Y33420048D01*
X67020213Y33295109D01*
X66869890Y33144786D01*
X66744951Y32972820D01*
X66740486Y32964056D01*
X66692512Y32913259D01*
X66624692Y32896463D01*
X66558556Y32918999D01*
X66519514Y32964056D01*
X66515051Y32972816D01*
X66405485Y33123622D01*
X66390109Y33144786D01*
X66390106Y33144788D01*
X66390104Y33144792D01*
X66239792Y33295104D01*
X66239788Y33295106D01*
X66239786Y33295109D01*
X66089789Y33404086D01*
X66067816Y33420051D01*
X65878412Y33516557D01*
X65676243Y33582246D01*
X65466287Y33615500D01*
X65253713Y33615500D01*
X65043757Y33582246D01*
X64841588Y33516557D01*
X64652184Y33420051D01*
X64652181Y33420049D01*
X64652179Y33420048D01*
X64480213Y33295109D01*
X64329890Y33144786D01*
X64204951Y32972820D01*
X64200486Y32964056D01*
X64152512Y32913259D01*
X64084692Y32896463D01*
X64018556Y32918999D01*
X63979514Y32964056D01*
X63975051Y32972816D01*
X63865485Y33123622D01*
X63850109Y33144786D01*
X63850106Y33144788D01*
X63850104Y33144792D01*
X63699792Y33295104D01*
X63699788Y33295106D01*
X63699786Y33295109D01*
X63549789Y33404086D01*
X63527816Y33420051D01*
X63338412Y33516557D01*
X63136243Y33582246D01*
X62926287Y33615500D01*
X62713713Y33615500D01*
X62503757Y33582246D01*
X62301588Y33516557D01*
X62112184Y33420051D01*
X62112181Y33420049D01*
X62112179Y33420048D01*
X61940213Y33295109D01*
X61789890Y33144786D01*
X61664951Y32972820D01*
X61660486Y32964056D01*
X61612512Y32913259D01*
X61544692Y32896463D01*
X61478556Y32918999D01*
X61439514Y32964056D01*
X61435051Y32972816D01*
X61325485Y33123622D01*
X61310109Y33144786D01*
X61310106Y33144788D01*
X61310104Y33144792D01*
X61159792Y33295104D01*
X61159788Y33295106D01*
X61159786Y33295109D01*
X61009789Y33404086D01*
X60987816Y33420051D01*
X60798412Y33516557D01*
X60596243Y33582246D01*
X60386287Y33615500D01*
X60173713Y33615500D01*
X59963757Y33582246D01*
X59761588Y33516557D01*
X59572184Y33420051D01*
X59572181Y33420049D01*
X59572179Y33420048D01*
X59400213Y33295109D01*
X59249890Y33144786D01*
X59124951Y32972820D01*
X59120486Y32964056D01*
X59072512Y32913259D01*
X59004692Y32896463D01*
X58938556Y32918999D01*
X58899514Y32964056D01*
X58895051Y32972816D01*
X58785485Y33123622D01*
X58770109Y33144786D01*
X58770106Y33144788D01*
X58770104Y33144792D01*
X58619792Y33295104D01*
X58619788Y33295106D01*
X58619786Y33295109D01*
X58469789Y33404086D01*
X58447816Y33420051D01*
X58258412Y33516557D01*
X58056243Y33582246D01*
X57846287Y33615500D01*
X57633713Y33615500D01*
X57423757Y33582246D01*
X57221588Y33516557D01*
X57032184Y33420051D01*
X57032181Y33420049D01*
X57032179Y33420048D01*
X56860213Y33295109D01*
X56709890Y33144786D01*
X56584951Y32972820D01*
X56580486Y32964056D01*
X56532512Y32913259D01*
X56464692Y32896463D01*
X56398556Y32918999D01*
X56359514Y32964056D01*
X56355051Y32972816D01*
X56245485Y33123622D01*
X56230109Y33144786D01*
X56230106Y33144788D01*
X56230104Y33144792D01*
X56079792Y33295104D01*
X56079788Y33295106D01*
X56079786Y33295109D01*
X55929789Y33404086D01*
X55907816Y33420051D01*
X55718412Y33516557D01*
X55516243Y33582246D01*
X55306287Y33615500D01*
X55093713Y33615500D01*
X54883757Y33582246D01*
X54681588Y33516557D01*
X54492184Y33420051D01*
X54492181Y33420049D01*
X54492179Y33420048D01*
X54320213Y33295109D01*
X54169890Y33144786D01*
X54044951Y32972820D01*
X54040486Y32964056D01*
X53992512Y32913259D01*
X53924692Y32896463D01*
X53858556Y32918999D01*
X53819514Y32964056D01*
X53815051Y32972816D01*
X53705485Y33123622D01*
X53690109Y33144786D01*
X53690106Y33144788D01*
X53690104Y33144792D01*
X53539792Y33295104D01*
X53539788Y33295106D01*
X53539786Y33295109D01*
X53389789Y33404086D01*
X53367816Y33420051D01*
X53178412Y33516557D01*
X52976243Y33582246D01*
X52766287Y33615500D01*
X52553713Y33615500D01*
X52343757Y33582246D01*
X52141588Y33516557D01*
X51952184Y33420051D01*
X51952181Y33420049D01*
X51952179Y33420048D01*
X51780213Y33295109D01*
X51629890Y33144786D01*
X51504951Y32972820D01*
X51500486Y32964056D01*
X51452512Y32913259D01*
X51384692Y32896463D01*
X51318556Y32918999D01*
X51279514Y32964056D01*
X51275051Y32972816D01*
X51165485Y33123622D01*
X51150109Y33144786D01*
X51150106Y33144788D01*
X51150104Y33144792D01*
X50999792Y33295104D01*
X50999788Y33295106D01*
X50999786Y33295109D01*
X50849789Y33404086D01*
X50827816Y33420051D01*
X50638412Y33516557D01*
X50436243Y33582246D01*
X50226287Y33615500D01*
X50013713Y33615500D01*
X49803757Y33582246D01*
X49601588Y33516557D01*
X49412184Y33420051D01*
X49412181Y33420049D01*
X49412179Y33420048D01*
X49240213Y33295109D01*
X49089890Y33144786D01*
X48964951Y32972820D01*
X48960486Y32964056D01*
X48912512Y32913259D01*
X48844692Y32896463D01*
X48778556Y32918999D01*
X48739514Y32964056D01*
X48735051Y32972816D01*
X48625485Y33123622D01*
X48610109Y33144786D01*
X48610106Y33144788D01*
X48610104Y33144792D01*
X48459792Y33295104D01*
X48459788Y33295106D01*
X48459786Y33295109D01*
X48309789Y33404086D01*
X48287816Y33420051D01*
X48098412Y33516557D01*
X47896243Y33582246D01*
X47686287Y33615500D01*
X47473713Y33615500D01*
X47263757Y33582246D01*
X47061588Y33516557D01*
X46872184Y33420051D01*
X46872181Y33420049D01*
X46872179Y33420048D01*
X46700213Y33295109D01*
X46549890Y33144786D01*
X46424951Y32972820D01*
X46420486Y32964056D01*
X46372512Y32913259D01*
X46304692Y32896463D01*
X46238556Y32918999D01*
X46199514Y32964056D01*
X46195051Y32972816D01*
X46085485Y33123622D01*
X46070109Y33144786D01*
X46070106Y33144788D01*
X46070104Y33144792D01*
X45919792Y33295104D01*
X45919788Y33295106D01*
X45919786Y33295109D01*
X45769789Y33404086D01*
X45747816Y33420051D01*
X45558412Y33516557D01*
X45356243Y33582246D01*
X45146287Y33615500D01*
X44933713Y33615500D01*
X44723757Y33582246D01*
X44521588Y33516557D01*
X44332184Y33420051D01*
X44332181Y33420049D01*
X44332179Y33420048D01*
X44160213Y33295109D01*
X44009890Y33144786D01*
X43884951Y32972820D01*
X43880486Y32964056D01*
X43832512Y32913259D01*
X43764692Y32896463D01*
X43698556Y32918999D01*
X43659514Y32964056D01*
X43655051Y32972816D01*
X43545485Y33123622D01*
X43530109Y33144786D01*
X43530106Y33144788D01*
X43530104Y33144792D01*
X43379792Y33295104D01*
X43379788Y33295106D01*
X43379786Y33295109D01*
X43229789Y33404086D01*
X43207816Y33420051D01*
X43018412Y33516557D01*
X42816243Y33582246D01*
X42606287Y33615500D01*
X42393713Y33615500D01*
X42183757Y33582246D01*
X41981588Y33516557D01*
X41792184Y33420051D01*
X41792181Y33420049D01*
X41792179Y33420048D01*
X41620213Y33295109D01*
X41469890Y33144786D01*
X41344951Y32972820D01*
X41340486Y32964056D01*
X41292512Y32913259D01*
X41224692Y32896463D01*
X41158556Y32918999D01*
X41119514Y32964056D01*
X41115051Y32972816D01*
X41005485Y33123622D01*
X40990109Y33144786D01*
X40990106Y33144788D01*
X40990104Y33144792D01*
X40839792Y33295104D01*
X40839788Y33295106D01*
X40839786Y33295109D01*
X40689789Y33404086D01*
X40667816Y33420051D01*
X40478412Y33516557D01*
X40276243Y33582246D01*
X40066287Y33615500D01*
X39853713Y33615500D01*
X39643757Y33582246D01*
X39441588Y33516557D01*
X39252184Y33420051D01*
X39252181Y33420049D01*
X39252179Y33420048D01*
X39080213Y33295109D01*
X38929890Y33144786D01*
X38804951Y32972820D01*
X38800486Y32964056D01*
X38752512Y32913259D01*
X38684692Y32896463D01*
X38618556Y32918999D01*
X38579514Y32964056D01*
X38575051Y32972816D01*
X38465485Y33123622D01*
X38450109Y33144786D01*
X38450106Y33144788D01*
X38450104Y33144792D01*
X38299792Y33295104D01*
X38299788Y33295106D01*
X38299786Y33295109D01*
X38149789Y33404086D01*
X38127816Y33420051D01*
X37938412Y33516557D01*
X37736243Y33582246D01*
X37526287Y33615500D01*
X37313713Y33615500D01*
X37103757Y33582246D01*
X36901588Y33516557D01*
X36712184Y33420051D01*
X36712181Y33420049D01*
X36712179Y33420048D01*
X36540213Y33295109D01*
X36389890Y33144786D01*
X36264951Y32972820D01*
X36260486Y32964056D01*
X36212512Y32913259D01*
X36144692Y32896463D01*
X36078556Y32918999D01*
X36039514Y32964056D01*
X36035051Y32972816D01*
X35925485Y33123622D01*
X35910109Y33144786D01*
X35910106Y33144788D01*
X35910104Y33144792D01*
X35759792Y33295104D01*
X35759788Y33295106D01*
X35759786Y33295109D01*
X35609789Y33404086D01*
X35587816Y33420051D01*
X35398412Y33516557D01*
X35196243Y33582246D01*
X34986287Y33615500D01*
X34773713Y33615500D01*
X34563757Y33582246D01*
X34361588Y33516557D01*
X34172184Y33420051D01*
X34172181Y33420049D01*
X34172179Y33420048D01*
X34000213Y33295109D01*
X33849890Y33144786D01*
X33724951Y32972820D01*
X33720486Y32964056D01*
X33672512Y32913259D01*
X33604692Y32896463D01*
X33538556Y32918999D01*
X33499514Y32964056D01*
X33495051Y32972816D01*
X33385485Y33123622D01*
X33370109Y33144786D01*
X33370106Y33144788D01*
X33370104Y33144792D01*
X33219792Y33295104D01*
X33219788Y33295106D01*
X33219786Y33295109D01*
X33069789Y33404086D01*
X33047816Y33420051D01*
X32858412Y33516557D01*
X32656243Y33582246D01*
X32446287Y33615500D01*
X32233713Y33615500D01*
X32023757Y33582246D01*
X31821588Y33516557D01*
X31632184Y33420051D01*
X31632181Y33420049D01*
X31632179Y33420048D01*
X31460213Y33295109D01*
X31309890Y33144786D01*
X31184951Y32972820D01*
X31180486Y32964056D01*
X31132512Y32913259D01*
X31064692Y32896463D01*
X30998556Y32918999D01*
X30959514Y32964056D01*
X30955051Y32972816D01*
X30845485Y33123622D01*
X30830109Y33144786D01*
X30830106Y33144788D01*
X30830104Y33144792D01*
X30679792Y33295104D01*
X30679788Y33295106D01*
X30679786Y33295109D01*
X30529789Y33404086D01*
X30507816Y33420051D01*
X30318412Y33516557D01*
X30116243Y33582246D01*
X29906287Y33615500D01*
X29693713Y33615500D01*
X29483757Y33582246D01*
X29281588Y33516557D01*
X29092184Y33420051D01*
X29092181Y33420049D01*
X29092179Y33420048D01*
X28920213Y33295109D01*
X28769890Y33144786D01*
X28644951Y32972820D01*
X28640486Y32964056D01*
X28592512Y32913259D01*
X28524692Y32896463D01*
X28458556Y32918999D01*
X28419514Y32964056D01*
X28415051Y32972816D01*
X28305485Y33123622D01*
X28290109Y33144786D01*
X28290106Y33144788D01*
X28290104Y33144792D01*
X28139792Y33295104D01*
X28139788Y33295106D01*
X28139786Y33295109D01*
X27989789Y33404086D01*
X27967816Y33420051D01*
X27778412Y33516557D01*
X27576243Y33582246D01*
X27366287Y33615500D01*
X27153713Y33615500D01*
X26943757Y33582246D01*
X26741588Y33516557D01*
X26552184Y33420051D01*
X26552181Y33420049D01*
X26552179Y33420048D01*
X26380213Y33295109D01*
X26229890Y33144786D01*
X26104951Y32972820D01*
X26100486Y32964056D01*
X26052512Y32913259D01*
X25984692Y32896463D01*
X25918556Y32918999D01*
X25879514Y32964056D01*
X25875051Y32972816D01*
X25765485Y33123622D01*
X25750109Y33144786D01*
X25750106Y33144788D01*
X25750104Y33144792D01*
X25599792Y33295104D01*
X25599788Y33295106D01*
X25599786Y33295109D01*
X25449789Y33404086D01*
X25427816Y33420051D01*
X25238412Y33516557D01*
X25036243Y33582246D01*
X24826287Y33615500D01*
X24613713Y33615500D01*
X24403757Y33582246D01*
X24201588Y33516557D01*
X24012184Y33420051D01*
X24012181Y33420049D01*
X24012179Y33420048D01*
X23840213Y33295109D01*
X23689890Y33144786D01*
X23564951Y32972820D01*
X23560486Y32964056D01*
X23512512Y32913259D01*
X23444692Y32896463D01*
X23378556Y32918999D01*
X23339514Y32964056D01*
X23335051Y32972816D01*
X23225485Y33123622D01*
X23210109Y33144786D01*
X23210106Y33144788D01*
X23210104Y33144792D01*
X23059792Y33295104D01*
X23059788Y33295106D01*
X23059786Y33295109D01*
X22909789Y33404086D01*
X22887816Y33420051D01*
X22698412Y33516557D01*
X22496243Y33582246D01*
X22286287Y33615500D01*
X22073713Y33615500D01*
X21863757Y33582246D01*
X21661588Y33516557D01*
X21472184Y33420051D01*
X21472181Y33420049D01*
X21472179Y33420048D01*
X21300213Y33295109D01*
X21149890Y33144786D01*
X21024951Y32972820D01*
X21020486Y32964056D01*
X20972512Y32913259D01*
X20904692Y32896463D01*
X20838556Y32918999D01*
X20799514Y32964056D01*
X20795051Y32972816D01*
X20685485Y33123622D01*
X20670109Y33144786D01*
X20670106Y33144788D01*
X20670104Y33144792D01*
X20519792Y33295104D01*
X20519788Y33295106D01*
X20519786Y33295109D01*
X20369789Y33404086D01*
X20347816Y33420051D01*
X20158412Y33516557D01*
X19956243Y33582246D01*
X19746287Y33615500D01*
X19533713Y33615500D01*
X19323757Y33582246D01*
X19121588Y33516557D01*
X18932184Y33420051D01*
X18932181Y33420049D01*
X18932179Y33420048D01*
X18760213Y33295109D01*
X18609890Y33144786D01*
X18484951Y32972820D01*
X18480486Y32964056D01*
X18432512Y32913259D01*
X18364692Y32896463D01*
X18298556Y32918999D01*
X18259514Y32964056D01*
X18255051Y32972816D01*
X18145485Y33123622D01*
X18130109Y33144786D01*
X18130106Y33144788D01*
X18130104Y33144792D01*
X17979792Y33295104D01*
X17979788Y33295106D01*
X17979786Y33295109D01*
X17829789Y33404086D01*
X17807816Y33420051D01*
X17618412Y33516557D01*
X17416243Y33582246D01*
X17206287Y33615500D01*
X16993713Y33615500D01*
X16783757Y33582246D01*
X16581588Y33516557D01*
X16392184Y33420051D01*
X16392181Y33420049D01*
X16392179Y33420048D01*
X16220213Y33295109D01*
X16069890Y33144786D01*
X15944951Y32972820D01*
X15940486Y32964056D01*
X15892512Y32913259D01*
X15824692Y32896463D01*
X15758556Y32918999D01*
X15719514Y32964056D01*
X15715051Y32972816D01*
X15605485Y33123622D01*
X15590109Y33144786D01*
X15590106Y33144788D01*
X15590104Y33144792D01*
X15439792Y33295104D01*
X15439788Y33295106D01*
X15439786Y33295109D01*
X15289789Y33404086D01*
X15267816Y33420051D01*
X15078412Y33516557D01*
X14876243Y33582246D01*
X14666287Y33615500D01*
X14453713Y33615500D01*
X14243757Y33582246D01*
X14041588Y33516557D01*
X13852184Y33420051D01*
X13852181Y33420049D01*
X13852179Y33420048D01*
X13680213Y33295109D01*
X13529890Y33144786D01*
X13404951Y32972820D01*
X13400486Y32964056D01*
X13352512Y32913259D01*
X13284692Y32896463D01*
X13218556Y32918999D01*
X13179514Y32964056D01*
X13175051Y32972816D01*
X13065485Y33123622D01*
X13050109Y33144786D01*
X13050106Y33144788D01*
X13050104Y33144792D01*
X12899792Y33295104D01*
X12899788Y33295106D01*
X12899786Y33295109D01*
X12749789Y33404086D01*
X12727816Y33420051D01*
X12538412Y33516557D01*
X12336243Y33582246D01*
X12126287Y33615500D01*
X11913713Y33615500D01*
X11703757Y33582246D01*
X11501588Y33516557D01*
X11312184Y33420051D01*
X11312181Y33420049D01*
X11312179Y33420048D01*
X11140213Y33295109D01*
X10989890Y33144786D01*
X10864951Y32972820D01*
X10864949Y32972816D01*
X10768443Y32783412D01*
X10758796Y32753722D01*
X10702753Y32581239D01*
X10669500Y32371286D01*
X4661001Y32371286D01*
X4613710Y32547781D01*
X4528405Y32753726D01*
X4416948Y32946774D01*
X4281247Y33123624D01*
X4123624Y33281247D01*
X3946774Y33416948D01*
X3753726Y33528405D01*
X3547781Y33613710D01*
X3332463Y33671404D01*
X3111457Y33700500D01*
X2888543Y33700500D01*
X2667537Y33671404D01*
X2452219Y33613710D01*
X2246274Y33528405D01*
X2053226Y33416948D01*
X2053217Y33416941D01*
X1876377Y33281248D01*
X1876370Y33281242D01*
X1718757Y33123629D01*
X1718751Y33123622D01*
X1596313Y32964056D01*
X1583052Y32946774D01*
X1488734Y32783412D01*
X1471595Y32753726D01*
X1471593Y32753722D01*
X1386293Y32547790D01*
X1386291Y32547783D01*
X1386290Y32547781D01*
X1328596Y32332463D01*
X1328595Y32332457D01*
X1328594Y32332452D01*
X1299501Y32111466D01*
X1299500Y32111450D01*
X1000000Y32111450D01*
X1000000Y33449905D01*
X1019685Y33516944D01*
X1026389Y33526378D01*
X1124473Y33651574D01*
X1134403Y33662782D01*
X1337217Y33865596D01*
X1348425Y33875526D01*
X1473621Y33973611D01*
X1538533Y33999460D01*
X1550094Y34000000D01*
X77623820Y34000000D01*
X77690859Y33980315D01*
G37*
%TD.AperFunction*%
%TD*%
M02*
