%TF.GenerationSoftware,KiCad,Pcbnew,9.0.1*%
%TF.CreationDate,2025-04-21T04:08:05+03:00*%
%TF.ProjectId,k1921vg015_devboard,6b313932-3176-4673-9031-355f64657662,rev?*%
%TF.SameCoordinates,Original*%
%TF.FileFunction,Copper,L1,Top*%
%TF.FilePolarity,Positive*%
%FSLAX46Y46*%
G04 Gerber Fmt 4.6, Leading zero omitted, Abs format (unit mm)*
G04 Created by KiCad (PCBNEW 9.0.1) date 2025-04-21 04:08:05*
%MOMM*%
%LPD*%
G01*
G04 APERTURE LIST*
G04 Aperture macros list*
%AMRoundRect*
0 Rectangle with rounded corners*
0 $1 Rounding radius*
0 $2 $3 $4 $5 $6 $7 $8 $9 X,Y pos of 4 corners*
0 Add a 4 corners polygon primitive as box body*
4,1,4,$2,$3,$4,$5,$6,$7,$8,$9,$2,$3,0*
0 Add four circle primitives for the rounded corners*
1,1,$1+$1,$2,$3*
1,1,$1+$1,$4,$5*
1,1,$1+$1,$6,$7*
1,1,$1+$1,$8,$9*
0 Add four rect primitives between the rounded corners*
20,1,$1+$1,$2,$3,$4,$5,0*
20,1,$1+$1,$4,$5,$6,$7,0*
20,1,$1+$1,$6,$7,$8,$9,0*
20,1,$1+$1,$8,$9,$2,$3,0*%
G04 Aperture macros list end*
%TA.AperFunction,SMDPad,CuDef*%
%ADD10RoundRect,0.075000X-0.459619X-0.565685X0.565685X0.459619X0.459619X0.565685X-0.565685X-0.459619X0*%
%TD*%
%TA.AperFunction,SMDPad,CuDef*%
%ADD11RoundRect,0.075000X0.459619X-0.565685X0.565685X-0.459619X-0.459619X0.565685X-0.565685X0.459619X0*%
%TD*%
%TA.AperFunction,ComponentPad*%
%ADD12R,1.700000X1.700000*%
%TD*%
%TA.AperFunction,ComponentPad*%
%ADD13C,1.700000*%
%TD*%
%TA.AperFunction,SMDPad,CuDef*%
%ADD14RoundRect,0.250000X0.350000X0.450000X-0.350000X0.450000X-0.350000X-0.450000X0.350000X-0.450000X0*%
%TD*%
%TA.AperFunction,SMDPad,CuDef*%
%ADD15RoundRect,0.250000X-0.350000X-0.450000X0.350000X-0.450000X0.350000X0.450000X-0.350000X0.450000X0*%
%TD*%
%TA.AperFunction,SMDPad,CuDef*%
%ADD16RoundRect,0.175000X-0.425000X0.175000X-0.425000X-0.175000X0.425000X-0.175000X0.425000X0.175000X0*%
%TD*%
%TA.AperFunction,SMDPad,CuDef*%
%ADD17RoundRect,0.190000X0.410000X-0.190000X0.410000X0.190000X-0.410000X0.190000X-0.410000X-0.190000X0*%
%TD*%
%TA.AperFunction,SMDPad,CuDef*%
%ADD18RoundRect,0.200000X0.400000X-0.200000X0.400000X0.200000X-0.400000X0.200000X-0.400000X-0.200000X0*%
%TD*%
%TA.AperFunction,SMDPad,CuDef*%
%ADD19RoundRect,0.175000X0.425000X-0.175000X0.425000X0.175000X-0.425000X0.175000X-0.425000X-0.175000X0*%
%TD*%
%TA.AperFunction,SMDPad,CuDef*%
%ADD20RoundRect,0.190000X-0.410000X0.190000X-0.410000X-0.190000X0.410000X-0.190000X0.410000X0.190000X0*%
%TD*%
%TA.AperFunction,SMDPad,CuDef*%
%ADD21RoundRect,0.200000X-0.400000X0.200000X-0.400000X-0.200000X0.400000X-0.200000X0.400000X0.200000X0*%
%TD*%
%TA.AperFunction,SMDPad,CuDef*%
%ADD22RoundRect,0.250000X-0.425000X0.650000X-0.425000X-0.650000X0.425000X-0.650000X0.425000X0.650000X0*%
%TD*%
%TA.AperFunction,SMDPad,CuDef*%
%ADD23RoundRect,0.250000X-0.500000X0.650000X-0.500000X-0.650000X0.500000X-0.650000X0.500000X0.650000X0*%
%TD*%
%TA.AperFunction,SMDPad,CuDef*%
%ADD24RoundRect,0.250000X1.400000X0.600000X-1.400000X0.600000X-1.400000X-0.600000X1.400000X-0.600000X0*%
%TD*%
%TA.AperFunction,SMDPad,CuDef*%
%ADD25RoundRect,0.375000X-0.625000X-0.375000X0.625000X-0.375000X0.625000X0.375000X-0.625000X0.375000X0*%
%TD*%
%TA.AperFunction,SMDPad,CuDef*%
%ADD26RoundRect,0.500000X-0.500000X-1.400000X0.500000X-1.400000X0.500000X1.400000X-0.500000X1.400000X0*%
%TD*%
%TA.AperFunction,SMDPad,CuDef*%
%ADD27RoundRect,0.250000X-0.475000X0.337500X-0.475000X-0.337500X0.475000X-0.337500X0.475000X0.337500X0*%
%TD*%
%TA.AperFunction,SMDPad,CuDef*%
%ADD28RoundRect,0.250000X0.450000X-0.350000X0.450000X0.350000X-0.450000X0.350000X-0.450000X-0.350000X0*%
%TD*%
%TA.AperFunction,ViaPad*%
%ADD29C,2.400000*%
%TD*%
%TA.AperFunction,ViaPad*%
%ADD30C,0.600000*%
%TD*%
%TA.AperFunction,Conductor*%
%ADD31C,0.250000*%
%TD*%
%TA.AperFunction,Conductor*%
%ADD32C,0.200000*%
%TD*%
G04 APERTURE END LIST*
D10*
%TO.P,D2,1,AT_IN0*%
%TO.N,/AT_IN0*%
X32830315Y-1184404D03*
%TO.P,D2,2,AT_IN1*%
%TO.N,/AT_IN1*%
X33183868Y-1537957D03*
%TO.P,D2,3,AT_IN2*%
%TO.N,/AT_IN2*%
X33537422Y-1891511D03*
%TO.P,D2,4,AT_OUT*%
%TO.N,/AT_OUT*%
X33890975Y-2245064D03*
%TO.P,D2,5,CMP_INN0*%
%TO.N,/CMP_INN0*%
X34244528Y-2598617D03*
%TO.P,D2,6,CMP_INP0*%
%TO.N,/CMP_INP0*%
X34598082Y-2952171D03*
%TO.P,D2,7,CMP_INN1*%
%TO.N,/CMP_INN1*%
X34951635Y-3305724D03*
%TO.P,D2,8,CMP_INP1*%
%TO.N,/CMP_INP1*%
X35305189Y-3659278D03*
%TO.P,D2,9,XI_OSC*%
%TO.N,/OSC_P*%
X35658742Y-4012831D03*
%TO.P,D2,10,XO_OSC*%
%TO.N,/OSC_N*%
X36012295Y-4366384D03*
%TO.P,D2,11,GND1*%
%TO.N,GND*%
X36365849Y-4719938D03*
%TO.P,D2,12,VCC1*%
%TO.N,+3V3*%
X36719402Y-5073491D03*
%TO.P,D2,13,VAON_CAP*%
%TO.N,Net-(D2-VAON_CAP)*%
X37072955Y-5427045D03*
%TO.P,D2,14,V_BAT*%
%TO.N,Net-(D2-V_BAT)*%
X37426509Y-5780598D03*
%TO.P,D2,15,VBAT_CAP*%
%TO.N,Net-(D2-VBAT_CAP)*%
X37780062Y-6134151D03*
%TO.P,D2,16,VCC1*%
%TO.N,+3V3*%
X38133616Y-6487705D03*
%TO.P,D2,17,VCORE_CAP*%
%TO.N,Net-(D2-VCORE_CAP)*%
X38487169Y-6841258D03*
%TO.P,D2,18,AREF*%
%TO.N,AREF*%
X38840722Y-7194811D03*
%TO.P,D2,19,VCC2*%
%TO.N,+3V3(A)*%
X39194276Y-7548365D03*
%TO.P,D2,20,GND2*%
%TO.N,GND(A)*%
X39547829Y-7901918D03*
%TO.P,D2,21,ADC_CH0*%
%TO.N,/ADC_CH0*%
X39901383Y-8255472D03*
%TO.P,D2,22,ADC_CH1*%
%TO.N,/ADC_CH1*%
X40254936Y-8609025D03*
%TO.P,D2,23,ADC_CH2*%
%TO.N,/ADC_CH2*%
X40608489Y-8962578D03*
%TO.P,D2,24,ADC_CH3*%
%TO.N,/ADC_CH3*%
X40962043Y-9316132D03*
%TO.P,D2,25,SDADC_CAP*%
%TO.N,Net-(D2-SDADC_CAP)*%
X41315596Y-9669685D03*
D11*
%TO.P,D2,26,ADC_CH4*%
%TO.N,/ADC_CH4*%
X43684404Y-9669685D03*
%TO.P,D2,27,ADC_CH5*%
%TO.N,/ADC_CH5*%
X44037957Y-9316132D03*
%TO.P,D2,28,ADC_CH6*%
%TO.N,/ADC_CH6*%
X44391511Y-8962578D03*
%TO.P,D2,29,ADC_CH7*%
%TO.N,/ADC_CH7*%
X44745064Y-8609025D03*
%TO.P,D2,30,USB_DP*%
%TO.N,/USB_D+*%
X45098617Y-8255472D03*
%TO.P,D2,31,USB_DN*%
%TO.N,/USB_D-*%
X45452171Y-7901918D03*
%TO.P,D2,32,GND1*%
%TO.N,GND*%
X45805724Y-7548365D03*
%TO.P,D2,33,VCC1*%
%TO.N,+3V3*%
X46159278Y-7194811D03*
%TO.P,D2,34,C0*%
%TO.N,/PC0*%
X46512831Y-6841258D03*
%TO.P,D2,35,C1*%
%TO.N,/PC1*%
X46866384Y-6487705D03*
%TO.P,D2,36,C2*%
%TO.N,/PC2*%
X47219938Y-6134151D03*
%TO.P,D2,37,C3*%
%TO.N,/PC3*%
X47573491Y-5780598D03*
%TO.P,D2,38,C4*%
%TO.N,/PC4*%
X47927045Y-5427045D03*
%TO.P,D2,39,C5*%
%TO.N,/PC5*%
X48280598Y-5073491D03*
%TO.P,D2,40,C6*%
%TO.N,/PC6*%
X48634151Y-4719938D03*
%TO.P,D2,41,C7*%
%TO.N,/PC7*%
X48987705Y-4366384D03*
%TO.P,D2,42,C8*%
%TO.N,/PC8*%
X49341258Y-4012831D03*
%TO.P,D2,43,C9*%
%TO.N,/PC9*%
X49694811Y-3659278D03*
%TO.P,D2,44,C10*%
%TO.N,/PC10*%
X50048365Y-3305724D03*
%TO.P,D2,45,C11*%
%TO.N,/PC11*%
X50401918Y-2952171D03*
%TO.P,D2,46,C12*%
%TO.N,/PC12*%
X50755472Y-2598617D03*
%TO.P,D2,47,C13*%
%TO.N,/PC13*%
X51109025Y-2245064D03*
%TO.P,D2,48,C14*%
%TO.N,/PC14*%
X51462578Y-1891511D03*
%TO.P,D2,49,C15*%
%TO.N,/PC15*%
X51816132Y-1537957D03*
%TO.P,D2,50,SERVEN*%
%TO.N,/SERVEN*%
X52169685Y-1184404D03*
D10*
%TO.P,D2,51,VCC1*%
%TO.N,+3V3*%
X52169685Y1184404D03*
%TO.P,D2,52,GND1*%
%TO.N,GND*%
X51816132Y1537957D03*
%TO.P,D2,53,B0*%
%TO.N,/PB0*%
X51462578Y1891511D03*
%TO.P,D2,54,B1*%
%TO.N,/PB1*%
X51109025Y2245064D03*
%TO.P,D2,55,B2*%
%TO.N,/PB2*%
X50755472Y2598617D03*
%TO.P,D2,56,B3*%
%TO.N,/PB3*%
X50401918Y2952171D03*
%TO.P,D2,57,B4*%
%TO.N,/PB4*%
X50048365Y3305724D03*
%TO.P,D2,58,B5*%
%TO.N,/PB5*%
X49694811Y3659278D03*
%TO.P,D2,59,B6*%
%TO.N,/PB6*%
X49341258Y4012831D03*
%TO.P,D2,60,B7*%
%TO.N,/PB7*%
X48987705Y4366384D03*
%TO.P,D2,61,VCC1*%
%TO.N,+3V3*%
X48634151Y4719938D03*
%TO.P,D2,62,B8*%
%TO.N,/PB8*%
X48280598Y5073491D03*
%TO.P,D2,63,B9*%
%TO.N,/PB9*%
X47927045Y5427045D03*
%TO.P,D2,64,B10*%
%TO.N,/PB10*%
X47573491Y5780598D03*
%TO.P,D2,65,B11*%
%TO.N,/PB11*%
X47219938Y6134151D03*
%TO.P,D2,66,B12*%
%TO.N,/PB12*%
X46866384Y6487705D03*
%TO.P,D2,67,B13*%
%TO.N,/PB13*%
X46512831Y6841258D03*
%TO.P,D2,68,B14*%
%TO.N,/PB14*%
X46159278Y7194811D03*
%TO.P,D2,69,B15*%
%TO.N,/PB15*%
X45805724Y7548365D03*
%TO.P,D2,70,TMS*%
%TO.N,/TMS*%
X45452171Y7901918D03*
%TO.P,D2,71,TDO*%
%TO.N,/TDO*%
X45098617Y8255472D03*
%TO.P,D2,72,TDI*%
%TO.N,/TDI*%
X44745064Y8609025D03*
%TO.P,D2,73,TCK*%
%TO.N,/TCK*%
X44391511Y8962578D03*
%TO.P,D2,74,GND1*%
%TO.N,GND*%
X44037957Y9316132D03*
%TO.P,D2,75,VCC1*%
%TO.N,+3V3*%
X43684404Y9669685D03*
D11*
%TO.P,D2,76,TRST*%
%TO.N,/TRST*%
X41315596Y9669685D03*
%TO.P,D2,77,A0*%
%TO.N,/PA0*%
X40962043Y9316132D03*
%TO.P,D2,78,A1*%
%TO.N,/PA1*%
X40608489Y8962578D03*
%TO.P,D2,79,A2*%
%TO.N,/PA2*%
X40254936Y8609025D03*
%TO.P,D2,80,A3*%
%TO.N,/PA3*%
X39901383Y8255472D03*
%TO.P,D2,81,A4*%
%TO.N,/PA4*%
X39547829Y7901918D03*
%TO.P,D2,82,A5*%
%TO.N,/PA5*%
X39194276Y7548365D03*
%TO.P,D2,83,A6*%
%TO.N,/PA6*%
X38840722Y7194811D03*
%TO.P,D2,84,A7*%
%TO.N,/PA7*%
X38487169Y6841258D03*
%TO.P,D2,85,A8*%
%TO.N,/PA8*%
X38133616Y6487705D03*
%TO.P,D2,86,A9*%
%TO.N,/PA9*%
X37780062Y6134151D03*
%TO.P,D2,87,A10*%
%TO.N,/PA10*%
X37426509Y5780598D03*
%TO.P,D2,88,A11*%
%TO.N,/PA11*%
X37072955Y5427045D03*
%TO.P,D2,89,A12*%
%TO.N,/PA12*%
X36719402Y5073491D03*
%TO.P,D2,90,A13*%
%TO.N,/PA13*%
X36365849Y4719938D03*
%TO.P,D2,91,A14*%
%TO.N,/PA14*%
X36012295Y4366384D03*
%TO.P,D2,92,A15*%
%TO.N,/PA15*%
X35658742Y4012831D03*
%TO.P,D2,93,VCC1*%
%TO.N,+3V3*%
X35305189Y3659278D03*
%TO.P,D2,94,GND1*%
%TO.N,GND*%
X34951635Y3305724D03*
%TO.P,D2,95,RST*%
%TO.N,/RST*%
X34598082Y2952171D03*
%TO.P,D2,96,XO_RTC*%
%TO.N,/RTC_N*%
X34244528Y2598617D03*
%TO.P,D2,97,XI_RTC*%
%TO.N,/RTC_P*%
X33890975Y2245064D03*
%TO.P,D2,98,WAKEUP2*%
%TO.N,/WAKEUP2*%
X33537422Y1891511D03*
%TO.P,D2,99,WAKEUP1*%
%TO.N,/WAKEUP1*%
X33183868Y1537957D03*
%TO.P,D2,100,WAKEUP0*%
%TO.N,/WAKEUP0*%
X32830315Y1184404D03*
%TD*%
D12*
%TO.P,J3,1,Pin_1*%
%TO.N,/RST*%
X5420000Y16080000D03*
D13*
%TO.P,J3,2,Pin_2*%
%TO.N,+3V3*%
X2880000Y16080000D03*
%TO.P,J3,3,Pin_3*%
%TO.N,/TRST*%
X5420000Y18620000D03*
%TO.P,J3,4,Pin_4*%
%TO.N,GND*%
X2880000Y18620000D03*
%TO.P,J3,5,Pin_5*%
%TO.N,/TCK*%
X5420000Y21160000D03*
%TO.P,J3,6,Pin_6*%
%TO.N,GND*%
X2880000Y21160000D03*
%TO.P,J3,7,Pin_7*%
%TO.N,/TDI*%
X5420000Y23700000D03*
%TO.P,J3,8,Pin_8*%
%TO.N,GND*%
X2880000Y23700000D03*
%TO.P,J3,9,Pin_9*%
%TO.N,/TDO*%
X5420000Y26240000D03*
%TO.P,J3,10,Pin_10*%
%TO.N,GND*%
X2880000Y26240000D03*
%TO.P,J3,11,Pin_11*%
%TO.N,/TMS*%
X5420000Y28780000D03*
%TO.P,J3,12,Pin_12*%
%TO.N,GND*%
X2880000Y28780000D03*
%TD*%
D14*
%TO.P,R15,1*%
%TO.N,GND*%
X77500000Y-14565000D03*
%TO.P,R15,2*%
%TO.N,/SERVEN*%
X75500000Y-14565000D03*
%TD*%
D15*
%TO.P,R1,1*%
%TO.N,Net-(J4-Pin_1)*%
X75500000Y-12025000D03*
%TO.P,R1,2*%
%TO.N,+3V3*%
X77500000Y-12025000D03*
%TD*%
D12*
%TO.P,J2,1,Pin_1*%
%TO.N,/WAKEUP0*%
X12020000Y29725000D03*
D13*
%TO.P,J2,2,Pin_2*%
%TO.N,/WAKEUP1*%
X12020000Y32265000D03*
%TO.P,J2,3,Pin_3*%
%TO.N,/WAKEUP2*%
X14560000Y29725000D03*
%TO.P,J2,4,Pin_4*%
%TO.N,unconnected-(J2-Pin_4-Pad4)*%
X14560000Y32265000D03*
%TO.P,J2,5,Pin_5*%
%TO.N,unconnected-(J2-Pin_5-Pad5)*%
X17100000Y29725000D03*
%TO.P,J2,6,Pin_6*%
%TO.N,unconnected-(J2-Pin_6-Pad6)*%
X17100000Y32265000D03*
%TO.P,J2,7,Pin_7*%
%TO.N,unconnected-(J2-Pin_7-Pad7)*%
X19640000Y29725000D03*
%TO.P,J2,8,Pin_8*%
%TO.N,unconnected-(J2-Pin_8-Pad8)*%
X19640000Y32265000D03*
%TO.P,J2,9,Pin_9*%
%TO.N,/PA14*%
X22180000Y29725000D03*
%TO.P,J2,10,Pin_10*%
%TO.N,/PA15*%
X22180000Y32265000D03*
%TO.P,J2,11,Pin_11*%
%TO.N,/PA12*%
X24720000Y29725000D03*
%TO.P,J2,12,Pin_12*%
%TO.N,/PA13*%
X24720000Y32265000D03*
%TO.P,J2,13,Pin_13*%
%TO.N,/PA10*%
X27260000Y29725000D03*
%TO.P,J2,14,Pin_14*%
%TO.N,/PA11*%
X27260000Y32265000D03*
%TO.P,J2,15,Pin_15*%
%TO.N,/PA8*%
X29800000Y29725000D03*
%TO.P,J2,16,Pin_16*%
%TO.N,/PA9*%
X29800000Y32265000D03*
%TO.P,J2,17,Pin_17*%
%TO.N,/PA6*%
X32340000Y29725000D03*
%TO.P,J2,18,Pin_18*%
%TO.N,/PA7*%
X32340000Y32265000D03*
%TO.P,J2,19,Pin_19*%
%TO.N,/PA4*%
X34880000Y29725000D03*
%TO.P,J2,20,Pin_20*%
%TO.N,/PA5*%
X34880000Y32265000D03*
%TO.P,J2,21,Pin_21*%
%TO.N,/PA2*%
X37420000Y29725000D03*
%TO.P,J2,22,Pin_22*%
%TO.N,/PA3*%
X37420000Y32265000D03*
%TO.P,J2,23,Pin_23*%
%TO.N,/PA0*%
X39960000Y29725000D03*
%TO.P,J2,24,Pin_24*%
%TO.N,/PA1*%
X39960000Y32265000D03*
%TO.P,J2,25,Pin_25*%
%TO.N,unconnected-(J2-Pin_25-Pad25)*%
X42500000Y29725000D03*
%TO.P,J2,26,Pin_26*%
%TO.N,unconnected-(J2-Pin_26-Pad26)*%
X42500000Y32265000D03*
%TO.P,J2,27,Pin_27*%
%TO.N,unconnected-(J2-Pin_27-Pad27)*%
X45040000Y29725000D03*
%TO.P,J2,28,Pin_28*%
%TO.N,unconnected-(J2-Pin_28-Pad28)*%
X45040000Y32265000D03*
%TO.P,J2,29,Pin_29*%
%TO.N,unconnected-(J2-Pin_29-Pad29)*%
X47580000Y29725000D03*
%TO.P,J2,30,Pin_30*%
%TO.N,unconnected-(J2-Pin_30-Pad30)*%
X47580000Y32265000D03*
%TO.P,J2,31,Pin_31*%
%TO.N,unconnected-(J2-Pin_31-Pad31)*%
X50120000Y29725000D03*
%TO.P,J2,32,Pin_32*%
%TO.N,/PB15*%
X50120000Y32265000D03*
%TO.P,J2,33,Pin_33*%
%TO.N,/PB14*%
X52660000Y29725000D03*
%TO.P,J2,34,Pin_34*%
%TO.N,/PB13*%
X52660000Y32265000D03*
%TO.P,J2,35,Pin_35*%
%TO.N,/PB12*%
X55200000Y29725000D03*
%TO.P,J2,36,Pin_36*%
%TO.N,/PB11*%
X55200000Y32265000D03*
%TO.P,J2,37,Pin_37*%
%TO.N,/PB10*%
X57740000Y29725000D03*
%TO.P,J2,38,Pin_38*%
%TO.N,/PB9*%
X57740000Y32265000D03*
%TO.P,J2,39,Pin_39*%
%TO.N,/PB8*%
X60280000Y29725000D03*
%TO.P,J2,40,Pin_40*%
%TO.N,unconnected-(J2-Pin_40-Pad40)*%
X60280000Y32265000D03*
%TO.P,J2,41,Pin_41*%
%TO.N,/PB7*%
X62820000Y29725000D03*
%TO.P,J2,42,Pin_42*%
%TO.N,/PB6*%
X62820000Y32265000D03*
%TO.P,J2,43,Pin_43*%
%TO.N,/PB5*%
X65360000Y29725000D03*
%TO.P,J2,44,Pin_44*%
%TO.N,/PB4*%
X65360000Y32265000D03*
%TO.P,J2,45,Pin_45*%
%TO.N,/PB3*%
X67900000Y29725000D03*
%TO.P,J2,46,Pin_46*%
%TO.N,/PB2*%
X67900000Y32265000D03*
%TO.P,J2,47,Pin_47*%
%TO.N,/PB1*%
X70440000Y29725000D03*
%TO.P,J2,48,Pin_48*%
%TO.N,/PB0*%
X70440000Y32265000D03*
%TO.P,J2,49,Pin_49*%
%TO.N,unconnected-(J2-Pin_49-Pad49)*%
X72980000Y29725000D03*
%TO.P,J2,50,Pin_50*%
%TO.N,unconnected-(J2-Pin_50-Pad50)*%
X72980000Y32265000D03*
%TD*%
D12*
%TO.P,J4,1,Pin_1*%
%TO.N,Net-(J4-Pin_1)*%
X72700000Y-12025000D03*
D13*
%TO.P,J4,2,Pin_2*%
%TO.N,/SERVEN*%
X72700000Y-14565000D03*
%TD*%
D16*
%TO.P,J7,A5,CC1*%
%TO.N,Net-(J7-CC1)*%
X6532500Y500000D03*
D17*
%TO.P,J7,A9,VBUS*%
%TO.N,5V*%
X6532500Y-1520000D03*
D18*
%TO.P,J7,A12,GND*%
%TO.N,GND*%
X6532500Y-2750000D03*
D19*
%TO.P,J7,B5,CC2*%
%TO.N,Net-(J7-CC2)*%
X6532500Y-500000D03*
D20*
%TO.P,J7,B9,VBUS*%
%TO.N,5V*%
X6532500Y1520000D03*
D21*
%TO.P,J7,B12,GND*%
%TO.N,GND*%
X6532500Y2750000D03*
D22*
%TO.P,J7,S1,SHIELD*%
%TO.N,Net-(J7-SHIELD)*%
X6477500Y5125000D03*
D23*
X2897500Y5125000D03*
D22*
X6477500Y-5125000D03*
D23*
X2897500Y-5125000D03*
%TD*%
D24*
%TO.P,D3,1,K*%
%TO.N,+3V3*%
X19750000Y9000000D03*
%TO.P,D3,2,A*%
%TO.N,GND*%
X14250000Y9000000D03*
%TD*%
D25*
%TO.P,U1,1,GND*%
%TO.N,GND*%
X13850000Y2800000D03*
%TO.P,U1,2,VO*%
%TO.N,+3V3*%
X13850000Y500000D03*
D26*
X20150000Y500000D03*
D25*
%TO.P,U1,3,VI*%
%TO.N,5V*%
X13850000Y-1800000D03*
%TD*%
D12*
%TO.P,J1,1,Pin_1*%
%TO.N,/AT_IN0*%
X12020000Y-32275000D03*
D13*
%TO.P,J1,2,Pin_2*%
%TO.N,/AT_IN1*%
X12020000Y-29735000D03*
%TO.P,J1,3,Pin_3*%
%TO.N,/AT_IN2*%
X14560000Y-32275000D03*
%TO.P,J1,4,Pin_4*%
%TO.N,/AT_OUT*%
X14560000Y-29735000D03*
%TO.P,J1,5,Pin_5*%
%TO.N,/CMP_INN0*%
X17100000Y-32275000D03*
%TO.P,J1,6,Pin_6*%
%TO.N,/CMP_INP0*%
X17100000Y-29735000D03*
%TO.P,J1,7,Pin_7*%
%TO.N,/CMP_INN1*%
X19640000Y-32275000D03*
%TO.P,J1,8,Pin_8*%
%TO.N,/CMP_INP1*%
X19640000Y-29735000D03*
%TO.P,J1,9,Pin_9*%
%TO.N,unconnected-(J1-Pin_9-Pad9)*%
X22180000Y-32275000D03*
%TO.P,J1,10,Pin_10*%
%TO.N,unconnected-(J1-Pin_10-Pad10)*%
X22180000Y-29735000D03*
%TO.P,J1,11,Pin_11*%
%TO.N,unconnected-(J1-Pin_11-Pad11)*%
X24720000Y-32275000D03*
%TO.P,J1,12,Pin_12*%
%TO.N,unconnected-(J1-Pin_12-Pad12)*%
X24720000Y-29735000D03*
%TO.P,J1,13,Pin_13*%
%TO.N,unconnected-(J1-Pin_13-Pad13)*%
X27260000Y-32275000D03*
%TO.P,J1,14,Pin_14*%
%TO.N,unconnected-(J1-Pin_14-Pad14)*%
X27260000Y-29735000D03*
%TO.P,J1,15,Pin_15*%
%TO.N,unconnected-(J1-Pin_15-Pad15)*%
X29800000Y-32275000D03*
%TO.P,J1,16,Pin_16*%
%TO.N,unconnected-(J1-Pin_16-Pad16)*%
X29800000Y-29735000D03*
%TO.P,J1,17,Pin_17*%
%TO.N,unconnected-(J1-Pin_17-Pad17)*%
X32340000Y-32275000D03*
%TO.P,J1,18,Pin_18*%
%TO.N,unconnected-(J1-Pin_18-Pad18)*%
X32340000Y-29735000D03*
%TO.P,J1,19,Pin_19*%
%TO.N,unconnected-(J1-Pin_19-Pad19)*%
X34880000Y-32275000D03*
%TO.P,J1,20,Pin_20*%
%TO.N,unconnected-(J1-Pin_20-Pad20)*%
X34880000Y-29735000D03*
%TO.P,J1,21,Pin_21*%
%TO.N,/ADC_CH0*%
X37420000Y-32275000D03*
%TO.P,J1,22,Pin_22*%
%TO.N,/ADC_CH1*%
X37420000Y-29735000D03*
%TO.P,J1,23,Pin_23*%
%TO.N,/ADC_CH2*%
X39960000Y-32275000D03*
%TO.P,J1,24,Pin_24*%
%TO.N,/ADC_CH3*%
X39960000Y-29735000D03*
%TO.P,J1,25,Pin_25*%
%TO.N,unconnected-(J1-Pin_25-Pad25)*%
X42500000Y-32275000D03*
%TO.P,J1,26,Pin_26*%
%TO.N,/ADC_CH4*%
X42500000Y-29735000D03*
%TO.P,J1,27,Pin_27*%
%TO.N,/ADC_CH6*%
X45040000Y-32275000D03*
%TO.P,J1,28,Pin_28*%
%TO.N,/ADC_CH5*%
X45040000Y-29735000D03*
%TO.P,J1,29,Pin_29*%
%TO.N,/ADC_CH7*%
X47580000Y-32275000D03*
%TO.P,J1,30,Pin_30*%
%TO.N,unconnected-(J1-Pin_30-Pad30)*%
X47580000Y-29735000D03*
%TO.P,J1,31,Pin_31*%
%TO.N,unconnected-(J1-Pin_31-Pad31)*%
X50120000Y-32275000D03*
%TO.P,J1,32,Pin_32*%
%TO.N,unconnected-(J1-Pin_32-Pad32)*%
X50120000Y-29735000D03*
%TO.P,J1,33,Pin_33*%
%TO.N,unconnected-(J1-Pin_33-Pad33)*%
X52660000Y-32275000D03*
%TO.P,J1,34,Pin_34*%
%TO.N,/PC0*%
X52660000Y-29735000D03*
%TO.P,J1,35,Pin_35*%
%TO.N,/PC1*%
X55200000Y-32275000D03*
%TO.P,J1,36,Pin_36*%
%TO.N,/PC2*%
X55200000Y-29735000D03*
%TO.P,J1,37,Pin_37*%
%TO.N,/PC3*%
X57740000Y-32275000D03*
%TO.P,J1,38,Pin_38*%
%TO.N,/PC4*%
X57740000Y-29735000D03*
%TO.P,J1,39,Pin_39*%
%TO.N,/PC5*%
X60280000Y-32275000D03*
%TO.P,J1,40,Pin_40*%
%TO.N,/PC6*%
X60280000Y-29735000D03*
%TO.P,J1,41,Pin_41*%
%TO.N,/PC7*%
X62820000Y-32275000D03*
%TO.P,J1,42,Pin_42*%
%TO.N,/PC8*%
X62820000Y-29735000D03*
%TO.P,J1,43,Pin_43*%
%TO.N,/PC9*%
X65360000Y-32275000D03*
%TO.P,J1,44,Pin_44*%
%TO.N,/PC10*%
X65360000Y-29735000D03*
%TO.P,J1,45,Pin_45*%
%TO.N,/PC11*%
X67900000Y-32275000D03*
%TO.P,J1,46,Pin_46*%
%TO.N,/PC12*%
X67900000Y-29735000D03*
%TO.P,J1,47,Pin_47*%
%TO.N,/PC13*%
X70440000Y-32275000D03*
%TO.P,J1,48,Pin_48*%
%TO.N,/PC14*%
X70440000Y-29735000D03*
%TO.P,J1,49,Pin_49*%
%TO.N,/PC15*%
X72980000Y-32275000D03*
%TO.P,J1,50,Pin_50*%
%TO.N,unconnected-(J1-Pin_50-Pad50)*%
X72980000Y-29735000D03*
%TD*%
D27*
%TO.P,C7,1*%
%TO.N,Net-(J7-SHIELD)*%
X4000000Y-7500000D03*
%TO.P,C7,2*%
%TO.N,GND*%
X4000000Y-9575000D03*
%TD*%
D14*
%TO.P,R9,1*%
%TO.N,GND*%
X10825000Y-1750000D03*
%TO.P,R9,2*%
%TO.N,Net-(J7-CC2)*%
X8825000Y-1750000D03*
%TD*%
%TO.P,R8,1*%
%TO.N,GND*%
X10825000Y1225000D03*
%TO.P,R8,2*%
%TO.N,Net-(J7-CC1)*%
X8825000Y1225000D03*
%TD*%
D27*
%TO.P,C8,1*%
%TO.N,Net-(J7-SHIELD)*%
X6500000Y-7500000D03*
%TO.P,C8,2*%
%TO.N,GND*%
X6500000Y-9575000D03*
%TD*%
D28*
%TO.P,R10,1*%
%TO.N,GND*%
X1500000Y-9500000D03*
%TO.P,R10,2*%
%TO.N,Net-(J7-SHIELD)*%
X1500000Y-7500000D03*
%TD*%
D29*
%TO.N,GND*%
X76500000Y32000000D03*
X76500000Y-32000000D03*
X3000000Y-32000000D03*
X3000000Y32000000D03*
D30*
X6500000Y-9600000D03*
X4000000Y-9575000D03*
X1575000Y-9500000D03*
%TO.N,+3V3*%
X45575000Y-5200000D03*
X34625000Y-9150000D03*
X38175000Y-4300000D03*
%TO.N,GND*%
X34900000Y-6200000D03*
X66400000Y14675000D03*
X53800000Y2650000D03*
%TO.N,+3V3*%
X53800000Y1175000D03*
%TO.N,GND*%
X44250000Y3700000D03*
%TO.N,+3V3*%
X47250000Y3675000D03*
%TO.N,AREF*%
X46475000Y-2650000D03*
%TO.N,GND(A)*%
X39425000Y-750000D03*
%TO.N,GND*%
X43603679Y-5346321D03*
%TO.N,+3V3(A)*%
X44250000Y-2250000D03*
%TO.N,/RST*%
X35650000Y25000D03*
%TO.N,+3V3*%
X37125000Y1750000D03*
%TO.N,/TRST*%
X42050000Y14625000D03*
%TO.N,GND*%
X36275000Y2100000D03*
%TO.N,/RTC_P*%
X32800000Y3575000D03*
%TO.N,/RTC_N*%
X33500000Y4250000D03*
%TO.N,GND*%
X28475000Y8025000D03*
%TO.N,+3V3*%
X43684404Y12190596D03*
%TO.N,GND*%
X45025000Y12200000D03*
%TO.N,/TCK*%
X42050000Y17200000D03*
%TO.N,/TDI*%
X42050000Y19750000D03*
%TO.N,/TDO*%
X42025000Y22225000D03*
%TO.N,/TMS*%
X42050000Y24300000D03*
%TO.N,+3V3*%
X10600000Y25850000D03*
X10550000Y23350000D03*
X10625000Y20750000D03*
%TO.N,GND*%
X10475000Y18175000D03*
X10675000Y15675000D03*
%TO.N,+3V3*%
X10650000Y13075000D03*
X19850000Y8950000D03*
%TO.N,GND*%
X14200000Y8925000D03*
%TO.N,+3V3*%
X53400000Y-16625000D03*
%TO.N,GND*%
X77500000Y-14650000D03*
%TO.N,+3V3*%
X77575000Y-12000000D03*
%TO.N,Net-(D2-V_BAT)*%
X36825000Y-7125000D03*
%TO.N,GND*%
X51025000Y-12600000D03*
%TO.N,Net-(D2-VAON_CAP)*%
X36000000Y-8325000D03*
%TO.N,Net-(D2-VCORE_CAP)*%
X38000000Y-8725000D03*
%TO.N,Net-(D2-SDADC_CAP)*%
X41425000Y-12125000D03*
%TO.N,GND*%
X41450000Y-14225000D03*
X38000000Y-12000000D03*
X36050000Y-10475000D03*
%TO.N,/OSC_P*%
X36550000Y-2525000D03*
%TO.N,/OSC_N*%
X37760300Y-3089700D03*
%TO.N,GND*%
X30116377Y-15733623D03*
X23725000Y-8925000D03*
X16275000Y-900000D03*
%TO.N,5V*%
X13850000Y-1875000D03*
%TO.N,GND*%
X6550000Y2725000D03*
%TO.N,5V*%
X6525000Y1525000D03*
X6550000Y-1550000D03*
%TO.N,GND*%
X6550000Y-2775000D03*
X10875000Y-1800000D03*
X10900000Y1150000D03*
%TO.N,+3V3*%
X20125000Y425000D03*
X13850000Y500000D03*
%TO.N,GND*%
X13850000Y2800000D03*
%TO.N,GND(A)*%
X47250000Y1800000D03*
X43250000Y6675000D03*
%TO.N,Net-(D2-VBAT_CAP)*%
X39575000Y-4625000D03*
%TD*%
D31*
%TO.N,+3V3*%
X45544676Y-5230324D02*
X45575000Y-5200000D01*
X45544676Y-6580209D02*
X45544676Y-5230324D01*
X46159278Y-7194811D02*
X45544676Y-6580209D01*
X37494567Y-7652092D02*
X35996659Y-9150000D01*
X37494567Y-7126754D02*
X37494567Y-7652092D01*
X35996659Y-9150000D02*
X34625000Y-9150000D01*
X38133616Y-6487705D02*
X37494567Y-7126754D01*
X37492893Y-4300000D02*
X38175000Y-4300000D01*
X36719402Y-5073491D02*
X37492893Y-4300000D01*
%TO.N,GND*%
X36365849Y-4734151D02*
X34900000Y-6200000D01*
X36365849Y-4719938D02*
X36365849Y-4734151D01*
X52928175Y2650000D02*
X53800000Y2650000D01*
X51816132Y1537957D02*
X52928175Y2650000D01*
%TO.N,+3V3*%
X53790596Y1184404D02*
X53800000Y1175000D01*
X52169685Y1184404D02*
X53790596Y1184404D01*
%TO.N,GND*%
X42669000Y5281000D02*
X44250000Y3700000D01*
X42669000Y7947175D02*
X42669000Y5281000D01*
X44037957Y9316132D02*
X42669000Y7947175D01*
%TO.N,+3V3*%
X47589213Y3675000D02*
X47250000Y3675000D01*
X48634151Y4719938D02*
X47589213Y3675000D01*
%TO.N,AREF*%
X38844000Y-990659D02*
X40368205Y-2514864D01*
X40368205Y-5667328D02*
X38840722Y-7194811D01*
X39184341Y-169000D02*
X38844000Y-509341D01*
X40368205Y-2514864D02*
X40368205Y-5667328D01*
X43994000Y-169000D02*
X39184341Y-169000D01*
X46475000Y-2650000D02*
X43994000Y-169000D01*
X38844000Y-509341D02*
X38844000Y-990659D01*
%TO.N,GND(A)*%
X44831000Y-2618747D02*
X39547829Y-7901918D01*
X44831000Y-2009341D02*
X44831000Y-2618747D01*
X43571659Y-750000D02*
X44831000Y-2009341D01*
X39425000Y-750000D02*
X43571659Y-750000D01*
%TO.N,GND*%
X43603679Y-5346321D02*
X45805724Y-7548365D01*
%TO.N,+3V3(A)*%
X44250000Y-2492641D02*
X39194276Y-7548365D01*
X44250000Y-2250000D02*
X44250000Y-2492641D01*
%TO.N,/RST*%
X35650000Y1900253D02*
X34598082Y2952171D01*
X35650000Y25000D02*
X35650000Y1900253D01*
%TO.N,+3V3*%
X37125000Y2071659D02*
X37125000Y1750000D01*
X36515659Y2681000D02*
X37125000Y2071659D01*
X36283467Y2681000D02*
X36515659Y2681000D01*
X35305189Y3659278D02*
X36283467Y2681000D01*
%TO.N,/TRST*%
X41315596Y13890596D02*
X41315596Y9669685D01*
X42050000Y14625000D02*
X41315596Y13890596D01*
%TO.N,GND*%
X36157359Y2100000D02*
X36275000Y2100000D01*
X34951635Y3305724D02*
X36157359Y2100000D01*
D32*
%TO.N,/RTC_P*%
X32800000Y3575000D02*
X32800000Y3336039D01*
X32800000Y3336039D02*
X33890975Y2245064D01*
%TO.N,/RTC_N*%
X33500000Y4250000D02*
X33500000Y3343145D01*
X33500000Y3343145D02*
X34244528Y2598617D01*
D31*
%TO.N,+3V3*%
X43675000Y12200000D02*
X43684404Y12190596D01*
X43684404Y9669685D02*
X43684404Y12190596D01*
%TO.N,GND*%
X45050000Y12175000D02*
X45025000Y12200000D01*
X45050000Y11600000D02*
X45050000Y12175000D01*
X45050000Y11600000D02*
X45050000Y11675000D01*
X45050000Y10328175D02*
X45050000Y11600000D01*
X44037957Y9316132D02*
X45050000Y10328175D01*
%TO.N,/TCK*%
X45625000Y13625000D02*
X42050000Y17200000D01*
X45625000Y10196067D02*
X45625000Y13625000D01*
X44391511Y8962578D02*
X45625000Y10196067D01*
%TO.N,/TDI*%
X46094000Y9957961D02*
X44745064Y8609025D01*
X46094000Y15706000D02*
X46094000Y9957961D01*
X42050000Y19750000D02*
X46094000Y15706000D01*
%TO.N,/TDO*%
X46472000Y9628855D02*
X46472000Y17778000D01*
X45098617Y8255472D02*
X46472000Y9628855D01*
X46472000Y17778000D02*
X42025000Y22225000D01*
%TO.N,/TMS*%
X46850000Y9299747D02*
X45452171Y7901918D01*
X46850000Y19500000D02*
X46850000Y9299747D01*
X42050000Y24300000D02*
X46850000Y19500000D01*
%TO.N,+3V3*%
X19800000Y9000000D02*
X19850000Y8950000D01*
X19750000Y9000000D02*
X19800000Y9000000D01*
%TO.N,GND*%
X14250000Y8975000D02*
X14200000Y8925000D01*
X14250000Y9000000D02*
X14250000Y8975000D01*
X77500000Y-14565000D02*
X77500000Y-14650000D01*
%TO.N,+3V3*%
X77550000Y-12025000D02*
X77575000Y-12000000D01*
X77500000Y-12025000D02*
X77550000Y-12025000D01*
%TO.N,Net-(D2-V_BAT)*%
X36811907Y-6395200D02*
X37426509Y-5780598D01*
X36811907Y-7111907D02*
X36811907Y-6395200D01*
X36825000Y-7125000D02*
X36811907Y-7111907D01*
%TO.N,Net-(D2-VAON_CAP)*%
X36000000Y-6500000D02*
X37072955Y-5427045D01*
X36000000Y-8325000D02*
X36000000Y-6500000D01*
%TO.N,Net-(D2-VCORE_CAP)*%
X37872567Y-8597567D02*
X37872567Y-7455860D01*
X37872567Y-7455860D02*
X38487169Y-6841258D01*
X38000000Y-8725000D02*
X37872567Y-8597567D01*
%TO.N,Net-(D2-SDADC_CAP)*%
X41425000Y-12125000D02*
X41315596Y-12015596D01*
X41315596Y-12015596D02*
X41315596Y-9669685D01*
D32*
%TO.N,/OSC_N*%
X37288979Y-3089700D02*
X36012295Y-4366384D01*
X37760300Y-3089700D02*
X37288979Y-3089700D01*
%TO.N,/OSC_P*%
X36550000Y-3121573D02*
X35658742Y-4012831D01*
X36550000Y-2525000D02*
X36550000Y-3121573D01*
D31*
%TO.N,5V*%
X13850000Y-1800000D02*
X13850000Y-1875000D01*
%TO.N,Net-(J7-SHIELD)*%
X2897500Y5125000D02*
X2897500Y-5125000D01*
X6477500Y5125000D02*
X2897500Y5125000D01*
X2897500Y-5125000D02*
X6477500Y-5125000D01*
X4000000Y-6227500D02*
X2897500Y-5125000D01*
X4000000Y-7500000D02*
X4000000Y-6227500D01*
X6500000Y-7500000D02*
X4000000Y-7500000D01*
X1500000Y-7500000D02*
X4000000Y-7500000D01*
%TO.N,GND*%
X6532500Y2742500D02*
X6550000Y2725000D01*
X6532500Y2750000D02*
X6532500Y2742500D01*
%TO.N,5V*%
X6530000Y1520000D02*
X6525000Y1525000D01*
X6532500Y1520000D02*
X6530000Y1520000D01*
X6532500Y-1532500D02*
X6550000Y-1550000D01*
X6532500Y-1520000D02*
X6532500Y-1532500D01*
%TO.N,GND*%
X6532500Y-2757500D02*
X6550000Y-2775000D01*
X6532500Y-2750000D02*
X6532500Y-2757500D01*
X10825000Y-1750000D02*
X10875000Y-1800000D01*
X10825000Y1225000D02*
X10900000Y1150000D01*
%TO.N,Net-(J7-CC1)*%
X8100000Y500000D02*
X6532500Y500000D01*
X8825000Y1225000D02*
X8100000Y500000D01*
%TO.N,Net-(J7-CC2)*%
X7575000Y-500000D02*
X6532500Y-500000D01*
X8825000Y-1750000D02*
X7575000Y-500000D01*
%TO.N,+3V3*%
X20150000Y450000D02*
X20125000Y425000D01*
X20150000Y500000D02*
X20150000Y450000D01*
%TO.N,GND(A)*%
X47250000Y1750000D02*
X47250000Y1800000D01*
X43250000Y5750000D02*
X47250000Y1750000D01*
X43250000Y6675000D02*
X43250000Y5750000D01*
%TO.N,Net-(D2-VBAT_CAP)*%
X39289213Y-4625000D02*
X37780062Y-6134151D01*
X39575000Y-4625000D02*
X39289213Y-4625000D01*
%TO.N,/AT_IN1*%
X12020000Y-22701825D02*
X12020000Y-29735000D01*
X33183868Y-1537957D02*
X12020000Y-22701825D01*
%TO.N,/PB15*%
X51296000Y31089000D02*
X51296000Y13038641D01*
X50120000Y32265000D02*
X51296000Y31089000D01*
X51296000Y13038641D02*
X45805724Y7548365D01*
%TO.N,/PA0*%
X39960000Y10318175D02*
X39960000Y29725000D01*
X40962043Y9316132D02*
X39960000Y10318175D01*
%TO.N,/PC11*%
X67900000Y-32275000D02*
X66536000Y-30911000D01*
X66536000Y-19086253D02*
X50401918Y-2952171D01*
X66536000Y-30911000D02*
X66536000Y-19086253D01*
%TO.N,/PC7*%
X61456000Y-30911000D02*
X61456000Y-16834679D01*
X62820000Y-32275000D02*
X61456000Y-30911000D01*
X61456000Y-16834679D02*
X48987705Y-4366384D01*
%TO.N,/PC4*%
X57740000Y-29735000D02*
X57740000Y-15240000D01*
X57740000Y-15240000D02*
X47927045Y-5427045D01*
%TO.N,/PA6*%
X38840722Y7194811D02*
X32340000Y13695533D01*
X32340000Y13695533D02*
X32340000Y29725000D01*
%TO.N,/PA12*%
X24720000Y17072893D02*
X24720000Y29725000D01*
X36719402Y5073491D02*
X24720000Y17072893D01*
%TO.N,/WAKEUP2*%
X33537422Y1891511D02*
X14560000Y20868933D01*
X14560000Y20868933D02*
X14560000Y29725000D01*
%TO.N,/ADC_CH1*%
X37420000Y-29735000D02*
X37420000Y-11443961D01*
X37420000Y-11443961D02*
X40254936Y-8609025D01*
%TO.N,/PB9*%
X58916000Y16416000D02*
X58916000Y31089000D01*
X47927045Y5427045D02*
X58916000Y16416000D01*
X58916000Y31089000D02*
X57740000Y32265000D01*
%TO.N,/PB4*%
X66600000Y19857359D02*
X66600000Y31025000D01*
X66600000Y31025000D02*
X65360000Y32265000D01*
X50048365Y3305724D02*
X66600000Y19857359D01*
%TO.N,/PA4*%
X34880000Y12569747D02*
X34880000Y29725000D01*
X39547829Y7901918D02*
X34880000Y12569747D01*
%TO.N,/WAKEUP1*%
X13196000Y31089000D02*
X13196000Y21525825D01*
X13196000Y21525825D02*
X33183868Y1537957D01*
X12020000Y32265000D02*
X13196000Y31089000D01*
%TO.N,/AT_IN0*%
X10844000Y-31099000D02*
X12020000Y-32275000D01*
X32830315Y-1184404D02*
X10844000Y-23170719D01*
X10844000Y-23170719D02*
X10844000Y-31099000D01*
D32*
%TO.N,/CMP_INN0*%
X17100000Y-32275000D02*
X15949000Y-31124000D01*
X15949000Y-31124000D02*
X15949000Y-20894145D01*
X15949000Y-20894145D02*
X34244528Y-2598617D01*
D31*
%TO.N,/PA3*%
X37420000Y32265000D02*
X36200000Y31045000D01*
X36200000Y31045000D02*
X36200000Y11956855D01*
X36200000Y11956855D02*
X39901383Y8255472D01*
%TO.N,/PB12*%
X55200000Y14821321D02*
X46866384Y6487705D01*
X55200000Y29725000D02*
X55200000Y14821321D01*
%TO.N,/PC10*%
X50048365Y-3305724D02*
X65360000Y-18617359D01*
X65360000Y-18617359D02*
X65360000Y-29735000D01*
%TO.N,/PB3*%
X67900000Y29725000D02*
X67900000Y20416311D01*
X67900000Y20416311D02*
X50435860Y2952171D01*
X50435860Y2952171D02*
X50401918Y2952171D01*
%TO.N,/PB5*%
X65360000Y19324467D02*
X49694811Y3659278D01*
X65360000Y29725000D02*
X65360000Y19324467D01*
%TO.N,/ADC_CH0*%
X36244000Y-11912855D02*
X36244000Y-31099000D01*
X36244000Y-31099000D02*
X37420000Y-32275000D01*
X39901383Y-8255472D02*
X36244000Y-11912855D01*
%TO.N,/PA2*%
X40254936Y8609025D02*
X37420000Y11443961D01*
X37420000Y11443961D02*
X37420000Y29725000D01*
%TO.N,/PC12*%
X67900000Y-19743145D02*
X67900000Y-29735000D01*
X50755472Y-2598617D02*
X67900000Y-19743145D01*
%TO.N,/PA13*%
X24720000Y32265000D02*
X23500000Y31045000D01*
X23500000Y17585787D02*
X36365849Y4719938D01*
X23500000Y31045000D02*
X23500000Y17585787D01*
%TO.N,/AT_OUT*%
X14560000Y-29735000D02*
X14560000Y-21576039D01*
X14560000Y-21576039D02*
X33890975Y-2245064D01*
%TO.N,/PB7*%
X62820000Y29725000D02*
X62820000Y18198679D01*
X62820000Y18198679D02*
X48987705Y4366384D01*
%TO.N,/PB8*%
X60280000Y29725000D02*
X60280000Y17072893D01*
X60280000Y17072893D02*
X48280598Y5073491D01*
%TO.N,/PA10*%
X37426509Y5780598D02*
X27260000Y15947107D01*
X27260000Y15947107D02*
X27260000Y29725000D01*
%TO.N,/PB13*%
X52660000Y32265000D02*
X53836000Y31089000D01*
X53836000Y14164427D02*
X46512831Y6841258D01*
X53836000Y31089000D02*
X53836000Y14164427D01*
%TO.N,/PC14*%
X70440000Y-20868933D02*
X51462578Y-1891511D01*
X70440000Y-29735000D02*
X70440000Y-20868933D01*
%TO.N,/PA5*%
X33516000Y30901000D02*
X33516000Y13226641D01*
X33516000Y13226641D02*
X39194276Y7548365D01*
X34880000Y32265000D02*
X33516000Y30901000D01*
%TO.N,/PC5*%
X58916000Y-30911000D02*
X58916000Y-15708893D01*
X60280000Y-32275000D02*
X58916000Y-30911000D01*
X58916000Y-15708893D02*
X48280598Y-5073491D01*
%TO.N,/PA15*%
X22180000Y32265000D02*
X21004000Y31089000D01*
X21004000Y31089000D02*
X21004000Y18667573D01*
X21004000Y18667573D02*
X35658742Y4012831D01*
%TO.N,/PA14*%
X22180000Y18198679D02*
X22180000Y29725000D01*
X36012295Y4366384D02*
X22180000Y18198679D01*
%TO.N,/ADC_CH2*%
X39960000Y-32275000D02*
X38784000Y-31099000D01*
X38784000Y-31099000D02*
X38784000Y-10787067D01*
X38784000Y-10787067D02*
X40608489Y-8962578D01*
%TO.N,/ADC_CH3*%
X39960000Y-29735000D02*
X39960000Y-10318175D01*
X39960000Y-10318175D02*
X40962043Y-9316132D01*
%TO.N,/PC0*%
X52660000Y-29735000D02*
X52660000Y-12988427D01*
X52660000Y-12988427D02*
X46512831Y-6841258D01*
%TO.N,/PB10*%
X57740000Y15947107D02*
X47573491Y5780598D01*
X57740000Y29725000D02*
X57740000Y15947107D01*
%TO.N,/ADC_CH4*%
X43684404Y-28550596D02*
X43684404Y-9669685D01*
X42500000Y-29735000D02*
X43684404Y-28550596D01*
%TO.N,/PB0*%
X71616000Y22044933D02*
X71616000Y31089000D01*
X51462578Y1891511D02*
X71616000Y22044933D01*
X71616000Y31089000D02*
X70440000Y32265000D01*
%TO.N,/PC9*%
X65360000Y-32275000D02*
X64184000Y-31099000D01*
X64184000Y-31099000D02*
X64184000Y-18148467D01*
X64184000Y-18148467D02*
X49694811Y-3659278D01*
%TO.N,/PB6*%
X49341258Y4012831D02*
X64184000Y18855573D01*
X64184000Y30901000D02*
X62820000Y32265000D01*
X64184000Y18855573D02*
X64184000Y30901000D01*
%TO.N,/PB2*%
X50755472Y2598617D02*
X69076000Y20919145D01*
X69076000Y20919145D02*
X69076000Y31089000D01*
X69076000Y31089000D02*
X67900000Y32265000D01*
D32*
%TO.N,/CMP_INP0*%
X17100000Y-20450253D02*
X34598082Y-2952171D01*
X17100000Y-29735000D02*
X17100000Y-20450253D01*
D31*
%TO.N,/PA11*%
X26084000Y16416000D02*
X37072955Y5427045D01*
X27260000Y32265000D02*
X26084000Y31089000D01*
X26084000Y31089000D02*
X26084000Y16416000D01*
%TO.N,/PB14*%
X52660000Y29725000D02*
X52660000Y13695533D01*
X52660000Y13695533D02*
X46159278Y7194811D01*
%TO.N,/PA9*%
X29800000Y32265000D02*
X28624000Y31089000D01*
X28624000Y15290213D02*
X37780062Y6134151D01*
X28624000Y31089000D02*
X28624000Y15290213D01*
%TO.N,/AT_IN2*%
X13384000Y-31099000D02*
X14560000Y-32275000D01*
X33537422Y-1891511D02*
X13384000Y-22044933D01*
X13384000Y-22044933D02*
X13384000Y-31099000D01*
%TO.N,/PA1*%
X38784000Y31089000D02*
X38784000Y10787067D01*
X38784000Y10787067D02*
X40608489Y8962578D01*
X39960000Y32265000D02*
X38784000Y31089000D01*
%TO.N,/PC8*%
X62820000Y-17491573D02*
X62820000Y-29735000D01*
X49341258Y-4012831D02*
X62820000Y-17491573D01*
%TO.N,/ADC_CH5*%
X45040000Y-10318175D02*
X45040000Y-29735000D01*
X44037957Y-9316132D02*
X45040000Y-10318175D01*
%TO.N,/PC13*%
X69264000Y-20400039D02*
X51109025Y-2245064D01*
X70440000Y-32275000D02*
X69264000Y-31099000D01*
X69264000Y-31099000D02*
X69264000Y-20400039D01*
%TO.N,/ADC_CH7*%
X48756000Y-31099000D02*
X47580000Y-32275000D01*
X44745064Y-8609025D02*
X48756000Y-12619961D01*
X48756000Y-12619961D02*
X48756000Y-31099000D01*
%TO.N,/PC1*%
X54024000Y-31099000D02*
X54024000Y-13645321D01*
X54024000Y-13645321D02*
X46866384Y-6487705D01*
X55200000Y-32275000D02*
X54024000Y-31099000D01*
D32*
%TO.N,/CMP_INN1*%
X18489000Y-31124000D02*
X18489000Y-19768359D01*
X19640000Y-32275000D02*
X18489000Y-31124000D01*
X18489000Y-19768359D02*
X34951635Y-3305724D01*
D31*
%TO.N,/ADC_CH6*%
X46216000Y-10787067D02*
X44391511Y-8962578D01*
X46216000Y-31099000D02*
X46216000Y-10787067D01*
X45040000Y-32275000D02*
X46216000Y-31099000D01*
D32*
%TO.N,/CMP_INP1*%
X19640000Y-29735000D02*
X19640000Y-19324467D01*
X19640000Y-19324467D02*
X35305189Y-3659278D01*
D31*
%TO.N,/PA7*%
X31164000Y31089000D02*
X31164000Y14164427D01*
X32340000Y32265000D02*
X31164000Y31089000D01*
X31164000Y14164427D02*
X38487169Y6841258D01*
%TO.N,/PC2*%
X55200000Y-29735000D02*
X55200000Y-14114213D01*
X55200000Y-14114213D02*
X47219938Y-6134151D01*
%TO.N,/PB1*%
X70440000Y21576039D02*
X51109025Y2245064D01*
X70440000Y29725000D02*
X70440000Y21576039D01*
%TO.N,/WAKEUP0*%
X12020000Y21994719D02*
X12020000Y29725000D01*
X32830315Y1184404D02*
X12020000Y21994719D01*
%TO.N,/PA8*%
X38133616Y6487705D02*
X29800000Y14821321D01*
X29800000Y14821321D02*
X29800000Y29725000D01*
%TO.N,/PB11*%
X56376000Y31089000D02*
X55200000Y32265000D01*
X47219938Y6134151D02*
X56376000Y15290213D01*
X56376000Y15290213D02*
X56376000Y31089000D01*
%TO.N,/PC6*%
X48634151Y-4719938D02*
X60280000Y-16365787D01*
X60280000Y-16365787D02*
X60280000Y-29735000D01*
%TO.N,/PC3*%
X56564000Y-31099000D02*
X57740000Y-32275000D01*
X47573491Y-5780598D02*
X56564000Y-14771107D01*
X56564000Y-14771107D02*
X56564000Y-31099000D01*
%TO.N,/PC15*%
X74156000Y-23877825D02*
X74156000Y-31099000D01*
X51816132Y-1537957D02*
X74156000Y-23877825D01*
X74156000Y-31099000D02*
X72980000Y-32275000D01*
%TO.N,Net-(J4-Pin_1)*%
X72700000Y-12025000D02*
X75500000Y-12025000D01*
%TO.N,/SERVEN*%
X59319404Y-1184404D02*
X72700000Y-14565000D01*
X52169685Y-1184404D02*
X59319404Y-1184404D01*
X75500000Y-14565000D02*
X72700000Y-14565000D01*
%TD*%
M02*
