M48
; DRILL file {KiCad 9.0.1} date 2025-04-22T02:33:57+0300
; FORMAT={-:-/ absolute / metric / decimal}
; #@! TF.CreationDate,2025-04-22T02:33:57+03:00
; #@! TF.GenerationSoftware,Kicad,Pcbnew,9.0.1
; #@! TF.FileFunction,Plated,1,4,PTH
FMAT,2
METRIC
; #@! TA.AperFunction,Plated,PTH,ViaDrill
T1C0.250
; #@! TA.AperFunction,Plated,PTH,ComponentDrill
T2C1.000
; #@! TA.AperFunction,Plated,PTH,ViaDrill
T3C2.000
%
G90
G05
T1
X1.575Y-9.5
X4.0Y-9.575
X4.5Y9.0
X6.5Y-9.6
X6.525Y1.525
X6.55Y2.725
X6.55Y-1.55
X6.55Y-2.775
X9.5Y6.0
X10.475Y18.175
X10.55Y23.35
X10.6Y25.85
X10.625Y20.75
X10.65Y13.075
X10.675Y15.675
X10.875Y-1.8
X10.9Y1.15
X13.85Y2.8
X13.85Y0.5
X13.85Y-1.875
X14.2Y8.925
X16.275Y-0.9
X19.85Y8.95
X20.125Y0.425
X23.725Y-8.925
X28.475Y8.025
X30.116Y-15.734
X32.8Y3.575
X33.5Y4.25
X34.625Y-9.15
X34.9Y-6.2
X35.65Y0.025
X36.0Y-8.325
X36.05Y-10.475
X36.275Y2.1
X36.55Y-2.525
X36.825Y-7.125
X37.125Y1.75
X37.76Y-3.09
X38.0Y-8.725
X38.0Y-12.0
X38.175Y-4.3
X39.425Y-0.75
X39.575Y-4.625
X41.425Y-12.125
X41.45Y-14.225
X42.025Y22.225
X42.05Y24.3
X42.05Y19.75
X42.05Y17.2
X42.05Y14.625
X43.25Y6.675
X43.604Y-5.346
X43.684Y12.191
X44.25Y3.7
X44.25Y-2.25
X45.025Y12.2
X45.421Y26.423
X45.575Y-5.2
X46.475Y-2.65
X47.25Y3.675
X47.25Y1.8
X47.453Y26.423
X51.025Y-12.6
X53.4Y-16.625
X53.8Y2.65
X53.8Y1.175
X66.4Y14.675
X77.5Y-14.65
X77.575Y-12.0
T2
X2.88Y28.78
X2.88Y26.24
X2.88Y23.7
X2.88Y21.16
X2.88Y18.62
X2.88Y16.08
X5.42Y28.78
X5.42Y26.24
X5.42Y23.7
X5.42Y21.16
X5.42Y18.62
X5.42Y16.08
X12.02Y32.265
X12.02Y29.725
X12.02Y-29.735
X12.02Y-32.275
X14.56Y32.265
X14.56Y29.725
X14.56Y-29.735
X14.56Y-32.275
X17.1Y32.265
X17.1Y29.725
X17.1Y-29.735
X17.1Y-32.275
X19.64Y32.265
X19.64Y29.725
X19.64Y-29.735
X19.64Y-32.275
X22.18Y32.265
X22.18Y29.725
X22.18Y-29.735
X22.18Y-32.275
X24.72Y32.265
X24.72Y29.725
X24.72Y-29.735
X24.72Y-32.275
X27.26Y32.265
X27.26Y29.725
X27.26Y-29.735
X27.26Y-32.275
X29.8Y32.265
X29.8Y29.725
X29.8Y-29.735
X29.8Y-32.275
X32.34Y32.265
X32.34Y29.725
X32.34Y-29.735
X32.34Y-32.275
X34.88Y32.265
X34.88Y29.725
X34.88Y-29.735
X34.88Y-32.275
X37.42Y32.265
X37.42Y29.725
X37.42Y-29.735
X37.42Y-32.275
X39.96Y32.265
X39.96Y29.725
X39.96Y-29.735
X39.96Y-32.275
X42.5Y32.265
X42.5Y29.725
X42.5Y-29.735
X42.5Y-32.275
X45.04Y32.265
X45.04Y29.725
X45.04Y-29.735
X45.04Y-32.275
X47.58Y32.265
X47.58Y29.725
X47.58Y-29.735
X47.58Y-32.275
X50.12Y32.265
X50.12Y29.725
X50.12Y-29.735
X50.12Y-32.275
X52.66Y32.265
X52.66Y29.725
X52.66Y-29.735
X52.66Y-32.275
X55.2Y32.265
X55.2Y29.725
X55.2Y-29.735
X55.2Y-32.275
X57.74Y32.265
X57.74Y29.725
X57.74Y-29.735
X57.74Y-32.275
X60.28Y32.265
X60.28Y29.725
X60.28Y-29.735
X60.28Y-32.275
X62.82Y32.265
X62.82Y29.725
X62.82Y-29.735
X62.82Y-32.275
X65.36Y32.265
X65.36Y29.725
X65.36Y-29.735
X65.36Y-32.275
X67.9Y32.265
X67.9Y29.725
X67.9Y-29.735
X67.9Y-32.275
X70.44Y32.265
X70.44Y29.725
X70.44Y-29.735
X70.44Y-32.275
X72.7Y-12.025
X72.7Y-14.565
X72.98Y32.265
X72.98Y29.725
X72.98Y-29.735
X72.98Y-32.275
T3
X3.0Y32.0
X3.0Y-32.0
X76.5Y32.0
X76.5Y-32.0
M30
