%TF.GenerationSoftware,KiCad,Pcbnew,9.0.1*%
%TF.CreationDate,2025-04-22T02:33:50+03:00*%
%TF.ProjectId,k1921vg015_devboard,6b313932-3176-4673-9031-355f64657662,rev?*%
%TF.SameCoordinates,Original*%
%TF.FileFunction,Legend,Top*%
%TF.FilePolarity,Positive*%
%FSLAX46Y46*%
G04 Gerber Fmt 4.6, Leading zero omitted, Abs format (unit mm)*
G04 Created by KiCad (PCBNEW 9.0.1) date 2025-04-22 02:33:50*
%MOMM*%
%LPD*%
G01*
G04 APERTURE LIST*
%ADD10C,0.100000*%
%ADD11C,0.150000*%
%ADD12C,0.120000*%
G04 APERTURE END LIST*
D10*
X52736466Y-28010115D02*
X52736466Y-27248211D01*
X53450752Y-26533925D02*
X52022180Y-26533925D01*
X52117419Y-25629163D02*
X52117419Y-25533925D01*
X52117419Y-25533925D02*
X52165038Y-25438687D01*
X52165038Y-25438687D02*
X52212657Y-25391068D01*
X52212657Y-25391068D02*
X52307895Y-25343449D01*
X52307895Y-25343449D02*
X52498371Y-25295830D01*
X52498371Y-25295830D02*
X52736466Y-25295830D01*
X52736466Y-25295830D02*
X52926942Y-25343449D01*
X52926942Y-25343449D02*
X53022180Y-25391068D01*
X53022180Y-25391068D02*
X53069800Y-25438687D01*
X53069800Y-25438687D02*
X53117419Y-25533925D01*
X53117419Y-25533925D02*
X53117419Y-25629163D01*
X53117419Y-25629163D02*
X53069800Y-25724401D01*
X53069800Y-25724401D02*
X53022180Y-25772020D01*
X53022180Y-25772020D02*
X52926942Y-25819639D01*
X52926942Y-25819639D02*
X52736466Y-25867258D01*
X52736466Y-25867258D02*
X52498371Y-25867258D01*
X52498371Y-25867258D02*
X52307895Y-25819639D01*
X52307895Y-25819639D02*
X52212657Y-25772020D01*
X52212657Y-25772020D02*
X52165038Y-25724401D01*
X52165038Y-25724401D02*
X52117419Y-25629163D01*
X52117419Y-24676782D02*
X52117419Y-24581544D01*
X52117419Y-24581544D02*
X52165038Y-24486306D01*
X52165038Y-24486306D02*
X52212657Y-24438687D01*
X52212657Y-24438687D02*
X52307895Y-24391068D01*
X52307895Y-24391068D02*
X52498371Y-24343449D01*
X52498371Y-24343449D02*
X52736466Y-24343449D01*
X52736466Y-24343449D02*
X52926942Y-24391068D01*
X52926942Y-24391068D02*
X53022180Y-24438687D01*
X53022180Y-24438687D02*
X53069800Y-24486306D01*
X53069800Y-24486306D02*
X53117419Y-24581544D01*
X53117419Y-24581544D02*
X53117419Y-24676782D01*
X53117419Y-24676782D02*
X53069800Y-24772020D01*
X53069800Y-24772020D02*
X53022180Y-24819639D01*
X53022180Y-24819639D02*
X52926942Y-24867258D01*
X52926942Y-24867258D02*
X52736466Y-24914877D01*
X52736466Y-24914877D02*
X52498371Y-24914877D01*
X52498371Y-24914877D02*
X52307895Y-24867258D01*
X52307895Y-24867258D02*
X52212657Y-24819639D01*
X52212657Y-24819639D02*
X52165038Y-24772020D01*
X52165038Y-24772020D02*
X52117419Y-24676782D01*
X54657419Y-27819639D02*
X54657419Y-27724401D01*
X54657419Y-27724401D02*
X54705038Y-27629163D01*
X54705038Y-27629163D02*
X54752657Y-27581544D01*
X54752657Y-27581544D02*
X54847895Y-27533925D01*
X54847895Y-27533925D02*
X55038371Y-27486306D01*
X55038371Y-27486306D02*
X55276466Y-27486306D01*
X55276466Y-27486306D02*
X55466942Y-27533925D01*
X55466942Y-27533925D02*
X55562180Y-27581544D01*
X55562180Y-27581544D02*
X55609800Y-27629163D01*
X55609800Y-27629163D02*
X55657419Y-27724401D01*
X55657419Y-27724401D02*
X55657419Y-27819639D01*
X55657419Y-27819639D02*
X55609800Y-27914877D01*
X55609800Y-27914877D02*
X55562180Y-27962496D01*
X55562180Y-27962496D02*
X55466942Y-28010115D01*
X55466942Y-28010115D02*
X55276466Y-28057734D01*
X55276466Y-28057734D02*
X55038371Y-28057734D01*
X55038371Y-28057734D02*
X54847895Y-28010115D01*
X54847895Y-28010115D02*
X54752657Y-27962496D01*
X54752657Y-27962496D02*
X54705038Y-27914877D01*
X54705038Y-27914877D02*
X54657419Y-27819639D01*
X55657419Y-26533925D02*
X55657419Y-27105353D01*
X55657419Y-26819639D02*
X54657419Y-26819639D01*
X54657419Y-26819639D02*
X54800276Y-26914877D01*
X54800276Y-26914877D02*
X54895514Y-27010115D01*
X54895514Y-27010115D02*
X54943133Y-27105353D01*
X55990752Y-25867258D02*
X54562180Y-25867258D01*
X54657419Y-24962496D02*
X54657419Y-24867258D01*
X54657419Y-24867258D02*
X54705038Y-24772020D01*
X54705038Y-24772020D02*
X54752657Y-24724401D01*
X54752657Y-24724401D02*
X54847895Y-24676782D01*
X54847895Y-24676782D02*
X55038371Y-24629163D01*
X55038371Y-24629163D02*
X55276466Y-24629163D01*
X55276466Y-24629163D02*
X55466942Y-24676782D01*
X55466942Y-24676782D02*
X55562180Y-24724401D01*
X55562180Y-24724401D02*
X55609800Y-24772020D01*
X55609800Y-24772020D02*
X55657419Y-24867258D01*
X55657419Y-24867258D02*
X55657419Y-24962496D01*
X55657419Y-24962496D02*
X55609800Y-25057734D01*
X55609800Y-25057734D02*
X55562180Y-25105353D01*
X55562180Y-25105353D02*
X55466942Y-25152972D01*
X55466942Y-25152972D02*
X55276466Y-25200591D01*
X55276466Y-25200591D02*
X55038371Y-25200591D01*
X55038371Y-25200591D02*
X54847895Y-25152972D01*
X54847895Y-25152972D02*
X54752657Y-25105353D01*
X54752657Y-25105353D02*
X54705038Y-25057734D01*
X54705038Y-25057734D02*
X54657419Y-24962496D01*
X54752657Y-24248210D02*
X54705038Y-24200591D01*
X54705038Y-24200591D02*
X54657419Y-24105353D01*
X54657419Y-24105353D02*
X54657419Y-23867258D01*
X54657419Y-23867258D02*
X54705038Y-23772020D01*
X54705038Y-23772020D02*
X54752657Y-23724401D01*
X54752657Y-23724401D02*
X54847895Y-23676782D01*
X54847895Y-23676782D02*
X54943133Y-23676782D01*
X54943133Y-23676782D02*
X55085990Y-23724401D01*
X55085990Y-23724401D02*
X55657419Y-24295829D01*
X55657419Y-24295829D02*
X55657419Y-23676782D01*
X42576466Y-28051115D02*
X42576466Y-27289211D01*
X43290752Y-26574925D02*
X41862180Y-26574925D01*
X42290752Y-25432068D02*
X42957419Y-25432068D01*
X41909800Y-25670163D02*
X42624085Y-25908258D01*
X42624085Y-25908258D02*
X42624085Y-25289211D01*
X6800000Y30160000D02*
X10036583Y30160000D01*
X48977000Y28328000D02*
X71583000Y28328000D01*
X71583000Y23121000D01*
X48977000Y23121000D01*
X48977000Y28328000D01*
X10640000Y-21878000D02*
X15940000Y-21878000D01*
X15940000Y-28355000D01*
X10640000Y-28355000D01*
X10640000Y-21878000D01*
X51517000Y-23234000D02*
X74377000Y-23234000D01*
X74377000Y-28441000D01*
X51517000Y-28441000D01*
X51517000Y-23234000D01*
X36277000Y-25139000D02*
X48689000Y-25139000D01*
X48689000Y-28314000D01*
X36277000Y-28314000D01*
X36277000Y-25139000D01*
X21037000Y28455000D02*
X41230000Y28455000D01*
X41230000Y23248000D01*
X21037000Y23248000D01*
X21037000Y28455000D01*
X6800000Y14700000D02*
X10036583Y14700000D01*
X15940000Y-21878000D02*
X21240000Y-21878000D01*
X21240000Y-28355000D01*
X15940000Y-28355000D01*
X15940000Y-21878000D01*
X6961027Y29342580D02*
X7532455Y29342580D01*
X7246741Y28342580D02*
X7246741Y29342580D01*
X7865789Y28342580D02*
X7865789Y29342580D01*
X7865789Y29342580D02*
X8199122Y28628295D01*
X8199122Y28628295D02*
X8532455Y29342580D01*
X8532455Y29342580D02*
X8532455Y28342580D01*
X8961027Y28390200D02*
X9103884Y28342580D01*
X9103884Y28342580D02*
X9341979Y28342580D01*
X9341979Y28342580D02*
X9437217Y28390200D01*
X9437217Y28390200D02*
X9484836Y28437819D01*
X9484836Y28437819D02*
X9532455Y28533057D01*
X9532455Y28533057D02*
X9532455Y28628295D01*
X9532455Y28628295D02*
X9484836Y28723533D01*
X9484836Y28723533D02*
X9437217Y28771152D01*
X9437217Y28771152D02*
X9341979Y28818771D01*
X9341979Y28818771D02*
X9151503Y28866390D01*
X9151503Y28866390D02*
X9056265Y28914009D01*
X9056265Y28914009D02*
X9008646Y28961628D01*
X9008646Y28961628D02*
X8961027Y29056866D01*
X8961027Y29056866D02*
X8961027Y29152104D01*
X8961027Y29152104D02*
X9008646Y29247342D01*
X9008646Y29247342D02*
X9056265Y29294961D01*
X9056265Y29294961D02*
X9151503Y29342580D01*
X9151503Y29342580D02*
X9389598Y29342580D01*
X9389598Y29342580D02*
X9532455Y29294961D01*
X6961027Y19142580D02*
X7532455Y19142580D01*
X7246741Y18142580D02*
X7246741Y19142580D01*
X8437217Y18142580D02*
X8103884Y18618771D01*
X7865789Y18142580D02*
X7865789Y19142580D01*
X7865789Y19142580D02*
X8246741Y19142580D01*
X8246741Y19142580D02*
X8341979Y19094961D01*
X8341979Y19094961D02*
X8389598Y19047342D01*
X8389598Y19047342D02*
X8437217Y18952104D01*
X8437217Y18952104D02*
X8437217Y18809247D01*
X8437217Y18809247D02*
X8389598Y18714009D01*
X8389598Y18714009D02*
X8341979Y18666390D01*
X8341979Y18666390D02*
X8246741Y18618771D01*
X8246741Y18618771D02*
X7865789Y18618771D01*
X8818170Y18190200D02*
X8961027Y18142580D01*
X8961027Y18142580D02*
X9199122Y18142580D01*
X9199122Y18142580D02*
X9294360Y18190200D01*
X9294360Y18190200D02*
X9341979Y18237819D01*
X9341979Y18237819D02*
X9389598Y18333057D01*
X9389598Y18333057D02*
X9389598Y18428295D01*
X9389598Y18428295D02*
X9341979Y18523533D01*
X9341979Y18523533D02*
X9294360Y18571152D01*
X9294360Y18571152D02*
X9199122Y18618771D01*
X9199122Y18618771D02*
X9008646Y18666390D01*
X9008646Y18666390D02*
X8913408Y18714009D01*
X8913408Y18714009D02*
X8865789Y18761628D01*
X8865789Y18761628D02*
X8818170Y18856866D01*
X8818170Y18856866D02*
X8818170Y18952104D01*
X8818170Y18952104D02*
X8865789Y19047342D01*
X8865789Y19047342D02*
X8913408Y19094961D01*
X8913408Y19094961D02*
X9008646Y19142580D01*
X9008646Y19142580D02*
X9246741Y19142580D01*
X9246741Y19142580D02*
X9389598Y19094961D01*
X9675313Y19142580D02*
X10246741Y19142580D01*
X9961027Y18142580D02*
X9961027Y19142580D01*
X36877419Y23928877D02*
X36877419Y24024115D01*
X36877419Y24024115D02*
X36925038Y24119353D01*
X36925038Y24119353D02*
X36972657Y24166972D01*
X36972657Y24166972D02*
X37067895Y24214591D01*
X37067895Y24214591D02*
X37258371Y24262210D01*
X37258371Y24262210D02*
X37496466Y24262210D01*
X37496466Y24262210D02*
X37686942Y24214591D01*
X37686942Y24214591D02*
X37782180Y24166972D01*
X37782180Y24166972D02*
X37829800Y24119353D01*
X37829800Y24119353D02*
X37877419Y24024115D01*
X37877419Y24024115D02*
X37877419Y23928877D01*
X37877419Y23928877D02*
X37829800Y23833639D01*
X37829800Y23833639D02*
X37782180Y23786020D01*
X37782180Y23786020D02*
X37686942Y23738401D01*
X37686942Y23738401D02*
X37496466Y23690782D01*
X37496466Y23690782D02*
X37258371Y23690782D01*
X37258371Y23690782D02*
X37067895Y23738401D01*
X37067895Y23738401D02*
X36972657Y23786020D01*
X36972657Y23786020D02*
X36925038Y23833639D01*
X36925038Y23833639D02*
X36877419Y23928877D01*
X36972657Y24643163D02*
X36925038Y24690782D01*
X36925038Y24690782D02*
X36877419Y24786020D01*
X36877419Y24786020D02*
X36877419Y25024115D01*
X36877419Y25024115D02*
X36925038Y25119353D01*
X36925038Y25119353D02*
X36972657Y25166972D01*
X36972657Y25166972D02*
X37067895Y25214591D01*
X37067895Y25214591D02*
X37163133Y25214591D01*
X37163133Y25214591D02*
X37305990Y25166972D01*
X37305990Y25166972D02*
X37877419Y24595544D01*
X37877419Y24595544D02*
X37877419Y25214591D01*
X38210752Y25881258D02*
X36782180Y25881258D01*
X36877419Y26786020D02*
X36877419Y26881258D01*
X36877419Y26881258D02*
X36925038Y26976496D01*
X36925038Y26976496D02*
X36972657Y27024115D01*
X36972657Y27024115D02*
X37067895Y27071734D01*
X37067895Y27071734D02*
X37258371Y27119353D01*
X37258371Y27119353D02*
X37496466Y27119353D01*
X37496466Y27119353D02*
X37686942Y27071734D01*
X37686942Y27071734D02*
X37782180Y27024115D01*
X37782180Y27024115D02*
X37829800Y26976496D01*
X37829800Y26976496D02*
X37877419Y26881258D01*
X37877419Y26881258D02*
X37877419Y26786020D01*
X37877419Y26786020D02*
X37829800Y26690782D01*
X37829800Y26690782D02*
X37782180Y26643163D01*
X37782180Y26643163D02*
X37686942Y26595544D01*
X37686942Y26595544D02*
X37496466Y26547925D01*
X37496466Y26547925D02*
X37258371Y26547925D01*
X37258371Y26547925D02*
X37067895Y26595544D01*
X37067895Y26595544D02*
X36972657Y26643163D01*
X36972657Y26643163D02*
X36925038Y26690782D01*
X36925038Y26690782D02*
X36877419Y26786020D01*
X36877419Y27452687D02*
X36877419Y28071734D01*
X36877419Y28071734D02*
X37258371Y27738401D01*
X37258371Y27738401D02*
X37258371Y27881258D01*
X37258371Y27881258D02*
X37305990Y27976496D01*
X37305990Y27976496D02*
X37353609Y28024115D01*
X37353609Y28024115D02*
X37448847Y28071734D01*
X37448847Y28071734D02*
X37686942Y28071734D01*
X37686942Y28071734D02*
X37782180Y28024115D01*
X37782180Y28024115D02*
X37829800Y27976496D01*
X37829800Y27976496D02*
X37877419Y27881258D01*
X37877419Y27881258D02*
X37877419Y27595544D01*
X37877419Y27595544D02*
X37829800Y27500306D01*
X37829800Y27500306D02*
X37782180Y27452687D01*
X39512657Y-28057734D02*
X39465038Y-28010115D01*
X39465038Y-28010115D02*
X39417419Y-27914877D01*
X39417419Y-27914877D02*
X39417419Y-27676782D01*
X39417419Y-27676782D02*
X39465038Y-27581544D01*
X39465038Y-27581544D02*
X39512657Y-27533925D01*
X39512657Y-27533925D02*
X39607895Y-27486306D01*
X39607895Y-27486306D02*
X39703133Y-27486306D01*
X39703133Y-27486306D02*
X39845990Y-27533925D01*
X39845990Y-27533925D02*
X40417419Y-28105353D01*
X40417419Y-28105353D02*
X40417419Y-27486306D01*
X40750752Y-26819639D02*
X39322180Y-26819639D01*
X39417419Y-26200591D02*
X39417419Y-25581544D01*
X39417419Y-25581544D02*
X39798371Y-25914877D01*
X39798371Y-25914877D02*
X39798371Y-25772020D01*
X39798371Y-25772020D02*
X39845990Y-25676782D01*
X39845990Y-25676782D02*
X39893609Y-25629163D01*
X39893609Y-25629163D02*
X39988847Y-25581544D01*
X39988847Y-25581544D02*
X40226942Y-25581544D01*
X40226942Y-25581544D02*
X40322180Y-25629163D01*
X40322180Y-25629163D02*
X40369800Y-25676782D01*
X40369800Y-25676782D02*
X40417419Y-25772020D01*
X40417419Y-25772020D02*
X40417419Y-26057734D01*
X40417419Y-26057734D02*
X40369800Y-26152972D01*
X40369800Y-26152972D02*
X40322180Y-26200591D01*
X73437419Y-27613306D02*
X73437419Y-28184734D01*
X73437419Y-27899020D02*
X72437419Y-27899020D01*
X72437419Y-27899020D02*
X72580276Y-27994258D01*
X72580276Y-27994258D02*
X72675514Y-28089496D01*
X72675514Y-28089496D02*
X72723133Y-28184734D01*
X72437419Y-26708544D02*
X72437419Y-27184734D01*
X72437419Y-27184734D02*
X72913609Y-27232353D01*
X72913609Y-27232353D02*
X72865990Y-27184734D01*
X72865990Y-27184734D02*
X72818371Y-27089496D01*
X72818371Y-27089496D02*
X72818371Y-26851401D01*
X72818371Y-26851401D02*
X72865990Y-26756163D01*
X72865990Y-26756163D02*
X72913609Y-26708544D01*
X72913609Y-26708544D02*
X73008847Y-26660925D01*
X73008847Y-26660925D02*
X73246942Y-26660925D01*
X73246942Y-26660925D02*
X73342180Y-26708544D01*
X73342180Y-26708544D02*
X73389800Y-26756163D01*
X73389800Y-26756163D02*
X73437419Y-26851401D01*
X73437419Y-26851401D02*
X73437419Y-27089496D01*
X73437419Y-27089496D02*
X73389800Y-27184734D01*
X73389800Y-27184734D02*
X73342180Y-27232353D01*
X73770752Y-25994258D02*
X72342180Y-25994258D01*
X73056466Y-25279972D02*
X73056466Y-24518068D01*
X64817419Y-27819639D02*
X64817419Y-27724401D01*
X64817419Y-27724401D02*
X64865038Y-27629163D01*
X64865038Y-27629163D02*
X64912657Y-27581544D01*
X64912657Y-27581544D02*
X65007895Y-27533925D01*
X65007895Y-27533925D02*
X65198371Y-27486306D01*
X65198371Y-27486306D02*
X65436466Y-27486306D01*
X65436466Y-27486306D02*
X65626942Y-27533925D01*
X65626942Y-27533925D02*
X65722180Y-27581544D01*
X65722180Y-27581544D02*
X65769800Y-27629163D01*
X65769800Y-27629163D02*
X65817419Y-27724401D01*
X65817419Y-27724401D02*
X65817419Y-27819639D01*
X65817419Y-27819639D02*
X65769800Y-27914877D01*
X65769800Y-27914877D02*
X65722180Y-27962496D01*
X65722180Y-27962496D02*
X65626942Y-28010115D01*
X65626942Y-28010115D02*
X65436466Y-28057734D01*
X65436466Y-28057734D02*
X65198371Y-28057734D01*
X65198371Y-28057734D02*
X65007895Y-28010115D01*
X65007895Y-28010115D02*
X64912657Y-27962496D01*
X64912657Y-27962496D02*
X64865038Y-27914877D01*
X64865038Y-27914877D02*
X64817419Y-27819639D01*
X65817419Y-27010115D02*
X65817419Y-26819639D01*
X65817419Y-26819639D02*
X65769800Y-26724401D01*
X65769800Y-26724401D02*
X65722180Y-26676782D01*
X65722180Y-26676782D02*
X65579323Y-26581544D01*
X65579323Y-26581544D02*
X65388847Y-26533925D01*
X65388847Y-26533925D02*
X65007895Y-26533925D01*
X65007895Y-26533925D02*
X64912657Y-26581544D01*
X64912657Y-26581544D02*
X64865038Y-26629163D01*
X64865038Y-26629163D02*
X64817419Y-26724401D01*
X64817419Y-26724401D02*
X64817419Y-26914877D01*
X64817419Y-26914877D02*
X64865038Y-27010115D01*
X64865038Y-27010115D02*
X64912657Y-27057734D01*
X64912657Y-27057734D02*
X65007895Y-27105353D01*
X65007895Y-27105353D02*
X65245990Y-27105353D01*
X65245990Y-27105353D02*
X65341228Y-27057734D01*
X65341228Y-27057734D02*
X65388847Y-27010115D01*
X65388847Y-27010115D02*
X65436466Y-26914877D01*
X65436466Y-26914877D02*
X65436466Y-26724401D01*
X65436466Y-26724401D02*
X65388847Y-26629163D01*
X65388847Y-26629163D02*
X65341228Y-26581544D01*
X65341228Y-26581544D02*
X65245990Y-26533925D01*
X66150752Y-25867258D02*
X64722180Y-25867258D01*
X65817419Y-24629163D02*
X65817419Y-25200591D01*
X65817419Y-24914877D02*
X64817419Y-24914877D01*
X64817419Y-24914877D02*
X64960276Y-25010115D01*
X64960276Y-25010115D02*
X65055514Y-25105353D01*
X65055514Y-25105353D02*
X65103133Y-25200591D01*
X64817419Y-24010115D02*
X64817419Y-23914877D01*
X64817419Y-23914877D02*
X64865038Y-23819639D01*
X64865038Y-23819639D02*
X64912657Y-23772020D01*
X64912657Y-23772020D02*
X65007895Y-23724401D01*
X65007895Y-23724401D02*
X65198371Y-23676782D01*
X65198371Y-23676782D02*
X65436466Y-23676782D01*
X65436466Y-23676782D02*
X65626942Y-23724401D01*
X65626942Y-23724401D02*
X65722180Y-23772020D01*
X65722180Y-23772020D02*
X65769800Y-23819639D01*
X65769800Y-23819639D02*
X65817419Y-23914877D01*
X65817419Y-23914877D02*
X65817419Y-24010115D01*
X65817419Y-24010115D02*
X65769800Y-24105353D01*
X65769800Y-24105353D02*
X65722180Y-24152972D01*
X65722180Y-24152972D02*
X65626942Y-24200591D01*
X65626942Y-24200591D02*
X65436466Y-24248210D01*
X65436466Y-24248210D02*
X65198371Y-24248210D01*
X65198371Y-24248210D02*
X65007895Y-24200591D01*
X65007895Y-24200591D02*
X64912657Y-24152972D01*
X64912657Y-24152972D02*
X64865038Y-24105353D01*
X64865038Y-24105353D02*
X64817419Y-24010115D01*
X20097419Y-28010115D02*
X19097419Y-28010115D01*
X19097419Y-28010115D02*
X20097419Y-27438687D01*
X20097419Y-27438687D02*
X19097419Y-27438687D01*
X20097419Y-26438687D02*
X20097419Y-27010115D01*
X20097419Y-26724401D02*
X19097419Y-26724401D01*
X19097419Y-26724401D02*
X19240276Y-26819639D01*
X19240276Y-26819639D02*
X19335514Y-26914877D01*
X19335514Y-26914877D02*
X19383133Y-27010115D01*
X20430752Y-25772020D02*
X19002180Y-25772020D01*
X20097419Y-25057734D02*
X19097419Y-25057734D01*
X19097419Y-25057734D02*
X19097419Y-24676782D01*
X19097419Y-24676782D02*
X19145038Y-24581544D01*
X19145038Y-24581544D02*
X19192657Y-24533925D01*
X19192657Y-24533925D02*
X19287895Y-24486306D01*
X19287895Y-24486306D02*
X19430752Y-24486306D01*
X19430752Y-24486306D02*
X19525990Y-24533925D01*
X19525990Y-24533925D02*
X19573609Y-24581544D01*
X19573609Y-24581544D02*
X19621228Y-24676782D01*
X19621228Y-24676782D02*
X19621228Y-25057734D01*
X20097419Y-23533925D02*
X20097419Y-24105353D01*
X20097419Y-23819639D02*
X19097419Y-23819639D01*
X19097419Y-23819639D02*
X19240276Y-23914877D01*
X19240276Y-23914877D02*
X19335514Y-24010115D01*
X19335514Y-24010115D02*
X19383133Y-24105353D01*
X44497419Y-27581544D02*
X44497419Y-27772020D01*
X44497419Y-27772020D02*
X44545038Y-27867258D01*
X44545038Y-27867258D02*
X44592657Y-27914877D01*
X44592657Y-27914877D02*
X44735514Y-28010115D01*
X44735514Y-28010115D02*
X44925990Y-28057734D01*
X44925990Y-28057734D02*
X45306942Y-28057734D01*
X45306942Y-28057734D02*
X45402180Y-28010115D01*
X45402180Y-28010115D02*
X45449800Y-27962496D01*
X45449800Y-27962496D02*
X45497419Y-27867258D01*
X45497419Y-27867258D02*
X45497419Y-27676782D01*
X45497419Y-27676782D02*
X45449800Y-27581544D01*
X45449800Y-27581544D02*
X45402180Y-27533925D01*
X45402180Y-27533925D02*
X45306942Y-27486306D01*
X45306942Y-27486306D02*
X45068847Y-27486306D01*
X45068847Y-27486306D02*
X44973609Y-27533925D01*
X44973609Y-27533925D02*
X44925990Y-27581544D01*
X44925990Y-27581544D02*
X44878371Y-27676782D01*
X44878371Y-27676782D02*
X44878371Y-27867258D01*
X44878371Y-27867258D02*
X44925990Y-27962496D01*
X44925990Y-27962496D02*
X44973609Y-28010115D01*
X44973609Y-28010115D02*
X45068847Y-28057734D01*
X45830752Y-26819639D02*
X44402180Y-26819639D01*
X44497419Y-25629163D02*
X44497419Y-26105353D01*
X44497419Y-26105353D02*
X44973609Y-26152972D01*
X44973609Y-26152972D02*
X44925990Y-26105353D01*
X44925990Y-26105353D02*
X44878371Y-26010115D01*
X44878371Y-26010115D02*
X44878371Y-25772020D01*
X44878371Y-25772020D02*
X44925990Y-25676782D01*
X44925990Y-25676782D02*
X44973609Y-25629163D01*
X44973609Y-25629163D02*
X45068847Y-25581544D01*
X45068847Y-25581544D02*
X45306942Y-25581544D01*
X45306942Y-25581544D02*
X45402180Y-25629163D01*
X45402180Y-25629163D02*
X45449800Y-25676782D01*
X45449800Y-25676782D02*
X45497419Y-25772020D01*
X45497419Y-25772020D02*
X45497419Y-26010115D01*
X45497419Y-26010115D02*
X45449800Y-26105353D01*
X45449800Y-26105353D02*
X45402180Y-26152972D01*
X62277419Y-27819639D02*
X62277419Y-27724401D01*
X62277419Y-27724401D02*
X62325038Y-27629163D01*
X62325038Y-27629163D02*
X62372657Y-27581544D01*
X62372657Y-27581544D02*
X62467895Y-27533925D01*
X62467895Y-27533925D02*
X62658371Y-27486306D01*
X62658371Y-27486306D02*
X62896466Y-27486306D01*
X62896466Y-27486306D02*
X63086942Y-27533925D01*
X63086942Y-27533925D02*
X63182180Y-27581544D01*
X63182180Y-27581544D02*
X63229800Y-27629163D01*
X63229800Y-27629163D02*
X63277419Y-27724401D01*
X63277419Y-27724401D02*
X63277419Y-27819639D01*
X63277419Y-27819639D02*
X63229800Y-27914877D01*
X63229800Y-27914877D02*
X63182180Y-27962496D01*
X63182180Y-27962496D02*
X63086942Y-28010115D01*
X63086942Y-28010115D02*
X62896466Y-28057734D01*
X62896466Y-28057734D02*
X62658371Y-28057734D01*
X62658371Y-28057734D02*
X62467895Y-28010115D01*
X62467895Y-28010115D02*
X62372657Y-27962496D01*
X62372657Y-27962496D02*
X62325038Y-27914877D01*
X62325038Y-27914877D02*
X62277419Y-27819639D01*
X62277419Y-27152972D02*
X62277419Y-26486306D01*
X62277419Y-26486306D02*
X63277419Y-26914877D01*
X63610752Y-25867258D02*
X62182180Y-25867258D01*
X62277419Y-24962496D02*
X62277419Y-24867258D01*
X62277419Y-24867258D02*
X62325038Y-24772020D01*
X62325038Y-24772020D02*
X62372657Y-24724401D01*
X62372657Y-24724401D02*
X62467895Y-24676782D01*
X62467895Y-24676782D02*
X62658371Y-24629163D01*
X62658371Y-24629163D02*
X62896466Y-24629163D01*
X62896466Y-24629163D02*
X63086942Y-24676782D01*
X63086942Y-24676782D02*
X63182180Y-24724401D01*
X63182180Y-24724401D02*
X63229800Y-24772020D01*
X63229800Y-24772020D02*
X63277419Y-24867258D01*
X63277419Y-24867258D02*
X63277419Y-24962496D01*
X63277419Y-24962496D02*
X63229800Y-25057734D01*
X63229800Y-25057734D02*
X63182180Y-25105353D01*
X63182180Y-25105353D02*
X63086942Y-25152972D01*
X63086942Y-25152972D02*
X62896466Y-25200591D01*
X62896466Y-25200591D02*
X62658371Y-25200591D01*
X62658371Y-25200591D02*
X62467895Y-25152972D01*
X62467895Y-25152972D02*
X62372657Y-25105353D01*
X62372657Y-25105353D02*
X62325038Y-25057734D01*
X62325038Y-25057734D02*
X62277419Y-24962496D01*
X62705990Y-24057734D02*
X62658371Y-24152972D01*
X62658371Y-24152972D02*
X62610752Y-24200591D01*
X62610752Y-24200591D02*
X62515514Y-24248210D01*
X62515514Y-24248210D02*
X62467895Y-24248210D01*
X62467895Y-24248210D02*
X62372657Y-24200591D01*
X62372657Y-24200591D02*
X62325038Y-24152972D01*
X62325038Y-24152972D02*
X62277419Y-24057734D01*
X62277419Y-24057734D02*
X62277419Y-23867258D01*
X62277419Y-23867258D02*
X62325038Y-23772020D01*
X62325038Y-23772020D02*
X62372657Y-23724401D01*
X62372657Y-23724401D02*
X62467895Y-23676782D01*
X62467895Y-23676782D02*
X62515514Y-23676782D01*
X62515514Y-23676782D02*
X62610752Y-23724401D01*
X62610752Y-23724401D02*
X62658371Y-23772020D01*
X62658371Y-23772020D02*
X62705990Y-23867258D01*
X62705990Y-23867258D02*
X62705990Y-24057734D01*
X62705990Y-24057734D02*
X62753609Y-24152972D01*
X62753609Y-24152972D02*
X62801228Y-24200591D01*
X62801228Y-24200591D02*
X62896466Y-24248210D01*
X62896466Y-24248210D02*
X63086942Y-24248210D01*
X63086942Y-24248210D02*
X63182180Y-24200591D01*
X63182180Y-24200591D02*
X63229800Y-24152972D01*
X63229800Y-24152972D02*
X63277419Y-24057734D01*
X63277419Y-24057734D02*
X63277419Y-23867258D01*
X63277419Y-23867258D02*
X63229800Y-23772020D01*
X63229800Y-23772020D02*
X63182180Y-23724401D01*
X63182180Y-23724401D02*
X63086942Y-23676782D01*
X63086942Y-23676782D02*
X62896466Y-23676782D01*
X62896466Y-23676782D02*
X62801228Y-23724401D01*
X62801228Y-23724401D02*
X62753609Y-23772020D01*
X62753609Y-23772020D02*
X62705990Y-23867258D01*
X29257419Y23928877D02*
X29257419Y24024115D01*
X29257419Y24024115D02*
X29305038Y24119353D01*
X29305038Y24119353D02*
X29352657Y24166972D01*
X29352657Y24166972D02*
X29447895Y24214591D01*
X29447895Y24214591D02*
X29638371Y24262210D01*
X29638371Y24262210D02*
X29876466Y24262210D01*
X29876466Y24262210D02*
X30066942Y24214591D01*
X30066942Y24214591D02*
X30162180Y24166972D01*
X30162180Y24166972D02*
X30209800Y24119353D01*
X30209800Y24119353D02*
X30257419Y24024115D01*
X30257419Y24024115D02*
X30257419Y23928877D01*
X30257419Y23928877D02*
X30209800Y23833639D01*
X30209800Y23833639D02*
X30162180Y23786020D01*
X30162180Y23786020D02*
X30066942Y23738401D01*
X30066942Y23738401D02*
X29876466Y23690782D01*
X29876466Y23690782D02*
X29638371Y23690782D01*
X29638371Y23690782D02*
X29447895Y23738401D01*
X29447895Y23738401D02*
X29352657Y23786020D01*
X29352657Y23786020D02*
X29305038Y23833639D01*
X29305038Y23833639D02*
X29257419Y23928877D01*
X29685990Y24833639D02*
X29638371Y24738401D01*
X29638371Y24738401D02*
X29590752Y24690782D01*
X29590752Y24690782D02*
X29495514Y24643163D01*
X29495514Y24643163D02*
X29447895Y24643163D01*
X29447895Y24643163D02*
X29352657Y24690782D01*
X29352657Y24690782D02*
X29305038Y24738401D01*
X29305038Y24738401D02*
X29257419Y24833639D01*
X29257419Y24833639D02*
X29257419Y25024115D01*
X29257419Y25024115D02*
X29305038Y25119353D01*
X29305038Y25119353D02*
X29352657Y25166972D01*
X29352657Y25166972D02*
X29447895Y25214591D01*
X29447895Y25214591D02*
X29495514Y25214591D01*
X29495514Y25214591D02*
X29590752Y25166972D01*
X29590752Y25166972D02*
X29638371Y25119353D01*
X29638371Y25119353D02*
X29685990Y25024115D01*
X29685990Y25024115D02*
X29685990Y24833639D01*
X29685990Y24833639D02*
X29733609Y24738401D01*
X29733609Y24738401D02*
X29781228Y24690782D01*
X29781228Y24690782D02*
X29876466Y24643163D01*
X29876466Y24643163D02*
X30066942Y24643163D01*
X30066942Y24643163D02*
X30162180Y24690782D01*
X30162180Y24690782D02*
X30209800Y24738401D01*
X30209800Y24738401D02*
X30257419Y24833639D01*
X30257419Y24833639D02*
X30257419Y25024115D01*
X30257419Y25024115D02*
X30209800Y25119353D01*
X30209800Y25119353D02*
X30162180Y25166972D01*
X30162180Y25166972D02*
X30066942Y25214591D01*
X30066942Y25214591D02*
X29876466Y25214591D01*
X29876466Y25214591D02*
X29781228Y25166972D01*
X29781228Y25166972D02*
X29733609Y25119353D01*
X29733609Y25119353D02*
X29685990Y25024115D01*
X30590752Y25881258D02*
X29162180Y25881258D01*
X29257419Y26786020D02*
X29257419Y26881258D01*
X29257419Y26881258D02*
X29305038Y26976496D01*
X29305038Y26976496D02*
X29352657Y27024115D01*
X29352657Y27024115D02*
X29447895Y27071734D01*
X29447895Y27071734D02*
X29638371Y27119353D01*
X29638371Y27119353D02*
X29876466Y27119353D01*
X29876466Y27119353D02*
X30066942Y27071734D01*
X30066942Y27071734D02*
X30162180Y27024115D01*
X30162180Y27024115D02*
X30209800Y26976496D01*
X30209800Y26976496D02*
X30257419Y26881258D01*
X30257419Y26881258D02*
X30257419Y26786020D01*
X30257419Y26786020D02*
X30209800Y26690782D01*
X30209800Y26690782D02*
X30162180Y26643163D01*
X30162180Y26643163D02*
X30066942Y26595544D01*
X30066942Y26595544D02*
X29876466Y26547925D01*
X29876466Y26547925D02*
X29638371Y26547925D01*
X29638371Y26547925D02*
X29447895Y26595544D01*
X29447895Y26595544D02*
X29352657Y26643163D01*
X29352657Y26643163D02*
X29305038Y26690782D01*
X29305038Y26690782D02*
X29257419Y26786020D01*
X30257419Y27595544D02*
X30257419Y27786020D01*
X30257419Y27786020D02*
X30209800Y27881258D01*
X30209800Y27881258D02*
X30162180Y27928877D01*
X30162180Y27928877D02*
X30019323Y28024115D01*
X30019323Y28024115D02*
X29828847Y28071734D01*
X29828847Y28071734D02*
X29447895Y28071734D01*
X29447895Y28071734D02*
X29352657Y28024115D01*
X29352657Y28024115D02*
X29305038Y27976496D01*
X29305038Y27976496D02*
X29257419Y27881258D01*
X29257419Y27881258D02*
X29257419Y27690782D01*
X29257419Y27690782D02*
X29305038Y27595544D01*
X29305038Y27595544D02*
X29352657Y27547925D01*
X29352657Y27547925D02*
X29447895Y27500306D01*
X29447895Y27500306D02*
X29685990Y27500306D01*
X29685990Y27500306D02*
X29781228Y27547925D01*
X29781228Y27547925D02*
X29828847Y27595544D01*
X29828847Y27595544D02*
X29876466Y27690782D01*
X29876466Y27690782D02*
X29876466Y27881258D01*
X29876466Y27881258D02*
X29828847Y27976496D01*
X29828847Y27976496D02*
X29781228Y28024115D01*
X29781228Y28024115D02*
X29685990Y28071734D01*
X11477419Y21279211D02*
X12477419Y21517306D01*
X12477419Y21517306D02*
X11763133Y21707782D01*
X11763133Y21707782D02*
X12477419Y21898258D01*
X12477419Y21898258D02*
X11477419Y22136354D01*
X12477419Y22517306D02*
X11477419Y22517306D01*
X12477419Y23088734D02*
X11905990Y22660163D01*
X11477419Y23088734D02*
X12048847Y22517306D01*
X11477419Y23517306D02*
X12286942Y23517306D01*
X12286942Y23517306D02*
X12382180Y23564925D01*
X12382180Y23564925D02*
X12429800Y23612544D01*
X12429800Y23612544D02*
X12477419Y23707782D01*
X12477419Y23707782D02*
X12477419Y23898258D01*
X12477419Y23898258D02*
X12429800Y23993496D01*
X12429800Y23993496D02*
X12382180Y24041115D01*
X12382180Y24041115D02*
X12286942Y24088734D01*
X12286942Y24088734D02*
X11477419Y24088734D01*
X12477419Y24564925D02*
X11477419Y24564925D01*
X11477419Y24564925D02*
X11477419Y24945877D01*
X11477419Y24945877D02*
X11525038Y25041115D01*
X11525038Y25041115D02*
X11572657Y25088734D01*
X11572657Y25088734D02*
X11667895Y25136353D01*
X11667895Y25136353D02*
X11810752Y25136353D01*
X11810752Y25136353D02*
X11905990Y25088734D01*
X11905990Y25088734D02*
X11953609Y25041115D01*
X11953609Y25041115D02*
X12001228Y24945877D01*
X12001228Y24945877D02*
X12001228Y24564925D01*
X11477419Y25755401D02*
X11477419Y25850639D01*
X11477419Y25850639D02*
X11525038Y25945877D01*
X11525038Y25945877D02*
X11572657Y25993496D01*
X11572657Y25993496D02*
X11667895Y26041115D01*
X11667895Y26041115D02*
X11858371Y26088734D01*
X11858371Y26088734D02*
X12096466Y26088734D01*
X12096466Y26088734D02*
X12286942Y26041115D01*
X12286942Y26041115D02*
X12382180Y25993496D01*
X12382180Y25993496D02*
X12429800Y25945877D01*
X12429800Y25945877D02*
X12477419Y25850639D01*
X12477419Y25850639D02*
X12477419Y25755401D01*
X12477419Y25755401D02*
X12429800Y25660163D01*
X12429800Y25660163D02*
X12382180Y25612544D01*
X12382180Y25612544D02*
X12286942Y25564925D01*
X12286942Y25564925D02*
X12096466Y25517306D01*
X12096466Y25517306D02*
X11858371Y25517306D01*
X11858371Y25517306D02*
X11667895Y25564925D01*
X11667895Y25564925D02*
X11572657Y25612544D01*
X11572657Y25612544D02*
X11525038Y25660163D01*
X11525038Y25660163D02*
X11477419Y25755401D01*
X11429800Y27231591D02*
X12715514Y26374449D01*
X12477419Y28088734D02*
X12477419Y27517306D01*
X12477419Y27803020D02*
X11477419Y27803020D01*
X11477419Y27803020D02*
X11620276Y27707782D01*
X11620276Y27707782D02*
X11715514Y27612544D01*
X11715514Y27612544D02*
X11763133Y27517306D01*
X15017419Y-28010115D02*
X14017419Y-28010115D01*
X15017419Y-27533925D02*
X14017419Y-27533925D01*
X14017419Y-27533925D02*
X15017419Y-26962497D01*
X15017419Y-26962497D02*
X14017419Y-26962497D01*
X14112657Y-26533925D02*
X14065038Y-26486306D01*
X14065038Y-26486306D02*
X14017419Y-26391068D01*
X14017419Y-26391068D02*
X14017419Y-26152973D01*
X14017419Y-26152973D02*
X14065038Y-26057735D01*
X14065038Y-26057735D02*
X14112657Y-26010116D01*
X14112657Y-26010116D02*
X14207895Y-25962497D01*
X14207895Y-25962497D02*
X14303133Y-25962497D01*
X14303133Y-25962497D02*
X14445990Y-26010116D01*
X14445990Y-26010116D02*
X15017419Y-26581544D01*
X15017419Y-26581544D02*
X15017419Y-25962497D01*
X15350752Y-25295830D02*
X13922180Y-25295830D01*
X14017419Y-24391068D02*
X14017419Y-24200592D01*
X14017419Y-24200592D02*
X14065038Y-24105354D01*
X14065038Y-24105354D02*
X14160276Y-24010116D01*
X14160276Y-24010116D02*
X14350752Y-23962497D01*
X14350752Y-23962497D02*
X14684085Y-23962497D01*
X14684085Y-23962497D02*
X14874561Y-24010116D01*
X14874561Y-24010116D02*
X14969800Y-24105354D01*
X14969800Y-24105354D02*
X15017419Y-24200592D01*
X15017419Y-24200592D02*
X15017419Y-24391068D01*
X15017419Y-24391068D02*
X14969800Y-24486306D01*
X14969800Y-24486306D02*
X14874561Y-24581544D01*
X14874561Y-24581544D02*
X14684085Y-24629163D01*
X14684085Y-24629163D02*
X14350752Y-24629163D01*
X14350752Y-24629163D02*
X14160276Y-24581544D01*
X14160276Y-24581544D02*
X14065038Y-24486306D01*
X14065038Y-24486306D02*
X14017419Y-24391068D01*
X14017419Y-23533925D02*
X14826942Y-23533925D01*
X14826942Y-23533925D02*
X14922180Y-23486306D01*
X14922180Y-23486306D02*
X14969800Y-23438687D01*
X14969800Y-23438687D02*
X15017419Y-23343449D01*
X15017419Y-23343449D02*
X15017419Y-23152973D01*
X15017419Y-23152973D02*
X14969800Y-23057735D01*
X14969800Y-23057735D02*
X14922180Y-23010116D01*
X14922180Y-23010116D02*
X14826942Y-22962497D01*
X14826942Y-22962497D02*
X14017419Y-22962497D01*
X14017419Y-22629163D02*
X14017419Y-22057735D01*
X15017419Y-22343449D02*
X14017419Y-22343449D01*
X14017419Y20976497D02*
X15017419Y21214592D01*
X15017419Y21214592D02*
X14303133Y21405068D01*
X14303133Y21405068D02*
X15017419Y21595544D01*
X15017419Y21595544D02*
X14017419Y21833640D01*
X15017419Y22214592D02*
X14017419Y22214592D01*
X15017419Y22786020D02*
X14445990Y22357449D01*
X14017419Y22786020D02*
X14588847Y22214592D01*
X14017419Y23214592D02*
X14826942Y23214592D01*
X14826942Y23214592D02*
X14922180Y23262211D01*
X14922180Y23262211D02*
X14969800Y23309830D01*
X14969800Y23309830D02*
X15017419Y23405068D01*
X15017419Y23405068D02*
X15017419Y23595544D01*
X15017419Y23595544D02*
X14969800Y23690782D01*
X14969800Y23690782D02*
X14922180Y23738401D01*
X14922180Y23738401D02*
X14826942Y23786020D01*
X14826942Y23786020D02*
X14017419Y23786020D01*
X15017419Y24262211D02*
X14017419Y24262211D01*
X14017419Y24262211D02*
X14017419Y24643163D01*
X14017419Y24643163D02*
X14065038Y24738401D01*
X14065038Y24738401D02*
X14112657Y24786020D01*
X14112657Y24786020D02*
X14207895Y24833639D01*
X14207895Y24833639D02*
X14350752Y24833639D01*
X14350752Y24833639D02*
X14445990Y24786020D01*
X14445990Y24786020D02*
X14493609Y24738401D01*
X14493609Y24738401D02*
X14541228Y24643163D01*
X14541228Y24643163D02*
X14541228Y24262211D01*
X14112657Y25214592D02*
X14065038Y25262211D01*
X14065038Y25262211D02*
X14017419Y25357449D01*
X14017419Y25357449D02*
X14017419Y25595544D01*
X14017419Y25595544D02*
X14065038Y25690782D01*
X14065038Y25690782D02*
X14112657Y25738401D01*
X14112657Y25738401D02*
X14207895Y25786020D01*
X14207895Y25786020D02*
X14303133Y25786020D01*
X14303133Y25786020D02*
X14445990Y25738401D01*
X14445990Y25738401D02*
X15017419Y25166973D01*
X15017419Y25166973D02*
X15017419Y25786020D01*
X13969800Y26928877D02*
X15255514Y26071735D01*
X14636466Y27262211D02*
X14636466Y28024116D01*
X7675312Y15622580D02*
X7341979Y16098771D01*
X7103884Y15622580D02*
X7103884Y16622580D01*
X7103884Y16622580D02*
X7484836Y16622580D01*
X7484836Y16622580D02*
X7580074Y16574961D01*
X7580074Y16574961D02*
X7627693Y16527342D01*
X7627693Y16527342D02*
X7675312Y16432104D01*
X7675312Y16432104D02*
X7675312Y16289247D01*
X7675312Y16289247D02*
X7627693Y16194009D01*
X7627693Y16194009D02*
X7580074Y16146390D01*
X7580074Y16146390D02*
X7484836Y16098771D01*
X7484836Y16098771D02*
X7103884Y16098771D01*
X8056265Y15670200D02*
X8199122Y15622580D01*
X8199122Y15622580D02*
X8437217Y15622580D01*
X8437217Y15622580D02*
X8532455Y15670200D01*
X8532455Y15670200D02*
X8580074Y15717819D01*
X8580074Y15717819D02*
X8627693Y15813057D01*
X8627693Y15813057D02*
X8627693Y15908295D01*
X8627693Y15908295D02*
X8580074Y16003533D01*
X8580074Y16003533D02*
X8532455Y16051152D01*
X8532455Y16051152D02*
X8437217Y16098771D01*
X8437217Y16098771D02*
X8246741Y16146390D01*
X8246741Y16146390D02*
X8151503Y16194009D01*
X8151503Y16194009D02*
X8103884Y16241628D01*
X8103884Y16241628D02*
X8056265Y16336866D01*
X8056265Y16336866D02*
X8056265Y16432104D01*
X8056265Y16432104D02*
X8103884Y16527342D01*
X8103884Y16527342D02*
X8151503Y16574961D01*
X8151503Y16574961D02*
X8246741Y16622580D01*
X8246741Y16622580D02*
X8484836Y16622580D01*
X8484836Y16622580D02*
X8627693Y16574961D01*
X8913408Y16622580D02*
X9484836Y16622580D01*
X9199122Y15622580D02*
X9199122Y16622580D01*
X6961027Y26742580D02*
X7532455Y26742580D01*
X7246741Y25742580D02*
X7246741Y26742580D01*
X7865789Y25742580D02*
X7865789Y26742580D01*
X7865789Y26742580D02*
X8103884Y26742580D01*
X8103884Y26742580D02*
X8246741Y26694961D01*
X8246741Y26694961D02*
X8341979Y26599723D01*
X8341979Y26599723D02*
X8389598Y26504485D01*
X8389598Y26504485D02*
X8437217Y26314009D01*
X8437217Y26314009D02*
X8437217Y26171152D01*
X8437217Y26171152D02*
X8389598Y25980676D01*
X8389598Y25980676D02*
X8341979Y25885438D01*
X8341979Y25885438D02*
X8246741Y25790200D01*
X8246741Y25790200D02*
X8103884Y25742580D01*
X8103884Y25742580D02*
X7865789Y25742580D01*
X9056265Y26742580D02*
X9246741Y26742580D01*
X9246741Y26742580D02*
X9341979Y26694961D01*
X9341979Y26694961D02*
X9437217Y26599723D01*
X9437217Y26599723D02*
X9484836Y26409247D01*
X9484836Y26409247D02*
X9484836Y26075914D01*
X9484836Y26075914D02*
X9437217Y25885438D01*
X9437217Y25885438D02*
X9341979Y25790200D01*
X9341979Y25790200D02*
X9246741Y25742580D01*
X9246741Y25742580D02*
X9056265Y25742580D01*
X9056265Y25742580D02*
X8961027Y25790200D01*
X8961027Y25790200D02*
X8865789Y25885438D01*
X8865789Y25885438D02*
X8818170Y26075914D01*
X8818170Y26075914D02*
X8818170Y26409247D01*
X8818170Y26409247D02*
X8865789Y26599723D01*
X8865789Y26599723D02*
X8961027Y26694961D01*
X8961027Y26694961D02*
X9056265Y26742580D01*
X19716466Y24976497D02*
X19716466Y25738402D01*
X19049800Y26928877D02*
X20335514Y26071735D01*
X19716466Y27262211D02*
X19716466Y28024116D01*
X70897419Y-27613306D02*
X70897419Y-28184734D01*
X70897419Y-27899020D02*
X69897419Y-27899020D01*
X69897419Y-27899020D02*
X70040276Y-27994258D01*
X70040276Y-27994258D02*
X70135514Y-28089496D01*
X70135514Y-28089496D02*
X70183133Y-28184734D01*
X69897419Y-27279972D02*
X69897419Y-26660925D01*
X69897419Y-26660925D02*
X70278371Y-26994258D01*
X70278371Y-26994258D02*
X70278371Y-26851401D01*
X70278371Y-26851401D02*
X70325990Y-26756163D01*
X70325990Y-26756163D02*
X70373609Y-26708544D01*
X70373609Y-26708544D02*
X70468847Y-26660925D01*
X70468847Y-26660925D02*
X70706942Y-26660925D01*
X70706942Y-26660925D02*
X70802180Y-26708544D01*
X70802180Y-26708544D02*
X70849800Y-26756163D01*
X70849800Y-26756163D02*
X70897419Y-26851401D01*
X70897419Y-26851401D02*
X70897419Y-27137115D01*
X70897419Y-27137115D02*
X70849800Y-27232353D01*
X70849800Y-27232353D02*
X70802180Y-27279972D01*
X71230752Y-25994258D02*
X69802180Y-25994258D01*
X70897419Y-24756163D02*
X70897419Y-25327591D01*
X70897419Y-25041877D02*
X69897419Y-25041877D01*
X69897419Y-25041877D02*
X70040276Y-25137115D01*
X70040276Y-25137115D02*
X70135514Y-25232353D01*
X70135514Y-25232353D02*
X70183133Y-25327591D01*
X70230752Y-23899020D02*
X70897419Y-23899020D01*
X69849800Y-24137115D02*
X70564085Y-24375210D01*
X70564085Y-24375210D02*
X70564085Y-23756163D01*
X36877419Y-27819639D02*
X36877419Y-27724401D01*
X36877419Y-27724401D02*
X36925038Y-27629163D01*
X36925038Y-27629163D02*
X36972657Y-27581544D01*
X36972657Y-27581544D02*
X37067895Y-27533925D01*
X37067895Y-27533925D02*
X37258371Y-27486306D01*
X37258371Y-27486306D02*
X37496466Y-27486306D01*
X37496466Y-27486306D02*
X37686942Y-27533925D01*
X37686942Y-27533925D02*
X37782180Y-27581544D01*
X37782180Y-27581544D02*
X37829800Y-27629163D01*
X37829800Y-27629163D02*
X37877419Y-27724401D01*
X37877419Y-27724401D02*
X37877419Y-27819639D01*
X37877419Y-27819639D02*
X37829800Y-27914877D01*
X37829800Y-27914877D02*
X37782180Y-27962496D01*
X37782180Y-27962496D02*
X37686942Y-28010115D01*
X37686942Y-28010115D02*
X37496466Y-28057734D01*
X37496466Y-28057734D02*
X37258371Y-28057734D01*
X37258371Y-28057734D02*
X37067895Y-28010115D01*
X37067895Y-28010115D02*
X36972657Y-27962496D01*
X36972657Y-27962496D02*
X36925038Y-27914877D01*
X36925038Y-27914877D02*
X36877419Y-27819639D01*
X38210752Y-26819639D02*
X36782180Y-26819639D01*
X37877419Y-25581544D02*
X37877419Y-26152972D01*
X37877419Y-25867258D02*
X36877419Y-25867258D01*
X36877419Y-25867258D02*
X37020276Y-25962496D01*
X37020276Y-25962496D02*
X37115514Y-26057734D01*
X37115514Y-26057734D02*
X37163133Y-26152972D01*
X58070419Y24135210D02*
X58070419Y23563782D01*
X58070419Y23849496D02*
X57070419Y23849496D01*
X57070419Y23849496D02*
X57213276Y23754258D01*
X57213276Y23754258D02*
X57308514Y23659020D01*
X57308514Y23659020D02*
X57356133Y23563782D01*
X57070419Y24754258D02*
X57070419Y24849496D01*
X57070419Y24849496D02*
X57118038Y24944734D01*
X57118038Y24944734D02*
X57165657Y24992353D01*
X57165657Y24992353D02*
X57260895Y25039972D01*
X57260895Y25039972D02*
X57451371Y25087591D01*
X57451371Y25087591D02*
X57689466Y25087591D01*
X57689466Y25087591D02*
X57879942Y25039972D01*
X57879942Y25039972D02*
X57975180Y24992353D01*
X57975180Y24992353D02*
X58022800Y24944734D01*
X58022800Y24944734D02*
X58070419Y24849496D01*
X58070419Y24849496D02*
X58070419Y24754258D01*
X58070419Y24754258D02*
X58022800Y24659020D01*
X58022800Y24659020D02*
X57975180Y24611401D01*
X57975180Y24611401D02*
X57879942Y24563782D01*
X57879942Y24563782D02*
X57689466Y24516163D01*
X57689466Y24516163D02*
X57451371Y24516163D01*
X57451371Y24516163D02*
X57260895Y24563782D01*
X57260895Y24563782D02*
X57165657Y24611401D01*
X57165657Y24611401D02*
X57118038Y24659020D01*
X57118038Y24659020D02*
X57070419Y24754258D01*
X58403752Y25754258D02*
X56975180Y25754258D01*
X58070419Y26992353D02*
X58070419Y26420925D01*
X58070419Y26706639D02*
X57070419Y26706639D01*
X57070419Y26706639D02*
X57213276Y26611401D01*
X57213276Y26611401D02*
X57308514Y26516163D01*
X57308514Y26516163D02*
X57356133Y26420925D01*
X58070419Y27944734D02*
X58070419Y27373306D01*
X58070419Y27659020D02*
X57070419Y27659020D01*
X57070419Y27659020D02*
X57213276Y27563782D01*
X57213276Y27563782D02*
X57308514Y27468544D01*
X57308514Y27468544D02*
X57356133Y27373306D01*
X51820884Y-23106419D02*
X51820884Y-22106419D01*
X51820884Y-22106419D02*
X52201836Y-22106419D01*
X52201836Y-22106419D02*
X52297074Y-22154038D01*
X52297074Y-22154038D02*
X52344693Y-22201657D01*
X52344693Y-22201657D02*
X52392312Y-22296895D01*
X52392312Y-22296895D02*
X52392312Y-22439752D01*
X52392312Y-22439752D02*
X52344693Y-22534990D01*
X52344693Y-22534990D02*
X52297074Y-22582609D01*
X52297074Y-22582609D02*
X52201836Y-22630228D01*
X52201836Y-22630228D02*
X51820884Y-22630228D01*
X52963741Y-23106419D02*
X52868503Y-23058800D01*
X52868503Y-23058800D02*
X52820884Y-23011180D01*
X52820884Y-23011180D02*
X52773265Y-22915942D01*
X52773265Y-22915942D02*
X52773265Y-22630228D01*
X52773265Y-22630228D02*
X52820884Y-22534990D01*
X52820884Y-22534990D02*
X52868503Y-22487371D01*
X52868503Y-22487371D02*
X52963741Y-22439752D01*
X52963741Y-22439752D02*
X53106598Y-22439752D01*
X53106598Y-22439752D02*
X53201836Y-22487371D01*
X53201836Y-22487371D02*
X53249455Y-22534990D01*
X53249455Y-22534990D02*
X53297074Y-22630228D01*
X53297074Y-22630228D02*
X53297074Y-22915942D01*
X53297074Y-22915942D02*
X53249455Y-23011180D01*
X53249455Y-23011180D02*
X53201836Y-23058800D01*
X53201836Y-23058800D02*
X53106598Y-23106419D01*
X53106598Y-23106419D02*
X52963741Y-23106419D01*
X53725646Y-23106419D02*
X53725646Y-22439752D01*
X53725646Y-22630228D02*
X53773265Y-22534990D01*
X53773265Y-22534990D02*
X53820884Y-22487371D01*
X53820884Y-22487371D02*
X53916122Y-22439752D01*
X53916122Y-22439752D02*
X54011360Y-22439752D01*
X54201837Y-22439752D02*
X54582789Y-22439752D01*
X54344694Y-22106419D02*
X54344694Y-22963561D01*
X54344694Y-22963561D02*
X54392313Y-23058800D01*
X54392313Y-23058800D02*
X54487551Y-23106419D01*
X54487551Y-23106419D02*
X54582789Y-23106419D01*
X55487551Y-23011180D02*
X55439932Y-23058800D01*
X55439932Y-23058800D02*
X55297075Y-23106419D01*
X55297075Y-23106419D02*
X55201837Y-23106419D01*
X55201837Y-23106419D02*
X55058980Y-23058800D01*
X55058980Y-23058800D02*
X54963742Y-22963561D01*
X54963742Y-22963561D02*
X54916123Y-22868323D01*
X54916123Y-22868323D02*
X54868504Y-22677847D01*
X54868504Y-22677847D02*
X54868504Y-22534990D01*
X54868504Y-22534990D02*
X54916123Y-22344514D01*
X54916123Y-22344514D02*
X54963742Y-22249276D01*
X54963742Y-22249276D02*
X55058980Y-22154038D01*
X55058980Y-22154038D02*
X55201837Y-22106419D01*
X55201837Y-22106419D02*
X55297075Y-22106419D01*
X55297075Y-22106419D02*
X55439932Y-22154038D01*
X55439932Y-22154038D02*
X55487551Y-22201657D01*
X17557419Y-28010115D02*
X16557419Y-28010115D01*
X16557419Y-28010115D02*
X17557419Y-27438687D01*
X17557419Y-27438687D02*
X16557419Y-27438687D01*
X16557419Y-26772020D02*
X16557419Y-26676782D01*
X16557419Y-26676782D02*
X16605038Y-26581544D01*
X16605038Y-26581544D02*
X16652657Y-26533925D01*
X16652657Y-26533925D02*
X16747895Y-26486306D01*
X16747895Y-26486306D02*
X16938371Y-26438687D01*
X16938371Y-26438687D02*
X17176466Y-26438687D01*
X17176466Y-26438687D02*
X17366942Y-26486306D01*
X17366942Y-26486306D02*
X17462180Y-26533925D01*
X17462180Y-26533925D02*
X17509800Y-26581544D01*
X17509800Y-26581544D02*
X17557419Y-26676782D01*
X17557419Y-26676782D02*
X17557419Y-26772020D01*
X17557419Y-26772020D02*
X17509800Y-26867258D01*
X17509800Y-26867258D02*
X17462180Y-26914877D01*
X17462180Y-26914877D02*
X17366942Y-26962496D01*
X17366942Y-26962496D02*
X17176466Y-27010115D01*
X17176466Y-27010115D02*
X16938371Y-27010115D01*
X16938371Y-27010115D02*
X16747895Y-26962496D01*
X16747895Y-26962496D02*
X16652657Y-26914877D01*
X16652657Y-26914877D02*
X16605038Y-26867258D01*
X16605038Y-26867258D02*
X16557419Y-26772020D01*
X17890752Y-25772020D02*
X16462180Y-25772020D01*
X17557419Y-25057734D02*
X16557419Y-25057734D01*
X16557419Y-25057734D02*
X16557419Y-24676782D01*
X16557419Y-24676782D02*
X16605038Y-24581544D01*
X16605038Y-24581544D02*
X16652657Y-24533925D01*
X16652657Y-24533925D02*
X16747895Y-24486306D01*
X16747895Y-24486306D02*
X16890752Y-24486306D01*
X16890752Y-24486306D02*
X16985990Y-24533925D01*
X16985990Y-24533925D02*
X17033609Y-24581544D01*
X17033609Y-24581544D02*
X17081228Y-24676782D01*
X17081228Y-24676782D02*
X17081228Y-25057734D01*
X16557419Y-23867258D02*
X16557419Y-23772020D01*
X16557419Y-23772020D02*
X16605038Y-23676782D01*
X16605038Y-23676782D02*
X16652657Y-23629163D01*
X16652657Y-23629163D02*
X16747895Y-23581544D01*
X16747895Y-23581544D02*
X16938371Y-23533925D01*
X16938371Y-23533925D02*
X17176466Y-23533925D01*
X17176466Y-23533925D02*
X17366942Y-23581544D01*
X17366942Y-23581544D02*
X17462180Y-23629163D01*
X17462180Y-23629163D02*
X17509800Y-23676782D01*
X17509800Y-23676782D02*
X17557419Y-23772020D01*
X17557419Y-23772020D02*
X17557419Y-23867258D01*
X17557419Y-23867258D02*
X17509800Y-23962496D01*
X17509800Y-23962496D02*
X17462180Y-24010115D01*
X17462180Y-24010115D02*
X17366942Y-24057734D01*
X17366942Y-24057734D02*
X17176466Y-24105353D01*
X17176466Y-24105353D02*
X16938371Y-24105353D01*
X16938371Y-24105353D02*
X16747895Y-24057734D01*
X16747895Y-24057734D02*
X16652657Y-24010115D01*
X16652657Y-24010115D02*
X16605038Y-23962496D01*
X16605038Y-23962496D02*
X16557419Y-23867258D01*
X25177419Y24262210D02*
X25177419Y23690782D01*
X25177419Y23976496D02*
X24177419Y23976496D01*
X24177419Y23976496D02*
X24320276Y23881258D01*
X24320276Y23881258D02*
X24415514Y23786020D01*
X24415514Y23786020D02*
X24463133Y23690782D01*
X24272657Y24643163D02*
X24225038Y24690782D01*
X24225038Y24690782D02*
X24177419Y24786020D01*
X24177419Y24786020D02*
X24177419Y25024115D01*
X24177419Y25024115D02*
X24225038Y25119353D01*
X24225038Y25119353D02*
X24272657Y25166972D01*
X24272657Y25166972D02*
X24367895Y25214591D01*
X24367895Y25214591D02*
X24463133Y25214591D01*
X24463133Y25214591D02*
X24605990Y25166972D01*
X24605990Y25166972D02*
X25177419Y24595544D01*
X25177419Y24595544D02*
X25177419Y25214591D01*
X25510752Y25881258D02*
X24082180Y25881258D01*
X25177419Y27119353D02*
X25177419Y26547925D01*
X25177419Y26833639D02*
X24177419Y26833639D01*
X24177419Y26833639D02*
X24320276Y26738401D01*
X24320276Y26738401D02*
X24415514Y26643163D01*
X24415514Y26643163D02*
X24463133Y26547925D01*
X24177419Y27452687D02*
X24177419Y28071734D01*
X24177419Y28071734D02*
X24558371Y27738401D01*
X24558371Y27738401D02*
X24558371Y27881258D01*
X24558371Y27881258D02*
X24605990Y27976496D01*
X24605990Y27976496D02*
X24653609Y28024115D01*
X24653609Y28024115D02*
X24748847Y28071734D01*
X24748847Y28071734D02*
X24986942Y28071734D01*
X24986942Y28071734D02*
X25082180Y28024115D01*
X25082180Y28024115D02*
X25129800Y27976496D01*
X25129800Y27976496D02*
X25177419Y27881258D01*
X25177419Y27881258D02*
X25177419Y27595544D01*
X25177419Y27595544D02*
X25129800Y27500306D01*
X25129800Y27500306D02*
X25082180Y27452687D01*
X52990419Y24801877D02*
X52990419Y24230449D01*
X52990419Y24516163D02*
X51990419Y24516163D01*
X51990419Y24516163D02*
X52133276Y24420925D01*
X52133276Y24420925D02*
X52228514Y24325687D01*
X52228514Y24325687D02*
X52276133Y24230449D01*
X52323752Y25659020D02*
X52990419Y25659020D01*
X51942800Y25420925D02*
X52657085Y25182830D01*
X52657085Y25182830D02*
X52657085Y25801877D01*
X53323752Y26420925D02*
X51895180Y26420925D01*
X52609466Y27135211D02*
X52609466Y27897116D01*
X22637419Y24262210D02*
X22637419Y23690782D01*
X22637419Y23976496D02*
X21637419Y23976496D01*
X21637419Y23976496D02*
X21780276Y23881258D01*
X21780276Y23881258D02*
X21875514Y23786020D01*
X21875514Y23786020D02*
X21923133Y23690782D01*
X21970752Y25119353D02*
X22637419Y25119353D01*
X21589800Y24881258D02*
X22304085Y24643163D01*
X22304085Y24643163D02*
X22304085Y25262210D01*
X22970752Y25881258D02*
X21542180Y25881258D01*
X22637419Y27119353D02*
X22637419Y26547925D01*
X22637419Y26833639D02*
X21637419Y26833639D01*
X21637419Y26833639D02*
X21780276Y26738401D01*
X21780276Y26738401D02*
X21875514Y26643163D01*
X21875514Y26643163D02*
X21923133Y26547925D01*
X21637419Y28024115D02*
X21637419Y27547925D01*
X21637419Y27547925D02*
X22113609Y27500306D01*
X22113609Y27500306D02*
X22065990Y27547925D01*
X22065990Y27547925D02*
X22018371Y27643163D01*
X22018371Y27643163D02*
X22018371Y27881258D01*
X22018371Y27881258D02*
X22065990Y27976496D01*
X22065990Y27976496D02*
X22113609Y28024115D01*
X22113609Y28024115D02*
X22208847Y28071734D01*
X22208847Y28071734D02*
X22446942Y28071734D01*
X22446942Y28071734D02*
X22542180Y28024115D01*
X22542180Y28024115D02*
X22589800Y27976496D01*
X22589800Y27976496D02*
X22637419Y27881258D01*
X22637419Y27881258D02*
X22637419Y27643163D01*
X22637419Y27643163D02*
X22589800Y27547925D01*
X22589800Y27547925D02*
X22542180Y27500306D01*
X52899932Y22993419D02*
X52899932Y21993419D01*
X52899932Y21993419D02*
X52518980Y21993419D01*
X52518980Y21993419D02*
X52423742Y22041038D01*
X52423742Y22041038D02*
X52376123Y22088657D01*
X52376123Y22088657D02*
X52328504Y22183895D01*
X52328504Y22183895D02*
X52328504Y22326752D01*
X52328504Y22326752D02*
X52376123Y22421990D01*
X52376123Y22421990D02*
X52423742Y22469609D01*
X52423742Y22469609D02*
X52518980Y22517228D01*
X52518980Y22517228D02*
X52899932Y22517228D01*
X51757075Y22993419D02*
X51852313Y22945800D01*
X51852313Y22945800D02*
X51899932Y22898180D01*
X51899932Y22898180D02*
X51947551Y22802942D01*
X51947551Y22802942D02*
X51947551Y22517228D01*
X51947551Y22517228D02*
X51899932Y22421990D01*
X51899932Y22421990D02*
X51852313Y22374371D01*
X51852313Y22374371D02*
X51757075Y22326752D01*
X51757075Y22326752D02*
X51614218Y22326752D01*
X51614218Y22326752D02*
X51518980Y22374371D01*
X51518980Y22374371D02*
X51471361Y22421990D01*
X51471361Y22421990D02*
X51423742Y22517228D01*
X51423742Y22517228D02*
X51423742Y22802942D01*
X51423742Y22802942D02*
X51471361Y22898180D01*
X51471361Y22898180D02*
X51518980Y22945800D01*
X51518980Y22945800D02*
X51614218Y22993419D01*
X51614218Y22993419D02*
X51757075Y22993419D01*
X50995170Y22993419D02*
X50995170Y22326752D01*
X50995170Y22517228D02*
X50947551Y22421990D01*
X50947551Y22421990D02*
X50899932Y22374371D01*
X50899932Y22374371D02*
X50804694Y22326752D01*
X50804694Y22326752D02*
X50709456Y22326752D01*
X50518979Y22326752D02*
X50138027Y22326752D01*
X50376122Y21993419D02*
X50376122Y22850561D01*
X50376122Y22850561D02*
X50328503Y22945800D01*
X50328503Y22945800D02*
X50233265Y22993419D01*
X50233265Y22993419D02*
X50138027Y22993419D01*
X49471360Y22469609D02*
X49328503Y22517228D01*
X49328503Y22517228D02*
X49280884Y22564847D01*
X49280884Y22564847D02*
X49233265Y22660085D01*
X49233265Y22660085D02*
X49233265Y22802942D01*
X49233265Y22802942D02*
X49280884Y22898180D01*
X49280884Y22898180D02*
X49328503Y22945800D01*
X49328503Y22945800D02*
X49423741Y22993419D01*
X49423741Y22993419D02*
X49804693Y22993419D01*
X49804693Y22993419D02*
X49804693Y21993419D01*
X49804693Y21993419D02*
X49471360Y21993419D01*
X49471360Y21993419D02*
X49376122Y22041038D01*
X49376122Y22041038D02*
X49328503Y22088657D01*
X49328503Y22088657D02*
X49280884Y22183895D01*
X49280884Y22183895D02*
X49280884Y22279133D01*
X49280884Y22279133D02*
X49328503Y22374371D01*
X49328503Y22374371D02*
X49376122Y22421990D01*
X49376122Y22421990D02*
X49471360Y22469609D01*
X49471360Y22469609D02*
X49804693Y22469609D01*
X24817075Y23120419D02*
X24817075Y22120419D01*
X24817075Y22120419D02*
X24436123Y22120419D01*
X24436123Y22120419D02*
X24340885Y22168038D01*
X24340885Y22168038D02*
X24293266Y22215657D01*
X24293266Y22215657D02*
X24245647Y22310895D01*
X24245647Y22310895D02*
X24245647Y22453752D01*
X24245647Y22453752D02*
X24293266Y22548990D01*
X24293266Y22548990D02*
X24340885Y22596609D01*
X24340885Y22596609D02*
X24436123Y22644228D01*
X24436123Y22644228D02*
X24817075Y22644228D01*
X23674218Y23120419D02*
X23769456Y23072800D01*
X23769456Y23072800D02*
X23817075Y23025180D01*
X23817075Y23025180D02*
X23864694Y22929942D01*
X23864694Y22929942D02*
X23864694Y22644228D01*
X23864694Y22644228D02*
X23817075Y22548990D01*
X23817075Y22548990D02*
X23769456Y22501371D01*
X23769456Y22501371D02*
X23674218Y22453752D01*
X23674218Y22453752D02*
X23531361Y22453752D01*
X23531361Y22453752D02*
X23436123Y22501371D01*
X23436123Y22501371D02*
X23388504Y22548990D01*
X23388504Y22548990D02*
X23340885Y22644228D01*
X23340885Y22644228D02*
X23340885Y22929942D01*
X23340885Y22929942D02*
X23388504Y23025180D01*
X23388504Y23025180D02*
X23436123Y23072800D01*
X23436123Y23072800D02*
X23531361Y23120419D01*
X23531361Y23120419D02*
X23674218Y23120419D01*
X22912313Y23120419D02*
X22912313Y22453752D01*
X22912313Y22644228D02*
X22864694Y22548990D01*
X22864694Y22548990D02*
X22817075Y22501371D01*
X22817075Y22501371D02*
X22721837Y22453752D01*
X22721837Y22453752D02*
X22626599Y22453752D01*
X22436122Y22453752D02*
X22055170Y22453752D01*
X22293265Y22120419D02*
X22293265Y22977561D01*
X22293265Y22977561D02*
X22245646Y23072800D01*
X22245646Y23072800D02*
X22150408Y23120419D01*
X22150408Y23120419D02*
X22055170Y23120419D01*
X21769455Y22834704D02*
X21293265Y22834704D01*
X21864693Y23120419D02*
X21531360Y22120419D01*
X21531360Y22120419D02*
X21198027Y23120419D01*
X34337419Y23928877D02*
X34337419Y24024115D01*
X34337419Y24024115D02*
X34385038Y24119353D01*
X34385038Y24119353D02*
X34432657Y24166972D01*
X34432657Y24166972D02*
X34527895Y24214591D01*
X34527895Y24214591D02*
X34718371Y24262210D01*
X34718371Y24262210D02*
X34956466Y24262210D01*
X34956466Y24262210D02*
X35146942Y24214591D01*
X35146942Y24214591D02*
X35242180Y24166972D01*
X35242180Y24166972D02*
X35289800Y24119353D01*
X35289800Y24119353D02*
X35337419Y24024115D01*
X35337419Y24024115D02*
X35337419Y23928877D01*
X35337419Y23928877D02*
X35289800Y23833639D01*
X35289800Y23833639D02*
X35242180Y23786020D01*
X35242180Y23786020D02*
X35146942Y23738401D01*
X35146942Y23738401D02*
X34956466Y23690782D01*
X34956466Y23690782D02*
X34718371Y23690782D01*
X34718371Y23690782D02*
X34527895Y23738401D01*
X34527895Y23738401D02*
X34432657Y23786020D01*
X34432657Y23786020D02*
X34385038Y23833639D01*
X34385038Y23833639D02*
X34337419Y23928877D01*
X34670752Y25119353D02*
X35337419Y25119353D01*
X34289800Y24881258D02*
X35004085Y24643163D01*
X35004085Y24643163D02*
X35004085Y25262210D01*
X35670752Y25881258D02*
X34242180Y25881258D01*
X34337419Y26786020D02*
X34337419Y26881258D01*
X34337419Y26881258D02*
X34385038Y26976496D01*
X34385038Y26976496D02*
X34432657Y27024115D01*
X34432657Y27024115D02*
X34527895Y27071734D01*
X34527895Y27071734D02*
X34718371Y27119353D01*
X34718371Y27119353D02*
X34956466Y27119353D01*
X34956466Y27119353D02*
X35146942Y27071734D01*
X35146942Y27071734D02*
X35242180Y27024115D01*
X35242180Y27024115D02*
X35289800Y26976496D01*
X35289800Y26976496D02*
X35337419Y26881258D01*
X35337419Y26881258D02*
X35337419Y26786020D01*
X35337419Y26786020D02*
X35289800Y26690782D01*
X35289800Y26690782D02*
X35242180Y26643163D01*
X35242180Y26643163D02*
X35146942Y26595544D01*
X35146942Y26595544D02*
X34956466Y26547925D01*
X34956466Y26547925D02*
X34718371Y26547925D01*
X34718371Y26547925D02*
X34527895Y26595544D01*
X34527895Y26595544D02*
X34432657Y26643163D01*
X34432657Y26643163D02*
X34385038Y26690782D01*
X34385038Y26690782D02*
X34337419Y26786020D01*
X34337419Y28024115D02*
X34337419Y27547925D01*
X34337419Y27547925D02*
X34813609Y27500306D01*
X34813609Y27500306D02*
X34765990Y27547925D01*
X34765990Y27547925D02*
X34718371Y27643163D01*
X34718371Y27643163D02*
X34718371Y27881258D01*
X34718371Y27881258D02*
X34765990Y27976496D01*
X34765990Y27976496D02*
X34813609Y28024115D01*
X34813609Y28024115D02*
X34908847Y28071734D01*
X34908847Y28071734D02*
X35146942Y28071734D01*
X35146942Y28071734D02*
X35242180Y28024115D01*
X35242180Y28024115D02*
X35289800Y27976496D01*
X35289800Y27976496D02*
X35337419Y27881258D01*
X35337419Y27881258D02*
X35337419Y27643163D01*
X35337419Y27643163D02*
X35289800Y27547925D01*
X35289800Y27547925D02*
X35242180Y27500306D01*
X67230419Y23801877D02*
X67230419Y23897115D01*
X67230419Y23897115D02*
X67278038Y23992353D01*
X67278038Y23992353D02*
X67325657Y24039972D01*
X67325657Y24039972D02*
X67420895Y24087591D01*
X67420895Y24087591D02*
X67611371Y24135210D01*
X67611371Y24135210D02*
X67849466Y24135210D01*
X67849466Y24135210D02*
X68039942Y24087591D01*
X68039942Y24087591D02*
X68135180Y24039972D01*
X68135180Y24039972D02*
X68182800Y23992353D01*
X68182800Y23992353D02*
X68230419Y23897115D01*
X68230419Y23897115D02*
X68230419Y23801877D01*
X68230419Y23801877D02*
X68182800Y23706639D01*
X68182800Y23706639D02*
X68135180Y23659020D01*
X68135180Y23659020D02*
X68039942Y23611401D01*
X68039942Y23611401D02*
X67849466Y23563782D01*
X67849466Y23563782D02*
X67611371Y23563782D01*
X67611371Y23563782D02*
X67420895Y23611401D01*
X67420895Y23611401D02*
X67325657Y23659020D01*
X67325657Y23659020D02*
X67278038Y23706639D01*
X67278038Y23706639D02*
X67230419Y23801877D01*
X67325657Y24516163D02*
X67278038Y24563782D01*
X67278038Y24563782D02*
X67230419Y24659020D01*
X67230419Y24659020D02*
X67230419Y24897115D01*
X67230419Y24897115D02*
X67278038Y24992353D01*
X67278038Y24992353D02*
X67325657Y25039972D01*
X67325657Y25039972D02*
X67420895Y25087591D01*
X67420895Y25087591D02*
X67516133Y25087591D01*
X67516133Y25087591D02*
X67658990Y25039972D01*
X67658990Y25039972D02*
X68230419Y24468544D01*
X68230419Y24468544D02*
X68230419Y25087591D01*
X68563752Y25754258D02*
X67135180Y25754258D01*
X67230419Y26659020D02*
X67230419Y26754258D01*
X67230419Y26754258D02*
X67278038Y26849496D01*
X67278038Y26849496D02*
X67325657Y26897115D01*
X67325657Y26897115D02*
X67420895Y26944734D01*
X67420895Y26944734D02*
X67611371Y26992353D01*
X67611371Y26992353D02*
X67849466Y26992353D01*
X67849466Y26992353D02*
X68039942Y26944734D01*
X68039942Y26944734D02*
X68135180Y26897115D01*
X68135180Y26897115D02*
X68182800Y26849496D01*
X68182800Y26849496D02*
X68230419Y26754258D01*
X68230419Y26754258D02*
X68230419Y26659020D01*
X68230419Y26659020D02*
X68182800Y26563782D01*
X68182800Y26563782D02*
X68135180Y26516163D01*
X68135180Y26516163D02*
X68039942Y26468544D01*
X68039942Y26468544D02*
X67849466Y26420925D01*
X67849466Y26420925D02*
X67611371Y26420925D01*
X67611371Y26420925D02*
X67420895Y26468544D01*
X67420895Y26468544D02*
X67325657Y26516163D01*
X67325657Y26516163D02*
X67278038Y26563782D01*
X67278038Y26563782D02*
X67230419Y26659020D01*
X67230419Y27325687D02*
X67230419Y27944734D01*
X67230419Y27944734D02*
X67611371Y27611401D01*
X67611371Y27611401D02*
X67611371Y27754258D01*
X67611371Y27754258D02*
X67658990Y27849496D01*
X67658990Y27849496D02*
X67706609Y27897115D01*
X67706609Y27897115D02*
X67801847Y27944734D01*
X67801847Y27944734D02*
X68039942Y27944734D01*
X68039942Y27944734D02*
X68135180Y27897115D01*
X68135180Y27897115D02*
X68182800Y27849496D01*
X68182800Y27849496D02*
X68230419Y27754258D01*
X68230419Y27754258D02*
X68230419Y27468544D01*
X68230419Y27468544D02*
X68182800Y27373306D01*
X68182800Y27373306D02*
X68135180Y27325687D01*
X68357419Y-27486306D02*
X68357419Y-28057734D01*
X68357419Y-27772020D02*
X67357419Y-27772020D01*
X67357419Y-27772020D02*
X67500276Y-27867258D01*
X67500276Y-27867258D02*
X67595514Y-27962496D01*
X67595514Y-27962496D02*
X67643133Y-28057734D01*
X68357419Y-26533925D02*
X68357419Y-27105353D01*
X68357419Y-26819639D02*
X67357419Y-26819639D01*
X67357419Y-26819639D02*
X67500276Y-26914877D01*
X67500276Y-26914877D02*
X67595514Y-27010115D01*
X67595514Y-27010115D02*
X67643133Y-27105353D01*
X68690752Y-25867258D02*
X67262180Y-25867258D01*
X68357419Y-24629163D02*
X68357419Y-25200591D01*
X68357419Y-24914877D02*
X67357419Y-24914877D01*
X67357419Y-24914877D02*
X67500276Y-25010115D01*
X67500276Y-25010115D02*
X67595514Y-25105353D01*
X67595514Y-25105353D02*
X67643133Y-25200591D01*
X67452657Y-24248210D02*
X67405038Y-24200591D01*
X67405038Y-24200591D02*
X67357419Y-24105353D01*
X67357419Y-24105353D02*
X67357419Y-23867258D01*
X67357419Y-23867258D02*
X67405038Y-23772020D01*
X67405038Y-23772020D02*
X67452657Y-23724401D01*
X67452657Y-23724401D02*
X67547895Y-23676782D01*
X67547895Y-23676782D02*
X67643133Y-23676782D01*
X67643133Y-23676782D02*
X67785990Y-23724401D01*
X67785990Y-23724401D02*
X68357419Y-24295829D01*
X68357419Y-24295829D02*
X68357419Y-23676782D01*
X16815312Y-21655180D02*
X16767693Y-21702800D01*
X16767693Y-21702800D02*
X16624836Y-21750419D01*
X16624836Y-21750419D02*
X16529598Y-21750419D01*
X16529598Y-21750419D02*
X16386741Y-21702800D01*
X16386741Y-21702800D02*
X16291503Y-21607561D01*
X16291503Y-21607561D02*
X16243884Y-21512323D01*
X16243884Y-21512323D02*
X16196265Y-21321847D01*
X16196265Y-21321847D02*
X16196265Y-21178990D01*
X16196265Y-21178990D02*
X16243884Y-20988514D01*
X16243884Y-20988514D02*
X16291503Y-20893276D01*
X16291503Y-20893276D02*
X16386741Y-20798038D01*
X16386741Y-20798038D02*
X16529598Y-20750419D01*
X16529598Y-20750419D02*
X16624836Y-20750419D01*
X16624836Y-20750419D02*
X16767693Y-20798038D01*
X16767693Y-20798038D02*
X16815312Y-20845657D01*
X17243884Y-21750419D02*
X17243884Y-20750419D01*
X17243884Y-20750419D02*
X17577217Y-21464704D01*
X17577217Y-21464704D02*
X17910550Y-20750419D01*
X17910550Y-20750419D02*
X17910550Y-21750419D01*
X18386741Y-21750419D02*
X18386741Y-20750419D01*
X18386741Y-20750419D02*
X18767693Y-20750419D01*
X18767693Y-20750419D02*
X18862931Y-20798038D01*
X18862931Y-20798038D02*
X18910550Y-20845657D01*
X18910550Y-20845657D02*
X18958169Y-20940895D01*
X18958169Y-20940895D02*
X18958169Y-21083752D01*
X18958169Y-21083752D02*
X18910550Y-21178990D01*
X18910550Y-21178990D02*
X18862931Y-21226609D01*
X18862931Y-21226609D02*
X18767693Y-21274228D01*
X18767693Y-21274228D02*
X18386741Y-21274228D01*
X19148646Y-21845657D02*
X19910550Y-21845657D01*
X20148646Y-21750419D02*
X20148646Y-20750419D01*
X20624836Y-21750419D02*
X20624836Y-20750419D01*
X20624836Y-20750419D02*
X21196264Y-21750419D01*
X21196264Y-21750419D02*
X21196264Y-20750419D01*
X36533265Y-24725704D02*
X37009455Y-24725704D01*
X36438027Y-25011419D02*
X36771360Y-24011419D01*
X36771360Y-24011419D02*
X37104693Y-25011419D01*
X37438027Y-25011419D02*
X37438027Y-24011419D01*
X37438027Y-24011419D02*
X37676122Y-24011419D01*
X37676122Y-24011419D02*
X37818979Y-24059038D01*
X37818979Y-24059038D02*
X37914217Y-24154276D01*
X37914217Y-24154276D02*
X37961836Y-24249514D01*
X37961836Y-24249514D02*
X38009455Y-24439990D01*
X38009455Y-24439990D02*
X38009455Y-24582847D01*
X38009455Y-24582847D02*
X37961836Y-24773323D01*
X37961836Y-24773323D02*
X37914217Y-24868561D01*
X37914217Y-24868561D02*
X37818979Y-24963800D01*
X37818979Y-24963800D02*
X37676122Y-25011419D01*
X37676122Y-25011419D02*
X37438027Y-25011419D01*
X39009455Y-24916180D02*
X38961836Y-24963800D01*
X38961836Y-24963800D02*
X38818979Y-25011419D01*
X38818979Y-25011419D02*
X38723741Y-25011419D01*
X38723741Y-25011419D02*
X38580884Y-24963800D01*
X38580884Y-24963800D02*
X38485646Y-24868561D01*
X38485646Y-24868561D02*
X38438027Y-24773323D01*
X38438027Y-24773323D02*
X38390408Y-24582847D01*
X38390408Y-24582847D02*
X38390408Y-24439990D01*
X38390408Y-24439990D02*
X38438027Y-24249514D01*
X38438027Y-24249514D02*
X38485646Y-24154276D01*
X38485646Y-24154276D02*
X38580884Y-24059038D01*
X38580884Y-24059038D02*
X38723741Y-24011419D01*
X38723741Y-24011419D02*
X38818979Y-24011419D01*
X38818979Y-24011419D02*
X38961836Y-24059038D01*
X38961836Y-24059038D02*
X39009455Y-24106657D01*
X39199932Y-25106657D02*
X39961836Y-25106657D01*
X40771360Y-24916180D02*
X40723741Y-24963800D01*
X40723741Y-24963800D02*
X40580884Y-25011419D01*
X40580884Y-25011419D02*
X40485646Y-25011419D01*
X40485646Y-25011419D02*
X40342789Y-24963800D01*
X40342789Y-24963800D02*
X40247551Y-24868561D01*
X40247551Y-24868561D02*
X40199932Y-24773323D01*
X40199932Y-24773323D02*
X40152313Y-24582847D01*
X40152313Y-24582847D02*
X40152313Y-24439990D01*
X40152313Y-24439990D02*
X40199932Y-24249514D01*
X40199932Y-24249514D02*
X40247551Y-24154276D01*
X40247551Y-24154276D02*
X40342789Y-24059038D01*
X40342789Y-24059038D02*
X40485646Y-24011419D01*
X40485646Y-24011419D02*
X40580884Y-24011419D01*
X40580884Y-24011419D02*
X40723741Y-24059038D01*
X40723741Y-24059038D02*
X40771360Y-24106657D01*
X41199932Y-25011419D02*
X41199932Y-24011419D01*
X41199932Y-24487609D02*
X41771360Y-24487609D01*
X41771360Y-25011419D02*
X41771360Y-24011419D01*
X10896265Y-21464704D02*
X11372455Y-21464704D01*
X10801027Y-21750419D02*
X11134360Y-20750419D01*
X11134360Y-20750419D02*
X11467693Y-21750419D01*
X11658170Y-20750419D02*
X12229598Y-20750419D01*
X11943884Y-21750419D02*
X11943884Y-20750419D01*
X59610419Y24468544D02*
X59610419Y24563782D01*
X59610419Y24563782D02*
X59658038Y24659020D01*
X59658038Y24659020D02*
X59705657Y24706639D01*
X59705657Y24706639D02*
X59800895Y24754258D01*
X59800895Y24754258D02*
X59991371Y24801877D01*
X59991371Y24801877D02*
X60229466Y24801877D01*
X60229466Y24801877D02*
X60419942Y24754258D01*
X60419942Y24754258D02*
X60515180Y24706639D01*
X60515180Y24706639D02*
X60562800Y24659020D01*
X60562800Y24659020D02*
X60610419Y24563782D01*
X60610419Y24563782D02*
X60610419Y24468544D01*
X60610419Y24468544D02*
X60562800Y24373306D01*
X60562800Y24373306D02*
X60515180Y24325687D01*
X60515180Y24325687D02*
X60419942Y24278068D01*
X60419942Y24278068D02*
X60229466Y24230449D01*
X60229466Y24230449D02*
X59991371Y24230449D01*
X59991371Y24230449D02*
X59800895Y24278068D01*
X59800895Y24278068D02*
X59705657Y24325687D01*
X59705657Y24325687D02*
X59658038Y24373306D01*
X59658038Y24373306D02*
X59610419Y24468544D01*
X60038990Y25373306D02*
X59991371Y25278068D01*
X59991371Y25278068D02*
X59943752Y25230449D01*
X59943752Y25230449D02*
X59848514Y25182830D01*
X59848514Y25182830D02*
X59800895Y25182830D01*
X59800895Y25182830D02*
X59705657Y25230449D01*
X59705657Y25230449D02*
X59658038Y25278068D01*
X59658038Y25278068D02*
X59610419Y25373306D01*
X59610419Y25373306D02*
X59610419Y25563782D01*
X59610419Y25563782D02*
X59658038Y25659020D01*
X59658038Y25659020D02*
X59705657Y25706639D01*
X59705657Y25706639D02*
X59800895Y25754258D01*
X59800895Y25754258D02*
X59848514Y25754258D01*
X59848514Y25754258D02*
X59943752Y25706639D01*
X59943752Y25706639D02*
X59991371Y25659020D01*
X59991371Y25659020D02*
X60038990Y25563782D01*
X60038990Y25563782D02*
X60038990Y25373306D01*
X60038990Y25373306D02*
X60086609Y25278068D01*
X60086609Y25278068D02*
X60134228Y25230449D01*
X60134228Y25230449D02*
X60229466Y25182830D01*
X60229466Y25182830D02*
X60419942Y25182830D01*
X60419942Y25182830D02*
X60515180Y25230449D01*
X60515180Y25230449D02*
X60562800Y25278068D01*
X60562800Y25278068D02*
X60610419Y25373306D01*
X60610419Y25373306D02*
X60610419Y25563782D01*
X60610419Y25563782D02*
X60562800Y25659020D01*
X60562800Y25659020D02*
X60515180Y25706639D01*
X60515180Y25706639D02*
X60419942Y25754258D01*
X60419942Y25754258D02*
X60229466Y25754258D01*
X60229466Y25754258D02*
X60134228Y25706639D01*
X60134228Y25706639D02*
X60086609Y25659020D01*
X60086609Y25659020D02*
X60038990Y25563782D01*
X60943752Y26420925D02*
X59515180Y26420925D01*
X60229466Y27135211D02*
X60229466Y27897116D01*
X39417419Y23928877D02*
X39417419Y24024115D01*
X39417419Y24024115D02*
X39465038Y24119353D01*
X39465038Y24119353D02*
X39512657Y24166972D01*
X39512657Y24166972D02*
X39607895Y24214591D01*
X39607895Y24214591D02*
X39798371Y24262210D01*
X39798371Y24262210D02*
X40036466Y24262210D01*
X40036466Y24262210D02*
X40226942Y24214591D01*
X40226942Y24214591D02*
X40322180Y24166972D01*
X40322180Y24166972D02*
X40369800Y24119353D01*
X40369800Y24119353D02*
X40417419Y24024115D01*
X40417419Y24024115D02*
X40417419Y23928877D01*
X40417419Y23928877D02*
X40369800Y23833639D01*
X40369800Y23833639D02*
X40322180Y23786020D01*
X40322180Y23786020D02*
X40226942Y23738401D01*
X40226942Y23738401D02*
X40036466Y23690782D01*
X40036466Y23690782D02*
X39798371Y23690782D01*
X39798371Y23690782D02*
X39607895Y23738401D01*
X39607895Y23738401D02*
X39512657Y23786020D01*
X39512657Y23786020D02*
X39465038Y23833639D01*
X39465038Y23833639D02*
X39417419Y23928877D01*
X39417419Y24881258D02*
X39417419Y24976496D01*
X39417419Y24976496D02*
X39465038Y25071734D01*
X39465038Y25071734D02*
X39512657Y25119353D01*
X39512657Y25119353D02*
X39607895Y25166972D01*
X39607895Y25166972D02*
X39798371Y25214591D01*
X39798371Y25214591D02*
X40036466Y25214591D01*
X40036466Y25214591D02*
X40226942Y25166972D01*
X40226942Y25166972D02*
X40322180Y25119353D01*
X40322180Y25119353D02*
X40369800Y25071734D01*
X40369800Y25071734D02*
X40417419Y24976496D01*
X40417419Y24976496D02*
X40417419Y24881258D01*
X40417419Y24881258D02*
X40369800Y24786020D01*
X40369800Y24786020D02*
X40322180Y24738401D01*
X40322180Y24738401D02*
X40226942Y24690782D01*
X40226942Y24690782D02*
X40036466Y24643163D01*
X40036466Y24643163D02*
X39798371Y24643163D01*
X39798371Y24643163D02*
X39607895Y24690782D01*
X39607895Y24690782D02*
X39512657Y24738401D01*
X39512657Y24738401D02*
X39465038Y24786020D01*
X39465038Y24786020D02*
X39417419Y24881258D01*
X40750752Y25881258D02*
X39322180Y25881258D01*
X39417419Y26786020D02*
X39417419Y26881258D01*
X39417419Y26881258D02*
X39465038Y26976496D01*
X39465038Y26976496D02*
X39512657Y27024115D01*
X39512657Y27024115D02*
X39607895Y27071734D01*
X39607895Y27071734D02*
X39798371Y27119353D01*
X39798371Y27119353D02*
X40036466Y27119353D01*
X40036466Y27119353D02*
X40226942Y27071734D01*
X40226942Y27071734D02*
X40322180Y27024115D01*
X40322180Y27024115D02*
X40369800Y26976496D01*
X40369800Y26976496D02*
X40417419Y26881258D01*
X40417419Y26881258D02*
X40417419Y26786020D01*
X40417419Y26786020D02*
X40369800Y26690782D01*
X40369800Y26690782D02*
X40322180Y26643163D01*
X40322180Y26643163D02*
X40226942Y26595544D01*
X40226942Y26595544D02*
X40036466Y26547925D01*
X40036466Y26547925D02*
X39798371Y26547925D01*
X39798371Y26547925D02*
X39607895Y26595544D01*
X39607895Y26595544D02*
X39512657Y26643163D01*
X39512657Y26643163D02*
X39465038Y26690782D01*
X39465038Y26690782D02*
X39417419Y26786020D01*
X40417419Y28071734D02*
X40417419Y27500306D01*
X40417419Y27786020D02*
X39417419Y27786020D01*
X39417419Y27786020D02*
X39560276Y27690782D01*
X39560276Y27690782D02*
X39655514Y27595544D01*
X39655514Y27595544D02*
X39703133Y27500306D01*
X6961027Y24297580D02*
X7532455Y24297580D01*
X7246741Y23297580D02*
X7246741Y24297580D01*
X7865789Y23297580D02*
X7865789Y24297580D01*
X7865789Y24297580D02*
X8103884Y24297580D01*
X8103884Y24297580D02*
X8246741Y24249961D01*
X8246741Y24249961D02*
X8341979Y24154723D01*
X8341979Y24154723D02*
X8389598Y24059485D01*
X8389598Y24059485D02*
X8437217Y23869009D01*
X8437217Y23869009D02*
X8437217Y23726152D01*
X8437217Y23726152D02*
X8389598Y23535676D01*
X8389598Y23535676D02*
X8341979Y23440438D01*
X8341979Y23440438D02*
X8246741Y23345200D01*
X8246741Y23345200D02*
X8103884Y23297580D01*
X8103884Y23297580D02*
X7865789Y23297580D01*
X8865789Y23297580D02*
X8865789Y24297580D01*
X47037419Y-28105353D02*
X47037419Y-27438687D01*
X47037419Y-27438687D02*
X48037419Y-27867258D01*
X48370752Y-26819639D02*
X46942180Y-26819639D01*
X47656466Y-26105353D02*
X47656466Y-25343449D01*
X59737419Y-27819639D02*
X59737419Y-27724401D01*
X59737419Y-27724401D02*
X59785038Y-27629163D01*
X59785038Y-27629163D02*
X59832657Y-27581544D01*
X59832657Y-27581544D02*
X59927895Y-27533925D01*
X59927895Y-27533925D02*
X60118371Y-27486306D01*
X60118371Y-27486306D02*
X60356466Y-27486306D01*
X60356466Y-27486306D02*
X60546942Y-27533925D01*
X60546942Y-27533925D02*
X60642180Y-27581544D01*
X60642180Y-27581544D02*
X60689800Y-27629163D01*
X60689800Y-27629163D02*
X60737419Y-27724401D01*
X60737419Y-27724401D02*
X60737419Y-27819639D01*
X60737419Y-27819639D02*
X60689800Y-27914877D01*
X60689800Y-27914877D02*
X60642180Y-27962496D01*
X60642180Y-27962496D02*
X60546942Y-28010115D01*
X60546942Y-28010115D02*
X60356466Y-28057734D01*
X60356466Y-28057734D02*
X60118371Y-28057734D01*
X60118371Y-28057734D02*
X59927895Y-28010115D01*
X59927895Y-28010115D02*
X59832657Y-27962496D01*
X59832657Y-27962496D02*
X59785038Y-27914877D01*
X59785038Y-27914877D02*
X59737419Y-27819639D01*
X59737419Y-26581544D02*
X59737419Y-27057734D01*
X59737419Y-27057734D02*
X60213609Y-27105353D01*
X60213609Y-27105353D02*
X60165990Y-27057734D01*
X60165990Y-27057734D02*
X60118371Y-26962496D01*
X60118371Y-26962496D02*
X60118371Y-26724401D01*
X60118371Y-26724401D02*
X60165990Y-26629163D01*
X60165990Y-26629163D02*
X60213609Y-26581544D01*
X60213609Y-26581544D02*
X60308847Y-26533925D01*
X60308847Y-26533925D02*
X60546942Y-26533925D01*
X60546942Y-26533925D02*
X60642180Y-26581544D01*
X60642180Y-26581544D02*
X60689800Y-26629163D01*
X60689800Y-26629163D02*
X60737419Y-26724401D01*
X60737419Y-26724401D02*
X60737419Y-26962496D01*
X60737419Y-26962496D02*
X60689800Y-27057734D01*
X60689800Y-27057734D02*
X60642180Y-27105353D01*
X61070752Y-25867258D02*
X59642180Y-25867258D01*
X59737419Y-24962496D02*
X59737419Y-24867258D01*
X59737419Y-24867258D02*
X59785038Y-24772020D01*
X59785038Y-24772020D02*
X59832657Y-24724401D01*
X59832657Y-24724401D02*
X59927895Y-24676782D01*
X59927895Y-24676782D02*
X60118371Y-24629163D01*
X60118371Y-24629163D02*
X60356466Y-24629163D01*
X60356466Y-24629163D02*
X60546942Y-24676782D01*
X60546942Y-24676782D02*
X60642180Y-24724401D01*
X60642180Y-24724401D02*
X60689800Y-24772020D01*
X60689800Y-24772020D02*
X60737419Y-24867258D01*
X60737419Y-24867258D02*
X60737419Y-24962496D01*
X60737419Y-24962496D02*
X60689800Y-25057734D01*
X60689800Y-25057734D02*
X60642180Y-25105353D01*
X60642180Y-25105353D02*
X60546942Y-25152972D01*
X60546942Y-25152972D02*
X60356466Y-25200591D01*
X60356466Y-25200591D02*
X60118371Y-25200591D01*
X60118371Y-25200591D02*
X59927895Y-25152972D01*
X59927895Y-25152972D02*
X59832657Y-25105353D01*
X59832657Y-25105353D02*
X59785038Y-25057734D01*
X59785038Y-25057734D02*
X59737419Y-24962496D01*
X59737419Y-23772020D02*
X59737419Y-23962496D01*
X59737419Y-23962496D02*
X59785038Y-24057734D01*
X59785038Y-24057734D02*
X59832657Y-24105353D01*
X59832657Y-24105353D02*
X59975514Y-24200591D01*
X59975514Y-24200591D02*
X60165990Y-24248210D01*
X60165990Y-24248210D02*
X60546942Y-24248210D01*
X60546942Y-24248210D02*
X60642180Y-24200591D01*
X60642180Y-24200591D02*
X60689800Y-24152972D01*
X60689800Y-24152972D02*
X60737419Y-24057734D01*
X60737419Y-24057734D02*
X60737419Y-23867258D01*
X60737419Y-23867258D02*
X60689800Y-23772020D01*
X60689800Y-23772020D02*
X60642180Y-23724401D01*
X60642180Y-23724401D02*
X60546942Y-23676782D01*
X60546942Y-23676782D02*
X60308847Y-23676782D01*
X60308847Y-23676782D02*
X60213609Y-23724401D01*
X60213609Y-23724401D02*
X60165990Y-23772020D01*
X60165990Y-23772020D02*
X60118371Y-23867258D01*
X60118371Y-23867258D02*
X60118371Y-24057734D01*
X60118371Y-24057734D02*
X60165990Y-24152972D01*
X60165990Y-24152972D02*
X60213609Y-24200591D01*
X60213609Y-24200591D02*
X60308847Y-24248210D01*
X31924419Y23928877D02*
X31924419Y24024115D01*
X31924419Y24024115D02*
X31972038Y24119353D01*
X31972038Y24119353D02*
X32019657Y24166972D01*
X32019657Y24166972D02*
X32114895Y24214591D01*
X32114895Y24214591D02*
X32305371Y24262210D01*
X32305371Y24262210D02*
X32543466Y24262210D01*
X32543466Y24262210D02*
X32733942Y24214591D01*
X32733942Y24214591D02*
X32829180Y24166972D01*
X32829180Y24166972D02*
X32876800Y24119353D01*
X32876800Y24119353D02*
X32924419Y24024115D01*
X32924419Y24024115D02*
X32924419Y23928877D01*
X32924419Y23928877D02*
X32876800Y23833639D01*
X32876800Y23833639D02*
X32829180Y23786020D01*
X32829180Y23786020D02*
X32733942Y23738401D01*
X32733942Y23738401D02*
X32543466Y23690782D01*
X32543466Y23690782D02*
X32305371Y23690782D01*
X32305371Y23690782D02*
X32114895Y23738401D01*
X32114895Y23738401D02*
X32019657Y23786020D01*
X32019657Y23786020D02*
X31972038Y23833639D01*
X31972038Y23833639D02*
X31924419Y23928877D01*
X31924419Y25119353D02*
X31924419Y24928877D01*
X31924419Y24928877D02*
X31972038Y24833639D01*
X31972038Y24833639D02*
X32019657Y24786020D01*
X32019657Y24786020D02*
X32162514Y24690782D01*
X32162514Y24690782D02*
X32352990Y24643163D01*
X32352990Y24643163D02*
X32733942Y24643163D01*
X32733942Y24643163D02*
X32829180Y24690782D01*
X32829180Y24690782D02*
X32876800Y24738401D01*
X32876800Y24738401D02*
X32924419Y24833639D01*
X32924419Y24833639D02*
X32924419Y25024115D01*
X32924419Y25024115D02*
X32876800Y25119353D01*
X32876800Y25119353D02*
X32829180Y25166972D01*
X32829180Y25166972D02*
X32733942Y25214591D01*
X32733942Y25214591D02*
X32495847Y25214591D01*
X32495847Y25214591D02*
X32400609Y25166972D01*
X32400609Y25166972D02*
X32352990Y25119353D01*
X32352990Y25119353D02*
X32305371Y25024115D01*
X32305371Y25024115D02*
X32305371Y24833639D01*
X32305371Y24833639D02*
X32352990Y24738401D01*
X32352990Y24738401D02*
X32400609Y24690782D01*
X32400609Y24690782D02*
X32495847Y24643163D01*
X33257752Y25881258D02*
X31829180Y25881258D01*
X31924419Y26786020D02*
X31924419Y26881258D01*
X31924419Y26881258D02*
X31972038Y26976496D01*
X31972038Y26976496D02*
X32019657Y27024115D01*
X32019657Y27024115D02*
X32114895Y27071734D01*
X32114895Y27071734D02*
X32305371Y27119353D01*
X32305371Y27119353D02*
X32543466Y27119353D01*
X32543466Y27119353D02*
X32733942Y27071734D01*
X32733942Y27071734D02*
X32829180Y27024115D01*
X32829180Y27024115D02*
X32876800Y26976496D01*
X32876800Y26976496D02*
X32924419Y26881258D01*
X32924419Y26881258D02*
X32924419Y26786020D01*
X32924419Y26786020D02*
X32876800Y26690782D01*
X32876800Y26690782D02*
X32829180Y26643163D01*
X32829180Y26643163D02*
X32733942Y26595544D01*
X32733942Y26595544D02*
X32543466Y26547925D01*
X32543466Y26547925D02*
X32305371Y26547925D01*
X32305371Y26547925D02*
X32114895Y26595544D01*
X32114895Y26595544D02*
X32019657Y26643163D01*
X32019657Y26643163D02*
X31972038Y26690782D01*
X31972038Y26690782D02*
X31924419Y26786020D01*
X31924419Y27452687D02*
X31924419Y28119353D01*
X31924419Y28119353D02*
X32924419Y27690782D01*
X27717419Y24262210D02*
X27717419Y23690782D01*
X27717419Y23976496D02*
X26717419Y23976496D01*
X26717419Y23976496D02*
X26860276Y23881258D01*
X26860276Y23881258D02*
X26955514Y23786020D01*
X26955514Y23786020D02*
X27003133Y23690782D01*
X26717419Y24881258D02*
X26717419Y24976496D01*
X26717419Y24976496D02*
X26765038Y25071734D01*
X26765038Y25071734D02*
X26812657Y25119353D01*
X26812657Y25119353D02*
X26907895Y25166972D01*
X26907895Y25166972D02*
X27098371Y25214591D01*
X27098371Y25214591D02*
X27336466Y25214591D01*
X27336466Y25214591D02*
X27526942Y25166972D01*
X27526942Y25166972D02*
X27622180Y25119353D01*
X27622180Y25119353D02*
X27669800Y25071734D01*
X27669800Y25071734D02*
X27717419Y24976496D01*
X27717419Y24976496D02*
X27717419Y24881258D01*
X27717419Y24881258D02*
X27669800Y24786020D01*
X27669800Y24786020D02*
X27622180Y24738401D01*
X27622180Y24738401D02*
X27526942Y24690782D01*
X27526942Y24690782D02*
X27336466Y24643163D01*
X27336466Y24643163D02*
X27098371Y24643163D01*
X27098371Y24643163D02*
X26907895Y24690782D01*
X26907895Y24690782D02*
X26812657Y24738401D01*
X26812657Y24738401D02*
X26765038Y24786020D01*
X26765038Y24786020D02*
X26717419Y24881258D01*
X28050752Y25881258D02*
X26622180Y25881258D01*
X27717419Y27119353D02*
X27717419Y26547925D01*
X27717419Y26833639D02*
X26717419Y26833639D01*
X26717419Y26833639D02*
X26860276Y26738401D01*
X26860276Y26738401D02*
X26955514Y26643163D01*
X26955514Y26643163D02*
X27003133Y26547925D01*
X27717419Y28071734D02*
X27717419Y27500306D01*
X27717419Y27786020D02*
X26717419Y27786020D01*
X26717419Y27786020D02*
X26860276Y27690782D01*
X26860276Y27690782D02*
X26955514Y27595544D01*
X26955514Y27595544D02*
X27003133Y27500306D01*
X57197419Y-27819639D02*
X57197419Y-27724401D01*
X57197419Y-27724401D02*
X57245038Y-27629163D01*
X57245038Y-27629163D02*
X57292657Y-27581544D01*
X57292657Y-27581544D02*
X57387895Y-27533925D01*
X57387895Y-27533925D02*
X57578371Y-27486306D01*
X57578371Y-27486306D02*
X57816466Y-27486306D01*
X57816466Y-27486306D02*
X58006942Y-27533925D01*
X58006942Y-27533925D02*
X58102180Y-27581544D01*
X58102180Y-27581544D02*
X58149800Y-27629163D01*
X58149800Y-27629163D02*
X58197419Y-27724401D01*
X58197419Y-27724401D02*
X58197419Y-27819639D01*
X58197419Y-27819639D02*
X58149800Y-27914877D01*
X58149800Y-27914877D02*
X58102180Y-27962496D01*
X58102180Y-27962496D02*
X58006942Y-28010115D01*
X58006942Y-28010115D02*
X57816466Y-28057734D01*
X57816466Y-28057734D02*
X57578371Y-28057734D01*
X57578371Y-28057734D02*
X57387895Y-28010115D01*
X57387895Y-28010115D02*
X57292657Y-27962496D01*
X57292657Y-27962496D02*
X57245038Y-27914877D01*
X57245038Y-27914877D02*
X57197419Y-27819639D01*
X57197419Y-27152972D02*
X57197419Y-26533925D01*
X57197419Y-26533925D02*
X57578371Y-26867258D01*
X57578371Y-26867258D02*
X57578371Y-26724401D01*
X57578371Y-26724401D02*
X57625990Y-26629163D01*
X57625990Y-26629163D02*
X57673609Y-26581544D01*
X57673609Y-26581544D02*
X57768847Y-26533925D01*
X57768847Y-26533925D02*
X58006942Y-26533925D01*
X58006942Y-26533925D02*
X58102180Y-26581544D01*
X58102180Y-26581544D02*
X58149800Y-26629163D01*
X58149800Y-26629163D02*
X58197419Y-26724401D01*
X58197419Y-26724401D02*
X58197419Y-27010115D01*
X58197419Y-27010115D02*
X58149800Y-27105353D01*
X58149800Y-27105353D02*
X58102180Y-27152972D01*
X58530752Y-25867258D02*
X57102180Y-25867258D01*
X57197419Y-24962496D02*
X57197419Y-24867258D01*
X57197419Y-24867258D02*
X57245038Y-24772020D01*
X57245038Y-24772020D02*
X57292657Y-24724401D01*
X57292657Y-24724401D02*
X57387895Y-24676782D01*
X57387895Y-24676782D02*
X57578371Y-24629163D01*
X57578371Y-24629163D02*
X57816466Y-24629163D01*
X57816466Y-24629163D02*
X58006942Y-24676782D01*
X58006942Y-24676782D02*
X58102180Y-24724401D01*
X58102180Y-24724401D02*
X58149800Y-24772020D01*
X58149800Y-24772020D02*
X58197419Y-24867258D01*
X58197419Y-24867258D02*
X58197419Y-24962496D01*
X58197419Y-24962496D02*
X58149800Y-25057734D01*
X58149800Y-25057734D02*
X58102180Y-25105353D01*
X58102180Y-25105353D02*
X58006942Y-25152972D01*
X58006942Y-25152972D02*
X57816466Y-25200591D01*
X57816466Y-25200591D02*
X57578371Y-25200591D01*
X57578371Y-25200591D02*
X57387895Y-25152972D01*
X57387895Y-25152972D02*
X57292657Y-25105353D01*
X57292657Y-25105353D02*
X57245038Y-25057734D01*
X57245038Y-25057734D02*
X57197419Y-24962496D01*
X57530752Y-23772020D02*
X58197419Y-23772020D01*
X57149800Y-24010115D02*
X57864085Y-24248210D01*
X57864085Y-24248210D02*
X57864085Y-23629163D01*
X6961027Y21742580D02*
X7532455Y21742580D01*
X7246741Y20742580D02*
X7246741Y21742580D01*
X8437217Y20837819D02*
X8389598Y20790200D01*
X8389598Y20790200D02*
X8246741Y20742580D01*
X8246741Y20742580D02*
X8151503Y20742580D01*
X8151503Y20742580D02*
X8008646Y20790200D01*
X8008646Y20790200D02*
X7913408Y20885438D01*
X7913408Y20885438D02*
X7865789Y20980676D01*
X7865789Y20980676D02*
X7818170Y21171152D01*
X7818170Y21171152D02*
X7818170Y21314009D01*
X7818170Y21314009D02*
X7865789Y21504485D01*
X7865789Y21504485D02*
X7913408Y21599723D01*
X7913408Y21599723D02*
X8008646Y21694961D01*
X8008646Y21694961D02*
X8151503Y21742580D01*
X8151503Y21742580D02*
X8246741Y21742580D01*
X8246741Y21742580D02*
X8389598Y21694961D01*
X8389598Y21694961D02*
X8437217Y21647342D01*
X8865789Y20742580D02*
X8865789Y21742580D01*
X9437217Y20742580D02*
X9008646Y21314009D01*
X9437217Y21742580D02*
X8865789Y21171152D01*
X62277419Y23801877D02*
X62277419Y23897115D01*
X62277419Y23897115D02*
X62325038Y23992353D01*
X62325038Y23992353D02*
X62372657Y24039972D01*
X62372657Y24039972D02*
X62467895Y24087591D01*
X62467895Y24087591D02*
X62658371Y24135210D01*
X62658371Y24135210D02*
X62896466Y24135210D01*
X62896466Y24135210D02*
X63086942Y24087591D01*
X63086942Y24087591D02*
X63182180Y24039972D01*
X63182180Y24039972D02*
X63229800Y23992353D01*
X63229800Y23992353D02*
X63277419Y23897115D01*
X63277419Y23897115D02*
X63277419Y23801877D01*
X63277419Y23801877D02*
X63229800Y23706639D01*
X63229800Y23706639D02*
X63182180Y23659020D01*
X63182180Y23659020D02*
X63086942Y23611401D01*
X63086942Y23611401D02*
X62896466Y23563782D01*
X62896466Y23563782D02*
X62658371Y23563782D01*
X62658371Y23563782D02*
X62467895Y23611401D01*
X62467895Y23611401D02*
X62372657Y23659020D01*
X62372657Y23659020D02*
X62325038Y23706639D01*
X62325038Y23706639D02*
X62277419Y23801877D01*
X62277419Y24992353D02*
X62277419Y24801877D01*
X62277419Y24801877D02*
X62325038Y24706639D01*
X62325038Y24706639D02*
X62372657Y24659020D01*
X62372657Y24659020D02*
X62515514Y24563782D01*
X62515514Y24563782D02*
X62705990Y24516163D01*
X62705990Y24516163D02*
X63086942Y24516163D01*
X63086942Y24516163D02*
X63182180Y24563782D01*
X63182180Y24563782D02*
X63229800Y24611401D01*
X63229800Y24611401D02*
X63277419Y24706639D01*
X63277419Y24706639D02*
X63277419Y24897115D01*
X63277419Y24897115D02*
X63229800Y24992353D01*
X63229800Y24992353D02*
X63182180Y25039972D01*
X63182180Y25039972D02*
X63086942Y25087591D01*
X63086942Y25087591D02*
X62848847Y25087591D01*
X62848847Y25087591D02*
X62753609Y25039972D01*
X62753609Y25039972D02*
X62705990Y24992353D01*
X62705990Y24992353D02*
X62658371Y24897115D01*
X62658371Y24897115D02*
X62658371Y24706639D01*
X62658371Y24706639D02*
X62705990Y24611401D01*
X62705990Y24611401D02*
X62753609Y24563782D01*
X62753609Y24563782D02*
X62848847Y24516163D01*
X63610752Y25754258D02*
X62182180Y25754258D01*
X62277419Y26659020D02*
X62277419Y26754258D01*
X62277419Y26754258D02*
X62325038Y26849496D01*
X62325038Y26849496D02*
X62372657Y26897115D01*
X62372657Y26897115D02*
X62467895Y26944734D01*
X62467895Y26944734D02*
X62658371Y26992353D01*
X62658371Y26992353D02*
X62896466Y26992353D01*
X62896466Y26992353D02*
X63086942Y26944734D01*
X63086942Y26944734D02*
X63182180Y26897115D01*
X63182180Y26897115D02*
X63229800Y26849496D01*
X63229800Y26849496D02*
X63277419Y26754258D01*
X63277419Y26754258D02*
X63277419Y26659020D01*
X63277419Y26659020D02*
X63229800Y26563782D01*
X63229800Y26563782D02*
X63182180Y26516163D01*
X63182180Y26516163D02*
X63086942Y26468544D01*
X63086942Y26468544D02*
X62896466Y26420925D01*
X62896466Y26420925D02*
X62658371Y26420925D01*
X62658371Y26420925D02*
X62467895Y26468544D01*
X62467895Y26468544D02*
X62372657Y26516163D01*
X62372657Y26516163D02*
X62325038Y26563782D01*
X62325038Y26563782D02*
X62277419Y26659020D01*
X62277419Y27325687D02*
X62277419Y27992353D01*
X62277419Y27992353D02*
X63277419Y27563782D01*
X69770419Y23801877D02*
X69770419Y23897115D01*
X69770419Y23897115D02*
X69818038Y23992353D01*
X69818038Y23992353D02*
X69865657Y24039972D01*
X69865657Y24039972D02*
X69960895Y24087591D01*
X69960895Y24087591D02*
X70151371Y24135210D01*
X70151371Y24135210D02*
X70389466Y24135210D01*
X70389466Y24135210D02*
X70579942Y24087591D01*
X70579942Y24087591D02*
X70675180Y24039972D01*
X70675180Y24039972D02*
X70722800Y23992353D01*
X70722800Y23992353D02*
X70770419Y23897115D01*
X70770419Y23897115D02*
X70770419Y23801877D01*
X70770419Y23801877D02*
X70722800Y23706639D01*
X70722800Y23706639D02*
X70675180Y23659020D01*
X70675180Y23659020D02*
X70579942Y23611401D01*
X70579942Y23611401D02*
X70389466Y23563782D01*
X70389466Y23563782D02*
X70151371Y23563782D01*
X70151371Y23563782D02*
X69960895Y23611401D01*
X69960895Y23611401D02*
X69865657Y23659020D01*
X69865657Y23659020D02*
X69818038Y23706639D01*
X69818038Y23706639D02*
X69770419Y23801877D01*
X69770419Y24754258D02*
X69770419Y24849496D01*
X69770419Y24849496D02*
X69818038Y24944734D01*
X69818038Y24944734D02*
X69865657Y24992353D01*
X69865657Y24992353D02*
X69960895Y25039972D01*
X69960895Y25039972D02*
X70151371Y25087591D01*
X70151371Y25087591D02*
X70389466Y25087591D01*
X70389466Y25087591D02*
X70579942Y25039972D01*
X70579942Y25039972D02*
X70675180Y24992353D01*
X70675180Y24992353D02*
X70722800Y24944734D01*
X70722800Y24944734D02*
X70770419Y24849496D01*
X70770419Y24849496D02*
X70770419Y24754258D01*
X70770419Y24754258D02*
X70722800Y24659020D01*
X70722800Y24659020D02*
X70675180Y24611401D01*
X70675180Y24611401D02*
X70579942Y24563782D01*
X70579942Y24563782D02*
X70389466Y24516163D01*
X70389466Y24516163D02*
X70151371Y24516163D01*
X70151371Y24516163D02*
X69960895Y24563782D01*
X69960895Y24563782D02*
X69865657Y24611401D01*
X69865657Y24611401D02*
X69818038Y24659020D01*
X69818038Y24659020D02*
X69770419Y24754258D01*
X71103752Y25754258D02*
X69675180Y25754258D01*
X69770419Y26659020D02*
X69770419Y26754258D01*
X69770419Y26754258D02*
X69818038Y26849496D01*
X69818038Y26849496D02*
X69865657Y26897115D01*
X69865657Y26897115D02*
X69960895Y26944734D01*
X69960895Y26944734D02*
X70151371Y26992353D01*
X70151371Y26992353D02*
X70389466Y26992353D01*
X70389466Y26992353D02*
X70579942Y26944734D01*
X70579942Y26944734D02*
X70675180Y26897115D01*
X70675180Y26897115D02*
X70722800Y26849496D01*
X70722800Y26849496D02*
X70770419Y26754258D01*
X70770419Y26754258D02*
X70770419Y26659020D01*
X70770419Y26659020D02*
X70722800Y26563782D01*
X70722800Y26563782D02*
X70675180Y26516163D01*
X70675180Y26516163D02*
X70579942Y26468544D01*
X70579942Y26468544D02*
X70389466Y26420925D01*
X70389466Y26420925D02*
X70151371Y26420925D01*
X70151371Y26420925D02*
X69960895Y26468544D01*
X69960895Y26468544D02*
X69865657Y26516163D01*
X69865657Y26516163D02*
X69818038Y26563782D01*
X69818038Y26563782D02*
X69770419Y26659020D01*
X70770419Y27944734D02*
X70770419Y27373306D01*
X70770419Y27659020D02*
X69770419Y27659020D01*
X69770419Y27659020D02*
X69913276Y27563782D01*
X69913276Y27563782D02*
X70008514Y27468544D01*
X70008514Y27468544D02*
X70056133Y27373306D01*
X55530419Y24135210D02*
X55530419Y23563782D01*
X55530419Y23849496D02*
X54530419Y23849496D01*
X54530419Y23849496D02*
X54673276Y23754258D01*
X54673276Y23754258D02*
X54768514Y23659020D01*
X54768514Y23659020D02*
X54816133Y23563782D01*
X54625657Y24516163D02*
X54578038Y24563782D01*
X54578038Y24563782D02*
X54530419Y24659020D01*
X54530419Y24659020D02*
X54530419Y24897115D01*
X54530419Y24897115D02*
X54578038Y24992353D01*
X54578038Y24992353D02*
X54625657Y25039972D01*
X54625657Y25039972D02*
X54720895Y25087591D01*
X54720895Y25087591D02*
X54816133Y25087591D01*
X54816133Y25087591D02*
X54958990Y25039972D01*
X54958990Y25039972D02*
X55530419Y24468544D01*
X55530419Y24468544D02*
X55530419Y25087591D01*
X55863752Y25754258D02*
X54435180Y25754258D01*
X55530419Y26992353D02*
X55530419Y26420925D01*
X55530419Y26706639D02*
X54530419Y26706639D01*
X54530419Y26706639D02*
X54673276Y26611401D01*
X54673276Y26611401D02*
X54768514Y26516163D01*
X54768514Y26516163D02*
X54816133Y26420925D01*
X54530419Y27325687D02*
X54530419Y27944734D01*
X54530419Y27944734D02*
X54911371Y27611401D01*
X54911371Y27611401D02*
X54911371Y27754258D01*
X54911371Y27754258D02*
X54958990Y27849496D01*
X54958990Y27849496D02*
X55006609Y27897115D01*
X55006609Y27897115D02*
X55101847Y27944734D01*
X55101847Y27944734D02*
X55339942Y27944734D01*
X55339942Y27944734D02*
X55435180Y27897115D01*
X55435180Y27897115D02*
X55482800Y27849496D01*
X55482800Y27849496D02*
X55530419Y27754258D01*
X55530419Y27754258D02*
X55530419Y27468544D01*
X55530419Y27468544D02*
X55482800Y27373306D01*
X55482800Y27373306D02*
X55435180Y27325687D01*
X64690419Y23801877D02*
X64690419Y23897115D01*
X64690419Y23897115D02*
X64738038Y23992353D01*
X64738038Y23992353D02*
X64785657Y24039972D01*
X64785657Y24039972D02*
X64880895Y24087591D01*
X64880895Y24087591D02*
X65071371Y24135210D01*
X65071371Y24135210D02*
X65309466Y24135210D01*
X65309466Y24135210D02*
X65499942Y24087591D01*
X65499942Y24087591D02*
X65595180Y24039972D01*
X65595180Y24039972D02*
X65642800Y23992353D01*
X65642800Y23992353D02*
X65690419Y23897115D01*
X65690419Y23897115D02*
X65690419Y23801877D01*
X65690419Y23801877D02*
X65642800Y23706639D01*
X65642800Y23706639D02*
X65595180Y23659020D01*
X65595180Y23659020D02*
X65499942Y23611401D01*
X65499942Y23611401D02*
X65309466Y23563782D01*
X65309466Y23563782D02*
X65071371Y23563782D01*
X65071371Y23563782D02*
X64880895Y23611401D01*
X64880895Y23611401D02*
X64785657Y23659020D01*
X64785657Y23659020D02*
X64738038Y23706639D01*
X64738038Y23706639D02*
X64690419Y23801877D01*
X65023752Y24992353D02*
X65690419Y24992353D01*
X64642800Y24754258D02*
X65357085Y24516163D01*
X65357085Y24516163D02*
X65357085Y25135210D01*
X66023752Y25754258D02*
X64595180Y25754258D01*
X64690419Y26659020D02*
X64690419Y26754258D01*
X64690419Y26754258D02*
X64738038Y26849496D01*
X64738038Y26849496D02*
X64785657Y26897115D01*
X64785657Y26897115D02*
X64880895Y26944734D01*
X64880895Y26944734D02*
X65071371Y26992353D01*
X65071371Y26992353D02*
X65309466Y26992353D01*
X65309466Y26992353D02*
X65499942Y26944734D01*
X65499942Y26944734D02*
X65595180Y26897115D01*
X65595180Y26897115D02*
X65642800Y26849496D01*
X65642800Y26849496D02*
X65690419Y26754258D01*
X65690419Y26754258D02*
X65690419Y26659020D01*
X65690419Y26659020D02*
X65642800Y26563782D01*
X65642800Y26563782D02*
X65595180Y26516163D01*
X65595180Y26516163D02*
X65499942Y26468544D01*
X65499942Y26468544D02*
X65309466Y26420925D01*
X65309466Y26420925D02*
X65071371Y26420925D01*
X65071371Y26420925D02*
X64880895Y26468544D01*
X64880895Y26468544D02*
X64785657Y26516163D01*
X64785657Y26516163D02*
X64738038Y26563782D01*
X64738038Y26563782D02*
X64690419Y26659020D01*
X64690419Y27897115D02*
X64690419Y27420925D01*
X64690419Y27420925D02*
X65166609Y27373306D01*
X65166609Y27373306D02*
X65118990Y27420925D01*
X65118990Y27420925D02*
X65071371Y27516163D01*
X65071371Y27516163D02*
X65071371Y27754258D01*
X65071371Y27754258D02*
X65118990Y27849496D01*
X65118990Y27849496D02*
X65166609Y27897115D01*
X65166609Y27897115D02*
X65261847Y27944734D01*
X65261847Y27944734D02*
X65499942Y27944734D01*
X65499942Y27944734D02*
X65595180Y27897115D01*
X65595180Y27897115D02*
X65642800Y27849496D01*
X65642800Y27849496D02*
X65690419Y27754258D01*
X65690419Y27754258D02*
X65690419Y27516163D01*
X65690419Y27516163D02*
X65642800Y27420925D01*
X65642800Y27420925D02*
X65595180Y27373306D01*
X12477419Y-28010115D02*
X11477419Y-28010115D01*
X12477419Y-27533925D02*
X11477419Y-27533925D01*
X11477419Y-27533925D02*
X12477419Y-26962497D01*
X12477419Y-26962497D02*
X11477419Y-26962497D01*
X11477419Y-26295830D02*
X11477419Y-26200592D01*
X11477419Y-26200592D02*
X11525038Y-26105354D01*
X11525038Y-26105354D02*
X11572657Y-26057735D01*
X11572657Y-26057735D02*
X11667895Y-26010116D01*
X11667895Y-26010116D02*
X11858371Y-25962497D01*
X11858371Y-25962497D02*
X12096466Y-25962497D01*
X12096466Y-25962497D02*
X12286942Y-26010116D01*
X12286942Y-26010116D02*
X12382180Y-26057735D01*
X12382180Y-26057735D02*
X12429800Y-26105354D01*
X12429800Y-26105354D02*
X12477419Y-26200592D01*
X12477419Y-26200592D02*
X12477419Y-26295830D01*
X12477419Y-26295830D02*
X12429800Y-26391068D01*
X12429800Y-26391068D02*
X12382180Y-26438687D01*
X12382180Y-26438687D02*
X12286942Y-26486306D01*
X12286942Y-26486306D02*
X12096466Y-26533925D01*
X12096466Y-26533925D02*
X11858371Y-26533925D01*
X11858371Y-26533925D02*
X11667895Y-26486306D01*
X11667895Y-26486306D02*
X11572657Y-26438687D01*
X11572657Y-26438687D02*
X11525038Y-26391068D01*
X11525038Y-26391068D02*
X11477419Y-26295830D01*
X12810752Y-25295830D02*
X11382180Y-25295830D01*
X12477419Y-24581544D02*
X11477419Y-24581544D01*
X12477419Y-24105354D02*
X11477419Y-24105354D01*
X11477419Y-24105354D02*
X12477419Y-23533926D01*
X12477419Y-23533926D02*
X11477419Y-23533926D01*
X12477419Y-22533926D02*
X12477419Y-23105354D01*
X12477419Y-22819640D02*
X11477419Y-22819640D01*
X11477419Y-22819640D02*
X11620276Y-22914878D01*
X11620276Y-22914878D02*
X11715514Y-23010116D01*
X11715514Y-23010116D02*
X11763133Y-23105354D01*
X50196466Y24405068D02*
X50196466Y25166973D01*
X50910752Y25881258D02*
X49482180Y25881258D01*
X50577419Y27119353D02*
X50577419Y26547925D01*
X50577419Y26833639D02*
X49577419Y26833639D01*
X49577419Y26833639D02*
X49720276Y26738401D01*
X49720276Y26738401D02*
X49815514Y26643163D01*
X49815514Y26643163D02*
X49863133Y26547925D01*
X49577419Y28024115D02*
X49577419Y27547925D01*
X49577419Y27547925D02*
X50053609Y27500306D01*
X50053609Y27500306D02*
X50005990Y27547925D01*
X50005990Y27547925D02*
X49958371Y27643163D01*
X49958371Y27643163D02*
X49958371Y27881258D01*
X49958371Y27881258D02*
X50005990Y27976496D01*
X50005990Y27976496D02*
X50053609Y28024115D01*
X50053609Y28024115D02*
X50148847Y28071734D01*
X50148847Y28071734D02*
X50386942Y28071734D01*
X50386942Y28071734D02*
X50482180Y28024115D01*
X50482180Y28024115D02*
X50529800Y27976496D01*
X50529800Y27976496D02*
X50577419Y27881258D01*
X50577419Y27881258D02*
X50577419Y27643163D01*
X50577419Y27643163D02*
X50529800Y27547925D01*
X50529800Y27547925D02*
X50482180Y27500306D01*
X17176466Y24976497D02*
X17176466Y25738402D01*
X16509800Y26928877D02*
X17795514Y26071735D01*
X17176466Y27262211D02*
X17176466Y28024116D01*
D11*
X35638747Y5817428D02*
X34931641Y6524535D01*
X34931641Y6524535D02*
X35099999Y6692894D01*
X35099999Y6692894D02*
X35234686Y6760237D01*
X35234686Y6760237D02*
X35369373Y6760237D01*
X35369373Y6760237D02*
X35470389Y6726565D01*
X35470389Y6726565D02*
X35638747Y6625550D01*
X35638747Y6625550D02*
X35739763Y6524535D01*
X35739763Y6524535D02*
X35840778Y6356176D01*
X35840778Y6356176D02*
X35874450Y6255161D01*
X35874450Y6255161D02*
X35874450Y6120474D01*
X35874450Y6120474D02*
X35807106Y5985787D01*
X35807106Y5985787D02*
X35638747Y5817428D01*
X35672419Y7130626D02*
X35672419Y7197970D01*
X35672419Y7197970D02*
X35706091Y7298985D01*
X35706091Y7298985D02*
X35874450Y7467344D01*
X35874450Y7467344D02*
X35975465Y7501016D01*
X35975465Y7501016D02*
X36042808Y7501016D01*
X36042808Y7501016D02*
X36143824Y7467344D01*
X36143824Y7467344D02*
X36211167Y7400000D01*
X36211167Y7400000D02*
X36278511Y7265313D01*
X36278511Y7265313D02*
X36278511Y6457191D01*
X36278511Y6457191D02*
X36716243Y6894924D01*
X2983333Y14245180D02*
X2983333Y13530895D01*
X2983333Y13530895D02*
X2935714Y13388038D01*
X2935714Y13388038D02*
X2840476Y13292800D01*
X2840476Y13292800D02*
X2697619Y13245180D01*
X2697619Y13245180D02*
X2602381Y13245180D01*
X3316667Y14245180D02*
X3888095Y14245180D01*
X3602381Y13245180D02*
X3602381Y14245180D01*
X4173810Y13530895D02*
X4650000Y13530895D01*
X4078572Y13245180D02*
X4411905Y14245180D01*
X4411905Y14245180D02*
X4745238Y13245180D01*
X5602381Y14197561D02*
X5507143Y14245180D01*
X5507143Y14245180D02*
X5364286Y14245180D01*
X5364286Y14245180D02*
X5221429Y14197561D01*
X5221429Y14197561D02*
X5126191Y14102323D01*
X5126191Y14102323D02*
X5078572Y14007085D01*
X5078572Y14007085D02*
X5030953Y13816609D01*
X5030953Y13816609D02*
X5030953Y13673752D01*
X5030953Y13673752D02*
X5078572Y13483276D01*
X5078572Y13483276D02*
X5126191Y13388038D01*
X5126191Y13388038D02*
X5221429Y13292800D01*
X5221429Y13292800D02*
X5364286Y13245180D01*
X5364286Y13245180D02*
X5459524Y13245180D01*
X5459524Y13245180D02*
X5602381Y13292800D01*
X5602381Y13292800D02*
X5650000Y13340419D01*
X5650000Y13340419D02*
X5650000Y13673752D01*
X5650000Y13673752D02*
X5459524Y13673752D01*
X4378580Y-11970666D02*
X4426200Y-12018285D01*
X4426200Y-12018285D02*
X4473819Y-12161142D01*
X4473819Y-12161142D02*
X4473819Y-12256380D01*
X4473819Y-12256380D02*
X4426200Y-12399237D01*
X4426200Y-12399237D02*
X4330961Y-12494475D01*
X4330961Y-12494475D02*
X4235723Y-12542094D01*
X4235723Y-12542094D02*
X4045247Y-12589713D01*
X4045247Y-12589713D02*
X3902390Y-12589713D01*
X3902390Y-12589713D02*
X3711914Y-12542094D01*
X3711914Y-12542094D02*
X3616676Y-12494475D01*
X3616676Y-12494475D02*
X3521438Y-12399237D01*
X3521438Y-12399237D02*
X3473819Y-12256380D01*
X3473819Y-12256380D02*
X3473819Y-12161142D01*
X3473819Y-12161142D02*
X3521438Y-12018285D01*
X3521438Y-12018285D02*
X3569057Y-11970666D01*
X3473819Y-11637332D02*
X3473819Y-10970666D01*
X3473819Y-10970666D02*
X4473819Y-11399237D01*
X8304819Y6357142D02*
X7828628Y6023809D01*
X8304819Y5785714D02*
X7304819Y5785714D01*
X7304819Y5785714D02*
X7304819Y6166666D01*
X7304819Y6166666D02*
X7352438Y6261904D01*
X7352438Y6261904D02*
X7400057Y6309523D01*
X7400057Y6309523D02*
X7495295Y6357142D01*
X7495295Y6357142D02*
X7638152Y6357142D01*
X7638152Y6357142D02*
X7733390Y6309523D01*
X7733390Y6309523D02*
X7781009Y6261904D01*
X7781009Y6261904D02*
X7828628Y6166666D01*
X7828628Y6166666D02*
X7828628Y5785714D01*
X8304819Y7309523D02*
X8304819Y6738095D01*
X8304819Y7023809D02*
X7304819Y7023809D01*
X7304819Y7023809D02*
X7447676Y6928571D01*
X7447676Y6928571D02*
X7542914Y6833333D01*
X7542914Y6833333D02*
X7590533Y6738095D01*
X7304819Y8166666D02*
X7304819Y7976190D01*
X7304819Y7976190D02*
X7352438Y7880952D01*
X7352438Y7880952D02*
X7400057Y7833333D01*
X7400057Y7833333D02*
X7542914Y7738095D01*
X7542914Y7738095D02*
X7733390Y7690476D01*
X7733390Y7690476D02*
X8114342Y7690476D01*
X8114342Y7690476D02*
X8209580Y7738095D01*
X8209580Y7738095D02*
X8257200Y7785714D01*
X8257200Y7785714D02*
X8304819Y7880952D01*
X8304819Y7880952D02*
X8304819Y8071428D01*
X8304819Y8071428D02*
X8257200Y8166666D01*
X8257200Y8166666D02*
X8209580Y8214285D01*
X8209580Y8214285D02*
X8114342Y8261904D01*
X8114342Y8261904D02*
X7876247Y8261904D01*
X7876247Y8261904D02*
X7781009Y8214285D01*
X7781009Y8214285D02*
X7733390Y8166666D01*
X7733390Y8166666D02*
X7685771Y8071428D01*
X7685771Y8071428D02*
X7685771Y7880952D01*
X7685771Y7880952D02*
X7733390Y7785714D01*
X7733390Y7785714D02*
X7781009Y7738095D01*
X7781009Y7738095D02*
X7876247Y7690476D01*
X5261905Y10375180D02*
X5261905Y11375180D01*
X5261905Y11375180D02*
X5500000Y11375180D01*
X5500000Y11375180D02*
X5642857Y11327561D01*
X5642857Y11327561D02*
X5738095Y11232323D01*
X5738095Y11232323D02*
X5785714Y11137085D01*
X5785714Y11137085D02*
X5833333Y10946609D01*
X5833333Y10946609D02*
X5833333Y10803752D01*
X5833333Y10803752D02*
X5785714Y10613276D01*
X5785714Y10613276D02*
X5738095Y10518038D01*
X5738095Y10518038D02*
X5642857Y10422800D01*
X5642857Y10422800D02*
X5500000Y10375180D01*
X5500000Y10375180D02*
X5261905Y10375180D01*
X6690476Y11041847D02*
X6690476Y10375180D01*
X6452381Y11422800D02*
X6214286Y10708514D01*
X6214286Y10708514D02*
X6833333Y10708514D01*
X9658333Y-3854819D02*
X9325000Y-3378628D01*
X9086905Y-3854819D02*
X9086905Y-2854819D01*
X9086905Y-2854819D02*
X9467857Y-2854819D01*
X9467857Y-2854819D02*
X9563095Y-2902438D01*
X9563095Y-2902438D02*
X9610714Y-2950057D01*
X9610714Y-2950057D02*
X9658333Y-3045295D01*
X9658333Y-3045295D02*
X9658333Y-3188152D01*
X9658333Y-3188152D02*
X9610714Y-3283390D01*
X9610714Y-3283390D02*
X9563095Y-3331009D01*
X9563095Y-3331009D02*
X9467857Y-3378628D01*
X9467857Y-3378628D02*
X9086905Y-3378628D01*
X10134524Y-3854819D02*
X10325000Y-3854819D01*
X10325000Y-3854819D02*
X10420238Y-3807200D01*
X10420238Y-3807200D02*
X10467857Y-3759580D01*
X10467857Y-3759580D02*
X10563095Y-3616723D01*
X10563095Y-3616723D02*
X10610714Y-3426247D01*
X10610714Y-3426247D02*
X10610714Y-3045295D01*
X10610714Y-3045295D02*
X10563095Y-2950057D01*
X10563095Y-2950057D02*
X10515476Y-2902438D01*
X10515476Y-2902438D02*
X10420238Y-2854819D01*
X10420238Y-2854819D02*
X10229762Y-2854819D01*
X10229762Y-2854819D02*
X10134524Y-2902438D01*
X10134524Y-2902438D02*
X10086905Y-2950057D01*
X10086905Y-2950057D02*
X10039286Y-3045295D01*
X10039286Y-3045295D02*
X10039286Y-3283390D01*
X10039286Y-3283390D02*
X10086905Y-3378628D01*
X10086905Y-3378628D02*
X10134524Y-3426247D01*
X10134524Y-3426247D02*
X10229762Y-3473866D01*
X10229762Y-3473866D02*
X10420238Y-3473866D01*
X10420238Y-3473866D02*
X10515476Y-3426247D01*
X10515476Y-3426247D02*
X10563095Y-3378628D01*
X10563095Y-3378628D02*
X10610714Y-3283390D01*
X75857142Y-16669819D02*
X75523809Y-16193628D01*
X75285714Y-16669819D02*
X75285714Y-15669819D01*
X75285714Y-15669819D02*
X75666666Y-15669819D01*
X75666666Y-15669819D02*
X75761904Y-15717438D01*
X75761904Y-15717438D02*
X75809523Y-15765057D01*
X75809523Y-15765057D02*
X75857142Y-15860295D01*
X75857142Y-15860295D02*
X75857142Y-16003152D01*
X75857142Y-16003152D02*
X75809523Y-16098390D01*
X75809523Y-16098390D02*
X75761904Y-16146009D01*
X75761904Y-16146009D02*
X75666666Y-16193628D01*
X75666666Y-16193628D02*
X75285714Y-16193628D01*
X76809523Y-16669819D02*
X76238095Y-16669819D01*
X76523809Y-16669819D02*
X76523809Y-15669819D01*
X76523809Y-15669819D02*
X76428571Y-15812676D01*
X76428571Y-15812676D02*
X76333333Y-15907914D01*
X76333333Y-15907914D02*
X76238095Y-15955533D01*
X77714285Y-15669819D02*
X77238095Y-15669819D01*
X77238095Y-15669819D02*
X77190476Y-16146009D01*
X77190476Y-16146009D02*
X77238095Y-16098390D01*
X77238095Y-16098390D02*
X77333333Y-16050771D01*
X77333333Y-16050771D02*
X77571428Y-16050771D01*
X77571428Y-16050771D02*
X77666666Y-16098390D01*
X77666666Y-16098390D02*
X77714285Y-16146009D01*
X77714285Y-16146009D02*
X77761904Y-16241247D01*
X77761904Y-16241247D02*
X77761904Y-16479342D01*
X77761904Y-16479342D02*
X77714285Y-16574580D01*
X77714285Y-16574580D02*
X77666666Y-16622200D01*
X77666666Y-16622200D02*
X77571428Y-16669819D01*
X77571428Y-16669819D02*
X77333333Y-16669819D01*
X77333333Y-16669819D02*
X77238095Y-16622200D01*
X77238095Y-16622200D02*
X77190476Y-16574580D01*
X9658333Y-879819D02*
X9325000Y-403628D01*
X9086905Y-879819D02*
X9086905Y120180D01*
X9086905Y120180D02*
X9467857Y120180D01*
X9467857Y120180D02*
X9563095Y72561D01*
X9563095Y72561D02*
X9610714Y24942D01*
X9610714Y24942D02*
X9658333Y-70295D01*
X9658333Y-70295D02*
X9658333Y-213152D01*
X9658333Y-213152D02*
X9610714Y-308390D01*
X9610714Y-308390D02*
X9563095Y-356009D01*
X9563095Y-356009D02*
X9467857Y-403628D01*
X9467857Y-403628D02*
X9086905Y-403628D01*
X10229762Y-308390D02*
X10134524Y-260771D01*
X10134524Y-260771D02*
X10086905Y-213152D01*
X10086905Y-213152D02*
X10039286Y-117914D01*
X10039286Y-117914D02*
X10039286Y-70295D01*
X10039286Y-70295D02*
X10086905Y24942D01*
X10086905Y24942D02*
X10134524Y72561D01*
X10134524Y72561D02*
X10229762Y120180D01*
X10229762Y120180D02*
X10420238Y120180D01*
X10420238Y120180D02*
X10515476Y72561D01*
X10515476Y72561D02*
X10563095Y24942D01*
X10563095Y24942D02*
X10610714Y-70295D01*
X10610714Y-70295D02*
X10610714Y-117914D01*
X10610714Y-117914D02*
X10563095Y-213152D01*
X10563095Y-213152D02*
X10515476Y-260771D01*
X10515476Y-260771D02*
X10420238Y-308390D01*
X10420238Y-308390D02*
X10229762Y-308390D01*
X10229762Y-308390D02*
X10134524Y-356009D01*
X10134524Y-356009D02*
X10086905Y-403628D01*
X10086905Y-403628D02*
X10039286Y-498866D01*
X10039286Y-498866D02*
X10039286Y-689342D01*
X10039286Y-689342D02*
X10086905Y-784580D01*
X10086905Y-784580D02*
X10134524Y-832200D01*
X10134524Y-832200D02*
X10229762Y-879819D01*
X10229762Y-879819D02*
X10420238Y-879819D01*
X10420238Y-879819D02*
X10515476Y-832200D01*
X10515476Y-832200D02*
X10563095Y-784580D01*
X10563095Y-784580D02*
X10610714Y-689342D01*
X10610714Y-689342D02*
X10610714Y-498866D01*
X10610714Y-498866D02*
X10563095Y-403628D01*
X10563095Y-403628D02*
X10515476Y-356009D01*
X10515476Y-356009D02*
X10420238Y-308390D01*
X76333333Y-10829819D02*
X76000000Y-10353628D01*
X75761905Y-10829819D02*
X75761905Y-9829819D01*
X75761905Y-9829819D02*
X76142857Y-9829819D01*
X76142857Y-9829819D02*
X76238095Y-9877438D01*
X76238095Y-9877438D02*
X76285714Y-9925057D01*
X76285714Y-9925057D02*
X76333333Y-10020295D01*
X76333333Y-10020295D02*
X76333333Y-10163152D01*
X76333333Y-10163152D02*
X76285714Y-10258390D01*
X76285714Y-10258390D02*
X76238095Y-10306009D01*
X76238095Y-10306009D02*
X76142857Y-10353628D01*
X76142857Y-10353628D02*
X75761905Y-10353628D01*
X77285714Y-10829819D02*
X76714286Y-10829819D01*
X77000000Y-10829819D02*
X77000000Y-9829819D01*
X77000000Y-9829819D02*
X76904762Y-9972676D01*
X76904762Y-9972676D02*
X76809524Y-10067914D01*
X76809524Y-10067914D02*
X76714286Y-10115533D01*
X9094819Y30661666D02*
X9809104Y30661666D01*
X9809104Y30661666D02*
X9951961Y30614047D01*
X9951961Y30614047D02*
X10047200Y30518809D01*
X10047200Y30518809D02*
X10094819Y30375952D01*
X10094819Y30375952D02*
X10094819Y30280714D01*
X9190057Y31090238D02*
X9142438Y31137857D01*
X9142438Y31137857D02*
X9094819Y31233095D01*
X9094819Y31233095D02*
X9094819Y31471190D01*
X9094819Y31471190D02*
X9142438Y31566428D01*
X9142438Y31566428D02*
X9190057Y31614047D01*
X9190057Y31614047D02*
X9285295Y31661666D01*
X9285295Y31661666D02*
X9380533Y31661666D01*
X9380533Y31661666D02*
X9523390Y31614047D01*
X9523390Y31614047D02*
X10094819Y31042619D01*
X10094819Y31042619D02*
X10094819Y31661666D01*
X73107200Y-21519874D02*
X73154819Y-21377017D01*
X73154819Y-21377017D02*
X73154819Y-21138922D01*
X73154819Y-21138922D02*
X73107200Y-21043684D01*
X73107200Y-21043684D02*
X73059580Y-20996065D01*
X73059580Y-20996065D02*
X72964342Y-20948446D01*
X72964342Y-20948446D02*
X72869104Y-20948446D01*
X72869104Y-20948446D02*
X72773866Y-20996065D01*
X72773866Y-20996065D02*
X72726247Y-21043684D01*
X72726247Y-21043684D02*
X72678628Y-21138922D01*
X72678628Y-21138922D02*
X72631009Y-21329398D01*
X72631009Y-21329398D02*
X72583390Y-21424636D01*
X72583390Y-21424636D02*
X72535771Y-21472255D01*
X72535771Y-21472255D02*
X72440533Y-21519874D01*
X72440533Y-21519874D02*
X72345295Y-21519874D01*
X72345295Y-21519874D02*
X72250057Y-21472255D01*
X72250057Y-21472255D02*
X72202438Y-21424636D01*
X72202438Y-21424636D02*
X72154819Y-21329398D01*
X72154819Y-21329398D02*
X72154819Y-21091303D01*
X72154819Y-21091303D02*
X72202438Y-20948446D01*
X72631009Y-20519874D02*
X72631009Y-20186541D01*
X73154819Y-20043684D02*
X73154819Y-20519874D01*
X73154819Y-20519874D02*
X72154819Y-20519874D01*
X72154819Y-20519874D02*
X72154819Y-20043684D01*
X73154819Y-19043684D02*
X72678628Y-19377017D01*
X73154819Y-19615112D02*
X72154819Y-19615112D01*
X72154819Y-19615112D02*
X72154819Y-19234160D01*
X72154819Y-19234160D02*
X72202438Y-19138922D01*
X72202438Y-19138922D02*
X72250057Y-19091303D01*
X72250057Y-19091303D02*
X72345295Y-19043684D01*
X72345295Y-19043684D02*
X72488152Y-19043684D01*
X72488152Y-19043684D02*
X72583390Y-19091303D01*
X72583390Y-19091303D02*
X72631009Y-19138922D01*
X72631009Y-19138922D02*
X72678628Y-19234160D01*
X72678628Y-19234160D02*
X72678628Y-19615112D01*
X72154819Y-18757969D02*
X73154819Y-18424636D01*
X73154819Y-18424636D02*
X72154819Y-18091303D01*
X72631009Y-17757969D02*
X72631009Y-17424636D01*
X73154819Y-17281779D02*
X73154819Y-17757969D01*
X73154819Y-17757969D02*
X72154819Y-17757969D01*
X72154819Y-17757969D02*
X72154819Y-17281779D01*
X73154819Y-16853207D02*
X72154819Y-16853207D01*
X72154819Y-16853207D02*
X73154819Y-16281779D01*
X73154819Y-16281779D02*
X72154819Y-16281779D01*
X6918580Y-11843666D02*
X6966200Y-11891285D01*
X6966200Y-11891285D02*
X7013819Y-12034142D01*
X7013819Y-12034142D02*
X7013819Y-12129380D01*
X7013819Y-12129380D02*
X6966200Y-12272237D01*
X6966200Y-12272237D02*
X6870961Y-12367475D01*
X6870961Y-12367475D02*
X6775723Y-12415094D01*
X6775723Y-12415094D02*
X6585247Y-12462713D01*
X6585247Y-12462713D02*
X6442390Y-12462713D01*
X6442390Y-12462713D02*
X6251914Y-12415094D01*
X6251914Y-12415094D02*
X6156676Y-12367475D01*
X6156676Y-12367475D02*
X6061438Y-12272237D01*
X6061438Y-12272237D02*
X6013819Y-12129380D01*
X6013819Y-12129380D02*
X6013819Y-12034142D01*
X6013819Y-12034142D02*
X6061438Y-11891285D01*
X6061438Y-11891285D02*
X6109057Y-11843666D01*
X6442390Y-11272237D02*
X6394771Y-11367475D01*
X6394771Y-11367475D02*
X6347152Y-11415094D01*
X6347152Y-11415094D02*
X6251914Y-11462713D01*
X6251914Y-11462713D02*
X6204295Y-11462713D01*
X6204295Y-11462713D02*
X6109057Y-11415094D01*
X6109057Y-11415094D02*
X6061438Y-11367475D01*
X6061438Y-11367475D02*
X6013819Y-11272237D01*
X6013819Y-11272237D02*
X6013819Y-11081761D01*
X6013819Y-11081761D02*
X6061438Y-10986523D01*
X6061438Y-10986523D02*
X6109057Y-10938904D01*
X6109057Y-10938904D02*
X6204295Y-10891285D01*
X6204295Y-10891285D02*
X6251914Y-10891285D01*
X6251914Y-10891285D02*
X6347152Y-10938904D01*
X6347152Y-10938904D02*
X6394771Y-10986523D01*
X6394771Y-10986523D02*
X6442390Y-11081761D01*
X6442390Y-11081761D02*
X6442390Y-11272237D01*
X6442390Y-11272237D02*
X6490009Y-11367475D01*
X6490009Y-11367475D02*
X6537628Y-11415094D01*
X6537628Y-11415094D02*
X6632866Y-11462713D01*
X6632866Y-11462713D02*
X6823342Y-11462713D01*
X6823342Y-11462713D02*
X6918580Y-11415094D01*
X6918580Y-11415094D02*
X6966200Y-11367475D01*
X6966200Y-11367475D02*
X7013819Y-11272237D01*
X7013819Y-11272237D02*
X7013819Y-11081761D01*
X7013819Y-11081761D02*
X6966200Y-10986523D01*
X6966200Y-10986523D02*
X6918580Y-10938904D01*
X6918580Y-10938904D02*
X6823342Y-10891285D01*
X6823342Y-10891285D02*
X6632866Y-10891285D01*
X6632866Y-10891285D02*
X6537628Y-10938904D01*
X6537628Y-10938904D02*
X6490009Y-10986523D01*
X6490009Y-10986523D02*
X6442390Y-11081761D01*
X8545180Y333333D02*
X7830895Y333333D01*
X7830895Y333333D02*
X7688038Y380952D01*
X7688038Y380952D02*
X7592800Y476190D01*
X7592800Y476190D02*
X7545180Y619047D01*
X7545180Y619047D02*
X7545180Y714285D01*
X8545180Y-47619D02*
X8545180Y-714285D01*
X8545180Y-714285D02*
X7545180Y-285714D01*
X43281905Y24020180D02*
X43281905Y25020180D01*
X43281905Y25020180D02*
X43520000Y25020180D01*
X43520000Y25020180D02*
X43662857Y24972561D01*
X43662857Y24972561D02*
X43758095Y24877323D01*
X43758095Y24877323D02*
X43805714Y24782085D01*
X43805714Y24782085D02*
X43853333Y24591609D01*
X43853333Y24591609D02*
X43853333Y24448752D01*
X43853333Y24448752D02*
X43805714Y24258276D01*
X43805714Y24258276D02*
X43758095Y24163038D01*
X43758095Y24163038D02*
X43662857Y24067800D01*
X43662857Y24067800D02*
X43520000Y24020180D01*
X43520000Y24020180D02*
X43281905Y24020180D01*
X44758095Y25020180D02*
X44281905Y25020180D01*
X44281905Y25020180D02*
X44234286Y24543990D01*
X44234286Y24543990D02*
X44281905Y24591609D01*
X44281905Y24591609D02*
X44377143Y24639228D01*
X44377143Y24639228D02*
X44615238Y24639228D01*
X44615238Y24639228D02*
X44710476Y24591609D01*
X44710476Y24591609D02*
X44758095Y24543990D01*
X44758095Y24543990D02*
X44805714Y24448752D01*
X44805714Y24448752D02*
X44805714Y24210657D01*
X44805714Y24210657D02*
X44758095Y24115419D01*
X44758095Y24115419D02*
X44710476Y24067800D01*
X44710476Y24067800D02*
X44615238Y24020180D01*
X44615238Y24020180D02*
X44377143Y24020180D01*
X44377143Y24020180D02*
X44281905Y24067800D01*
X44281905Y24067800D02*
X44234286Y24115419D01*
X16261905Y6545180D02*
X16261905Y7545180D01*
X16261905Y7545180D02*
X16500000Y7545180D01*
X16500000Y7545180D02*
X16642857Y7497561D01*
X16642857Y7497561D02*
X16738095Y7402323D01*
X16738095Y7402323D02*
X16785714Y7307085D01*
X16785714Y7307085D02*
X16833333Y7116609D01*
X16833333Y7116609D02*
X16833333Y6973752D01*
X16833333Y6973752D02*
X16785714Y6783276D01*
X16785714Y6783276D02*
X16738095Y6688038D01*
X16738095Y6688038D02*
X16642857Y6592800D01*
X16642857Y6592800D02*
X16500000Y6545180D01*
X16500000Y6545180D02*
X16261905Y6545180D01*
X17166667Y7545180D02*
X17785714Y7545180D01*
X17785714Y7545180D02*
X17452381Y7164228D01*
X17452381Y7164228D02*
X17595238Y7164228D01*
X17595238Y7164228D02*
X17690476Y7116609D01*
X17690476Y7116609D02*
X17738095Y7068990D01*
X17738095Y7068990D02*
X17785714Y6973752D01*
X17785714Y6973752D02*
X17785714Y6735657D01*
X17785714Y6735657D02*
X17738095Y6640419D01*
X17738095Y6640419D02*
X17690476Y6592800D01*
X17690476Y6592800D02*
X17595238Y6545180D01*
X17595238Y6545180D02*
X17309524Y6545180D01*
X17309524Y6545180D02*
X17214286Y6592800D01*
X17214286Y6592800D02*
X17166667Y6640419D01*
X16238095Y5545180D02*
X16238095Y4735657D01*
X16238095Y4735657D02*
X16285714Y4640419D01*
X16285714Y4640419D02*
X16333333Y4592800D01*
X16333333Y4592800D02*
X16428571Y4545180D01*
X16428571Y4545180D02*
X16619047Y4545180D01*
X16619047Y4545180D02*
X16714285Y4592800D01*
X16714285Y4592800D02*
X16761904Y4640419D01*
X16761904Y4640419D02*
X16809523Y4735657D01*
X16809523Y4735657D02*
X16809523Y5545180D01*
X17809523Y4545180D02*
X17238095Y4545180D01*
X17523809Y4545180D02*
X17523809Y5545180D01*
X17523809Y5545180D02*
X17428571Y5402323D01*
X17428571Y5402323D02*
X17333333Y5307085D01*
X17333333Y5307085D02*
X17238095Y5259466D01*
X1933819Y-12573857D02*
X1457628Y-12907190D01*
X1933819Y-13145285D02*
X933819Y-13145285D01*
X933819Y-13145285D02*
X933819Y-12764333D01*
X933819Y-12764333D02*
X981438Y-12669095D01*
X981438Y-12669095D02*
X1029057Y-12621476D01*
X1029057Y-12621476D02*
X1124295Y-12573857D01*
X1124295Y-12573857D02*
X1267152Y-12573857D01*
X1267152Y-12573857D02*
X1362390Y-12621476D01*
X1362390Y-12621476D02*
X1410009Y-12669095D01*
X1410009Y-12669095D02*
X1457628Y-12764333D01*
X1457628Y-12764333D02*
X1457628Y-13145285D01*
X1933819Y-11621476D02*
X1933819Y-12192904D01*
X1933819Y-11907190D02*
X933819Y-11907190D01*
X933819Y-11907190D02*
X1076676Y-12002428D01*
X1076676Y-12002428D02*
X1171914Y-12097666D01*
X1171914Y-12097666D02*
X1219533Y-12192904D01*
X933819Y-11002428D02*
X933819Y-10907190D01*
X933819Y-10907190D02*
X981438Y-10811952D01*
X981438Y-10811952D02*
X1029057Y-10764333D01*
X1029057Y-10764333D02*
X1124295Y-10716714D01*
X1124295Y-10716714D02*
X1314771Y-10669095D01*
X1314771Y-10669095D02*
X1552866Y-10669095D01*
X1552866Y-10669095D02*
X1743342Y-10716714D01*
X1743342Y-10716714D02*
X1838580Y-10764333D01*
X1838580Y-10764333D02*
X1886200Y-10811952D01*
X1886200Y-10811952D02*
X1933819Y-10907190D01*
X1933819Y-10907190D02*
X1933819Y-11002428D01*
X1933819Y-11002428D02*
X1886200Y-11097666D01*
X1886200Y-11097666D02*
X1838580Y-11145285D01*
X1838580Y-11145285D02*
X1743342Y-11192904D01*
X1743342Y-11192904D02*
X1552866Y-11240523D01*
X1552866Y-11240523D02*
X1314771Y-11240523D01*
X1314771Y-11240523D02*
X1124295Y-11192904D01*
X1124295Y-11192904D02*
X1029057Y-11145285D01*
X1029057Y-11145285D02*
X981438Y-11097666D01*
X981438Y-11097666D02*
X933819Y-11002428D01*
X9094819Y-31338333D02*
X9809104Y-31338333D01*
X9809104Y-31338333D02*
X9951961Y-31385952D01*
X9951961Y-31385952D02*
X10047200Y-31481190D01*
X10047200Y-31481190D02*
X10094819Y-31624047D01*
X10094819Y-31624047D02*
X10094819Y-31719285D01*
X10094819Y-30338333D02*
X10094819Y-30909761D01*
X10094819Y-30624047D02*
X9094819Y-30624047D01*
X9094819Y-30624047D02*
X9237676Y-30719285D01*
X9237676Y-30719285D02*
X9332914Y-30814523D01*
X9332914Y-30814523D02*
X9380533Y-30909761D01*
D12*
%TO.C,D2*%
X32444942Y0D02*
X32939916Y-494975D01*
X32939916Y494975D02*
X32444942Y0D01*
X42005025Y9560084D02*
X42500000Y10055058D01*
X42500000Y10055058D02*
X42994975Y9560084D01*
X42500000Y-10055058D02*
X42005025Y-9560084D01*
X42994975Y-9560084D02*
X42500000Y-10055058D01*
X52060084Y-494975D02*
X52555058Y0D01*
X52555058Y0D02*
X52060084Y494975D01*
X32496207Y-938684D02*
X31923450Y-846760D01*
X32404283Y-365928D01*
X32496207Y-938684D01*
G36*
X32496207Y-938684D02*
G01*
X31923450Y-846760D01*
X32404283Y-365928D01*
X32496207Y-938684D01*
G37*
%TO.C,JTAG*%
X1500000Y14700000D02*
X1500000Y30160000D01*
X4150000Y17350000D02*
X4150000Y14700000D01*
X4150000Y14700000D02*
X1500000Y14700000D01*
X6800000Y30160000D02*
X1500000Y30160000D01*
X6800000Y17350000D02*
X4150000Y17350000D01*
X6800000Y17350000D02*
X6800000Y30160000D01*
X6800000Y16080000D02*
X6800000Y14700000D01*
X6800000Y14700000D02*
X5420000Y14700000D01*
%TO.C,C7*%
X3265000Y-8276248D02*
X3265000Y-8798752D01*
X4735000Y-8276248D02*
X4735000Y-8798752D01*
%TO.C,R16*%
X8765000Y6772936D02*
X8765000Y7227064D01*
X10235000Y6772936D02*
X10235000Y7227064D01*
%TO.C,D4*%
X3540000Y10135000D02*
X3540000Y7865000D01*
X3540000Y7865000D02*
X7600000Y7865000D01*
X7600000Y10135000D02*
X3540000Y10135000D01*
%TO.C,R9*%
X10052064Y-1015000D02*
X9597936Y-1015000D01*
X10052064Y-2485000D02*
X9597936Y-2485000D01*
%TO.C,R15*%
X76727064Y-13830000D02*
X76272936Y-13830000D01*
X76727064Y-15300000D02*
X76272936Y-15300000D01*
%TO.C,R8*%
X10052064Y1960000D02*
X9597936Y1960000D01*
X10052064Y490000D02*
X9597936Y490000D01*
%TO.C,R1*%
X76272936Y-11290000D02*
X76727064Y-11290000D01*
X76272936Y-12760000D02*
X76727064Y-12760000D01*
%TO.C,J2*%
X10640000Y33645000D02*
X74360000Y33645000D01*
X10640000Y30995000D02*
X10640000Y33645000D01*
X10640000Y28345000D02*
X10640000Y29725000D01*
X12020000Y28345000D02*
X10640000Y28345000D01*
X13290000Y30995000D02*
X10640000Y30995000D01*
X13290000Y28345000D02*
X13290000Y30995000D01*
X13290000Y28345000D02*
X74360000Y28345000D01*
X74360000Y28345000D02*
X74360000Y33645000D01*
%TO.C,SERVEN*%
X71320000Y-10645000D02*
X71320000Y-15945000D01*
X71430000Y-10645000D02*
X71320000Y-10645000D01*
X71430000Y-10645000D02*
X71430000Y-13295000D01*
X71430000Y-13295000D02*
X74080000Y-13295000D01*
X72700000Y-10645000D02*
X74080000Y-10645000D01*
X74080000Y-10645000D02*
X74080000Y-12025000D01*
X74080000Y-13295000D02*
X74080000Y-15945000D01*
X74080000Y-15945000D02*
X71320000Y-15945000D01*
%TO.C,C8*%
X5765000Y-8276248D02*
X5765000Y-8798752D01*
X7235000Y-8276248D02*
X7235000Y-8798752D01*
%TO.C,J7*%
X5540000Y4600000D02*
X3910000Y4600000D01*
X5540000Y-4600000D02*
X3910000Y-4600000D01*
%TO.C,D5*%
X41365000Y27558000D02*
X41365000Y25288000D01*
X41365000Y25288000D02*
X45425000Y25288000D01*
X45425000Y27558000D02*
X41365000Y27558000D01*
%TO.C,D3*%
X14250000Y7890000D02*
X21660000Y7890000D01*
X21660000Y10110000D02*
X14250000Y10110000D01*
X21660000Y7890000D02*
X21660000Y10110000D01*
%TO.C,U1*%
X15150000Y3910000D02*
X18910000Y3910000D01*
X15150000Y-2910000D02*
X18910000Y-2910000D01*
X18910000Y3910000D02*
X18910000Y2650000D01*
X18910000Y-2910000D02*
X18910000Y-1650000D01*
X13870000Y3810000D02*
X13630000Y4140000D01*
X14110000Y4140000D01*
X13870000Y3810000D01*
G36*
X13870000Y3810000D02*
G01*
X13630000Y4140000D01*
X14110000Y4140000D01*
X13870000Y3810000D01*
G37*
%TO.C,R10*%
X765000Y-8727064D02*
X765000Y-8272936D01*
X2235000Y-8727064D02*
X2235000Y-8272936D01*
%TO.C,J1*%
X10640000Y-28355000D02*
X74360000Y-28355000D01*
X10640000Y-31005000D02*
X10640000Y-28355000D01*
X10640000Y-33655000D02*
X10640000Y-32275000D01*
X12020000Y-33655000D02*
X10640000Y-33655000D01*
X13290000Y-31005000D02*
X10640000Y-31005000D01*
X13290000Y-33655000D02*
X13290000Y-31005000D01*
X13290000Y-33655000D02*
X74360000Y-33655000D01*
X74360000Y-33655000D02*
X74360000Y-28355000D01*
%TD*%
M02*
