%TF.GenerationSoftware,KiCad,Pcbnew,9.0.1*%
%TF.CreationDate,2025-04-22T02:33:50+03:00*%
%TF.ProjectId,k1921vg015_devboard,6b313932-3176-4673-9031-355f64657662,rev?*%
%TF.SameCoordinates,Original*%
%TF.FileFunction,Soldermask,Bot*%
%TF.FilePolarity,Negative*%
%FSLAX46Y46*%
G04 Gerber Fmt 4.6, Leading zero omitted, Abs format (unit mm)*
G04 Created by KiCad (PCBNEW 9.0.1) date 2025-04-22 02:33:50*
%MOMM*%
%LPD*%
G01*
G04 APERTURE LIST*
G04 Aperture macros list*
%AMRoundRect*
0 Rectangle with rounded corners*
0 $1 Rounding radius*
0 $2 $3 $4 $5 $6 $7 $8 $9 X,Y pos of 4 corners*
0 Add a 4 corners polygon primitive as box body*
4,1,4,$2,$3,$4,$5,$6,$7,$8,$9,$2,$3,0*
0 Add four circle primitives for the rounded corners*
1,1,$1+$1,$2,$3*
1,1,$1+$1,$4,$5*
1,1,$1+$1,$6,$7*
1,1,$1+$1,$8,$9*
0 Add four rect primitives between the rounded corners*
20,1,$1+$1,$2,$3,$4,$5,0*
20,1,$1+$1,$4,$5,$6,$7,0*
20,1,$1+$1,$6,$7,$8,$9,0*
20,1,$1+$1,$8,$9,$2,$3,0*%
%AMRotRect*
0 Rectangle, with rotation*
0 The origin of the aperture is its center*
0 $1 length*
0 $2 width*
0 $3 Rotation angle, in degrees counterclockwise*
0 Add horizontal line*
21,1,$1,$2,0,0,$3*%
%AMFreePoly0*
4,1,7,0.500000,-0.850000,-0.500000,-0.850000,-0.500000,0.150000,-1.800000,0.150000,-1.800000,0.850000,0.500000,0.850000,0.500000,-0.850000,0.500000,-0.850000,$1*%
%AMFreePoly1*
4,1,7,1.800000,0.150000,0.500000,0.150000,0.500000,-0.850000,-0.500000,-0.850000,-0.500000,0.850000,1.800000,0.850000,1.800000,0.150000,1.800000,0.150000,$1*%
G04 Aperture macros list end*
%ADD10R,1.700000X1.700000*%
%ADD11C,1.700000*%
%ADD12RoundRect,0.250000X0.350000X0.450000X-0.350000X0.450000X-0.350000X-0.450000X0.350000X-0.450000X0*%
%ADD13RoundRect,0.250000X-0.337500X-0.475000X0.337500X-0.475000X0.337500X0.475000X-0.337500X0.475000X0*%
%ADD14RoundRect,0.250000X-0.475000X0.337500X-0.475000X-0.337500X0.475000X-0.337500X0.475000X0.337500X0*%
%ADD15RoundRect,0.250000X0.337500X0.475000X-0.337500X0.475000X-0.337500X-0.475000X0.337500X-0.475000X0*%
%ADD16RoundRect,0.250000X-0.097227X0.574524X-0.574524X0.097227X0.097227X-0.574524X0.574524X-0.097227X0*%
%ADD17RoundRect,0.250000X0.475000X-0.337500X0.475000X0.337500X-0.475000X0.337500X-0.475000X-0.337500X0*%
%ADD18RoundRect,0.250000X0.574524X0.097227X0.097227X0.574524X-0.574524X-0.097227X-0.097227X-0.574524X0*%
%ADD19RotRect,1.050000X1.200000X225.000000*%
%ADD20R,3.510000X2.540000*%
%ADD21RoundRect,0.250000X0.450000X-0.350000X0.450000X0.350000X-0.450000X0.350000X-0.450000X-0.350000X0*%
%ADD22R,1.950000X1.650000*%
%ADD23FreePoly0,270.000000*%
%ADD24FreePoly1,270.000000*%
%ADD25FreePoly0,90.000000*%
%ADD26FreePoly1,90.000000*%
%ADD27RoundRect,0.150000X0.587500X0.150000X-0.587500X0.150000X-0.587500X-0.150000X0.587500X-0.150000X0*%
%ADD28RoundRect,0.250000X-0.350000X-0.450000X0.350000X-0.450000X0.350000X0.450000X-0.350000X0.450000X0*%
%ADD29RoundRect,0.250000X-0.565685X-0.070711X-0.070711X-0.565685X0.565685X0.070711X0.070711X0.565685X0*%
G04 APERTURE END LIST*
D10*
%TO.C,JTAG*%
X5420000Y16080000D03*
D11*
X2880000Y16080000D03*
X5420000Y18620000D03*
X2880000Y18620000D03*
X5420000Y21160000D03*
X2880000Y21160000D03*
X5420000Y23700000D03*
X2880000Y23700000D03*
X5420000Y26240000D03*
X2880000Y26240000D03*
X5420000Y28780000D03*
X2880000Y28780000D03*
%TD*%
D10*
%TO.C,J2*%
X12020000Y29725000D03*
D11*
X12020000Y32265000D03*
X14560000Y29725000D03*
X14560000Y32265000D03*
X17100000Y29725000D03*
X17100000Y32265000D03*
X19640000Y29725000D03*
X19640000Y32265000D03*
X22180000Y29725000D03*
X22180000Y32265000D03*
X24720000Y29725000D03*
X24720000Y32265000D03*
X27260000Y29725000D03*
X27260000Y32265000D03*
X29800000Y29725000D03*
X29800000Y32265000D03*
X32340000Y29725000D03*
X32340000Y32265000D03*
X34880000Y29725000D03*
X34880000Y32265000D03*
X37420000Y29725000D03*
X37420000Y32265000D03*
X39960000Y29725000D03*
X39960000Y32265000D03*
X42500000Y29725000D03*
X42500000Y32265000D03*
X45040000Y29725000D03*
X45040000Y32265000D03*
X47580000Y29725000D03*
X47580000Y32265000D03*
X50120000Y29725000D03*
X50120000Y32265000D03*
X52660000Y29725000D03*
X52660000Y32265000D03*
X55200000Y29725000D03*
X55200000Y32265000D03*
X57740000Y29725000D03*
X57740000Y32265000D03*
X60280000Y29725000D03*
X60280000Y32265000D03*
X62820000Y29725000D03*
X62820000Y32265000D03*
X65360000Y29725000D03*
X65360000Y32265000D03*
X67900000Y29725000D03*
X67900000Y32265000D03*
X70440000Y29725000D03*
X70440000Y32265000D03*
X72980000Y29725000D03*
X72980000Y32265000D03*
%TD*%
D10*
%TO.C,SERVEN*%
X72700000Y-12025000D03*
D11*
X72700000Y-14565000D03*
%TD*%
D10*
%TO.C,J1*%
X12020000Y-32275000D03*
D11*
X12020000Y-29735000D03*
X14560000Y-32275000D03*
X14560000Y-29735000D03*
X17100000Y-32275000D03*
X17100000Y-29735000D03*
X19640000Y-32275000D03*
X19640000Y-29735000D03*
X22180000Y-32275000D03*
X22180000Y-29735000D03*
X24720000Y-32275000D03*
X24720000Y-29735000D03*
X27260000Y-32275000D03*
X27260000Y-29735000D03*
X29800000Y-32275000D03*
X29800000Y-29735000D03*
X32340000Y-32275000D03*
X32340000Y-29735000D03*
X34880000Y-32275000D03*
X34880000Y-29735000D03*
X37420000Y-32275000D03*
X37420000Y-29735000D03*
X39960000Y-32275000D03*
X39960000Y-29735000D03*
X42500000Y-32275000D03*
X42500000Y-29735000D03*
X45040000Y-32275000D03*
X45040000Y-29735000D03*
X47580000Y-32275000D03*
X47580000Y-29735000D03*
X50120000Y-32275000D03*
X50120000Y-29735000D03*
X52660000Y-32275000D03*
X52660000Y-29735000D03*
X55200000Y-32275000D03*
X55200000Y-29735000D03*
X57740000Y-32275000D03*
X57740000Y-29735000D03*
X60280000Y-32275000D03*
X60280000Y-29735000D03*
X62820000Y-32275000D03*
X62820000Y-29735000D03*
X65360000Y-32275000D03*
X65360000Y-29735000D03*
X67900000Y-32275000D03*
X67900000Y-29735000D03*
X70440000Y-32275000D03*
X70440000Y-29735000D03*
X72980000Y-32275000D03*
X72980000Y-29735000D03*
%TD*%
D12*
%TO.C,R17*%
X47437000Y26423000D03*
X45437000Y26423000D03*
%TD*%
D13*
%TO.C,C4*%
X39500000Y-4700000D03*
X41575000Y-4700000D03*
%TD*%
D14*
%TO.C,C2*%
X36000000Y-8362500D03*
X36000000Y-10437500D03*
%TD*%
D15*
%TO.C,C10*%
X47030000Y7025000D03*
X44955000Y7025000D03*
%TD*%
D16*
%TO.C,C14*%
X30533623Y-13199977D03*
X29066377Y-14667223D03*
%TD*%
D17*
%TO.C,C6*%
X13750000Y750000D03*
X13750000Y2825000D03*
%TD*%
D14*
%TO.C,C1*%
X38000000Y-9862500D03*
X38000000Y-11937500D03*
%TD*%
%TO.C,C3*%
X41400000Y-12162500D03*
X41400000Y-14237500D03*
%TD*%
D18*
%TO.C,C17*%
X31233623Y7266377D03*
X29766377Y8733623D03*
%TD*%
D12*
%TO.C,R7*%
X10600000Y25850000D03*
X8600000Y25850000D03*
%TD*%
D19*
%TO.C,Y2*%
X32474363Y5181963D03*
X31307637Y4015237D03*
%TD*%
D18*
%TO.C,C18*%
X29233623Y5266377D03*
X27766377Y6733623D03*
%TD*%
D12*
%TO.C,R2*%
X10600000Y18230000D03*
X8600000Y18230000D03*
%TD*%
%TO.C,R6*%
X10600000Y20770000D03*
X8600000Y20770000D03*
%TD*%
D16*
%TO.C,C15*%
X26233623Y-8516377D03*
X24766377Y-9983623D03*
%TD*%
D20*
%TO.C,BT1*%
X63000000Y-14680000D03*
X63000000Y14680000D03*
%TD*%
D21*
%TO.C,R12*%
X37250000Y3750000D03*
X37250000Y5750000D03*
%TD*%
D22*
%TO.C,Y3*%
X33033700Y-9112799D03*
X30283700Y-9112801D03*
X30283700Y-6912801D03*
X33033700Y-6912799D03*
%TD*%
D12*
%TO.C,R3*%
X10600000Y15690000D03*
X8600000Y15690000D03*
%TD*%
%TO.C,R5*%
X10600000Y13150000D03*
X8600000Y13150000D03*
%TD*%
D14*
%TO.C,C5*%
X16250000Y1250000D03*
X16250000Y-825000D03*
%TD*%
D23*
%TO.C,L1*%
X47250000Y3700000D03*
D24*
X47250000Y1800000D03*
D25*
X44250000Y1800000D03*
D26*
X44250000Y3700000D03*
%TD*%
D12*
%TO.C,R13*%
X46250000Y-2250000D03*
X44250000Y-2250000D03*
%TD*%
D27*
%TO.C,U2*%
X41500000Y3450000D03*
X41500000Y1550000D03*
X39625000Y2500000D03*
%TD*%
D28*
%TO.C,R11*%
X39500000Y5500000D03*
X41500000Y5500000D03*
%TD*%
D17*
%TO.C,C11*%
X55275000Y-14680000D03*
X55275000Y-12605000D03*
%TD*%
D15*
%TO.C,C9*%
X47030000Y9175000D03*
X44955000Y9175000D03*
%TD*%
%TO.C,C13*%
X41500000Y-750000D03*
X39425000Y-750000D03*
%TD*%
D27*
%TO.C,D1*%
X53087500Y-14680000D03*
X53087500Y-16580000D03*
X51212500Y-15630000D03*
%TD*%
D29*
%TO.C,R14*%
X27692893Y-10292893D03*
X29107107Y-11707107D03*
%TD*%
D15*
%TO.C,C12*%
X53087500Y-12600000D03*
X51012500Y-12600000D03*
%TD*%
D12*
%TO.C,R4*%
X10600000Y23310000D03*
X8600000Y23310000D03*
%TD*%
M02*
